0
SECTION
2
HEADER
9
$INSUNITS
70
4
0
ENDSEC
0
SECTION
2
TABLES
0
TABLE
2
LTYPE
0
LTYPE
72
65
70
0
2
CONTINUOUS
3
______
73
0
40
0
0
LTYPE
72
65
70
0
2
DASHED
3
_ _ _ 
73
2
40
7.5
49
5
49
-2.5
0
LTYPE
72
65
70
0
2
DOTTED
3
. . . 
73
2
40
1.5
49
0.5
49
-1
0
ENDTAB
0
TABLE
2
LAYER
0
ENDTAB
0
ENDSEC
0
SECTION
2
ENTITIES
0
LINE
8
0
6
CONTINUOUS
10
91.0819822
20
-108.7400178
11
91.0800178
21
-53.4900046
0
LINE
8
0
6
CONTINUOUS
10
91.5800046
20
-52.9899868
11
128.5800131
21
-52.9890132
0
LINE
8
0
6
CONTINUOUS
10
129.08
20
-52.4890132
11
129.08
21
-48.74
0
LINE
8
0
6
CONTINUOUS
10
129.58
20
-48.24
11
147.58
21
-48.24
0
LINE
8
0
6
CONTINUOUS
10
148.08
20
-47.74
11
148.08
21
-46.488
0
LINE
8
0
6
CONTINUOUS
10
148.58
20
-45.988
11
165.582
21
-45.988
0
LINE
8
0
6
CONTINUOUS
10
166.082
20
-46.488
11
166.082
21
-47.74
0
LINE
8
0
6
CONTINUOUS
10
166.582
20
-48.24
11
184.582
21
-48.24
0
LINE
8
0
6
CONTINUOUS
10
185.082
20
-48.74
11
185.082
21
-50.238
0
LINE
8
0
6
CONTINUOUS
10
185.582
20
-50.738
11
203.5822219
21
-50.738
0
LINE
8
0
6
CONTINUOUS
10
204.0822219
20
-51.237778
11
204.083
21
-52.99
0
LINE
8
0
6
CONTINUOUS
10
204.083
20
-52.990222
11
204.083
21
-101.9097681
0
LINE
8
0
6
CONTINUOUS
10
204.333
20
-102.3427808
11
224.0850038
21
-113.7466055
0
LINE
8
0
6
CONTINUOUS
10
224.268026
20
-114.4296017
11
210.9735319
21
-137.4583675
0
LINE
8
0
6
CONTINUOUS
10
210.2905097
20
-137.6413967
11
195.1236421
21
-128.8848015
0
LINE
8
0
6
CONTINUOUS
10
194.9382671
20
-128.8220082
11
157.7729681
21
-123.977759
0
LINE
8
0
6
CONTINUOUS
10
157.4335103
20
-123.7764307
11
146.9897756
21
-109.4455223
0
LINE
8
0
6
CONTINUOUS
10
146.5856928
20
-109.24
11
91.5819822
21
-109.24
0
ARC
8
0
6
CONTINUOUS
10
91.5800178
20
-53.4899868
40
0.5
50
90.0015069
51
180.0020398
0
ARC
8
0
6
CONTINUOUS
10
128.58
20
-52.4890132
40
0.5
50
270.0015069
51
0
0
ARC
8
0
6
CONTINUOUS
10
129.58
20
-48.74
40
0.5
50
90
51
180
0
ARC
8
0
6
CONTINUOUS
10
147.58
20
-47.74
40
0.5
50
270
51
0
0
ARC
8
0
6
CONTINUOUS
10
148.58
20
-46.488
40
0.5
50
90
51
180
0
ARC
8
0
6
CONTINUOUS
10
165.582
20
-46.488
40
0.5
50
0
51
90
0
ARC
8
0
6
CONTINUOUS
10
166.582
20
-47.74
40
0.5
50
180
51
270
0
ARC
8
0
6
CONTINUOUS
10
184.582
20
-48.74
40
0.5
50
0
51
90
0
ARC
8
0
6
CONTINUOUS
10
185.582
20
-50.238
40
0.5
50
180
51
270
0
ARC
8
0
6
CONTINUOUS
10
203.5822219
20
-51.238
40
0.5
50
0.0254393
51
90
0
ARC
8
0
6
CONTINUOUS
10
203.583
20
-52.990222
40
0.5
50
0
51
0.0254393
0
ARC
8
0
6
CONTINUOUS
10
204.583
20
-101.9097681
40
0.5
50
180
51
239.9999999
0
ARC
8
0
6
CONTINUOUS
10
223.8350038
20
-114.1796182
40
0.5
50
330.0021845
51
59.9999999
0
ARC
8
0
6
CONTINUOUS
10
210.5405097
20
-137.208384
40
0.5
50
239.9999999
51
330.0021845
0
ARC
8
0
6
CONTINUOUS
10
194.8736421
20
-129.3178142
40
0.5
50
59.9999999
51
82.5737449
0
ARC
8
0
6
CONTINUOUS
10
157.8375931
20
-123.481953
40
0.5
50
216.0829165
51
262.5737449
0
ARC
8
0
6
CONTINUOUS
10
146.5856928
20
-109.74
40
0.5
50
36.0829165
51
90
0
ARC
8
0
6
CONTINUOUS
10
91.5819822
20
-108.74
40
0.5
50
180.0020397
51
270
0
LINE
8
0
6
CONTINUOUS
10
93.1
20
-106.9
11
106.9
21
-106.9
0
LINE
8
0
6
CONTINUOUS
10
106.9
20
-106.9
11
106.9
21
-93.1
0
LINE
8
0
6
CONTINUOUS
10
106.9
20
-93.1
11
93.1
21
-93.1
0
LINE
8
0
6
CONTINUOUS
10
93.1
20
-93.1
11
93.1
21
-106.9
0
LINE
8
0
6
CONTINUOUS
10
93.1
20
-87.9
11
106.9
21
-87.9
0
LINE
8
0
6
CONTINUOUS
10
106.9
20
-87.9
11
106.9
21
-74.1
0
LINE
8
0
6
CONTINUOUS
10
106.9
20
-74.1
11
93.1
21
-74.1
0
LINE
8
0
6
CONTINUOUS
10
93.1
20
-74.1
11
93.1
21
-87.9
0
LINE
8
0
6
CONTINUOUS
10
93.1
20
-68.9
11
106.9
21
-68.9
0
LINE
8
0
6
CONTINUOUS
10
106.9
20
-68.9
11
106.9
21
-55.1
0
LINE
8
0
6
CONTINUOUS
10
106.9
20
-55.1
11
93.1
21
-55.1
0
LINE
8
0
6
CONTINUOUS
10
93.1
20
-55.1
11
93.1
21
-68.9
0
LINE
8
0
6
CONTINUOUS
10
112.1
20
-106.9
11
125.9
21
-106.9
0
LINE
8
0
6
CONTINUOUS
10
125.9
20
-106.9
11
125.9
21
-93.1
0
LINE
8
0
6
CONTINUOUS
10
125.9
20
-93.1
11
112.1
21
-93.1
0
LINE
8
0
6
CONTINUOUS
10
112.1
20
-93.1
11
112.1
21
-106.9
0
LINE
8
0
6
CONTINUOUS
10
112.1
20
-87.9
11
125.9
21
-87.9
0
LINE
8
0
6
CONTINUOUS
10
125.9
20
-87.9
11
125.9
21
-74.1
0
LINE
8
0
6
CONTINUOUS
10
125.9
20
-74.1
11
112.1
21
-74.1
0
LINE
8
0
6
CONTINUOUS
10
112.1
20
-74.1
11
112.1
21
-87.9
0
LINE
8
0
6
CONTINUOUS
10
112.1
20
-68.9
11
125.9
21
-68.9
0
LINE
8
0
6
CONTINUOUS
10
125.9
20
-68.9
11
125.9
21
-55.1
0
LINE
8
0
6
CONTINUOUS
10
125.9
20
-55.1
11
112.1
21
-55.1
0
LINE
8
0
6
CONTINUOUS
10
112.1
20
-55.1
11
112.1
21
-68.9
0
LINE
8
0
6
CONTINUOUS
10
131.1
20
-102.15
11
144.9
21
-102.15
0
LINE
8
0
6
CONTINUOUS
10
144.9
20
-102.15
11
144.9
21
-88.35
0
LINE
8
0
6
CONTINUOUS
10
144.9
20
-88.35
11
131.1
21
-88.35
0
LINE
8
0
6
CONTINUOUS
10
131.1
20
-88.35
11
131.1
21
-102.15
0
LINE
8
0
6
CONTINUOUS
10
131.1
20
-83.15
11
144.9
21
-83.15
0
LINE
8
0
6
CONTINUOUS
10
144.9
20
-83.15
11
144.9
21
-69.35
0
LINE
8
0
6
CONTINUOUS
10
144.9
20
-69.35
11
131.1
21
-69.35
0
LINE
8
0
6
CONTINUOUS
10
131.1
20
-69.35
11
131.1
21
-83.15
0
LINE
8
0
6
CONTINUOUS
10
131.1
20
-64.15
11
144.9
21
-64.15
0
LINE
8
0
6
CONTINUOUS
10
144.9
20
-64.15
11
144.9
21
-50.35
0
LINE
8
0
6
CONTINUOUS
10
144.9
20
-50.35
11
131.1
21
-50.35
0
LINE
8
0
6
CONTINUOUS
10
131.1
20
-50.35
11
131.1
21
-64.15
0
LINE
8
0
6
CONTINUOUS
10
150.1
20
-99.775
11
163.9
21
-99.775
0
LINE
8
0
6
CONTINUOUS
10
163.9
20
-99.775
11
163.9
21
-85.975
0
LINE
8
0
6
CONTINUOUS
10
163.9
20
-85.975
11
150.1
21
-85.975
0
LINE
8
0
6
CONTINUOUS
10
150.1
20
-85.975
11
150.1
21
-99.775
0
LINE
8
0
6
CONTINUOUS
10
150.1
20
-80.775
11
163.9
21
-80.775
0
LINE
8
0
6
CONTINUOUS
10
163.9
20
-80.775
11
163.9
21
-66.975
0
LINE
8
0
6
CONTINUOUS
10
163.9
20
-66.975
11
150.1
21
-66.975
0
LINE
8
0
6
CONTINUOUS
10
150.1
20
-66.975
11
150.1
21
-80.775
0
LINE
8
0
6
CONTINUOUS
10
150.1
20
-61.775
11
163.9
21
-61.775
0
LINE
8
0
6
CONTINUOUS
10
163.9
20
-61.775
11
163.9
21
-47.975
0
LINE
8
0
6
CONTINUOUS
10
163.9
20
-47.975
11
150.1
21
-47.975
0
LINE
8
0
6
CONTINUOUS
10
150.1
20
-47.975
11
150.1
21
-61.775
0
LINE
8
0
6
CONTINUOUS
10
169.1
20
-102.15
11
182.9
21
-102.15
0
LINE
8
0
6
CONTINUOUS
10
182.9
20
-102.15
11
182.9
21
-88.35
0
LINE
8
0
6
CONTINUOUS
10
182.9
20
-88.35
11
169.1
21
-88.35
0
LINE
8
0
6
CONTINUOUS
10
169.1
20
-88.35
11
169.1
21
-102.15
0
LINE
8
0
6
CONTINUOUS
10
169.1
20
-83.15
11
182.9
21
-83.15
0
LINE
8
0
6
CONTINUOUS
10
182.9
20
-83.15
11
182.9
21
-69.35
0
LINE
8
0
6
CONTINUOUS
10
182.9
20
-69.35
11
169.1
21
-69.35
0
LINE
8
0
6
CONTINUOUS
10
169.1
20
-69.35
11
169.1
21
-83.15
0
LINE
8
0
6
CONTINUOUS
10
169.1
20
-64.15
11
182.9
21
-64.15
0
LINE
8
0
6
CONTINUOUS
10
182.9
20
-64.15
11
182.9
21
-50.35
0
LINE
8
0
6
CONTINUOUS
10
182.9
20
-50.35
11
169.1
21
-50.35
0
LINE
8
0
6
CONTINUOUS
10
169.1
20
-50.35
11
169.1
21
-64.15
0
LINE
8
0
6
CONTINUOUS
10
188.1
20
-104.525
11
201.9
21
-104.525
0
LINE
8
0
6
CONTINUOUS
10
201.9
20
-104.525
11
201.9
21
-90.725
0
LINE
8
0
6
CONTINUOUS
10
201.9
20
-90.725
11
188.1
21
-90.725
0
LINE
8
0
6
CONTINUOUS
10
188.1
20
-90.725
11
188.1
21
-104.525
0
LINE
8
0
6
CONTINUOUS
10
188.1
20
-85.525
11
201.9
21
-85.525
0
LINE
8
0
6
CONTINUOUS
10
201.9
20
-85.525
11
201.9
21
-71.725
0
LINE
8
0
6
CONTINUOUS
10
201.9
20
-71.725
11
188.1
21
-71.725
0
LINE
8
0
6
CONTINUOUS
10
188.1
20
-71.725
11
188.1
21
-85.525
0
LINE
8
0
6
CONTINUOUS
10
188.1
20
-66.525
11
201.9
21
-66.525
0
LINE
8
0
6
CONTINUOUS
10
201.9
20
-66.525
11
201.9
21
-52.725
0
LINE
8
0
6
CONTINUOUS
10
201.9
20
-52.725
11
188.1
21
-52.725
0
LINE
8
0
6
CONTINUOUS
10
188.1
20
-52.725
11
188.1
21
-66.525
0
LINE
8
0
6
CONTINUOUS
10
159.6
20
-121.775
11
173.4
21
-121.775
0
LINE
8
0
6
CONTINUOUS
10
173.4
20
-121.775
11
173.4
21
-107.975
0
LINE
8
0
6
CONTINUOUS
10
173.4
20
-107.975
11
159.6
21
-107.975
0
LINE
8
0
6
CONTINUOUS
10
159.6
20
-107.975
11
159.6
21
-121.775
0
LINE
8
0
6
CONTINUOUS
10
179.0492604
20
-122.5040368
11
192.3790368
21
-126.0757396
0
LINE
8
0
6
CONTINUOUS
10
192.3790368
20
-126.0757396
11
195.9507396
21
-112.7459632
0
LINE
8
0
6
CONTINUOUS
10
195.9507396
20
-112.7459632
11
182.6209632
21
-109.1742604
0
LINE
8
0
6
CONTINUOUS
10
182.6209632
20
-109.1742604
11
179.0492604
21
-122.5040368
0
LINE
8
0
6
CONTINUOUS
10
212.2723811
20
-130.8147329
11
219.1723811
21
-118.8635823
0
LINE
8
0
6
CONTINUOUS
10
219.1723811
20
-118.8635823
11
207.2212305
21
-111.9635823
0
LINE
8
0
6
CONTINUOUS
10
207.2212305
20
-111.9635823
11
200.3212305
21
-123.9147329
0
LINE
8
0
6
CONTINUOUS
10
200.3212305
20
-123.9147329
11
212.2723811
21
-130.8147329
0
CIRCLE
8
0
6
CONTINUOUS
10
109.5
20
-71.5
40
1.1
0
CIRCLE
8
0
6
CONTINUOUS
10
109.5
20
-90.5
40
1.1
0
CIRCLE
8
0
6
CONTINUOUS
10
185.468
20
-67.986
40
1.1
0
CIRCLE
8
0
6
CONTINUOUS
10
152.657
20
-107.74
40
1.1
0
CIRCLE
8
0
6
CONTINUOUS
10
199.2410516
20
-115.3236576
40
1.1
0
ENDSEC
0
EOF