<svg width="133.255mm" height="91.72mm" viewBox="0 0 133.255 91.72" xmlns="http://www.w3.org/2000/svg"><g id="svgGroup" stroke-linecap="round" fill-rule="evenodd" font-size="9pt" stroke="#000" stroke-width="0.25mm" fill="none" style="stroke:#000;stroke-width:0.25mm;fill:none"><path d="M 0.002 62.752 L 0 7.502 A 0.5 0.5 0 0 1 0.5 7.002 L 37.5 7.001 A 0.5 0.5 0 0 0 38 6.501 L 38 2.752 A 0.5 0.5 0 0 1 38.5 2.252 L 56.5 2.252 A 0.5 0.5 0 0 0 57 1.752 L 57 0.5 A 0.5 0.5 0 0 1 57.5 0 L 74.502 0 A 0.5 0.5 0 0 1 75.002 0.5 L 75.002 1.752 A 0.5 0.5 0 0 0 75.502 2.252 L 93.502 2.252 A 0.5 0.5 0 0 1 94.002 2.752 L 94.002 4.25 A 0.5 0.5 0 0 0 94.502 4.75 L 112.502 4.75 A 0.5 0.5 0 0 1 113.002 5.25 L 113.003 7.002 L 113.003 55.922 A 0.5 0.5 0 0 0 113.253 56.355 L 133.005 67.759 A 0.5 0.5 0 0 1 133.188 68.442 L 119.894 91.47 A 0.5 0.5 0 0 1 119.21 91.653 L 104.044 82.897 A 0.5 0.5 0 0 0 103.858 82.834 L 66.693 77.99 A 0.5 0.5 0 0 1 66.353 77.788 L 55.91 63.458 A 0.5 0.5 0 0 0 55.506 63.252 L 0.502 63.252 A 0.5 0.5 0 0 1 0.002 62.752 Z M 121.192 84.827 L 109.241 77.927 L 116.141 65.976 L 128.092 72.876 L 121.192 84.827 Z M 59.02 15.787 L 59.02 1.987 L 72.82 1.987 L 72.82 15.787 L 59.02 15.787 Z M 40.02 56.162 L 40.02 42.362 L 53.82 42.362 L 53.82 56.162 L 40.02 56.162 Z M 40.02 37.162 L 40.02 23.362 L 53.82 23.362 L 53.82 37.162 L 40.02 37.162 Z M 40.02 18.162 L 40.02 4.362 L 53.82 4.362 L 53.82 18.162 L 40.02 18.162 Z M 59.02 53.787 L 59.02 39.987 L 72.82 39.987 L 72.82 53.787 L 59.02 53.787 Z M 59.02 34.787 L 59.02 20.987 L 72.82 20.987 L 72.82 34.787 L 59.02 34.787 Z M 78.02 56.162 L 78.02 42.362 L 91.82 42.362 L 91.82 56.162 L 78.02 56.162 Z M 78.02 37.162 L 78.02 23.362 L 91.82 23.362 L 91.82 37.162 L 78.02 37.162 Z M 78.02 18.162 L 78.02 4.362 L 91.82 4.362 L 91.82 18.162 L 78.02 18.162 Z M 97.02 58.537 L 97.02 44.737 L 110.82 44.737 L 110.82 58.537 L 97.02 58.537 Z M 97.02 39.537 L 97.02 25.737 L 110.82 25.737 L 110.82 39.537 L 97.02 39.537 Z M 97.02 20.537 L 97.02 6.737 L 110.82 6.737 L 110.82 20.537 L 97.02 20.537 Z M 68.52 75.787 L 68.52 61.987 L 82.32 61.987 L 82.32 75.787 L 68.52 75.787 Z M 2.02 60.912 L 2.02 47.112 L 15.82 47.112 L 15.82 60.912 L 2.02 60.912 Z M 2.02 41.912 L 2.02 28.112 L 15.82 28.112 L 15.82 41.912 L 2.02 41.912 Z M 2.02 22.912 L 2.02 9.112 L 15.82 9.112 L 15.82 22.912 L 2.02 22.912 Z M 21.02 60.912 L 21.02 47.112 L 34.82 47.112 L 34.82 60.912 L 21.02 60.912 Z M 21.02 41.912 L 21.02 28.112 L 34.82 28.112 L 34.82 41.912 L 21.02 41.912 Z M 21.02 22.912 L 21.02 9.112 L 34.82 9.112 L 34.82 22.912 L 21.02 22.912 Z M 87.969 76.516 L 91.541 63.186 L 104.871 66.758 L 101.299 80.088 L 87.969 76.516 Z M 18.42 25.512 m -1.1 0 a 1.1 1.1 0 0 1 2.2 0 a 1.1 1.1 0 0 1 -2.2 0 z M 18.42 44.512 m -1.1 0 a 1.1 1.1 0 0 1 2.2 0 a 1.1 1.1 0 0 1 -2.2 0 z M 94.388 21.998 m -1.1 0 a 1.1 1.1 0 0 1 2.2 0 a 1.1 1.1 0 0 1 -2.2 0 z M 61.577 61.752 m -1.1 0 a 1.1 1.1 0 0 1 2.2 0 a 1.1 1.1 0 0 1 -2.2 0 z M 108.161 69.336 m -1.1 0 a 1.1 1.1 0 0 1 2.2 0 a 1.1 1.1 0 0 1 -2.2 0 z" vector-effect="non-scaling-stroke"/></g></svg>