<!DOCTYPE svg PUBLIC "-//W3C//DTD SVG 1.1//EN" "http://www.w3.org/Graphics/SVG/1.1/DTD/svg11.dtd">
<svg xmlns="http://www.w3.org/2000/svg" version="1.1" width="135.75299mm" height="93.720384mm" viewBox="9008001.0 4498800.0 13575299.0000025 9372038.40000016">
            <title>Picture generated by PcbDraw </title>
            <desc>Picture generated by PcbDraw</desc>
        <defs><clipPath id="cut-off"><path d=" M 10950000.000000 7150000.000000 m-110000.000000 0 a 110000.000000 110000.000000 0 1 0 220000.0 0 a 110000.000000 110000.000000 0 1 0 -220000.0 0  M 10950000.000000 9050000.000000 m-110000.000000 0 a 110000.000000 110000.000000 0 1 0 220000.0 0 a 110000.000000 110000.000000 0 1 0 -220000.0 0  M 18546800.000000 6798600.000000 m-110000.000000 0 a 110000.000000 110000.000000 0 1 0 220000.0 0 a 110000.000000 110000.000000 0 1 0 -220000.0 0  M 15265700.000000 10774000.000000 m-110000.000000 0 a 110000.000000 110000.000000 0 1 0 220000.0 0 a 110000.000000 110000.000000 0 1 0 -220000.0 0  M 19924105.200000 11532365.800000 m-110000.000000 0 a 110000.000000 110000.000000 0 1 0 220000.0 0 a 110000.000000 110000.000000 0 1 0 -220000.0 0  M 9108001.800032 5349000.5 A 50000 50000 0 0 1 9158000.5 5298998.700017 L 12858001.0 5298901.0 A 50000 50000 0 0 0 12908000.0 5248901.3 L 12908000.0 4874000.0 A 50000 50000 0 0 1 12958000.0 4824000.0 L 14758000.0 4824000.0 A 50000 50000 0 0 0 14808000.0 4774000.0 L 14808000.0 4648800.0 A 50000 50000 0 0 1 14858000.0 4598800.0 L 16558200.0 4598800.0 A 50000 50000 0 0 1 16608200.0 4648800.0 L 16608200.0 4774000.0 A 50000 50000 0 0 0 16658200.0 4824000.0 L 18458100.0 4824000.0 A 50000 50000 0 0 1 18508100.0 4874000.0 L 18508100.0 5023800.0 A 50000 50000 0 0 0 18558100.0 5073800.0 L 20358222.0 5073800.0 A 50000 50000 0 0 1 20408222.195072 5123777.800002 L 20408277.0 5249022.0 A 50000 50000 0 0 0 20458277.8 5299000.0 L 22433300.0 5299000.0 A 50000 50000 0 0 1 22483300.0 5349000.0 L 22483300.0 11331702.0 A 50000 50000 0 0 1 22476601.277642 11356702.487092 L 22451800.0 11399659.0 L 21097353.0 13745836.0 A 50000 50000 0 0 1 21029051.012908 13764139.677642 L 19512364.0 12888480.0 A 49999.9 49999.9 0 0 0 19493826.700147 12882200.898874 L 15777296.0 12397775.0 A 50000 50000 0 0 1 15743351.029367 12377643.078599 L 14698977.0 10944552.0 A 50000 50000 0 0 0 14658569.3 10924000.0 L 9158198.0 10924000.0 A 50000 50000 0 0 1 9108198.200032 10874001.8 L 9108001.0 5349000.0 " style="fill-rule: evenodd;"/></clipPath><mask id="pads-mask"/><mask id="pads-mask-silkscreen"><rect x="9100501.8" y="4591300.0" width="13390298.2" height="9187038.4" fill="white"/></mask><mask id="hole-mask"><g><rect x="9100501.8" y="4591300.0" fill="white" width="13390298.2" height="9187038.4"/></g></mask></defs><g transform="" id="boardContainer"><g id="substrate" clip-path="url(#cut-off)" mask="url(#hole-mask)"><g id="substrate-board" style="fill:#1d1918; stroke:#1d1918;"><path d=" M 10950000.000000 7150000.000000 m-110000.000000 0 a 110000.000000 110000.000000 0 1 0 220000.0 0 a 110000.000000 110000.000000 0 1 0 -220000.0 0  M 10950000.000000 9050000.000000 m-110000.000000 0 a 110000.000000 110000.000000 0 1 0 220000.0 0 a 110000.000000 110000.000000 0 1 0 -220000.0 0  M 18546800.000000 6798600.000000 m-110000.000000 0 a 110000.000000 110000.000000 0 1 0 220000.0 0 a 110000.000000 110000.000000 0 1 0 -220000.0 0  M 15265700.000000 10774000.000000 m-110000.000000 0 a 110000.000000 110000.000000 0 1 0 220000.0 0 a 110000.000000 110000.000000 0 1 0 -220000.0 0  M 19924105.200000 11532365.800000 m-110000.000000 0 a 110000.000000 110000.000000 0 1 0 220000.0 0 a 110000.000000 110000.000000 0 1 0 -220000.0 0  M 9108001.800032 5349000.5 A 50000 50000 0 0 1 9158000.5 5298998.700017 L 12858001.0 5298901.0 A 50000 50000 0 0 0 12908000.0 5248901.3 L 12908000.0 4874000.0 A 50000 50000 0 0 1 12958000.0 4824000.0 L 14758000.0 4824000.0 A 50000 50000 0 0 0 14808000.0 4774000.0 L 14808000.0 4648800.0 A 50000 50000 0 0 1 14858000.0 4598800.0 L 16558200.0 4598800.0 A 50000 50000 0 0 1 16608200.0 4648800.0 L 16608200.0 4774000.0 A 50000 50000 0 0 0 16658200.0 4824000.0 L 18458100.0 4824000.0 A 50000 50000 0 0 1 18508100.0 4874000.0 L 18508100.0 5023800.0 A 50000 50000 0 0 0 18558100.0 5073800.0 L 20358222.0 5073800.0 A 50000 50000 0 0 1 20408222.195072 5123777.800002 L 20408277.0 5249022.0 A 50000 50000 0 0 0 20458277.8 5299000.0 L 22433300.0 5299000.0 A 50000 50000 0 0 1 22483300.0 5349000.0 L 22483300.0 11331702.0 A 50000 50000 0 0 1 22476601.277642 11356702.487092 L 22451800.0 11399659.0 L 21097353.0 13745836.0 A 50000 50000 0 0 1 21029051.012908 13764139.677642 L 19512364.0 12888480.0 A 49999.9 49999.9 0 0 0 19493826.700147 12882200.898874 L 15777296.0 12397775.0 A 50000 50000 0 0 1 15743351.029367 12377643.078599 L 14698977.0 10944552.0 A 50000 50000 0 0 0 14658569.3 10924000.0 L 9158198.0 10924000.0 A 50000 50000 0 0 1 9108198.200032 10874001.8 L 9108001.0 5349000.0 " style="fill-rule: evenodd;"/><g style="fill-opacity: 0.0;stroke-width: 15000.000000;stroke-opacity: 1;stroke-linecap: round;stroke-linejoin: round">
<path d="M9108198 10874001 L9108001 5349000 "/>
<path d="M9158000 5298998 L12858001 5298901 "/>
<path d="M12908000 5248901 L12908000 4874000 "/>
<path d="M12958000 4824000 L14758000 4824000 "/>
<path d="M14808000 4774000 L14808000 4648800 "/>
<path d="M14858000 4598800 L16558200 4598800 "/>
<path d="M16608200 4648800 L16608200 4774000 "/>
<path d="M16658200 4824000 L18458100 4824000 "/>
<path d="M18508100 4874000 L18508100 5023800 "/>
<path d="M18558100 5073800 L20358222 5073800 "/>
<path d="M20408222 5123777 L20408277 5249022 "/>
<path d="M22451800 11399659 L21097353 13745836 "/>
<path d="M21029051 13764139 L19512364 12888480 "/>
<path d="M19493826 12882200 L15777296 12397775 "/>
<path d="M15743351 12377643 L14698977 10944552 "/>
<path d="M14658569 10924000 L9158198 10924000 "/>
<path d="M20458277 5299000 L22433300 5299000 "/>
<path d="M22483300 5349000 L22483300 11331702 "/>
<path d="M22476601 11356702 L22451800 11399659 "/>
<path d="M9158000.500000 5298998.700017 A50000.000000 50000.000000 0.0 0 0 9108001.800032 5349000.500000"/>
<path d="M12858001.300000 5298901.299983 A50000.000000 50000.000000 0.0 0 0 12908000.000000 5248901.300000"/>
<path d="M12958000.000000 4824000.000000 A50000.000000 50000.000000 0.0 0 0 12908000.000000 4874000.000000"/>
<path d="M14758000.000000 4824000.000000 A50000.000000 50000.000000 0.0 0 0 14808000.000000 4774000.000000"/>
<path d="M14858000.000000 4598800.000000 A50000.000000 50000.000000 0.0 0 0 14808000.000000 4648800.000000"/>
<path d="M16608200.000000 4648800.000000 A50000.000000 50000.000000 0.0 0 0 16558200.000000 4598800.000000"/>
<path d="M16608200.000000 4774000.000000 A50000.000000 50000.000000 0.0 0 0 16658200.000000 4824000.000000"/>
<path d="M18508100.000000 4874000.000000 A50000.000000 50000.000000 0.0 0 0 18458100.000000 4824000.000000"/>
<path d="M18508100.000000 5023800.000000 A50000.000000 50000.000000 0.0 0 0 18558100.000000 5073800.000000"/>
<path d="M20408222.195072 5123777.800002 A50000.000000 50000.000000 0.0 0 0 20358222.200000 5073800.000000"/>
<path d="M20408277.804928 5249022.199998 A50000.000000 50000.000000 0.0 0 0 20458277.800000 5299000.000000"/>
<path d="M22483300.000000 5349000.000000 A50000.000000 50000.000000 0.0 0 0 22433300.000000 5299000.000000"/>
<path d="M22476601.277642 11356702.487092 A50000.000000 50000.000000 0.0 0 0 22483300.000000 11331702.500000"/>
<path d="M21029051.012908 13764139.677642 A50000.000000 50000.000000 0.0 0 0 21097353.263728 13745836.679061"/>
<path d="M19512364.180393 12888480.233961 A49999.900000 49999.900000 0.0 0 0 19493826.700147 12882200.898874"/>
<path d="M15743351.029367 12377643.078599 A50000.000000 50000.000000 0.0 0 0 15777296.799745 12397775.901957"/>
<path d="M14698977.570633 10944552.221401 A50000.000000 50000.000000 0.0 0 0 14658569.300000 10924000.000000"/>
<path d="M9108198.200032 10874001.800000 A50000.000000 50000.000000 0.0 0 0 9158198.200000 10924000.000000"/>
<circle cx="10950000.000000" cy="7150000.000000" r="110000.000000"/> 
<circle cx="10950000.000000" cy="9050000.000000" r="110000.000000"/> 
<circle cx="18546800.000000" cy="6798600.000000" r="110000.000000"/> 
<circle cx="15265700.000000" cy="10774000.000000" r="110000.000000"/> 
<circle cx="19924105.200000" cy="11532365.800000" r="110000.000000"/> 
</g> 
</g><g id="substrate-outline" style="fill:#000000; stroke:#000000; stroke-width: 15000.0"><g style="fill-opacity: 0.0;stroke-opacity: 1;stroke-linecap: round;stroke-linejoin: round">
<path d="M9108198 10874001 L9108001 5349000 "/>
<path d="M9158000 5298998 L12858001 5298901 "/>
<path d="M12908000 5248901 L12908000 4874000 "/>
<path d="M12958000 4824000 L14758000 4824000 "/>
<path d="M14808000 4774000 L14808000 4648800 "/>
<path d="M14858000 4598800 L16558200 4598800 "/>
<path d="M16608200 4648800 L16608200 4774000 "/>
<path d="M16658200 4824000 L18458100 4824000 "/>
<path d="M18508100 4874000 L18508100 5023800 "/>
<path d="M18558100 5073800 L20358222 5073800 "/>
<path d="M20408222 5123777 L20408277 5249022 "/>
<path d="M22451800 11399659 L21097353 13745836 "/>
<path d="M21029051 13764139 L19512364 12888480 "/>
<path d="M19493826 12882200 L15777296 12397775 "/>
<path d="M15743351 12377643 L14698977 10944552 "/>
<path d="M14658569 10924000 L9158198 10924000 "/>
<path d="M20458277 5299000 L22433300 5299000 "/>
<path d="M22483300 5349000 L22483300 11331702 "/>
<path d="M22476601 11356702 L22451800 11399659 "/>
<path d="M9158000.500000 5298998.700017 A50000.000000 50000.000000 0.0 0 0 9108001.800032 5349000.500000"/>
<path d="M12858001.300000 5298901.299983 A50000.000000 50000.000000 0.0 0 0 12908000.000000 5248901.300000"/>
<path d="M12958000.000000 4824000.000000 A50000.000000 50000.000000 0.0 0 0 12908000.000000 4874000.000000"/>
<path d="M14758000.000000 4824000.000000 A50000.000000 50000.000000 0.0 0 0 14808000.000000 4774000.000000"/>
<path d="M14858000.000000 4598800.000000 A50000.000000 50000.000000 0.0 0 0 14808000.000000 4648800.000000"/>
<path d="M16608200.000000 4648800.000000 A50000.000000 50000.000000 0.0 0 0 16558200.000000 4598800.000000"/>
<path d="M16608200.000000 4774000.000000 A50000.000000 50000.000000 0.0 0 0 16658200.000000 4824000.000000"/>
<path d="M18508100.000000 4874000.000000 A50000.000000 50000.000000 0.0 0 0 18458100.000000 4824000.000000"/>
<path d="M18508100.000000 5023800.000000 A50000.000000 50000.000000 0.0 0 0 18558100.000000 5073800.000000"/>
<path d="M20408222.195072 5123777.800002 A50000.000000 50000.000000 0.0 0 0 20358222.200000 5073800.000000"/>
<path d="M20408277.804928 5249022.199998 A50000.000000 50000.000000 0.0 0 0 20458277.800000 5299000.000000"/>
<path d="M22483300.000000 5349000.000000 A50000.000000 50000.000000 0.0 0 0 22433300.000000 5299000.000000"/>
<path d="M22476601.277642 11356702.487092 A50000.000000 50000.000000 0.0 0 0 22483300.000000 11331702.500000"/>
<path d="M21029051.012908 13764139.677642 A50000.000000 50000.000000 0.0 0 0 21097353.263728 13745836.679061"/>
<path d="M19512364.180393 12888480.233961 A49999.900000 49999.900000 0.0 0 0 19493826.700147 12882200.898874"/>
<path d="M15743351.029367 12377643.078599 A50000.000000 50000.000000 0.0 0 0 15777296.799745 12397775.901957"/>
<path d="M14698977.570633 10944552.221401 A50000.000000 50000.000000 0.0 0 0 14658569.300000 10924000.000000"/>
<path d="M9108198.200032 10874001.800000 A50000.000000 50000.000000 0.0 0 0 9158198.200000 10924000.000000"/>
<circle cx="10950000.000000" cy="7150000.000000" r="110000.000000"/> 
<circle cx="10950000.000000" cy="9050000.000000" r="110000.000000"/> 
<circle cx="18546800.000000" cy="6798600.000000" r="110000.000000"/> 
<circle cx="15265700.000000" cy="10774000.000000" r="110000.000000"/> 
<circle cx="19924105.200000" cy="11532365.800000" r="110000.000000"/> 
</g> 
</g></g></g></svg>