<!DOCTYPE svg PUBLIC "-//W3C//DTD SVG 1.1//EN" "http://www.w3.org/Graphics/SVG/1.1/DTD/svg11.dtd">
<svg xmlns="http://www.w3.org/2000/svg" version="1.1" width="136.0mm" height="94.498141mm" viewBox="8950000.0 4437500.0 13600000.0 9449814.112075927">
            <title>Picture generated by PcbDraw </title>
            <desc>Picture generated by PcbDraw</desc>
        <defs><clipPath id="cut-off"><path d=" M 10950000.000000 7150000.000000 m-110000.000000 0 a 110000.000000 110000.000000 0 1 0 220000.0 0 a 110000.000000 110000.000000 0 1 0 -220000.0 0  M 10950000.000000 9050000.000000 m-110000.000000 0 a 110000.000000 110000.000000 0 1 0 220000.0 0 a 110000.000000 110000.000000 0 1 0 -220000.0 0  M 18550000.000000 6772500.000000 m-110000.000000 0 a 110000.000000 110000.000000 0 1 0 220000.0 0 a 110000.000000 110000.000000 0 1 0 -220000.0 0  M 15300000.000000 10765000.000000 m-110000.000000 0 a 110000.000000 110000.000000 0 1 0 220000.0 0 a 110000.000000 110000.000000 0 1 0 -220000.0 0  M 19949777.000000 11545278.800000 m-110000.000000 0 a 110000.000000 110000.000000 0 1 0 220000.0 0 a 110000.000000 110000.000000 0 1 0 -220000.0 0  M 14722730.2 10950000.0 A 50000 50000 0 0 1 14764765.961808 10972926.124598 L 15687307.0 12405293.0 A 49999.9 49999.9 0 0 0 15723266.201298 12427848.9894 L 19400376.0 12878127.0 A 50000 50000 0 0 1 19419299.187092 12884455.522358 L 20971492.0 13780615.0 A 50000 50000 0 0 0 21039794.177642 13762313.687092 L 22439794.0 11337442.0 L 22450000.0 11343334.0 L 22450000.0 5300000.0 A 50000 50000 0 0 0 22400000.0 5250000.0 L 20500000.0 5250000.0 A 50000 50000 0 0 1 20450000.0 5200000.0 L 20450000.0 5062500.0 A 50000 50000 0 0 0 20400000.0 5012500.0 L 18600000.0 5012500.0 A 50000 50000 0 0 1 18550000.0 4962500.0 L 18550000.0 4825000.0 A 50000 50000 0 0 0 18500000.0 4775000.0 L 16700000.0 4775000.0 A 50000 50000 0 0 1 16650000.0 4725000.0 L 16650000.0 4587500.0 A 50000 50000 0 0 0 16600000.0 4537500.0 L 14800000.0 4537500.0 A 50000 50000 0 0 0 14750000.0 4587500.0 L 14750000.0 4725000.0 A 50000 50000 0 0 1 14700000.0 4775000.0 L 12900000.0 4775000.0 A 50000 50000 0 0 0 12850000.0 4825000.0 L 12850000.0 5200000.0 A 50000 50000 0 0 1 12800000.0 5250000.0 L 9100000.0 5250000.0 A 50000 50000 0 0 0 9050000.0 5300000.0 L 9050000.0 10900000.0 A 50000 50000 0 0 0 9100000.0 10950000.0 L 14722730.0 10950000.0 " style="fill-rule: evenodd;"/></clipPath><mask id="pads-mask"/><mask id="pads-mask-silkscreen"><rect x="9042500.0" y="4530000.0" width="13415000.0" height="9264813.7" fill="white"/></mask><mask id="hole-mask"><g><rect x="9042500.0" y="4530000.0" fill="white" width="13415000.0" height="9264813.7"/></g></mask></defs><g transform="" id="boardContainer"><g id="substrate" clip-path="url(#cut-off)" mask="url(#hole-mask)"><g id="substrate-board" style="fill:#1d1918; stroke:#1d1918;"><path d=" M 10950000.000000 7150000.000000 m-110000.000000 0 a 110000.000000 110000.000000 0 1 0 220000.0 0 a 110000.000000 110000.000000 0 1 0 -220000.0 0  M 10950000.000000 9050000.000000 m-110000.000000 0 a 110000.000000 110000.000000 0 1 0 220000.0 0 a 110000.000000 110000.000000 0 1 0 -220000.0 0  M 18550000.000000 6772500.000000 m-110000.000000 0 a 110000.000000 110000.000000 0 1 0 220000.0 0 a 110000.000000 110000.000000 0 1 0 -220000.0 0  M 15300000.000000 10765000.000000 m-110000.000000 0 a 110000.000000 110000.000000 0 1 0 220000.0 0 a 110000.000000 110000.000000 0 1 0 -220000.0 0  M 19949777.000000 11545278.800000 m-110000.000000 0 a 110000.000000 110000.000000 0 1 0 220000.0 0 a 110000.000000 110000.000000 0 1 0 -220000.0 0  M 14722730.2 10950000.0 A 50000 50000 0 0 1 14764765.961808 10972926.124598 L 15687307.0 12405293.0 A 49999.9 49999.9 0 0 0 15723266.201298 12427848.9894 L 19400376.0 12878127.0 A 50000 50000 0 0 1 19419299.187092 12884455.522358 L 20971492.0 13780615.0 A 50000 50000 0 0 0 21039794.177642 13762313.687092 L 22439794.0 11337442.0 L 22450000.0 11343334.0 L 22450000.0 5300000.0 A 50000 50000 0 0 0 22400000.0 5250000.0 L 20500000.0 5250000.0 A 50000 50000 0 0 1 20450000.0 5200000.0 L 20450000.0 5062500.0 A 50000 50000 0 0 0 20400000.0 5012500.0 L 18600000.0 5012500.0 A 50000 50000 0 0 1 18550000.0 4962500.0 L 18550000.0 4825000.0 A 50000 50000 0 0 0 18500000.0 4775000.0 L 16700000.0 4775000.0 A 50000 50000 0 0 1 16650000.0 4725000.0 L 16650000.0 4587500.0 A 50000 50000 0 0 0 16600000.0 4537500.0 L 14800000.0 4537500.0 A 50000 50000 0 0 0 14750000.0 4587500.0 L 14750000.0 4725000.0 A 50000 50000 0 0 1 14700000.0 4775000.0 L 12900000.0 4775000.0 A 50000 50000 0 0 0 12850000.0 4825000.0 L 12850000.0 5200000.0 A 50000 50000 0 0 1 12800000.0 5250000.0 L 9100000.0 5250000.0 A 50000 50000 0 0 0 9050000.0 5300000.0 L 9050000.0 10900000.0 A 50000 50000 0 0 0 9100000.0 10950000.0 L 14722730.0 10950000.0 " style="fill-rule: evenodd;"/><g style="fill-opacity: 0.0;stroke-width: 15000.000000;stroke-opacity: 1;stroke-linecap: round;stroke-linejoin: round">
<path d="M9100000 10950000 L14722730 10950000 "/>
<path d="M9050000 10900000 L9050000 5300000 "/>
<path d="M9100000 5250000 L12800000 5250000 "/>
<path d="M14700000 4775000 L12900000 4775000 "/>
<path d="M12850000 4825000 L12850000 5200000 "/>
<path d="M16650000 4725000 L16650000 4587500 "/>
<path d="M16600000 4537500 L14800000 4537500 "/>
<path d="M14750000 4587500 L14750000 4725000 "/>
<path d="M18550000 4962500 L18550000 4825000 "/>
<path d="M18500000 4775000 L16700000 4775000 "/>
<path d="M20450000 5200000 L20450000 5062500 "/>
<path d="M20400000 5012500 L18600000 5012500 "/>
<path d="M21039794 13762313 L22439794 11337442 "/>
<path d="M19419299 12884455 L20971492 13780615 "/>
<path d="M14764766 10972926 L15687307 12405293 "/>
<path d="M15723266 12427849 L19400376 12878127 "/>
<path d="M22450000 11343334 L22450000 5300000 "/>
<path d="M22400000 5250000 L20500000 5250000 "/>
<path d="M22450000 11343334 L22439794 11337442 "/>
<path d="M14764765.961808 10972926.124598 A50000.000000 50000.000000 0.0 0 0 14722730.200000 10950000.000000"/>
<path d="M15687307.806061 12405293.596096 A49999.900000 49999.900000 0.0 0 0 15723266.201298 12427848.989400"/>
<path d="M19419299.187092 12884455.522358 A50000.000000 50000.000000 0.0 0 0 19400376.498792 12878127.509864"/>
<path d="M20971492.912908 13780614.977642 A50000.000000 50000.000000 0.0 0 0 21039794.177642 13762313.687092"/>
<path d="M22450000.000000 5300000.000000 A50000.000000 50000.000000 0.0 0 0 22400000.000000 5250000.000000"/>
<path d="M20450000.000000 5200000.000000 A50000.000000 50000.000000 0.0 0 0 20500000.000000 5250000.000000"/>
<path d="M20450000.000000 5062500.000000 A50000.000000 50000.000000 0.0 0 0 20400000.000000 5012500.000000"/>
<path d="M18550000.000000 4962500.000000 A50000.000000 50000.000000 0.0 0 0 18600000.000000 5012500.000000"/>
<path d="M18550000.000000 4825000.000000 A50000.000000 50000.000000 0.0 0 0 18500000.000000 4775000.000000"/>
<path d="M16650000.000000 4725000.000000 A50000.000000 50000.000000 0.0 0 0 16700000.000000 4775000.000000"/>
<path d="M16650000.000000 4587500.000000 A50000.000000 50000.000000 0.0 0 0 16600000.000000 4537500.000000"/>
<path d="M14800000.000000 4537500.000000 A50000.000000 50000.000000 0.0 0 0 14750000.000000 4587500.000000"/>
<path d="M14700000.000000 4775000.000000 A50000.000000 50000.000000 0.0 0 0 14750000.000000 4725000.000000"/>
<path d="M12900000.000000 4775000.000000 A50000.000000 50000.000000 0.0 0 0 12850000.000000 4825000.000000"/>
<path d="M12800000.000000 5250000.000000 A50000.000000 50000.000000 0.0 0 0 12850000.000000 5200000.000000"/>
<path d="M9100000.000000 5250000.000000 A50000.000000 50000.000000 0.0 0 0 9050000.000000 5300000.000000"/>
<path d="M9050000.000000 10900000.000000 A50000.000000 50000.000000 0.0 0 0 9100000.000000 10950000.000000"/>
<circle cx="10950000.000000" cy="7150000.000000" r="110000.000000"/> 
<circle cx="10950000.000000" cy="9050000.000000" r="110000.000000"/> 
<circle cx="18550000.000000" cy="6772500.000000" r="110000.000000"/> 
<circle cx="15300000.000000" cy="10765000.000000" r="110000.000000"/> 
<circle cx="19949777.000000" cy="11545278.800000" r="110000.000000"/> 
</g> 
</g><g id="substrate-outline" style="fill:#000000; stroke:#000000; stroke-width: 15000.0"><g style="fill-opacity: 0.0;stroke-opacity: 1;stroke-linecap: round;stroke-linejoin: round">
<path d="M9100000 10950000 L14722730 10950000 "/>
<path d="M9050000 10900000 L9050000 5300000 "/>
<path d="M9100000 5250000 L12800000 5250000 "/>
<path d="M14700000 4775000 L12900000 4775000 "/>
<path d="M12850000 4825000 L12850000 5200000 "/>
<path d="M16650000 4725000 L16650000 4587500 "/>
<path d="M16600000 4537500 L14800000 4537500 "/>
<path d="M14750000 4587500 L14750000 4725000 "/>
<path d="M18550000 4962500 L18550000 4825000 "/>
<path d="M18500000 4775000 L16700000 4775000 "/>
<path d="M20450000 5200000 L20450000 5062500 "/>
<path d="M20400000 5012500 L18600000 5012500 "/>
<path d="M21039794 13762313 L22439794 11337442 "/>
<path d="M19419299 12884455 L20971492 13780615 "/>
<path d="M14764766 10972926 L15687307 12405293 "/>
<path d="M15723266 12427849 L19400376 12878127 "/>
<path d="M22450000 11343334 L22450000 5300000 "/>
<path d="M22400000 5250000 L20500000 5250000 "/>
<path d="M22450000 11343334 L22439794 11337442 "/>
<path d="M14764765.961808 10972926.124598 A50000.000000 50000.000000 0.0 0 0 14722730.200000 10950000.000000"/>
<path d="M15687307.806061 12405293.596096 A49999.900000 49999.900000 0.0 0 0 15723266.201298 12427848.989400"/>
<path d="M19419299.187092 12884455.522358 A50000.000000 50000.000000 0.0 0 0 19400376.498792 12878127.509864"/>
<path d="M20971492.912908 13780614.977642 A50000.000000 50000.000000 0.0 0 0 21039794.177642 13762313.687092"/>
<path d="M22450000.000000 5300000.000000 A50000.000000 50000.000000 0.0 0 0 22400000.000000 5250000.000000"/>
<path d="M20450000.000000 5200000.000000 A50000.000000 50000.000000 0.0 0 0 20500000.000000 5250000.000000"/>
<path d="M20450000.000000 5062500.000000 A50000.000000 50000.000000 0.0 0 0 20400000.000000 5012500.000000"/>
<path d="M18550000.000000 4962500.000000 A50000.000000 50000.000000 0.0 0 0 18600000.000000 5012500.000000"/>
<path d="M18550000.000000 4825000.000000 A50000.000000 50000.000000 0.0 0 0 18500000.000000 4775000.000000"/>
<path d="M16650000.000000 4725000.000000 A50000.000000 50000.000000 0.0 0 0 16700000.000000 4775000.000000"/>
<path d="M16650000.000000 4587500.000000 A50000.000000 50000.000000 0.0 0 0 16600000.000000 4537500.000000"/>
<path d="M14800000.000000 4537500.000000 A50000.000000 50000.000000 0.0 0 0 14750000.000000 4587500.000000"/>
<path d="M14700000.000000 4775000.000000 A50000.000000 50000.000000 0.0 0 0 14750000.000000 4725000.000000"/>
<path d="M12900000.000000 4775000.000000 A50000.000000 50000.000000 0.0 0 0 12850000.000000 4825000.000000"/>
<path d="M12800000.000000 5250000.000000 A50000.000000 50000.000000 0.0 0 0 12850000.000000 5200000.000000"/>
<path d="M9100000.000000 5250000.000000 A50000.000000 50000.000000 0.0 0 0 9050000.000000 5300000.000000"/>
<path d="M9050000.000000 10900000.000000 A50000.000000 50000.000000 0.0 0 0 9100000.000000 10950000.000000"/>
<circle cx="10950000.000000" cy="7150000.000000" r="110000.000000"/> 
<circle cx="10950000.000000" cy="9050000.000000" r="110000.000000"/> 
<circle cx="18550000.000000" cy="6772500.000000" r="110000.000000"/> 
<circle cx="15300000.000000" cy="10765000.000000" r="110000.000000"/> 
<circle cx="19949777.000000" cy="11545278.800000" r="110000.000000"/> 
</g> 
</g></g></g></svg>