<!DOCTYPE svg PUBLIC "-//W3C//DTD SVG 1.1//EN" "http://www.w3.org/Graphics/SVG/1.1/DTD/svg11.dtd">
<svg xmlns="http://www.w3.org/2000/svg" version="1.1" width="22.0mm" height="62.58641mm" viewBox="20349999.999997497 5150000.0 2200000.0000025034 6258641.000000343">
            <title>Picture generated by PcbDraw </title>
            <desc>Picture generated by PcbDraw</desc>
        <defs><clipPath id="cut-off"><path d=" M 20760139.200000 10040512.300000 m-110000.000000 0 a 110000.000000 110000.000000 0 1 0 220000.0 0 a 110000.000000 110000.000000 0 1 0 -220000.0 0  M 22241042.700000 10895512.300000 m-110000.000000 0 a 110000.000000 110000.000000 0 1 0 220000.0 0 a 110000.000000 110000.000000 0 1 0 -220000.0 0  M 22450000.0 5300000.0 A 50000 50000 0 0 0 22400000.0 5250000.0 L 20500000.0 5250000.0 A 50000 50000 0 0 0 20450000.0 5300000.0 L 20450000.0 10161675.0 A 50000 50000 0 0 0 20475000.012908 10204976.777642 L 22375000.0 11301942.0 A 50000 50000 0 0 0 22450000.0 11258641.0 L 22450000.0 5300000.0 " style="fill-rule: evenodd;"/></clipPath><mask id="pads-mask"/><mask id="pads-mask-silkscreen"><rect x="20442500.0" y="5242500.0" width="2015000.0" height="6073641.0" fill="white"/></mask><mask id="hole-mask"><g><rect x="20442500.0" y="5242500.0" fill="white" width="2015000.0" height="6073641.0"/></g></mask></defs><g transform="" id="boardContainer"><g id="substrate" clip-path="url(#cut-off)" mask="url(#hole-mask)"><g id="substrate-board" style="fill:#1d1918; stroke:#1d1918;"><path d=" M 20760139.200000 10040512.300000 m-110000.000000 0 a 110000.000000 110000.000000 0 1 0 220000.0 0 a 110000.000000 110000.000000 0 1 0 -220000.0 0  M 22241042.700000 10895512.300000 m-110000.000000 0 a 110000.000000 110000.000000 0 1 0 220000.0 0 a 110000.000000 110000.000000 0 1 0 -220000.0 0  M 22450000.0 5300000.0 A 50000 50000 0 0 0 22400000.0 5250000.0 L 20500000.0 5250000.0 A 50000 50000 0 0 0 20450000.0 5300000.0 L 20450000.0 10161675.0 A 50000 50000 0 0 0 20475000.012908 10204976.777642 L 22375000.0 11301942.0 A 50000 50000 0 0 0 22450000.0 11258641.0 L 22450000.0 5300000.0 " style="fill-rule: evenodd;"/><g style="fill-opacity: 0.0;stroke-width: 15000.000000;stroke-opacity: 1;stroke-linecap: round;stroke-linejoin: round">
<path d="M22450000 11258641 L22450000 5300000 "/>
<path d="M22400000 5250000 L20500000 5250000 "/>
<path d="M20450000 5300000 L20450000 10161675 "/>
<path d="M22375000 11301942 L20475000 10204976 "/>
<path d="M22450000.000000 5300000.000000 A50000.000000 50000.000000 0.0 0 0 22400000.000000 5250000.000000"/>
<path d="M20500000.000000 5250000.000000 A50000.000000 50000.000000 0.0 0 0 20450000.000000 5300000.000000"/>
<path d="M20450000.000000 10161675.500000 A50000.000000 50000.000000 0.0 0 0 20475000.012908 10204976.777642"/>
<path d="M22375000.012908 11301942.277642 A50000.000000 50000.000000 0.0 0 0 22450000.000000 11258641.000000"/>
<circle cx="20760139.200000" cy="10040512.300000" r="110000.000000"/> 
<circle cx="22241042.700000" cy="10895512.300000" r="110000.000000"/> 
</g> 
</g><g id="substrate-outline" style="fill:#000000; stroke:#000000; stroke-width: 15000.0"><g style="fill-opacity: 0.0;stroke-opacity: 1;stroke-linecap: round;stroke-linejoin: round">
<path d="M22450000 11258641 L22450000 5300000 "/>
<path d="M22400000 5250000 L20500000 5250000 "/>
<path d="M20450000 5300000 L20450000 10161675 "/>
<path d="M22375000 11301942 L20475000 10204976 "/>
<path d="M22450000.000000 5300000.000000 A50000.000000 50000.000000 0.0 0 0 22400000.000000 5250000.000000"/>
<path d="M20500000.000000 5250000.000000 A50000.000000 50000.000000 0.0 0 0 20450000.000000 5300000.000000"/>
<path d="M20450000.000000 10161675.500000 A50000.000000 50000.000000 0.0 0 0 20475000.012908 10204976.777642"/>
<path d="M22375000.012908 11301942.277642 A50000.000000 50000.000000 0.0 0 0 22450000.000000 11258641.000000"/>
<circle cx="20760139.200000" cy="10040512.300000" r="110000.000000"/> 
<circle cx="22241042.700000" cy="10895512.300000" r="110000.000000"/> 
</g> 
</g></g></g></svg>