<!DOCTYPE svg PUBLIC "-//W3C//DTD SVG 1.1//EN" "http://www.w3.org/Graphics/SVG/1.1/DTD/svg11.dtd">
<svg xmlns="http://www.w3.org/2000/svg" version="1.1" width="21.72mm" height="62.094974mm" viewBox="20411300.0 5199000.0 2172000.0000031106 6209497.457736809">
            <title>Picture generated by PcbDraw </title>
            <desc>Picture generated by PcbDraw</desc>
        <defs><clipPath id="cut-off"><path d=" M 20776200.000000 10047600.000000 m-110000.000000 0 a 110000.000000 110000.000000 0 1 0 220000.0 0 a 110000.000000 110000.000000 0 1 0 -220000.0 0  M 22219400.000000 10899500.000000 m-110000.000000 0 a 110000.000000 110000.000000 0 1 0 220000.0 0 a 110000.000000 110000.000000 0 1 0 -220000.0 0  M 20511300.0 5349000.0 A 50000 50000 0 0 1 20561300.0 5299000.0 L 22433300.0 5299000.0 A 50000 50000 0 0 1 22483300.0 5349000.0 L 22483300.0 11258497.0 A 49999.9 49999.9 0 0 1 22408300.019607 11301798.666039 L 20536300.0 10220999.0 A 50000 50000 0 0 1 20511300.0 10177697.8 L 20511300.0 5349000.0 " style="fill-rule: evenodd;"/></clipPath><mask id="pads-mask"/><mask id="pads-mask-silkscreen"><rect x="20503800.0" y="5291500.0" width="1987000.0" height="6024497.4" fill="white"/></mask><mask id="hole-mask"><g><rect x="20503800.0" y="5291500.0" fill="white" width="1987000.0" height="6024497.4"/></g></mask></defs><g transform="" id="boardContainer"><g id="substrate" clip-path="url(#cut-off)" mask="url(#hole-mask)"><g id="substrate-board" style="fill:#1d1918; stroke:#1d1918;"><path d=" M 20776200.000000 10047600.000000 m-110000.000000 0 a 110000.000000 110000.000000 0 1 0 220000.0 0 a 110000.000000 110000.000000 0 1 0 -220000.0 0  M 22219400.000000 10899500.000000 m-110000.000000 0 a 110000.000000 110000.000000 0 1 0 220000.0 0 a 110000.000000 110000.000000 0 1 0 -220000.0 0  M 20511300.0 5349000.0 A 50000 50000 0 0 1 20561300.0 5299000.0 L 22433300.0 5299000.0 A 50000 50000 0 0 1 22483300.0 5349000.0 L 22483300.0 11258497.0 A 49999.9 49999.9 0 0 1 22408300.019607 11301798.666039 L 20536300.0 10220999.0 A 50000 50000 0 0 1 20511300.0 10177697.8 L 20511300.0 5349000.0 " style="fill-rule: evenodd;"/><g style="fill-opacity: 0.0;stroke-width: 15000.000000;stroke-opacity: 1;stroke-linecap: round;stroke-linejoin: round">
<path d="M20511300 10177697 L20511300 5349000 "/>
<path d="M20561300 5299000 L22433300 5299000 "/>
<path d="M22483300 5349000 L22483300 11258497 "/>
<path d="M22408300 11301798 L20536300 10220999 "/>
<path d="M20561300.000000 5299000.000000 A50000.000000 50000.000000 0.0 0 0 20511300.000000 5349000.000000"/>
<path d="M22483300.000000 5349000.000000 A50000.000000 50000.000000 0.0 0 0 22433300.000000 5299000.000000"/>
<path d="M22408300.019607 11301798.666039 A49999.900000 49999.900000 0.0 0 0 22483299.900000 11258497.500000"/>
<path d="M20511300.000000 10177697.800000 A50000.000000 50000.000000 0.0 0 0 20536300.012908 10220999.077642"/>
<circle cx="20776200.000000" cy="10047600.000000" r="110000.000000"/> 
<circle cx="22219400.000000" cy="10899500.000000" r="110000.000000"/> 
</g> 
</g><g id="substrate-outline" style="fill:#000000; stroke:#000000; stroke-width: 15000.0"><g style="fill-opacity: 0.0;stroke-opacity: 1;stroke-linecap: round;stroke-linejoin: round">
<path d="M20511300 10177697 L20511300 5349000 "/>
<path d="M20561300 5299000 L22433300 5299000 "/>
<path d="M22483300 5349000 L22483300 11258497 "/>
<path d="M22408300 11301798 L20536300 10220999 "/>
<path d="M20561300.000000 5299000.000000 A50000.000000 50000.000000 0.0 0 0 20511300.000000 5349000.000000"/>
<path d="M22483300.000000 5349000.000000 A50000.000000 50000.000000 0.0 0 0 22433300.000000 5299000.000000"/>
<path d="M22408300.019607 11301798.666039 A49999.900000 49999.900000 0.0 0 0 22483299.900000 11258497.500000"/>
<path d="M20511300.000000 10177697.800000 A50000.000000 50000.000000 0.0 0 0 20536300.012908 10220999.077642"/>
<circle cx="20776200.000000" cy="10047600.000000" r="110000.000000"/> 
<circle cx="22219400.000000" cy="10899500.000000" r="110000.000000"/> 
</g> 
</g></g></g></svg>