<!DOCTYPE svg PUBLIC "-//W3C//DTD SVG 1.1//EN" "http://www.w3.org/Graphics/SVG/1.1/DTD/svg11.dtd">
<svg xmlns="http://www.w3.org/2000/svg" version="1.1" width="22.0mm" height="62.567324mm" viewBox="20349999.999991897 5150000.0 2200000.0000081025 6256732.400000343">
            <title>Picture generated by PcbDraw </title>
            <desc>Picture generated by PcbDraw</desc>
        <defs><clipPath id="cut-off"><path d=" M 20731164.800000 10021875.300000 m-110000.000000 0 a 110000.000000 110000.000000 0 1 0 220000.0 0 a 110000.000000 110000.000000 0 1 0 -220000.0 0  M 22212068.300000 10876875.300000 m-110000.000000 0 a 110000.000000 110000.000000 0 1 0 220000.0 0 a 110000.000000 110000.000000 0 1 0 -220000.0 0  M 22450000.0 5300000.0 A 50000 50000 0 0 0 22400000.0 5250000.0 L 20500000.0 5250000.0 A 50000 50000 0 0 0 20450000.0 5300000.0 L 20450000.0 10159766.0 A 50000 50000 0 0 0 20475000.012908 10203068.177642 L 22375000.0 11300033.0 A 50000 50000 0 0 0 22450000.0 11256732.4 L 22450000.0 5300000.0 " style="fill-rule: evenodd;"/></clipPath><mask id="pads-mask"/><mask id="pads-mask-silkscreen"><rect x="20442500.0" y="5242500.0" width="2015000.0" height="6071732.4" fill="white"/></mask><mask id="hole-mask"><g><rect x="20442500.0" y="5242500.0" fill="white" width="2015000.0" height="6071732.4"/></g></mask></defs><g transform="" id="boardContainer"><g id="substrate" clip-path="url(#cut-off)" mask="url(#hole-mask)"><g id="substrate-board" style="fill:#1d1918; stroke:#1d1918;"><path d=" M 20731164.800000 10021875.300000 m-110000.000000 0 a 110000.000000 110000.000000 0 1 0 220000.0 0 a 110000.000000 110000.000000 0 1 0 -220000.0 0  M 22212068.300000 10876875.300000 m-110000.000000 0 a 110000.000000 110000.000000 0 1 0 220000.0 0 a 110000.000000 110000.000000 0 1 0 -220000.0 0  M 22450000.0 5300000.0 A 50000 50000 0 0 0 22400000.0 5250000.0 L 20500000.0 5250000.0 A 50000 50000 0 0 0 20450000.0 5300000.0 L 20450000.0 10159766.0 A 50000 50000 0 0 0 20475000.012908 10203068.177642 L 22375000.0 11300033.0 A 50000 50000 0 0 0 22450000.0 11256732.4 L 22450000.0 5300000.0 " style="fill-rule: evenodd;"/><g style="fill-opacity: 0.0;stroke-width: 15000.000000;stroke-opacity: 1;stroke-linecap: round;stroke-linejoin: round">
<path d="M22450000 11256732 L22450000 5300000 "/>
<path d="M22400000 5250000 L20500000 5250000 "/>
<path d="M20450000 5300000 L20450000 10159766 "/>
<path d="M22375000 11300033 L20475000 10203068 "/>
<path d="M22450000.000000 5300000.000000 A50000.000000 50000.000000 0.0 0 0 22400000.000000 5250000.000000"/>
<path d="M20500000.000000 5250000.000000 A50000.000000 50000.000000 0.0 0 0 20450000.000000 5300000.000000"/>
<path d="M20450000.000000 10159766.900000 A50000.000000 50000.000000 0.0 0 0 20475000.012908 10203068.177642"/>
<path d="M22375000.012908 11300033.677642 A50000.000000 50000.000000 0.0 0 0 22450000.000000 11256732.400000"/>
<circle cx="20731164.800000" cy="10021875.300000" r="110000.000000"/> 
<circle cx="22212068.300000" cy="10876875.300000" r="110000.000000"/> 
</g> 
</g><g id="substrate-outline" style="fill:#000000; stroke:#000000; stroke-width: 15000.0"><g style="fill-opacity: 0.0;stroke-opacity: 1;stroke-linecap: round;stroke-linejoin: round">
<path d="M22450000 11256732 L22450000 5300000 "/>
<path d="M22400000 5250000 L20500000 5250000 "/>
<path d="M20450000 5300000 L20450000 10159766 "/>
<path d="M22375000 11300033 L20475000 10203068 "/>
<path d="M22450000.000000 5300000.000000 A50000.000000 50000.000000 0.0 0 0 22400000.000000 5250000.000000"/>
<path d="M20500000.000000 5250000.000000 A50000.000000 50000.000000 0.0 0 0 20450000.000000 5300000.000000"/>
<path d="M20450000.000000 10159766.900000 A50000.000000 50000.000000 0.0 0 0 20475000.012908 10203068.177642"/>
<path d="M22375000.012908 11300033.677642 A50000.000000 50000.000000 0.0 0 0 22450000.000000 11256732.400000"/>
<circle cx="20731164.800000" cy="10021875.300000" r="110000.000000"/> 
<circle cx="22212068.300000" cy="10876875.300000" r="110000.000000"/> 
</g> 
</g></g></g></svg>