<!DOCTYPE svg PUBLIC "-//W3C//DTD SVG 1.1//EN" "http://www.w3.org/Graphics/SVG/1.1/DTD/svg11.dtd">
<svg xmlns="http://www.w3.org/2000/svg" version="1.1" width="135.254995mm" height="93.720384mm" viewBox="9008001.0 4498800.0 13525499.52940851 9372038.40000016">
            <title>Picture generated by PcbDraw </title>
            <desc>Picture generated by PcbDraw</desc>
        <defs><clipPath id="cut-off"><path d=" M 10950000.000000 7150000.000000 m-110000.000000 0 a 110000.000000 110000.000000 0 1 0 220000.0 0 a 110000.000000 110000.000000 0 1 0 -220000.0 0  M 10950000.000000 9050000.000000 m-110000.000000 0 a 110000.000000 110000.000000 0 1 0 220000.0 0 a 110000.000000 110000.000000 0 1 0 -220000.0 0  M 18546800.000000 6798600.000000 m-110000.000000 0 a 110000.000000 110000.000000 0 1 0 220000.0 0 a 110000.000000 110000.000000 0 1 0 -220000.0 0  M 15265700.000000 10774000.000000 m-110000.000000 0 a 110000.000000 110000.000000 0 1 0 220000.0 0 a 110000.000000 110000.000000 0 1 0 -220000.0 0  M 19924105.200000 11532365.800000 m-110000.000000 0 a 110000.000000 110000.000000 0 1 0 220000.0 0 a 110000.000000 110000.000000 0 1 0 -220000.0 0  M 9108001.800032 5349000.5 A 50000 50000 0 0 1 9158000.5 5298998.700017 L 12858001.0 5298901.0 A 50000 50000 0 0 0 12908000.0 5248901.3 L 12908000.0 4874000.0 A 50000 50000 0 0 1 12958000.0 4824000.0 L 14758000.0 4824000.0 A 50000 50000 0 0 0 14808000.0 4774000.0 L 14808000.0 4648800.0 A 50000 50000 0 0 1 14858000.0 4598800.0 L 16558200.0 4598800.0 A 50000 50000 0 0 1 16608200.0 4648800.0 L 16608200.0 4774000.0 A 50000 50000 0 0 0 16658200.0 4824000.0 L 18458200.0 4824000.0 A 50000 50000 0 0 1 18508200.0 4874000.0 L 18508200.0 5023800.0 A 50000 50000 0 0 0 18558200.0 5073800.0 L 20358222.0 5073800.0 A 50000 50000 0 0 1 20408222.195072 5123777.800002 L 20408300.0 5299000.0 A 50000 50000 0 0 0 20408299.995072 5299000.000002 L 20408300.0 10190976.0 A 50000 50000 0 0 0 20433300.012908 10234278.077642 L 22408500.0 11374660.0 A 50000 50000 0 0 1 22426802.595432 11442960.197363 L 21097353.0 13745836.0 A 50000 50000 0 0 1 21029051.012908 13764139.677642 L 19512364.0 12888480.0 A 49999.9 49999.9 0 0 0 19493826.700147 12882200.898874 L 15777296.0 12397775.0 A 50000 50000 0 0 1 15743351.029367 12377643.078599 L 14698977.0 10944552.0 A 50000 50000 0 0 0 14658569.3 10924000.0 L 9158198.0 10924000.0 A 50000 50000 0 0 1 9108198.200032 10874001.8 L 9108001.0 5349000.0  M 10700000.0 10700000.0 L 10700000.0 9300000.0 L 9300000.0 9300000.0 L 9300000.0 10700000.0 L 10700000.0 10700000.0  M 10700000.0 8800000.0 L 10700000.0 7400000.0 L 9300000.0 7400000.0 L 9300000.0 8800000.0 L 10700000.0 8800000.0  M 10700000.0 6900000.0 L 10700000.0 5500000.0 L 9300000.0 5500000.0 L 9300000.0 6900000.0 L 10700000.0 6900000.0  M 12600000.0 10700000.0 L 12600000.0 9300000.0 L 11200000.0 9300000.0 L 11200000.0 10700000.0 L 12600000.0 10700000.0  M 12600000.0 8800000.0 L 12600000.0 7400000.0 L 11200000.0 7400000.0 L 11200000.0 8800000.0 L 12600000.0 8800000.0  M 12600000.0 6900000.0 L 12600000.0 5500000.0 L 11200000.0 5500000.0 L 11200000.0 6900000.0 L 12600000.0 6900000.0  M 14500000.0 10225000.0 L 14500000.0 8825000.0 L 13100000.0 8825000.0 L 13100000.0 10225000.0 L 14500000.0 10225000.0  M 14500000.0 8325000.0 L 14500000.0 6925000.0 L 13100000.0 6925000.0 L 13100000.0 8325000.0 L 14500000.0 8325000.0  M 14500000.0 6425000.0 L 14500000.0 5025000.0 L 13100000.0 5025000.0 L 13100000.0 6425000.0 L 14500000.0 6425000.0  M 16400000.0 9987500.0 L 16400000.0 8587500.0 L 15000000.0 8587500.0 L 15000000.0 9987500.0 L 16400000.0 9987500.0  M 16400000.0 8087500.0 L 16400000.0 6687500.0 L 15000000.0 6687500.0 L 15000000.0 8087500.0 L 16400000.0 8087500.0  M 16400000.0 6187500.0 L 16400000.0 4787500.0 L 15000000.0 4787500.0 L 15000000.0 6187500.0 L 16400000.0 6187500.0  M 18300000.0 10225000.0 L 18300000.0 8825000.0 L 16900000.0 8825000.0 L 16900000.0 10225000.0 L 18300000.0 10225000.0  M 18300000.0 8325000.0 L 18300000.0 6925000.0 L 16900000.0 6925000.0 L 16900000.0 8325000.0 L 18300000.0 8325000.0  M 18300000.0 6425000.0 L 18300000.0 5025000.0 L 16900000.0 5025000.0 L 16900000.0 6425000.0 L 18300000.0 6425000.0  M 20200000.0 10462500.0 L 20200000.0 9062500.0 L 18800000.0 9062500.0 L 18800000.0 10462500.0 L 20200000.0 10462500.0  M 20200000.0 8562500.0 L 20200000.0 7162500.0 L 18800000.0 7162500.0 L 18800000.0 8562500.0 L 20200000.0 8562500.0  M 20200000.0 6662500.0 L 20200000.0 5262500.0 L 18800000.0 5262500.0 L 18800000.0 6662500.0 L 20200000.0 6662500.0  M 17350000.0 12187500.0 L 17350000.0 10787500.0 L 15950000.0 10787500.0 L 15950000.0 12187500.0 L 17350000.0 12187500.0  M 19244974.0 12619821.0 L 19607321.0 11267525.0 L 18255025.0 10905178.0 L 17892678.0 12257474.0 L 19244974.0 12619821.0  M 21930898.0 11882698.0 L 20718462.0 11182698.0 L 20018462.0 12395133.0 L 21230898.0 13095133.0 L 21930898.0 11882698.0 " style="fill-rule: evenodd;"/></clipPath><mask id="pads-mask"><g style="fill:#ffffff; fill-opacity:0.0;  stroke:#ffffff; stroke-width:0.000000; stroke-opacity:1;  stroke-linecap:round; stroke-linejoin:round;">
<g style="fill:#ffffff; fill-opacity:1.0;  stroke:#ffffff; stroke-width:0.100000; stroke-opacity:1;  stroke-linecap:round; stroke-linejoin:round;">
<circle cx="10950000.000000" cy="7150000.000000" r="115000.000000"/> 
</g>
<g style="fill:#ffffff; fill-opacity:1.0;  stroke:#ffffff; stroke-width:0.100000; stroke-opacity:1;  stroke-linecap:round; stroke-linejoin:round;">
<circle cx="10950000.000000" cy="9050000.000000" r="115000.000000"/> 
</g>
<g style="fill:#ffffff; fill-opacity:1.0;  stroke:#ffffff; stroke-width:0.100000; stroke-opacity:1;  stroke-linecap:round; stroke-linejoin:round;">
<circle cx="18546800.000000" cy="6798600.000000" r="115000.000000"/> 
</g>
<g style="fill:#ffffff; fill-opacity:1.0;  stroke:#ffffff; stroke-width:0.100000; stroke-opacity:1;  stroke-linecap:round; stroke-linejoin:round;">
<circle cx="15265700.000000" cy="10774000.000000" r="115000.000000"/> 
</g>
<g style="fill:#ffffff; fill-opacity:1.0;  stroke:#ffffff; stroke-width:0.100000; stroke-opacity:1;  stroke-linecap:round; stroke-linejoin:round;">
<circle cx="19924105.200000" cy="11532365.800000" r="115000.000000"/> 
</g>
</g> 
</mask><mask id="pads-mask-silkscreen"><rect x="9100501.8" y="4591300.0" width="13340498.6" height="9187038.4" fill="white"/><g style="fill:#000000; fill-opacity:0.0;  stroke:#000000; stroke-width:0.000000; stroke-opacity:1;  stroke-linecap:round; stroke-linejoin:round;">
<g style="fill:#000000; fill-opacity:1.0;  stroke:#000000; stroke-width:0.100000; stroke-opacity:1;  stroke-linecap:round; stroke-linejoin:round;">
<circle cx="10950000.000000" cy="7150000.000000" r="115000.000000"/> 
</g>
<g style="fill:#000000; fill-opacity:1.0;  stroke:#000000; stroke-width:0.100000; stroke-opacity:1;  stroke-linecap:round; stroke-linejoin:round;">
<circle cx="10950000.000000" cy="9050000.000000" r="115000.000000"/> 
</g>
<g style="fill:#000000; fill-opacity:1.0;  stroke:#000000; stroke-width:0.100000; stroke-opacity:1;  stroke-linecap:round; stroke-linejoin:round;">
<circle cx="18546800.000000" cy="6798600.000000" r="115000.000000"/> 
</g>
<g style="fill:#000000; fill-opacity:1.0;  stroke:#000000; stroke-width:0.100000; stroke-opacity:1;  stroke-linecap:round; stroke-linejoin:round;">
<circle cx="15265700.000000" cy="10774000.000000" r="115000.000000"/> 
</g>
<g style="fill:#000000; fill-opacity:1.0;  stroke:#000000; stroke-width:0.100000; stroke-opacity:1;  stroke-linecap:round; stroke-linejoin:round;">
<circle cx="19924105.200000" cy="11532365.800000" r="115000.000000"/> 
</g>
</g> 
</mask><mask id="hole-mask"><g><rect x="9100501.8" y="4591300.0" fill="white" width="13340498.6" height="9187038.4"/><polyline stroke-linecap="round" stroke="black" stroke-width="220000.0" points="-0.0 0 0.0 0" transform="translate(10950000.0 7150000.0) rotate(-0.0)"/><polyline stroke-linecap="round" stroke="black" stroke-width="220000.0" points="-0.0 0 0.0 0" transform="translate(10950000.0 9050000.0) rotate(-0.0)"/><polyline stroke-linecap="round" stroke="black" stroke-width="220000.0" points="-0.0 0 0.0 0" transform="translate(18546800.0 6798600.0) rotate(-0.0)"/><polyline stroke-linecap="round" stroke="black" stroke-width="220000.0" points="-0.0 0 0.0 0" transform="translate(15265700.0 10774000.0) rotate(-0.0)"/><polyline stroke-linecap="round" stroke="black" stroke-width="220000.0" points="-0.0 0 0.0 0" transform="translate(19924105.2 11532365.8) rotate(-0.0)"/></g></mask></defs><g transform="" id="boardContainer"><g id="substrate" clip-path="url(#cut-off)" mask="url(#hole-mask)"><g id="substrate-board" style="fill:#1d1918; stroke:#1d1918;"><path d=" M 10950000.000000 7150000.000000 m-110000.000000 0 a 110000.000000 110000.000000 0 1 0 220000.0 0 a 110000.000000 110000.000000 0 1 0 -220000.0 0  M 10950000.000000 9050000.000000 m-110000.000000 0 a 110000.000000 110000.000000 0 1 0 220000.0 0 a 110000.000000 110000.000000 0 1 0 -220000.0 0  M 18546800.000000 6798600.000000 m-110000.000000 0 a 110000.000000 110000.000000 0 1 0 220000.0 0 a 110000.000000 110000.000000 0 1 0 -220000.0 0  M 15265700.000000 10774000.000000 m-110000.000000 0 a 110000.000000 110000.000000 0 1 0 220000.0 0 a 110000.000000 110000.000000 0 1 0 -220000.0 0  M 19924105.200000 11532365.800000 m-110000.000000 0 a 110000.000000 110000.000000 0 1 0 220000.0 0 a 110000.000000 110000.000000 0 1 0 -220000.0 0  M 9108001.800032 5349000.5 A 50000 50000 0 0 1 9158000.5 5298998.700017 L 12858001.0 5298901.0 A 50000 50000 0 0 0 12908000.0 5248901.3 L 12908000.0 4874000.0 A 50000 50000 0 0 1 12958000.0 4824000.0 L 14758000.0 4824000.0 A 50000 50000 0 0 0 14808000.0 4774000.0 L 14808000.0 4648800.0 A 50000 50000 0 0 1 14858000.0 4598800.0 L 16558200.0 4598800.0 A 50000 50000 0 0 1 16608200.0 4648800.0 L 16608200.0 4774000.0 A 50000 50000 0 0 0 16658200.0 4824000.0 L 18458200.0 4824000.0 A 50000 50000 0 0 1 18508200.0 4874000.0 L 18508200.0 5023800.0 A 50000 50000 0 0 0 18558200.0 5073800.0 L 20358222.0 5073800.0 A 50000 50000 0 0 1 20408222.195072 5123777.800002 L 20408300.0 5299000.0 A 50000 50000 0 0 0 20408299.995072 5299000.000002 L 20408300.0 10190976.0 A 50000 50000 0 0 0 20433300.012908 10234278.077642 L 22408500.0 11374660.0 A 50000 50000 0 0 1 22426802.595432 11442960.197363 L 21097353.0 13745836.0 A 50000 50000 0 0 1 21029051.012908 13764139.677642 L 19512364.0 12888480.0 A 49999.9 49999.9 0 0 0 19493826.700147 12882200.898874 L 15777296.0 12397775.0 A 50000 50000 0 0 1 15743351.029367 12377643.078599 L 14698977.0 10944552.0 A 50000 50000 0 0 0 14658569.3 10924000.0 L 9158198.0 10924000.0 A 50000 50000 0 0 1 9108198.200032 10874001.8 L 9108001.0 5349000.0  M 10700000.0 10700000.0 L 10700000.0 9300000.0 L 9300000.0 9300000.0 L 9300000.0 10700000.0 L 10700000.0 10700000.0  M 10700000.0 8800000.0 L 10700000.0 7400000.0 L 9300000.0 7400000.0 L 9300000.0 8800000.0 L 10700000.0 8800000.0  M 10700000.0 6900000.0 L 10700000.0 5500000.0 L 9300000.0 5500000.0 L 9300000.0 6900000.0 L 10700000.0 6900000.0  M 12600000.0 10700000.0 L 12600000.0 9300000.0 L 11200000.0 9300000.0 L 11200000.0 10700000.0 L 12600000.0 10700000.0  M 12600000.0 8800000.0 L 12600000.0 7400000.0 L 11200000.0 7400000.0 L 11200000.0 8800000.0 L 12600000.0 8800000.0  M 12600000.0 6900000.0 L 12600000.0 5500000.0 L 11200000.0 5500000.0 L 11200000.0 6900000.0 L 12600000.0 6900000.0  M 14500000.0 10225000.0 L 14500000.0 8825000.0 L 13100000.0 8825000.0 L 13100000.0 10225000.0 L 14500000.0 10225000.0  M 14500000.0 8325000.0 L 14500000.0 6925000.0 L 13100000.0 6925000.0 L 13100000.0 8325000.0 L 14500000.0 8325000.0  M 14500000.0 6425000.0 L 14500000.0 5025000.0 L 13100000.0 5025000.0 L 13100000.0 6425000.0 L 14500000.0 6425000.0  M 16400000.0 9987500.0 L 16400000.0 8587500.0 L 15000000.0 8587500.0 L 15000000.0 9987500.0 L 16400000.0 9987500.0  M 16400000.0 8087500.0 L 16400000.0 6687500.0 L 15000000.0 6687500.0 L 15000000.0 8087500.0 L 16400000.0 8087500.0  M 16400000.0 6187500.0 L 16400000.0 4787500.0 L 15000000.0 4787500.0 L 15000000.0 6187500.0 L 16400000.0 6187500.0  M 18300000.0 10225000.0 L 18300000.0 8825000.0 L 16900000.0 8825000.0 L 16900000.0 10225000.0 L 18300000.0 10225000.0  M 18300000.0 8325000.0 L 18300000.0 6925000.0 L 16900000.0 6925000.0 L 16900000.0 8325000.0 L 18300000.0 8325000.0  M 18300000.0 6425000.0 L 18300000.0 5025000.0 L 16900000.0 5025000.0 L 16900000.0 6425000.0 L 18300000.0 6425000.0  M 20200000.0 10462500.0 L 20200000.0 9062500.0 L 18800000.0 9062500.0 L 18800000.0 10462500.0 L 20200000.0 10462500.0  M 20200000.0 8562500.0 L 20200000.0 7162500.0 L 18800000.0 7162500.0 L 18800000.0 8562500.0 L 20200000.0 8562500.0  M 20200000.0 6662500.0 L 20200000.0 5262500.0 L 18800000.0 5262500.0 L 18800000.0 6662500.0 L 20200000.0 6662500.0  M 17350000.0 12187500.0 L 17350000.0 10787500.0 L 15950000.0 10787500.0 L 15950000.0 12187500.0 L 17350000.0 12187500.0  M 19244974.0 12619821.0 L 19607321.0 11267525.0 L 18255025.0 10905178.0 L 17892678.0 12257474.0 L 19244974.0 12619821.0  M 21930898.0 11882698.0 L 20718462.0 11182698.0 L 20018462.0 12395133.0 L 21230898.0 13095133.0 L 21930898.0 11882698.0 " style="fill-rule: evenodd;"/><g style="fill-opacity: 0.0;stroke-width: 15000.000000;stroke-opacity: 1;stroke-linecap: round;stroke-linejoin: round">
<path d="M9108198 10874001 L9108001 5349000 "/>
<path d="M9158000 5298998 L12858001 5298901 "/>
<path d="M12908000 5248901 L12908000 4874000 "/>
<path d="M12958000 4824000 L14758000 4824000 "/>
<path d="M14808000 4774000 L14808000 4648800 "/>
<path d="M14858000 4598800 L16558200 4598800 "/>
<path d="M16608200 4648800 L16608200 4774000 "/>
<path d="M16658200 4824000 L18458200 4824000 "/>
<path d="M18508200 4874000 L18508200 5023800 "/>
<path d="M18558200 5073800 L20358222 5073800 "/>
<path d="M20408222 5123777 L20408300 5299000 "/>
<path d="M20408300 5299022 L20408300 10190976 "/>
<path d="M20433300 10234278 L22408500 11374660 "/>
<path d="M22426802 11442960 L21097353 13745836 "/>
<path d="M21029051 13764139 L19512364 12888480 "/>
<path d="M19493826 12882200 L15777296 12397775 "/>
<path d="M15743351 12377643 L14698977 10944552 "/>
<path d="M14658569 10924000 L9158198 10924000 "/>
<path d="M9158000.500000 5298998.700017 A50000.000000 50000.000000 0.0 0 0 9108001.800032 5349000.500000"/>
<path d="M12858001.300000 5298901.299983 A50000.000000 50000.000000 0.0 0 0 12908000.000000 5248901.300000"/>
<path d="M12958000.000000 4824000.000000 A50000.000000 50000.000000 0.0 0 0 12908000.000000 4874000.000000"/>
<path d="M14758000.000000 4824000.000000 A50000.000000 50000.000000 0.0 0 0 14808000.000000 4774000.000000"/>
<path d="M14858000.000000 4598800.000000 A50000.000000 50000.000000 0.0 0 0 14808000.000000 4648800.000000"/>
<path d="M16608200.000000 4648800.000000 A50000.000000 50000.000000 0.0 0 0 16558200.000000 4598800.000000"/>
<path d="M16608200.000000 4774000.000000 A50000.000000 50000.000000 0.0 0 0 16658200.000000 4824000.000000"/>
<path d="M18508200.000000 4874000.000000 A50000.000000 50000.000000 0.0 0 0 18458200.000000 4824000.000000"/>
<path d="M18508200.000000 5023800.000000 A50000.000000 50000.000000 0.0 0 0 18558200.000000 5073800.000000"/>
<path d="M20408222.195072 5123777.800002 A50000.000000 50000.000000 0.0 0 0 20358222.200000 5073800.000000"/>
<path d="M20408300.000000 5299022.200000 A50000.000000 50000.000000 0.0 0 0 20408299.995072 5299000.000002"/>
<path d="M20408300.000000 10190976.800000 A50000.000000 50000.000000 0.0 0 0 20433300.012908 10234278.077642"/>
<path d="M22426802.595432 11442960.197363 A50000.000000 50000.000000 0.0 0 0 22408500.505393 11374660.590659"/>
<path d="M21029051.012908 13764139.677642 A50000.000000 50000.000000 0.0 0 0 21097353.263728 13745836.679061"/>
<path d="M19512364.180393 12888480.233961 A49999.900000 49999.900000 0.0 0 0 19493826.700147 12882200.898874"/>
<path d="M15743351.029367 12377643.078599 A50000.000000 50000.000000 0.0 0 0 15777296.799745 12397775.901957"/>
<path d="M14698977.570633 10944552.221401 A50000.000000 50000.000000 0.0 0 0 14658569.300000 10924000.000000"/>
<path d="M9108198.200032 10874001.800000 A50000.000000 50000.000000 0.0 0 0 9158198.200000 10924000.000000"/>
<path d="M9300000 10700000 L10700000 10700000 "/>
<path d="M10700000 10700000 L10700000 9300000 "/>
<path d="M10700000 9300000 L9300000 9300000 "/>
<path d="M9300000 9300000 L9300000 10700000 "/>
<path d="M9300000 8800000 L10700000 8800000 "/>
<path d="M10700000 8800000 L10700000 7400000 "/>
<path d="M10700000 7400000 L9300000 7400000 "/>
<path d="M9300000 7400000 L9300000 8800000 "/>
<path d="M9300000 6900000 L10700000 6900000 "/>
<path d="M10700000 6900000 L10700000 5500000 "/>
<path d="M10700000 5500000 L9300000 5500000 "/>
<path d="M9300000 5500000 L9300000 6900000 "/>
<path d="M11200000 10700000 L12600000 10700000 "/>
<path d="M12600000 10700000 L12600000 9300000 "/>
<path d="M12600000 9300000 L11200000 9300000 "/>
<path d="M11200000 9300000 L11200000 10700000 "/>
<path d="M11200000 8800000 L12600000 8800000 "/>
<path d="M12600000 8800000 L12600000 7400000 "/>
<path d="M12600000 7400000 L11200000 7400000 "/>
<path d="M11200000 7400000 L11200000 8800000 "/>
<path d="M11200000 6900000 L12600000 6900000 "/>
<path d="M12600000 6900000 L12600000 5500000 "/>
<path d="M12600000 5500000 L11200000 5500000 "/>
<path d="M11200000 5500000 L11200000 6900000 "/>
<path d="M13100000 10225000 L14500000 10225000 "/>
<path d="M14500000 10225000 L14500000 8825000 "/>
<path d="M14500000 8825000 L13100000 8825000 "/>
<path d="M13100000 8825000 L13100000 10225000 "/>
<path d="M13100000 8325000 L14500000 8325000 "/>
<path d="M14500000 8325000 L14500000 6925000 "/>
<path d="M14500000 6925000 L13100000 6925000 "/>
<path d="M13100000 6925000 L13100000 8325000 "/>
<path d="M13100000 6425000 L14500000 6425000 "/>
<path d="M14500000 6425000 L14500000 5025000 "/>
<path d="M14500000 5025000 L13100000 5025000 "/>
<path d="M13100000 5025000 L13100000 6425000 "/>
<path d="M15000000 9987500 L16400000 9987500 "/>
<path d="M16400000 9987500 L16400000 8587500 "/>
<path d="M16400000 8587500 L15000000 8587500 "/>
<path d="M15000000 8587500 L15000000 9987500 "/>
<path d="M15000000 8087500 L16400000 8087500 "/>
<path d="M16400000 8087500 L16400000 6687500 "/>
<path d="M16400000 6687500 L15000000 6687500 "/>
<path d="M15000000 6687500 L15000000 8087500 "/>
<path d="M15000000 6187500 L16400000 6187500 "/>
<path d="M16400000 6187500 L16400000 4787500 "/>
<path d="M16400000 4787500 L15000000 4787500 "/>
<path d="M15000000 4787500 L15000000 6187500 "/>
<path d="M16900000 10225000 L18300000 10225000 "/>
<path d="M18300000 10225000 L18300000 8825000 "/>
<path d="M18300000 8825000 L16900000 8825000 "/>
<path d="M16900000 8825000 L16900000 10225000 "/>
<path d="M16900000 8325000 L18300000 8325000 "/>
<path d="M18300000 8325000 L18300000 6925000 "/>
<path d="M18300000 6925000 L16900000 6925000 "/>
<path d="M16900000 6925000 L16900000 8325000 "/>
<path d="M16900000 6425000 L18300000 6425000 "/>
<path d="M18300000 6425000 L18300000 5025000 "/>
<path d="M18300000 5025000 L16900000 5025000 "/>
<path d="M16900000 5025000 L16900000 6425000 "/>
<path d="M18800000 10462500 L20200000 10462500 "/>
<path d="M20200000 10462500 L20200000 9062500 "/>
<path d="M20200000 9062500 L18800000 9062500 "/>
<path d="M18800000 9062500 L18800000 10462500 "/>
<path d="M18800000 8562500 L20200000 8562500 "/>
<path d="M20200000 8562500 L20200000 7162500 "/>
<path d="M20200000 7162500 L18800000 7162500 "/>
<path d="M18800000 7162500 L18800000 8562500 "/>
<path d="M18800000 6662500 L20200000 6662500 "/>
<path d="M20200000 6662500 L20200000 5262500 "/>
<path d="M20200000 5262500 L18800000 5262500 "/>
<path d="M18800000 5262500 L18800000 6662500 "/>
<path d="M15950000 12187500 L17350000 12187500 "/>
<path d="M17350000 12187500 L17350000 10787500 "/>
<path d="M17350000 10787500 L15950000 10787500 "/>
<path d="M15950000 10787500 L15950000 12187500 "/>
<path d="M17892678 12257474 L19244974 12619821 "/>
<path d="M19244974 12619821 L19607321 11267525 "/>
<path d="M19607321 11267525 L18255025 10905178 "/>
<path d="M18255025 10905178 L17892678 12257474 "/>
<path d="M21230898 13095133 L21930898 11882698 "/>
<path d="M21930898 11882698 L20718462 11182698 "/>
<path d="M20718462 11182698 L20018462 12395133 "/>
<path d="M20018462 12395133 L21230898 13095133 "/>
<circle cx="10950000.000000" cy="7150000.000000" r="110000.000000"/> 
<circle cx="10950000.000000" cy="9050000.000000" r="110000.000000"/> 
<circle cx="18546800.000000" cy="6798600.000000" r="110000.000000"/> 
<circle cx="15265700.000000" cy="10774000.000000" r="110000.000000"/> 
<circle cx="19924105.200000" cy="11532365.800000" r="110000.000000"/> 
</g> 
</g><g id="substrate-clad" style="fill:#72786c; stroke:#72786c;"><g style="fill-opacity: 0.0;stroke-width: 0.000000;stroke-opacity: 1;stroke-linecap: round;stroke-linejoin: round">
<g style="fill-opacity: 1.0;stroke-width: 0.100000;stroke-opacity: 1;stroke-linecap: round;stroke-linejoin: round">
<circle cx="10950000.000000" cy="7150000.000000" r="115000.000000"/> 
</g>
<g style="fill-opacity: 1.0;stroke-width: 0.100000;stroke-opacity: 1;stroke-linecap: round;stroke-linejoin: round">
<circle cx="10950000.000000" cy="9050000.000000" r="115000.000000"/> 
</g>
<g style="fill-opacity: 1.0;stroke-width: 0.100000;stroke-opacity: 1;stroke-linecap: round;stroke-linejoin: round">
<circle cx="18546800.000000" cy="6798600.000000" r="115000.000000"/> 
</g>
<g style="fill-opacity: 1.0;stroke-width: 0.100000;stroke-opacity: 1;stroke-linecap: round;stroke-linejoin: round">
<circle cx="15265700.000000" cy="10774000.000000" r="115000.000000"/> 
</g>
<g style="fill-opacity: 1.0;stroke-width: 0.100000;stroke-opacity: 1;stroke-linecap: round;stroke-linejoin: round">
<circle cx="19924105.200000" cy="11532365.800000" r="115000.000000"/> 
</g>
</g> 
</g><g id="substrate-silk" style="fill:#d5dce4; stroke:#d5dce4;" mask="url(#pads-mask-silkscreen)"><g style="fill-opacity: 0.0;stroke-width: 15000.000000;stroke-opacity: 1;stroke-linecap: round;stroke-linejoin: round">
<text x="10950000.000000" y="7213500.000000" textLength="0.100000" font-size="169333.300000" lengthAdjust="spacingAndGlyphs" text-anchor="middle" opacity="0"/>
<g class="stroked-text"><desc/>
</g><text x="10950000.000000" y="9113500.000000" textLength="15000.000000" font-size="169333.300000" lengthAdjust="spacingAndGlyphs" text-anchor="middle" opacity="0"/>
<g class="stroked-text"><desc/>
</g><text x="18546800.000000" y="6862100.000000" textLength="15000.000000" font-size="169333.300000" lengthAdjust="spacingAndGlyphs" text-anchor="middle" opacity="0"/>
<g class="stroked-text"><desc/>
</g><text x="15265700.000000" y="10837500.000000" textLength="15000.000000" font-size="169333.300000" lengthAdjust="spacingAndGlyphs" text-anchor="middle" opacity="0"/>
<g class="stroked-text"><desc/>
</g><g transform="rotate(-60.000000 19924105.200000 11532365.800000)">
<text x="19924105.200000" y="11595865.800000" textLength="15000.000000" font-size="169333.300000" lengthAdjust="spacingAndGlyphs" text-anchor="middle" opacity="0"/>
</g>
<g class="stroked-text"><desc/>
</g></g> 
</g><g id="substrate-outline" style="fill:#000000; stroke:#000000; stroke-width: 15000.0"><g style="fill-opacity: 0.0;stroke-opacity: 1;stroke-linecap: round;stroke-linejoin: round">
<path d="M9108198 10874001 L9108001 5349000 "/>
<path d="M9158000 5298998 L12858001 5298901 "/>
<path d="M12908000 5248901 L12908000 4874000 "/>
<path d="M12958000 4824000 L14758000 4824000 "/>
<path d="M14808000 4774000 L14808000 4648800 "/>
<path d="M14858000 4598800 L16558200 4598800 "/>
<path d="M16608200 4648800 L16608200 4774000 "/>
<path d="M16658200 4824000 L18458200 4824000 "/>
<path d="M18508200 4874000 L18508200 5023800 "/>
<path d="M18558200 5073800 L20358222 5073800 "/>
<path d="M20408222 5123777 L20408300 5299000 "/>
<path d="M20408300 5299022 L20408300 10190976 "/>
<path d="M20433300 10234278 L22408500 11374660 "/>
<path d="M22426802 11442960 L21097353 13745836 "/>
<path d="M21029051 13764139 L19512364 12888480 "/>
<path d="M19493826 12882200 L15777296 12397775 "/>
<path d="M15743351 12377643 L14698977 10944552 "/>
<path d="M14658569 10924000 L9158198 10924000 "/>
<path d="M9158000.500000 5298998.700017 A50000.000000 50000.000000 0.0 0 0 9108001.800032 5349000.500000"/>
<path d="M12858001.300000 5298901.299983 A50000.000000 50000.000000 0.0 0 0 12908000.000000 5248901.300000"/>
<path d="M12958000.000000 4824000.000000 A50000.000000 50000.000000 0.0 0 0 12908000.000000 4874000.000000"/>
<path d="M14758000.000000 4824000.000000 A50000.000000 50000.000000 0.0 0 0 14808000.000000 4774000.000000"/>
<path d="M14858000.000000 4598800.000000 A50000.000000 50000.000000 0.0 0 0 14808000.000000 4648800.000000"/>
<path d="M16608200.000000 4648800.000000 A50000.000000 50000.000000 0.0 0 0 16558200.000000 4598800.000000"/>
<path d="M16608200.000000 4774000.000000 A50000.000000 50000.000000 0.0 0 0 16658200.000000 4824000.000000"/>
<path d="M18508200.000000 4874000.000000 A50000.000000 50000.000000 0.0 0 0 18458200.000000 4824000.000000"/>
<path d="M18508200.000000 5023800.000000 A50000.000000 50000.000000 0.0 0 0 18558200.000000 5073800.000000"/>
<path d="M20408222.195072 5123777.800002 A50000.000000 50000.000000 0.0 0 0 20358222.200000 5073800.000000"/>
<path d="M20408300.000000 5299022.200000 A50000.000000 50000.000000 0.0 0 0 20408299.995072 5299000.000002"/>
<path d="M20408300.000000 10190976.800000 A50000.000000 50000.000000 0.0 0 0 20433300.012908 10234278.077642"/>
<path d="M22426802.595432 11442960.197363 A50000.000000 50000.000000 0.0 0 0 22408500.505393 11374660.590659"/>
<path d="M21029051.012908 13764139.677642 A50000.000000 50000.000000 0.0 0 0 21097353.263728 13745836.679061"/>
<path d="M19512364.180393 12888480.233961 A49999.900000 49999.900000 0.0 0 0 19493826.700147 12882200.898874"/>
<path d="M15743351.029367 12377643.078599 A50000.000000 50000.000000 0.0 0 0 15777296.799745 12397775.901957"/>
<path d="M14698977.570633 10944552.221401 A50000.000000 50000.000000 0.0 0 0 14658569.300000 10924000.000000"/>
<path d="M9108198.200032 10874001.800000 A50000.000000 50000.000000 0.0 0 0 9158198.200000 10924000.000000"/>
<path d="M9300000 10700000 L10700000 10700000 "/>
<path d="M10700000 10700000 L10700000 9300000 "/>
<path d="M10700000 9300000 L9300000 9300000 "/>
<path d="M9300000 9300000 L9300000 10700000 "/>
<path d="M9300000 8800000 L10700000 8800000 "/>
<path d="M10700000 8800000 L10700000 7400000 "/>
<path d="M10700000 7400000 L9300000 7400000 "/>
<path d="M9300000 7400000 L9300000 8800000 "/>
<path d="M9300000 6900000 L10700000 6900000 "/>
<path d="M10700000 6900000 L10700000 5500000 "/>
<path d="M10700000 5500000 L9300000 5500000 "/>
<path d="M9300000 5500000 L9300000 6900000 "/>
<path d="M11200000 10700000 L12600000 10700000 "/>
<path d="M12600000 10700000 L12600000 9300000 "/>
<path d="M12600000 9300000 L11200000 9300000 "/>
<path d="M11200000 9300000 L11200000 10700000 "/>
<path d="M11200000 8800000 L12600000 8800000 "/>
<path d="M12600000 8800000 L12600000 7400000 "/>
<path d="M12600000 7400000 L11200000 7400000 "/>
<path d="M11200000 7400000 L11200000 8800000 "/>
<path d="M11200000 6900000 L12600000 6900000 "/>
<path d="M12600000 6900000 L12600000 5500000 "/>
<path d="M12600000 5500000 L11200000 5500000 "/>
<path d="M11200000 5500000 L11200000 6900000 "/>
<path d="M13100000 10225000 L14500000 10225000 "/>
<path d="M14500000 10225000 L14500000 8825000 "/>
<path d="M14500000 8825000 L13100000 8825000 "/>
<path d="M13100000 8825000 L13100000 10225000 "/>
<path d="M13100000 8325000 L14500000 8325000 "/>
<path d="M14500000 8325000 L14500000 6925000 "/>
<path d="M14500000 6925000 L13100000 6925000 "/>
<path d="M13100000 6925000 L13100000 8325000 "/>
<path d="M13100000 6425000 L14500000 6425000 "/>
<path d="M14500000 6425000 L14500000 5025000 "/>
<path d="M14500000 5025000 L13100000 5025000 "/>
<path d="M13100000 5025000 L13100000 6425000 "/>
<path d="M15000000 9987500 L16400000 9987500 "/>
<path d="M16400000 9987500 L16400000 8587500 "/>
<path d="M16400000 8587500 L15000000 8587500 "/>
<path d="M15000000 8587500 L15000000 9987500 "/>
<path d="M15000000 8087500 L16400000 8087500 "/>
<path d="M16400000 8087500 L16400000 6687500 "/>
<path d="M16400000 6687500 L15000000 6687500 "/>
<path d="M15000000 6687500 L15000000 8087500 "/>
<path d="M15000000 6187500 L16400000 6187500 "/>
<path d="M16400000 6187500 L16400000 4787500 "/>
<path d="M16400000 4787500 L15000000 4787500 "/>
<path d="M15000000 4787500 L15000000 6187500 "/>
<path d="M16900000 10225000 L18300000 10225000 "/>
<path d="M18300000 10225000 L18300000 8825000 "/>
<path d="M18300000 8825000 L16900000 8825000 "/>
<path d="M16900000 8825000 L16900000 10225000 "/>
<path d="M16900000 8325000 L18300000 8325000 "/>
<path d="M18300000 8325000 L18300000 6925000 "/>
<path d="M18300000 6925000 L16900000 6925000 "/>
<path d="M16900000 6925000 L16900000 8325000 "/>
<path d="M16900000 6425000 L18300000 6425000 "/>
<path d="M18300000 6425000 L18300000 5025000 "/>
<path d="M18300000 5025000 L16900000 5025000 "/>
<path d="M16900000 5025000 L16900000 6425000 "/>
<path d="M18800000 10462500 L20200000 10462500 "/>
<path d="M20200000 10462500 L20200000 9062500 "/>
<path d="M20200000 9062500 L18800000 9062500 "/>
<path d="M18800000 9062500 L18800000 10462500 "/>
<path d="M18800000 8562500 L20200000 8562500 "/>
<path d="M20200000 8562500 L20200000 7162500 "/>
<path d="M20200000 7162500 L18800000 7162500 "/>
<path d="M18800000 7162500 L18800000 8562500 "/>
<path d="M18800000 6662500 L20200000 6662500 "/>
<path d="M20200000 6662500 L20200000 5262500 "/>
<path d="M20200000 5262500 L18800000 5262500 "/>
<path d="M18800000 5262500 L18800000 6662500 "/>
<path d="M15950000 12187500 L17350000 12187500 "/>
<path d="M17350000 12187500 L17350000 10787500 "/>
<path d="M17350000 10787500 L15950000 10787500 "/>
<path d="M15950000 10787500 L15950000 12187500 "/>
<path d="M17892678 12257474 L19244974 12619821 "/>
<path d="M19244974 12619821 L19607321 11267525 "/>
<path d="M19607321 11267525 L18255025 10905178 "/>
<path d="M18255025 10905178 L17892678 12257474 "/>
<path d="M21230898 13095133 L21930898 11882698 "/>
<path d="M21930898 11882698 L20718462 11182698 "/>
<path d="M20718462 11182698 L20018462 12395133 "/>
<path d="M20018462 12395133 L21230898 13095133 "/>
<circle cx="10950000.000000" cy="7150000.000000" r="110000.000000"/> 
<circle cx="10950000.000000" cy="9050000.000000" r="110000.000000"/> 
<circle cx="18546800.000000" cy="6798600.000000" r="110000.000000"/> 
<circle cx="15265700.000000" cy="10774000.000000" r="110000.000000"/> 
<circle cx="19924105.200000" cy="11532365.800000" r="110000.000000"/> 
</g> 
<path d="M -110000.0 0.0 A 110000.0 110000.0 0 1 1 110000.0 0.0 L 110000.0 -0.0 A 110000.0 110000.0 0 1 1 -110000.0 -0.0 Z" transform="translate(10950000.0 7150000.0) rotate(-0.0)"/><path d="M -110000.0 0.0 A 110000.0 110000.0 0 1 1 110000.0 0.0 L 110000.0 -0.0 A 110000.0 110000.0 0 1 1 -110000.0 -0.0 Z" transform="translate(10950000.0 9050000.0) rotate(-0.0)"/><path d="M -110000.0 0.0 A 110000.0 110000.0 0 1 1 110000.0 0.0 L 110000.0 -0.0 A 110000.0 110000.0 0 1 1 -110000.0 -0.0 Z" transform="translate(18546800.0 6798600.0) rotate(-0.0)"/><path d="M -110000.0 0.0 A 110000.0 110000.0 0 1 1 110000.0 0.0 L 110000.0 -0.0 A 110000.0 110000.0 0 1 1 -110000.0 -0.0 Z" transform="translate(15265700.0 10774000.0) rotate(-0.0)"/><path d="M -110000.0 0.0 A 110000.0 110000.0 0 1 1 110000.0 0.0 L 110000.0 -0.0 A 110000.0 110000.0 0 1 1 -110000.0 -0.0 Z" transform="translate(19924105.2 11532365.8) rotate(-0.0)"/></g></g></g></svg>