<!DOCTYPE svg PUBLIC "-//W3C//DTD SVG 1.1//EN" "http://www.w3.org/Graphics/SVG/1.1/DTD/svg11.dtd">
<svg xmlns="http://www.w3.org/2000/svg" version="1.1" width="135.714927mm" height="94.498141mm" viewBox="8950000.0 4437500.0 13571492.799999688 9449814.112075927">
            <title>Picture generated by PcbDraw </title>
            <desc>Picture generated by PcbDraw</desc>
        <defs><clipPath id="cut-off"><path d=" M 10950000.000000 7150000.000000 m-110000.000000 0 a 110000.000000 110000.000000 0 1 0 220000.0 0 a 110000.000000 110000.000000 0 1 0 -220000.0 0  M 10950000.000000 9050000.000000 m-110000.000000 0 a 110000.000000 110000.000000 0 1 0 220000.0 0 a 110000.000000 110000.000000 0 1 0 -220000.0 0  M 18550000.000000 6772500.000000 m-110000.000000 0 a 110000.000000 110000.000000 0 1 0 220000.0 0 a 110000.000000 110000.000000 0 1 0 -220000.0 0  M 15300000.000000 10765000.000000 m-110000.000000 0 a 110000.000000 110000.000000 0 1 0 220000.0 0 a 110000.000000 110000.000000 0 1 0 -220000.0 0  M 19949777.000000 11545278.800000 m-110000.000000 0 a 110000.000000 110000.000000 0 1 0 220000.0 0 a 110000.000000 110000.000000 0 1 0 -220000.0 0  M 14722730.2 10950000.0 A 50000 50000 0 0 1 14764765.961808 10972926.124598 L 15687307.0 12405293.0 A 49999.9 49999.9 0 0 0 15723266.201298 12427848.9894 L 19400376.0 12878127.0 A 50000 50000 0 0 1 19419299.187092 12884455.522358 L 20971492.0 13780615.0 A 50000 50000 0 0 0 21039794.177642 13762313.687092 L 22414794.0 11380743.0 A 49999.9 49999.9 0 0 0 22396492.880393 11312442.733961 L 20475000.0 10203068.0 A 50000 50000 0 0 1 20450000.0 10159766.9 L 20450000.0 5062500.0 A 50000 50000 0 0 0 20400000.0 5012500.0 L 18600000.0 5012500.0 A 50000 50000 0 0 1 18550000.0 4962500.0 L 18550000.0 4825000.0 A 50000 50000 0 0 0 18500000.0 4775000.0 L 16700000.0 4775000.0 A 50000 50000 0 0 1 16650000.0 4725000.0 L 16650000.0 4587500.0 A 50000 50000 0 0 0 16600000.0 4537500.0 L 14800000.0 4537500.0 A 50000 50000 0 0 0 14750000.0 4587500.0 L 14750000.0 4725000.0 A 50000 50000 0 0 1 14700000.0 4775000.0 L 12900000.0 4775000.0 A 50000 50000 0 0 0 12850000.0 4825000.0 L 12850000.0 5200000.0 A 50000 50000 0 0 1 12800000.0 5250000.0 L 9100000.0 5250000.0 A 50000 50000 0 0 0 9050000.0 5300000.0 L 9050000.0 10900000.0 A 50000 50000 0 0 0 9100000.0 10950000.0 L 14722730.0 10950000.0  M 10700000.0 10700000.0 L 10700000.0 9300000.0 L 9300000.0 9300000.0 L 9300000.0 10700000.0 L 10700000.0 10700000.0  M 10700000.0 8800000.0 L 10700000.0 7400000.0 L 9300000.0 7400000.0 L 9300000.0 8800000.0 L 10700000.0 8800000.0  M 10700000.0 6900000.0 L 10700000.0 5500000.0 L 9300000.0 5500000.0 L 9300000.0 6900000.0 L 10700000.0 6900000.0  M 12600000.0 10700000.0 L 12600000.0 9300000.0 L 11200000.0 9300000.0 L 11200000.0 10700000.0 L 12600000.0 10700000.0  M 12600000.0 8800000.0 L 12600000.0 7400000.0 L 11200000.0 7400000.0 L 11200000.0 8800000.0 L 12600000.0 8800000.0  M 12600000.0 6900000.0 L 12600000.0 5500000.0 L 11200000.0 5500000.0 L 11200000.0 6900000.0 L 12600000.0 6900000.0  M 14500000.0 10225000.0 L 14500000.0 8825000.0 L 13100000.0 8825000.0 L 13100000.0 10225000.0 L 14500000.0 10225000.0  M 14500000.0 8325000.0 L 14500000.0 6925000.0 L 13100000.0 6925000.0 L 13100000.0 8325000.0 L 14500000.0 8325000.0  M 14500000.0 6425000.0 L 14500000.0 5025000.0 L 13100000.0 5025000.0 L 13100000.0 6425000.0 L 14500000.0 6425000.0  M 16400000.0 9987500.0 L 16400000.0 8587500.0 L 15000000.0 8587500.0 L 15000000.0 9987500.0 L 16400000.0 9987500.0  M 16400000.0 8087500.0 L 16400000.0 6687500.0 L 15000000.0 6687500.0 L 15000000.0 8087500.0 L 16400000.0 8087500.0  M 16400000.0 6187500.0 L 16400000.0 4787500.0 L 15000000.0 4787500.0 L 15000000.0 6187500.0 L 16400000.0 6187500.0  M 18300000.0 10225000.0 L 18300000.0 8825000.0 L 16900000.0 8825000.0 L 16900000.0 10225000.0 L 18300000.0 10225000.0  M 18300000.0 8325000.0 L 18300000.0 6925000.0 L 16900000.0 6925000.0 L 16900000.0 8325000.0 L 18300000.0 8325000.0  M 18300000.0 6425000.0 L 18300000.0 5025000.0 L 16900000.0 5025000.0 L 16900000.0 6425000.0 L 18300000.0 6425000.0  M 20200000.0 10462500.0 L 20200000.0 9062500.0 L 18800000.0 9062500.0 L 18800000.0 10462500.0 L 20200000.0 10462500.0  M 20200000.0 8562500.0 L 20200000.0 7162500.0 L 18800000.0 7162500.0 L 18800000.0 8562500.0 L 20200000.0 8562500.0  M 20200000.0 6662500.0 L 20200000.0 5262500.0 L 18800000.0 5262500.0 L 18800000.0 6662500.0 L 20200000.0 6662500.0  M 17350000.0 12175000.0 L 17350000.0 10775000.0 L 15950000.0 10775000.0 L 15950000.0 12175000.0 L 17350000.0 12175000.0  M 19258482.0 12610570.0 L 19620829.0 11258273.0 L 18268532.0 10895927.0 L 17906186.0 12248223.0 L 19258482.0 12610570.0  M 21901924.0 11864061.0 L 20689488.0 11164061.0 L 19989488.0 12376496.0 L 21201924.0 13076496.0 L 21901924.0 11864061.0 " style="fill-rule: evenodd;"/></clipPath><mask id="pads-mask"/><mask id="pads-mask-silkscreen"><rect x="9042500.0" y="4530000.0" width="13386492.8" height="9264813.7" fill="white"/></mask><mask id="hole-mask"><g><rect x="9042500.0" y="4530000.0" fill="white" width="13386492.8" height="9264813.7"/></g></mask></defs><g transform="" id="boardContainer"><g id="substrate" clip-path="url(#cut-off)" mask="url(#hole-mask)"><g id="substrate-board" style="fill:#1d1918; stroke:#1d1918;"><path d=" M 10950000.000000 7150000.000000 m-110000.000000 0 a 110000.000000 110000.000000 0 1 0 220000.0 0 a 110000.000000 110000.000000 0 1 0 -220000.0 0  M 10950000.000000 9050000.000000 m-110000.000000 0 a 110000.000000 110000.000000 0 1 0 220000.0 0 a 110000.000000 110000.000000 0 1 0 -220000.0 0  M 18550000.000000 6772500.000000 m-110000.000000 0 a 110000.000000 110000.000000 0 1 0 220000.0 0 a 110000.000000 110000.000000 0 1 0 -220000.0 0  M 15300000.000000 10765000.000000 m-110000.000000 0 a 110000.000000 110000.000000 0 1 0 220000.0 0 a 110000.000000 110000.000000 0 1 0 -220000.0 0  M 19949777.000000 11545278.800000 m-110000.000000 0 a 110000.000000 110000.000000 0 1 0 220000.0 0 a 110000.000000 110000.000000 0 1 0 -220000.0 0  M 14722730.2 10950000.0 A 50000 50000 0 0 1 14764765.961808 10972926.124598 L 15687307.0 12405293.0 A 49999.9 49999.9 0 0 0 15723266.201298 12427848.9894 L 19400376.0 12878127.0 A 50000 50000 0 0 1 19419299.187092 12884455.522358 L 20971492.0 13780615.0 A 50000 50000 0 0 0 21039794.177642 13762313.687092 L 22414794.0 11380743.0 A 49999.9 49999.9 0 0 0 22396492.880393 11312442.733961 L 20475000.0 10203068.0 A 50000 50000 0 0 1 20450000.0 10159766.9 L 20450000.0 5062500.0 A 50000 50000 0 0 0 20400000.0 5012500.0 L 18600000.0 5012500.0 A 50000 50000 0 0 1 18550000.0 4962500.0 L 18550000.0 4825000.0 A 50000 50000 0 0 0 18500000.0 4775000.0 L 16700000.0 4775000.0 A 50000 50000 0 0 1 16650000.0 4725000.0 L 16650000.0 4587500.0 A 50000 50000 0 0 0 16600000.0 4537500.0 L 14800000.0 4537500.0 A 50000 50000 0 0 0 14750000.0 4587500.0 L 14750000.0 4725000.0 A 50000 50000 0 0 1 14700000.0 4775000.0 L 12900000.0 4775000.0 A 50000 50000 0 0 0 12850000.0 4825000.0 L 12850000.0 5200000.0 A 50000 50000 0 0 1 12800000.0 5250000.0 L 9100000.0 5250000.0 A 50000 50000 0 0 0 9050000.0 5300000.0 L 9050000.0 10900000.0 A 50000 50000 0 0 0 9100000.0 10950000.0 L 14722730.0 10950000.0  M 10700000.0 10700000.0 L 10700000.0 9300000.0 L 9300000.0 9300000.0 L 9300000.0 10700000.0 L 10700000.0 10700000.0  M 10700000.0 8800000.0 L 10700000.0 7400000.0 L 9300000.0 7400000.0 L 9300000.0 8800000.0 L 10700000.0 8800000.0  M 10700000.0 6900000.0 L 10700000.0 5500000.0 L 9300000.0 5500000.0 L 9300000.0 6900000.0 L 10700000.0 6900000.0  M 12600000.0 10700000.0 L 12600000.0 9300000.0 L 11200000.0 9300000.0 L 11200000.0 10700000.0 L 12600000.0 10700000.0  M 12600000.0 8800000.0 L 12600000.0 7400000.0 L 11200000.0 7400000.0 L 11200000.0 8800000.0 L 12600000.0 8800000.0  M 12600000.0 6900000.0 L 12600000.0 5500000.0 L 11200000.0 5500000.0 L 11200000.0 6900000.0 L 12600000.0 6900000.0  M 14500000.0 10225000.0 L 14500000.0 8825000.0 L 13100000.0 8825000.0 L 13100000.0 10225000.0 L 14500000.0 10225000.0  M 14500000.0 8325000.0 L 14500000.0 6925000.0 L 13100000.0 6925000.0 L 13100000.0 8325000.0 L 14500000.0 8325000.0  M 14500000.0 6425000.0 L 14500000.0 5025000.0 L 13100000.0 5025000.0 L 13100000.0 6425000.0 L 14500000.0 6425000.0  M 16400000.0 9987500.0 L 16400000.0 8587500.0 L 15000000.0 8587500.0 L 15000000.0 9987500.0 L 16400000.0 9987500.0  M 16400000.0 8087500.0 L 16400000.0 6687500.0 L 15000000.0 6687500.0 L 15000000.0 8087500.0 L 16400000.0 8087500.0  M 16400000.0 6187500.0 L 16400000.0 4787500.0 L 15000000.0 4787500.0 L 15000000.0 6187500.0 L 16400000.0 6187500.0  M 18300000.0 10225000.0 L 18300000.0 8825000.0 L 16900000.0 8825000.0 L 16900000.0 10225000.0 L 18300000.0 10225000.0  M 18300000.0 8325000.0 L 18300000.0 6925000.0 L 16900000.0 6925000.0 L 16900000.0 8325000.0 L 18300000.0 8325000.0  M 18300000.0 6425000.0 L 18300000.0 5025000.0 L 16900000.0 5025000.0 L 16900000.0 6425000.0 L 18300000.0 6425000.0  M 20200000.0 10462500.0 L 20200000.0 9062500.0 L 18800000.0 9062500.0 L 18800000.0 10462500.0 L 20200000.0 10462500.0  M 20200000.0 8562500.0 L 20200000.0 7162500.0 L 18800000.0 7162500.0 L 18800000.0 8562500.0 L 20200000.0 8562500.0  M 20200000.0 6662500.0 L 20200000.0 5262500.0 L 18800000.0 5262500.0 L 18800000.0 6662500.0 L 20200000.0 6662500.0  M 17350000.0 12175000.0 L 17350000.0 10775000.0 L 15950000.0 10775000.0 L 15950000.0 12175000.0 L 17350000.0 12175000.0  M 19258482.0 12610570.0 L 19620829.0 11258273.0 L 18268532.0 10895927.0 L 17906186.0 12248223.0 L 19258482.0 12610570.0  M 21901924.0 11864061.0 L 20689488.0 11164061.0 L 19989488.0 12376496.0 L 21201924.0 13076496.0 L 21901924.0 11864061.0 " style="fill-rule: evenodd;"/><g style="fill-opacity: 0.0;stroke-width: 15000.000000;stroke-opacity: 1;stroke-linecap: round;stroke-linejoin: round">
<path d="M9100000 10950000 L14722730 10950000 "/>
<path d="M9050000 10900000 L9050000 5300000 "/>
<path d="M9100000 5250000 L12800000 5250000 "/>
<path d="M14700000 4775000 L12900000 4775000 "/>
<path d="M12850000 4825000 L12850000 5200000 "/>
<path d="M16650000 4725000 L16650000 4587500 "/>
<path d="M16600000 4537500 L14800000 4537500 "/>
<path d="M14750000 4587500 L14750000 4725000 "/>
<path d="M18550000 4962500 L18550000 4825000 "/>
<path d="M18500000 4775000 L16700000 4775000 "/>
<path d="M20450000 10159766 L20450000 5062500 "/>
<path d="M20400000 5012500 L18600000 5012500 "/>
<path d="M21039794 13762313 L22414794 11380743 "/>
<path d="M20475000 10203068 L22396492 11312442 "/>
<path d="M19419299 12884455 L20971492 13780615 "/>
<path d="M14764766 10972926 L15687307 12405293 "/>
<path d="M15723266 12427849 L19400376 12878127 "/>
<path d="M14764765.961808 10972926.124598 A50000.000000 50000.000000 0.0 0 0 14722730.200000 10950000.000000"/>
<path d="M15687307.806061 12405293.596096 A49999.900000 49999.900000 0.0 0 0 15723266.201298 12427848.989400"/>
<path d="M19419299.187092 12884455.522358 A50000.000000 50000.000000 0.0 0 0 19400376.498792 12878127.509864"/>
<path d="M20971492.912908 13780614.977642 A50000.000000 50000.000000 0.0 0 0 21039794.177642 13762313.687092"/>
<path d="M22414794.066039 11380743.880393 A49999.900000 49999.900000 0.0 0 0 22396492.880393 11312442.733961"/>
<path d="M20450000.000000 10159766.900000 A50000.000000 50000.000000 0.0 0 0 20475000.012908 10203068.177642"/>
<path d="M20450000.000000 5062500.000000 A50000.000000 50000.000000 0.0 0 0 20400000.000000 5012500.000000"/>
<path d="M18550000.000000 4962500.000000 A50000.000000 50000.000000 0.0 0 0 18600000.000000 5012500.000000"/>
<path d="M18550000.000000 4825000.000000 A50000.000000 50000.000000 0.0 0 0 18500000.000000 4775000.000000"/>
<path d="M16650000.000000 4725000.000000 A50000.000000 50000.000000 0.0 0 0 16700000.000000 4775000.000000"/>
<path d="M16650000.000000 4587500.000000 A50000.000000 50000.000000 0.0 0 0 16600000.000000 4537500.000000"/>
<path d="M14800000.000000 4537500.000000 A50000.000000 50000.000000 0.0 0 0 14750000.000000 4587500.000000"/>
<path d="M14700000.000000 4775000.000000 A50000.000000 50000.000000 0.0 0 0 14750000.000000 4725000.000000"/>
<path d="M12900000.000000 4775000.000000 A50000.000000 50000.000000 0.0 0 0 12850000.000000 4825000.000000"/>
<path d="M12800000.000000 5250000.000000 A50000.000000 50000.000000 0.0 0 0 12850000.000000 5200000.000000"/>
<path d="M9100000.000000 5250000.000000 A50000.000000 50000.000000 0.0 0 0 9050000.000000 5300000.000000"/>
<path d="M9050000.000000 10900000.000000 A50000.000000 50000.000000 0.0 0 0 9100000.000000 10950000.000000"/>
<path d="M9300000 10700000 L10700000 10700000 "/>
<path d="M10700000 10700000 L10700000 9300000 "/>
<path d="M10700000 9300000 L9300000 9300000 "/>
<path d="M9300000 9300000 L9300000 10700000 "/>
<path d="M9300000 8800000 L10700000 8800000 "/>
<path d="M10700000 8800000 L10700000 7400000 "/>
<path d="M10700000 7400000 L9300000 7400000 "/>
<path d="M9300000 7400000 L9300000 8800000 "/>
<path d="M9300000 6900000 L10700000 6900000 "/>
<path d="M10700000 6900000 L10700000 5500000 "/>
<path d="M10700000 5500000 L9300000 5500000 "/>
<path d="M9300000 5500000 L9300000 6900000 "/>
<path d="M11200000 10700000 L12600000 10700000 "/>
<path d="M12600000 10700000 L12600000 9300000 "/>
<path d="M12600000 9300000 L11200000 9300000 "/>
<path d="M11200000 9300000 L11200000 10700000 "/>
<path d="M11200000 8800000 L12600000 8800000 "/>
<path d="M12600000 8800000 L12600000 7400000 "/>
<path d="M12600000 7400000 L11200000 7400000 "/>
<path d="M11200000 7400000 L11200000 8800000 "/>
<path d="M11200000 6900000 L12600000 6900000 "/>
<path d="M12600000 6900000 L12600000 5500000 "/>
<path d="M12600000 5500000 L11200000 5500000 "/>
<path d="M11200000 5500000 L11200000 6900000 "/>
<path d="M13100000 10225000 L14500000 10225000 "/>
<path d="M14500000 10225000 L14500000 8825000 "/>
<path d="M14500000 8825000 L13100000 8825000 "/>
<path d="M13100000 8825000 L13100000 10225000 "/>
<path d="M13100000 8325000 L14500000 8325000 "/>
<path d="M14500000 8325000 L14500000 6925000 "/>
<path d="M14500000 6925000 L13100000 6925000 "/>
<path d="M13100000 6925000 L13100000 8325000 "/>
<path d="M13100000 6425000 L14500000 6425000 "/>
<path d="M14500000 6425000 L14500000 5025000 "/>
<path d="M14500000 5025000 L13100000 5025000 "/>
<path d="M13100000 5025000 L13100000 6425000 "/>
<path d="M15000000 9987500 L16400000 9987500 "/>
<path d="M16400000 9987500 L16400000 8587500 "/>
<path d="M16400000 8587500 L15000000 8587500 "/>
<path d="M15000000 8587500 L15000000 9987500 "/>
<path d="M15000000 8087500 L16400000 8087500 "/>
<path d="M16400000 8087500 L16400000 6687500 "/>
<path d="M16400000 6687500 L15000000 6687500 "/>
<path d="M15000000 6687500 L15000000 8087500 "/>
<path d="M15000000 6187500 L16400000 6187500 "/>
<path d="M16400000 6187500 L16400000 4787500 "/>
<path d="M16400000 4787500 L15000000 4787500 "/>
<path d="M15000000 4787500 L15000000 6187500 "/>
<path d="M16900000 10225000 L18300000 10225000 "/>
<path d="M18300000 10225000 L18300000 8825000 "/>
<path d="M18300000 8825000 L16900000 8825000 "/>
<path d="M16900000 8825000 L16900000 10225000 "/>
<path d="M16900000 8325000 L18300000 8325000 "/>
<path d="M18300000 8325000 L18300000 6925000 "/>
<path d="M18300000 6925000 L16900000 6925000 "/>
<path d="M16900000 6925000 L16900000 8325000 "/>
<path d="M16900000 6425000 L18300000 6425000 "/>
<path d="M18300000 6425000 L18300000 5025000 "/>
<path d="M18300000 5025000 L16900000 5025000 "/>
<path d="M16900000 5025000 L16900000 6425000 "/>
<path d="M18800000 10462500 L20200000 10462500 "/>
<path d="M20200000 10462500 L20200000 9062500 "/>
<path d="M20200000 9062500 L18800000 9062500 "/>
<path d="M18800000 9062500 L18800000 10462500 "/>
<path d="M18800000 8562500 L20200000 8562500 "/>
<path d="M20200000 8562500 L20200000 7162500 "/>
<path d="M20200000 7162500 L18800000 7162500 "/>
<path d="M18800000 7162500 L18800000 8562500 "/>
<path d="M18800000 6662500 L20200000 6662500 "/>
<path d="M20200000 6662500 L20200000 5262500 "/>
<path d="M20200000 5262500 L18800000 5262500 "/>
<path d="M18800000 5262500 L18800000 6662500 "/>
<path d="M15950000 12175000 L17350000 12175000 "/>
<path d="M17350000 12175000 L17350000 10775000 "/>
<path d="M17350000 10775000 L15950000 10775000 "/>
<path d="M15950000 10775000 L15950000 12175000 "/>
<path d="M17906186 12248223 L19258482 12610570 "/>
<path d="M19258482 12610570 L19620829 11258273 "/>
<path d="M19620829 11258273 L18268532 10895927 "/>
<path d="M18268532 10895927 L17906186 12248223 "/>
<path d="M21201924 13076496 L21901924 11864061 "/>
<path d="M21901924 11864061 L20689488 11164061 "/>
<path d="M20689488 11164061 L19989488 12376496 "/>
<path d="M19989488 12376496 L21201924 13076496 "/>
<circle cx="10950000.000000" cy="7150000.000000" r="110000.000000"/> 
<circle cx="10950000.000000" cy="9050000.000000" r="110000.000000"/> 
<circle cx="18550000.000000" cy="6772500.000000" r="110000.000000"/> 
<circle cx="15300000.000000" cy="10765000.000000" r="110000.000000"/> 
<circle cx="19949777.000000" cy="11545278.800000" r="110000.000000"/> 
</g> 
</g><g id="substrate-outline" style="fill:#000000; stroke:#000000; stroke-width: 15000.0"><g style="fill-opacity: 0.0;stroke-opacity: 1;stroke-linecap: round;stroke-linejoin: round">
<path d="M9100000 10950000 L14722730 10950000 "/>
<path d="M9050000 10900000 L9050000 5300000 "/>
<path d="M9100000 5250000 L12800000 5250000 "/>
<path d="M14700000 4775000 L12900000 4775000 "/>
<path d="M12850000 4825000 L12850000 5200000 "/>
<path d="M16650000 4725000 L16650000 4587500 "/>
<path d="M16600000 4537500 L14800000 4537500 "/>
<path d="M14750000 4587500 L14750000 4725000 "/>
<path d="M18550000 4962500 L18550000 4825000 "/>
<path d="M18500000 4775000 L16700000 4775000 "/>
<path d="M20450000 10159766 L20450000 5062500 "/>
<path d="M20400000 5012500 L18600000 5012500 "/>
<path d="M21039794 13762313 L22414794 11380743 "/>
<path d="M20475000 10203068 L22396492 11312442 "/>
<path d="M19419299 12884455 L20971492 13780615 "/>
<path d="M14764766 10972926 L15687307 12405293 "/>
<path d="M15723266 12427849 L19400376 12878127 "/>
<path d="M14764765.961808 10972926.124598 A50000.000000 50000.000000 0.0 0 0 14722730.200000 10950000.000000"/>
<path d="M15687307.806061 12405293.596096 A49999.900000 49999.900000 0.0 0 0 15723266.201298 12427848.989400"/>
<path d="M19419299.187092 12884455.522358 A50000.000000 50000.000000 0.0 0 0 19400376.498792 12878127.509864"/>
<path d="M20971492.912908 13780614.977642 A50000.000000 50000.000000 0.0 0 0 21039794.177642 13762313.687092"/>
<path d="M22414794.066039 11380743.880393 A49999.900000 49999.900000 0.0 0 0 22396492.880393 11312442.733961"/>
<path d="M20450000.000000 10159766.900000 A50000.000000 50000.000000 0.0 0 0 20475000.012908 10203068.177642"/>
<path d="M20450000.000000 5062500.000000 A50000.000000 50000.000000 0.0 0 0 20400000.000000 5012500.000000"/>
<path d="M18550000.000000 4962500.000000 A50000.000000 50000.000000 0.0 0 0 18600000.000000 5012500.000000"/>
<path d="M18550000.000000 4825000.000000 A50000.000000 50000.000000 0.0 0 0 18500000.000000 4775000.000000"/>
<path d="M16650000.000000 4725000.000000 A50000.000000 50000.000000 0.0 0 0 16700000.000000 4775000.000000"/>
<path d="M16650000.000000 4587500.000000 A50000.000000 50000.000000 0.0 0 0 16600000.000000 4537500.000000"/>
<path d="M14800000.000000 4537500.000000 A50000.000000 50000.000000 0.0 0 0 14750000.000000 4587500.000000"/>
<path d="M14700000.000000 4775000.000000 A50000.000000 50000.000000 0.0 0 0 14750000.000000 4725000.000000"/>
<path d="M12900000.000000 4775000.000000 A50000.000000 50000.000000 0.0 0 0 12850000.000000 4825000.000000"/>
<path d="M12800000.000000 5250000.000000 A50000.000000 50000.000000 0.0 0 0 12850000.000000 5200000.000000"/>
<path d="M9100000.000000 5250000.000000 A50000.000000 50000.000000 0.0 0 0 9050000.000000 5300000.000000"/>
<path d="M9050000.000000 10900000.000000 A50000.000000 50000.000000 0.0 0 0 9100000.000000 10950000.000000"/>
<path d="M9300000 10700000 L10700000 10700000 "/>
<path d="M10700000 10700000 L10700000 9300000 "/>
<path d="M10700000 9300000 L9300000 9300000 "/>
<path d="M9300000 9300000 L9300000 10700000 "/>
<path d="M9300000 8800000 L10700000 8800000 "/>
<path d="M10700000 8800000 L10700000 7400000 "/>
<path d="M10700000 7400000 L9300000 7400000 "/>
<path d="M9300000 7400000 L9300000 8800000 "/>
<path d="M9300000 6900000 L10700000 6900000 "/>
<path d="M10700000 6900000 L10700000 5500000 "/>
<path d="M10700000 5500000 L9300000 5500000 "/>
<path d="M9300000 5500000 L9300000 6900000 "/>
<path d="M11200000 10700000 L12600000 10700000 "/>
<path d="M12600000 10700000 L12600000 9300000 "/>
<path d="M12600000 9300000 L11200000 9300000 "/>
<path d="M11200000 9300000 L11200000 10700000 "/>
<path d="M11200000 8800000 L12600000 8800000 "/>
<path d="M12600000 8800000 L12600000 7400000 "/>
<path d="M12600000 7400000 L11200000 7400000 "/>
<path d="M11200000 7400000 L11200000 8800000 "/>
<path d="M11200000 6900000 L12600000 6900000 "/>
<path d="M12600000 6900000 L12600000 5500000 "/>
<path d="M12600000 5500000 L11200000 5500000 "/>
<path d="M11200000 5500000 L11200000 6900000 "/>
<path d="M13100000 10225000 L14500000 10225000 "/>
<path d="M14500000 10225000 L14500000 8825000 "/>
<path d="M14500000 8825000 L13100000 8825000 "/>
<path d="M13100000 8825000 L13100000 10225000 "/>
<path d="M13100000 8325000 L14500000 8325000 "/>
<path d="M14500000 8325000 L14500000 6925000 "/>
<path d="M14500000 6925000 L13100000 6925000 "/>
<path d="M13100000 6925000 L13100000 8325000 "/>
<path d="M13100000 6425000 L14500000 6425000 "/>
<path d="M14500000 6425000 L14500000 5025000 "/>
<path d="M14500000 5025000 L13100000 5025000 "/>
<path d="M13100000 5025000 L13100000 6425000 "/>
<path d="M15000000 9987500 L16400000 9987500 "/>
<path d="M16400000 9987500 L16400000 8587500 "/>
<path d="M16400000 8587500 L15000000 8587500 "/>
<path d="M15000000 8587500 L15000000 9987500 "/>
<path d="M15000000 8087500 L16400000 8087500 "/>
<path d="M16400000 8087500 L16400000 6687500 "/>
<path d="M16400000 6687500 L15000000 6687500 "/>
<path d="M15000000 6687500 L15000000 8087500 "/>
<path d="M15000000 6187500 L16400000 6187500 "/>
<path d="M16400000 6187500 L16400000 4787500 "/>
<path d="M16400000 4787500 L15000000 4787500 "/>
<path d="M15000000 4787500 L15000000 6187500 "/>
<path d="M16900000 10225000 L18300000 10225000 "/>
<path d="M18300000 10225000 L18300000 8825000 "/>
<path d="M18300000 8825000 L16900000 8825000 "/>
<path d="M16900000 8825000 L16900000 10225000 "/>
<path d="M16900000 8325000 L18300000 8325000 "/>
<path d="M18300000 8325000 L18300000 6925000 "/>
<path d="M18300000 6925000 L16900000 6925000 "/>
<path d="M16900000 6925000 L16900000 8325000 "/>
<path d="M16900000 6425000 L18300000 6425000 "/>
<path d="M18300000 6425000 L18300000 5025000 "/>
<path d="M18300000 5025000 L16900000 5025000 "/>
<path d="M16900000 5025000 L16900000 6425000 "/>
<path d="M18800000 10462500 L20200000 10462500 "/>
<path d="M20200000 10462500 L20200000 9062500 "/>
<path d="M20200000 9062500 L18800000 9062500 "/>
<path d="M18800000 9062500 L18800000 10462500 "/>
<path d="M18800000 8562500 L20200000 8562500 "/>
<path d="M20200000 8562500 L20200000 7162500 "/>
<path d="M20200000 7162500 L18800000 7162500 "/>
<path d="M18800000 7162500 L18800000 8562500 "/>
<path d="M18800000 6662500 L20200000 6662500 "/>
<path d="M20200000 6662500 L20200000 5262500 "/>
<path d="M20200000 5262500 L18800000 5262500 "/>
<path d="M18800000 5262500 L18800000 6662500 "/>
<path d="M15950000 12175000 L17350000 12175000 "/>
<path d="M17350000 12175000 L17350000 10775000 "/>
<path d="M17350000 10775000 L15950000 10775000 "/>
<path d="M15950000 10775000 L15950000 12175000 "/>
<path d="M17906186 12248223 L19258482 12610570 "/>
<path d="M19258482 12610570 L19620829 11258273 "/>
<path d="M19620829 11258273 L18268532 10895927 "/>
<path d="M18268532 10895927 L17906186 12248223 "/>
<path d="M21201924 13076496 L21901924 11864061 "/>
<path d="M21901924 11864061 L20689488 11164061 "/>
<path d="M20689488 11164061 L19989488 12376496 "/>
<path d="M19989488 12376496 L21201924 13076496 "/>
<circle cx="10950000.000000" cy="7150000.000000" r="110000.000000"/> 
<circle cx="10950000.000000" cy="9050000.000000" r="110000.000000"/> 
<circle cx="18550000.000000" cy="6772500.000000" r="110000.000000"/> 
<circle cx="15300000.000000" cy="10765000.000000" r="110000.000000"/> 
<circle cx="19949777.000000" cy="11545278.800000" r="110000.000000"/> 
</g> 
</g></g></g></svg>