<!DOCTYPE svg PUBLIC "-//W3C//DTD SVG 1.1//EN" "http://www.w3.org/Graphics/SVG/1.1/DTD/svg11.dtd">
<svg xmlns="http://www.w3.org/2000/svg" version="1.1" width="136.004672mm" height="94.684508mm" viewBox="8950000.0 4437500.0 13600467.200000405 9468450.808961086">
            <title>Picture generated by PcbDraw </title>
            <desc>Picture generated by PcbDraw</desc>
        <defs><clipPath id="cut-off"><path d=" M 10950000.000000 7150000.000000 m-110000.000000 0 a 110000.000000 110000.000000 0 1 0 220000.0 0 a 110000.000000 110000.000000 0 1 0 -220000.0 0  M 10950000.000000 9050000.000000 m-110000.000000 0 a 110000.000000 110000.000000 0 1 0 220000.0 0 a 110000.000000 110000.000000 0 1 0 -220000.0 0  M 18546800.000000 6798600.000000 m-110000.000000 0 a 110000.000000 110000.000000 0 1 0 220000.0 0 a 110000.000000 110000.000000 0 1 0 -220000.0 0  M 15265700.000000 10774000.000000 m-110000.000000 0 a 110000.000000 110000.000000 0 1 0 220000.0 0 a 110000.000000 110000.000000 0 1 0 -220000.0 0  M 19924105.200000 11532365.800000 m-110000.000000 0 a 110000.000000 110000.000000 0 1 0 220000.0 0 a 110000.000000 110000.000000 0 1 0 -220000.0 0  M 14722605.7 10950000.0 A 50000 50000 0 0 1 14764744.972519 10973087.517551 L 15687331.0 12417664.0 A 50000 50000 0 0 0 15723359.795225 12440376.638775 L 19429369.0 12896759.0 A 50000.1 50000.1 0 0 1 19448258.137092 12903083.535756 L 21000467.0 13799252.0 A 50000 50000 0 0 0 21068768.477642 13780950.687092 L 22443768.0 11399380.0 A 50000 50000 0 0 0 22425467.187092 11331079.522358 L 20475000.0 10204976.0 A 50000 50000 0 0 1 20450000.0 10161675.5 L 20450000.0 5062500.0 A 50000 50000 0 0 0 20400000.0 5012500.0 L 18600000.0 5012500.0 A 50000 50000 0 0 1 18550000.0 4962500.0 L 18550000.0 4825000.0 A 50000 50000 0 0 0 18500000.0 4775000.0 L 16700000.0 4775000.0 A 50000 50000 0 0 1 16650000.0 4725000.0 L 16650000.0 4587500.0 A 50000 50000 0 0 0 16600000.0 4537500.0 L 14800000.0 4537500.0 A 50000 50000 0 0 0 14750000.0 4587500.0 L 14750000.0 4725000.0 A 50000 50000 0 0 1 14700000.0 4775000.0 L 12900000.0 4775000.0 A 50000 50000 0 0 0 12850000.0 4825000.0 L 12850000.0 5200000.0 A 50000 50000 0 0 1 12800000.0 5250000.0 L 9100000.0 5250000.0 A 50000 50000 0 0 0 9050000.0 5300000.0 L 9050000.0 10900000.0 A 50000 50000 0 0 0 9100000.0 10950000.0 L 14722605.0 10950000.0  M 10700000.0 10700000.0 L 10700000.0 9300000.0 L 9300000.0 9300000.0 L 9300000.0 10700000.0 L 10700000.0 10700000.0  M 10700000.0 8800000.0 L 10700000.0 7400000.0 L 9300000.0 7400000.0 L 9300000.0 8800000.0 L 10700000.0 8800000.0  M 10700000.0 6900000.0 L 10700000.0 5500000.0 L 9300000.0 5500000.0 L 9300000.0 6900000.0 L 10700000.0 6900000.0  M 12600000.0 10700000.0 L 12600000.0 9300000.0 L 11200000.0 9300000.0 L 11200000.0 10700000.0 L 12600000.0 10700000.0  M 12600000.0 8800000.0 L 12600000.0 7400000.0 L 11200000.0 7400000.0 L 11200000.0 8800000.0 L 12600000.0 8800000.0  M 12600000.0 6900000.0 L 12600000.0 5500000.0 L 11200000.0 5500000.0 L 11200000.0 6900000.0 L 12600000.0 6900000.0  M 14500000.0 10225000.0 L 14500000.0 8825000.0 L 13100000.0 8825000.0 L 13100000.0 10225000.0 L 14500000.0 10225000.0  M 14500000.0 8325000.0 L 14500000.0 6925000.0 L 13100000.0 6925000.0 L 13100000.0 8325000.0 L 14500000.0 8325000.0  M 14500000.0 6425000.0 L 14500000.0 5025000.0 L 13100000.0 5025000.0 L 13100000.0 6425000.0 L 14500000.0 6425000.0  M 16400000.0 9987500.0 L 16400000.0 8587500.0 L 15000000.0 8587500.0 L 15000000.0 9987500.0 L 16400000.0 9987500.0  M 16400000.0 8087500.0 L 16400000.0 6687500.0 L 15000000.0 6687500.0 L 15000000.0 8087500.0 L 16400000.0 8087500.0  M 16400000.0 6187500.0 L 16400000.0 4787500.0 L 15000000.0 4787500.0 L 15000000.0 6187500.0 L 16400000.0 6187500.0  M 18300000.0 10225000.0 L 18300000.0 8825000.0 L 16900000.0 8825000.0 L 16900000.0 10225000.0 L 18300000.0 10225000.0  M 18300000.0 8325000.0 L 18300000.0 6925000.0 L 16900000.0 6925000.0 L 16900000.0 8325000.0 L 18300000.0 8325000.0  M 18300000.0 6425000.0 L 18300000.0 5025000.0 L 16900000.0 5025000.0 L 16900000.0 6425000.0 L 18300000.0 6425000.0  M 20200000.0 10462500.0 L 20200000.0 9062500.0 L 18800000.0 9062500.0 L 18800000.0 10462500.0 L 20200000.0 10462500.0  M 20200000.0 8562500.0 L 20200000.0 7162500.0 L 18800000.0 7162500.0 L 18800000.0 8562500.0 L 20200000.0 8562500.0  M 20200000.0 6662500.0 L 20200000.0 5262500.0 L 18800000.0 5262500.0 L 18800000.0 6662500.0 L 20200000.0 6662500.0  M 17350000.0 12187500.0 L 17350000.0 10787500.0 L 15950000.0 10787500.0 L 15950000.0 12187500.0 L 17350000.0 12187500.0  M 19244974.0 12619821.0 L 19607321.0 11267525.0 L 18255025.0 10905178.0 L 17892678.0 12257474.0 L 19244974.0 12619821.0  M 21930898.0 11882698.0 L 20718462.0 11182698.0 L 20018462.0 12395133.0 L 21230898.0 13095133.0 L 21930898.0 11882698.0 " style="fill-rule: evenodd;"/></clipPath><mask id="pads-mask"/><mask id="pads-mask-silkscreen"><rect x="9042500.0" y="4530000.0" width="13415467.2" height="9283450.7" fill="white"/></mask><mask id="hole-mask"><g><rect x="9042500.0" y="4530000.0" fill="white" width="13415467.2" height="9283450.7"/></g></mask></defs><g transform="" id="boardContainer"><g id="substrate" clip-path="url(#cut-off)" mask="url(#hole-mask)"><g id="substrate-board" style="fill:#1d1918; stroke:#1d1918;"><path d=" M 10950000.000000 7150000.000000 m-110000.000000 0 a 110000.000000 110000.000000 0 1 0 220000.0 0 a 110000.000000 110000.000000 0 1 0 -220000.0 0  M 10950000.000000 9050000.000000 m-110000.000000 0 a 110000.000000 110000.000000 0 1 0 220000.0 0 a 110000.000000 110000.000000 0 1 0 -220000.0 0  M 18546800.000000 6798600.000000 m-110000.000000 0 a 110000.000000 110000.000000 0 1 0 220000.0 0 a 110000.000000 110000.000000 0 1 0 -220000.0 0  M 15265700.000000 10774000.000000 m-110000.000000 0 a 110000.000000 110000.000000 0 1 0 220000.0 0 a 110000.000000 110000.000000 0 1 0 -220000.0 0  M 19924105.200000 11532365.800000 m-110000.000000 0 a 110000.000000 110000.000000 0 1 0 220000.0 0 a 110000.000000 110000.000000 0 1 0 -220000.0 0  M 14722605.7 10950000.0 A 50000 50000 0 0 1 14764744.972519 10973087.517551 L 15687331.0 12417664.0 A 50000 50000 0 0 0 15723359.795225 12440376.638775 L 19429369.0 12896759.0 A 50000.1 50000.1 0 0 1 19448258.137092 12903083.535756 L 21000467.0 13799252.0 A 50000 50000 0 0 0 21068768.477642 13780950.687092 L 22443768.0 11399380.0 A 50000 50000 0 0 0 22425467.187092 11331079.522358 L 20475000.0 10204976.0 A 50000 50000 0 0 1 20450000.0 10161675.5 L 20450000.0 5062500.0 A 50000 50000 0 0 0 20400000.0 5012500.0 L 18600000.0 5012500.0 A 50000 50000 0 0 1 18550000.0 4962500.0 L 18550000.0 4825000.0 A 50000 50000 0 0 0 18500000.0 4775000.0 L 16700000.0 4775000.0 A 50000 50000 0 0 1 16650000.0 4725000.0 L 16650000.0 4587500.0 A 50000 50000 0 0 0 16600000.0 4537500.0 L 14800000.0 4537500.0 A 50000 50000 0 0 0 14750000.0 4587500.0 L 14750000.0 4725000.0 A 50000 50000 0 0 1 14700000.0 4775000.0 L 12900000.0 4775000.0 A 50000 50000 0 0 0 12850000.0 4825000.0 L 12850000.0 5200000.0 A 50000 50000 0 0 1 12800000.0 5250000.0 L 9100000.0 5250000.0 A 50000 50000 0 0 0 9050000.0 5300000.0 L 9050000.0 10900000.0 A 50000 50000 0 0 0 9100000.0 10950000.0 L 14722605.0 10950000.0  M 10700000.0 10700000.0 L 10700000.0 9300000.0 L 9300000.0 9300000.0 L 9300000.0 10700000.0 L 10700000.0 10700000.0  M 10700000.0 8800000.0 L 10700000.0 7400000.0 L 9300000.0 7400000.0 L 9300000.0 8800000.0 L 10700000.0 8800000.0  M 10700000.0 6900000.0 L 10700000.0 5500000.0 L 9300000.0 5500000.0 L 9300000.0 6900000.0 L 10700000.0 6900000.0  M 12600000.0 10700000.0 L 12600000.0 9300000.0 L 11200000.0 9300000.0 L 11200000.0 10700000.0 L 12600000.0 10700000.0  M 12600000.0 8800000.0 L 12600000.0 7400000.0 L 11200000.0 7400000.0 L 11200000.0 8800000.0 L 12600000.0 8800000.0  M 12600000.0 6900000.0 L 12600000.0 5500000.0 L 11200000.0 5500000.0 L 11200000.0 6900000.0 L 12600000.0 6900000.0  M 14500000.0 10225000.0 L 14500000.0 8825000.0 L 13100000.0 8825000.0 L 13100000.0 10225000.0 L 14500000.0 10225000.0  M 14500000.0 8325000.0 L 14500000.0 6925000.0 L 13100000.0 6925000.0 L 13100000.0 8325000.0 L 14500000.0 8325000.0  M 14500000.0 6425000.0 L 14500000.0 5025000.0 L 13100000.0 5025000.0 L 13100000.0 6425000.0 L 14500000.0 6425000.0  M 16400000.0 9987500.0 L 16400000.0 8587500.0 L 15000000.0 8587500.0 L 15000000.0 9987500.0 L 16400000.0 9987500.0  M 16400000.0 8087500.0 L 16400000.0 6687500.0 L 15000000.0 6687500.0 L 15000000.0 8087500.0 L 16400000.0 8087500.0  M 16400000.0 6187500.0 L 16400000.0 4787500.0 L 15000000.0 4787500.0 L 15000000.0 6187500.0 L 16400000.0 6187500.0  M 18300000.0 10225000.0 L 18300000.0 8825000.0 L 16900000.0 8825000.0 L 16900000.0 10225000.0 L 18300000.0 10225000.0  M 18300000.0 8325000.0 L 18300000.0 6925000.0 L 16900000.0 6925000.0 L 16900000.0 8325000.0 L 18300000.0 8325000.0  M 18300000.0 6425000.0 L 18300000.0 5025000.0 L 16900000.0 5025000.0 L 16900000.0 6425000.0 L 18300000.0 6425000.0  M 20200000.0 10462500.0 L 20200000.0 9062500.0 L 18800000.0 9062500.0 L 18800000.0 10462500.0 L 20200000.0 10462500.0  M 20200000.0 8562500.0 L 20200000.0 7162500.0 L 18800000.0 7162500.0 L 18800000.0 8562500.0 L 20200000.0 8562500.0  M 20200000.0 6662500.0 L 20200000.0 5262500.0 L 18800000.0 5262500.0 L 18800000.0 6662500.0 L 20200000.0 6662500.0  M 17350000.0 12187500.0 L 17350000.0 10787500.0 L 15950000.0 10787500.0 L 15950000.0 12187500.0 L 17350000.0 12187500.0  M 19244974.0 12619821.0 L 19607321.0 11267525.0 L 18255025.0 10905178.0 L 17892678.0 12257474.0 L 19244974.0 12619821.0  M 21930898.0 11882698.0 L 20718462.0 11182698.0 L 20018462.0 12395133.0 L 21230898.0 13095133.0 L 21930898.0 11882698.0 " style="fill-rule: evenodd;"/><g style="fill-opacity: 0.0;stroke-width: 15000.000000;stroke-opacity: 1;stroke-linecap: round;stroke-linejoin: round">
<path d="M9100000 10950000 L14722605 10950000 "/>
<path d="M9050000 10900000 L9050000 5300000 "/>
<path d="M9100000 5250000 L12800000 5250000 "/>
<path d="M14700000 4775000 L12900000 4775000 "/>
<path d="M12850000 4825000 L12850000 5200000 "/>
<path d="M16650000 4725000 L16650000 4587500 "/>
<path d="M16600000 4537500 L14800000 4537500 "/>
<path d="M14750000 4587500 L14750000 4725000 "/>
<path d="M18550000 4962500 L18550000 4825000 "/>
<path d="M18500000 4775000 L16700000 4775000 "/>
<path d="M20450000 10161675 L20450000 5062500 "/>
<path d="M20400000 5012500 L18600000 5012500 "/>
<path d="M21068768 13780950 L22443768 11399380 "/>
<path d="M20475000 10204976 L22425467 11331079 "/>
<path d="M19448258 12903083 L21000467 13799252 "/>
<path d="M14764745 10973087 L15687331 12417664 "/>
<path d="M15723359 12440376 L19429369 12896759 "/>
<path d="M14764744.972519 10973087.517551 A50000.000000 50000.000000 0.0 0 0 14722605.700000 10950000.000000"/>
<path d="M15687331.656452 12417664.027812 A50000.000000 50000.000000 0.0 0 0 15723359.795225 12440376.638775"/>
<path d="M19448258.137092 12903083.535756 A50000.100000 50000.100000 0.0 0 0 19429369.303373 12896759.672612"/>
<path d="M21000467.212908 13799251.977642 A50000.000000 50000.000000 0.0 0 0 21068768.477642 13780950.687092"/>
<path d="M22443768.477642 11399380.787092 A50000.000000 50000.000000 0.0 0 0 22425467.187092 11331079.522358"/>
<path d="M20450000.000000 10161675.500000 A50000.000000 50000.000000 0.0 0 0 20475000.012908 10204976.777642"/>
<path d="M20450000.000000 5062500.000000 A50000.000000 50000.000000 0.0 0 0 20400000.000000 5012500.000000"/>
<path d="M18550000.000000 4962500.000000 A50000.000000 50000.000000 0.0 0 0 18600000.000000 5012500.000000"/>
<path d="M18550000.000000 4825000.000000 A50000.000000 50000.000000 0.0 0 0 18500000.000000 4775000.000000"/>
<path d="M16650000.000000 4725000.000000 A50000.000000 50000.000000 0.0 0 0 16700000.000000 4775000.000000"/>
<path d="M16650000.000000 4587500.000000 A50000.000000 50000.000000 0.0 0 0 16600000.000000 4537500.000000"/>
<path d="M14800000.000000 4537500.000000 A50000.000000 50000.000000 0.0 0 0 14750000.000000 4587500.000000"/>
<path d="M14700000.000000 4775000.000000 A50000.000000 50000.000000 0.0 0 0 14750000.000000 4725000.000000"/>
<path d="M12900000.000000 4775000.000000 A50000.000000 50000.000000 0.0 0 0 12850000.000000 4825000.000000"/>
<path d="M12800000.000000 5250000.000000 A50000.000000 50000.000000 0.0 0 0 12850000.000000 5200000.000000"/>
<path d="M9100000.000000 5250000.000000 A50000.000000 50000.000000 0.0 0 0 9050000.000000 5300000.000000"/>
<path d="M9050000.000000 10900000.000000 A50000.000000 50000.000000 0.0 0 0 9100000.000000 10950000.000000"/>
<path d="M9300000 10700000 L10700000 10700000 "/>
<path d="M10700000 10700000 L10700000 9300000 "/>
<path d="M10700000 9300000 L9300000 9300000 "/>
<path d="M9300000 9300000 L9300000 10700000 "/>
<path d="M9300000 8800000 L10700000 8800000 "/>
<path d="M10700000 8800000 L10700000 7400000 "/>
<path d="M10700000 7400000 L9300000 7400000 "/>
<path d="M9300000 7400000 L9300000 8800000 "/>
<path d="M9300000 6900000 L10700000 6900000 "/>
<path d="M10700000 6900000 L10700000 5500000 "/>
<path d="M10700000 5500000 L9300000 5500000 "/>
<path d="M9300000 5500000 L9300000 6900000 "/>
<path d="M11200000 10700000 L12600000 10700000 "/>
<path d="M12600000 10700000 L12600000 9300000 "/>
<path d="M12600000 9300000 L11200000 9300000 "/>
<path d="M11200000 9300000 L11200000 10700000 "/>
<path d="M11200000 8800000 L12600000 8800000 "/>
<path d="M12600000 8800000 L12600000 7400000 "/>
<path d="M12600000 7400000 L11200000 7400000 "/>
<path d="M11200000 7400000 L11200000 8800000 "/>
<path d="M11200000 6900000 L12600000 6900000 "/>
<path d="M12600000 6900000 L12600000 5500000 "/>
<path d="M12600000 5500000 L11200000 5500000 "/>
<path d="M11200000 5500000 L11200000 6900000 "/>
<path d="M13100000 10225000 L14500000 10225000 "/>
<path d="M14500000 10225000 L14500000 8825000 "/>
<path d="M14500000 8825000 L13100000 8825000 "/>
<path d="M13100000 8825000 L13100000 10225000 "/>
<path d="M13100000 8325000 L14500000 8325000 "/>
<path d="M14500000 8325000 L14500000 6925000 "/>
<path d="M14500000 6925000 L13100000 6925000 "/>
<path d="M13100000 6925000 L13100000 8325000 "/>
<path d="M13100000 6425000 L14500000 6425000 "/>
<path d="M14500000 6425000 L14500000 5025000 "/>
<path d="M14500000 5025000 L13100000 5025000 "/>
<path d="M13100000 5025000 L13100000 6425000 "/>
<path d="M15000000 9987500 L16400000 9987500 "/>
<path d="M16400000 9987500 L16400000 8587500 "/>
<path d="M16400000 8587500 L15000000 8587500 "/>
<path d="M15000000 8587500 L15000000 9987500 "/>
<path d="M15000000 8087500 L16400000 8087500 "/>
<path d="M16400000 8087500 L16400000 6687500 "/>
<path d="M16400000 6687500 L15000000 6687500 "/>
<path d="M15000000 6687500 L15000000 8087500 "/>
<path d="M15000000 6187500 L16400000 6187500 "/>
<path d="M16400000 6187500 L16400000 4787500 "/>
<path d="M16400000 4787500 L15000000 4787500 "/>
<path d="M15000000 4787500 L15000000 6187500 "/>
<path d="M16900000 10225000 L18300000 10225000 "/>
<path d="M18300000 10225000 L18300000 8825000 "/>
<path d="M18300000 8825000 L16900000 8825000 "/>
<path d="M16900000 8825000 L16900000 10225000 "/>
<path d="M16900000 8325000 L18300000 8325000 "/>
<path d="M18300000 8325000 L18300000 6925000 "/>
<path d="M18300000 6925000 L16900000 6925000 "/>
<path d="M16900000 6925000 L16900000 8325000 "/>
<path d="M16900000 6425000 L18300000 6425000 "/>
<path d="M18300000 6425000 L18300000 5025000 "/>
<path d="M18300000 5025000 L16900000 5025000 "/>
<path d="M16900000 5025000 L16900000 6425000 "/>
<path d="M18800000 10462500 L20200000 10462500 "/>
<path d="M20200000 10462500 L20200000 9062500 "/>
<path d="M20200000 9062500 L18800000 9062500 "/>
<path d="M18800000 9062500 L18800000 10462500 "/>
<path d="M18800000 8562500 L20200000 8562500 "/>
<path d="M20200000 8562500 L20200000 7162500 "/>
<path d="M20200000 7162500 L18800000 7162500 "/>
<path d="M18800000 7162500 L18800000 8562500 "/>
<path d="M18800000 6662500 L20200000 6662500 "/>
<path d="M20200000 6662500 L20200000 5262500 "/>
<path d="M20200000 5262500 L18800000 5262500 "/>
<path d="M18800000 5262500 L18800000 6662500 "/>
<path d="M15950000 12187500 L17350000 12187500 "/>
<path d="M17350000 12187500 L17350000 10787500 "/>
<path d="M17350000 10787500 L15950000 10787500 "/>
<path d="M15950000 10787500 L15950000 12187500 "/>
<path d="M17892678 12257474 L19244974 12619821 "/>
<path d="M19244974 12619821 L19607321 11267525 "/>
<path d="M19607321 11267525 L18255025 10905178 "/>
<path d="M18255025 10905178 L17892678 12257474 "/>
<path d="M21230898 13095133 L21930898 11882698 "/>
<path d="M21930898 11882698 L20718462 11182698 "/>
<path d="M20718462 11182698 L20018462 12395133 "/>
<path d="M20018462 12395133 L21230898 13095133 "/>
<circle cx="10950000.000000" cy="7150000.000000" r="110000.000000"/> 
<circle cx="10950000.000000" cy="9050000.000000" r="110000.000000"/> 
<circle cx="18546800.000000" cy="6798600.000000" r="110000.000000"/> 
<circle cx="15265700.000000" cy="10774000.000000" r="110000.000000"/> 
<circle cx="19924105.200000" cy="11532365.800000" r="110000.000000"/> 
</g> 
</g><g id="substrate-outline" style="fill:#000000; stroke:#000000; stroke-width: 15000.0"><g style="fill-opacity: 0.0;stroke-opacity: 1;stroke-linecap: round;stroke-linejoin: round">
<path d="M9100000 10950000 L14722605 10950000 "/>
<path d="M9050000 10900000 L9050000 5300000 "/>
<path d="M9100000 5250000 L12800000 5250000 "/>
<path d="M14700000 4775000 L12900000 4775000 "/>
<path d="M12850000 4825000 L12850000 5200000 "/>
<path d="M16650000 4725000 L16650000 4587500 "/>
<path d="M16600000 4537500 L14800000 4537500 "/>
<path d="M14750000 4587500 L14750000 4725000 "/>
<path d="M18550000 4962500 L18550000 4825000 "/>
<path d="M18500000 4775000 L16700000 4775000 "/>
<path d="M20450000 10161675 L20450000 5062500 "/>
<path d="M20400000 5012500 L18600000 5012500 "/>
<path d="M21068768 13780950 L22443768 11399380 "/>
<path d="M20475000 10204976 L22425467 11331079 "/>
<path d="M19448258 12903083 L21000467 13799252 "/>
<path d="M14764745 10973087 L15687331 12417664 "/>
<path d="M15723359 12440376 L19429369 12896759 "/>
<path d="M14764744.972519 10973087.517551 A50000.000000 50000.000000 0.0 0 0 14722605.700000 10950000.000000"/>
<path d="M15687331.656452 12417664.027812 A50000.000000 50000.000000 0.0 0 0 15723359.795225 12440376.638775"/>
<path d="M19448258.137092 12903083.535756 A50000.100000 50000.100000 0.0 0 0 19429369.303373 12896759.672612"/>
<path d="M21000467.212908 13799251.977642 A50000.000000 50000.000000 0.0 0 0 21068768.477642 13780950.687092"/>
<path d="M22443768.477642 11399380.787092 A50000.000000 50000.000000 0.0 0 0 22425467.187092 11331079.522358"/>
<path d="M20450000.000000 10161675.500000 A50000.000000 50000.000000 0.0 0 0 20475000.012908 10204976.777642"/>
<path d="M20450000.000000 5062500.000000 A50000.000000 50000.000000 0.0 0 0 20400000.000000 5012500.000000"/>
<path d="M18550000.000000 4962500.000000 A50000.000000 50000.000000 0.0 0 0 18600000.000000 5012500.000000"/>
<path d="M18550000.000000 4825000.000000 A50000.000000 50000.000000 0.0 0 0 18500000.000000 4775000.000000"/>
<path d="M16650000.000000 4725000.000000 A50000.000000 50000.000000 0.0 0 0 16700000.000000 4775000.000000"/>
<path d="M16650000.000000 4587500.000000 A50000.000000 50000.000000 0.0 0 0 16600000.000000 4537500.000000"/>
<path d="M14800000.000000 4537500.000000 A50000.000000 50000.000000 0.0 0 0 14750000.000000 4587500.000000"/>
<path d="M14700000.000000 4775000.000000 A50000.000000 50000.000000 0.0 0 0 14750000.000000 4725000.000000"/>
<path d="M12900000.000000 4775000.000000 A50000.000000 50000.000000 0.0 0 0 12850000.000000 4825000.000000"/>
<path d="M12800000.000000 5250000.000000 A50000.000000 50000.000000 0.0 0 0 12850000.000000 5200000.000000"/>
<path d="M9100000.000000 5250000.000000 A50000.000000 50000.000000 0.0 0 0 9050000.000000 5300000.000000"/>
<path d="M9050000.000000 10900000.000000 A50000.000000 50000.000000 0.0 0 0 9100000.000000 10950000.000000"/>
<path d="M9300000 10700000 L10700000 10700000 "/>
<path d="M10700000 10700000 L10700000 9300000 "/>
<path d="M10700000 9300000 L9300000 9300000 "/>
<path d="M9300000 9300000 L9300000 10700000 "/>
<path d="M9300000 8800000 L10700000 8800000 "/>
<path d="M10700000 8800000 L10700000 7400000 "/>
<path d="M10700000 7400000 L9300000 7400000 "/>
<path d="M9300000 7400000 L9300000 8800000 "/>
<path d="M9300000 6900000 L10700000 6900000 "/>
<path d="M10700000 6900000 L10700000 5500000 "/>
<path d="M10700000 5500000 L9300000 5500000 "/>
<path d="M9300000 5500000 L9300000 6900000 "/>
<path d="M11200000 10700000 L12600000 10700000 "/>
<path d="M12600000 10700000 L12600000 9300000 "/>
<path d="M12600000 9300000 L11200000 9300000 "/>
<path d="M11200000 9300000 L11200000 10700000 "/>
<path d="M11200000 8800000 L12600000 8800000 "/>
<path d="M12600000 8800000 L12600000 7400000 "/>
<path d="M12600000 7400000 L11200000 7400000 "/>
<path d="M11200000 7400000 L11200000 8800000 "/>
<path d="M11200000 6900000 L12600000 6900000 "/>
<path d="M12600000 6900000 L12600000 5500000 "/>
<path d="M12600000 5500000 L11200000 5500000 "/>
<path d="M11200000 5500000 L11200000 6900000 "/>
<path d="M13100000 10225000 L14500000 10225000 "/>
<path d="M14500000 10225000 L14500000 8825000 "/>
<path d="M14500000 8825000 L13100000 8825000 "/>
<path d="M13100000 8825000 L13100000 10225000 "/>
<path d="M13100000 8325000 L14500000 8325000 "/>
<path d="M14500000 8325000 L14500000 6925000 "/>
<path d="M14500000 6925000 L13100000 6925000 "/>
<path d="M13100000 6925000 L13100000 8325000 "/>
<path d="M13100000 6425000 L14500000 6425000 "/>
<path d="M14500000 6425000 L14500000 5025000 "/>
<path d="M14500000 5025000 L13100000 5025000 "/>
<path d="M13100000 5025000 L13100000 6425000 "/>
<path d="M15000000 9987500 L16400000 9987500 "/>
<path d="M16400000 9987500 L16400000 8587500 "/>
<path d="M16400000 8587500 L15000000 8587500 "/>
<path d="M15000000 8587500 L15000000 9987500 "/>
<path d="M15000000 8087500 L16400000 8087500 "/>
<path d="M16400000 8087500 L16400000 6687500 "/>
<path d="M16400000 6687500 L15000000 6687500 "/>
<path d="M15000000 6687500 L15000000 8087500 "/>
<path d="M15000000 6187500 L16400000 6187500 "/>
<path d="M16400000 6187500 L16400000 4787500 "/>
<path d="M16400000 4787500 L15000000 4787500 "/>
<path d="M15000000 4787500 L15000000 6187500 "/>
<path d="M16900000 10225000 L18300000 10225000 "/>
<path d="M18300000 10225000 L18300000 8825000 "/>
<path d="M18300000 8825000 L16900000 8825000 "/>
<path d="M16900000 8825000 L16900000 10225000 "/>
<path d="M16900000 8325000 L18300000 8325000 "/>
<path d="M18300000 8325000 L18300000 6925000 "/>
<path d="M18300000 6925000 L16900000 6925000 "/>
<path d="M16900000 6925000 L16900000 8325000 "/>
<path d="M16900000 6425000 L18300000 6425000 "/>
<path d="M18300000 6425000 L18300000 5025000 "/>
<path d="M18300000 5025000 L16900000 5025000 "/>
<path d="M16900000 5025000 L16900000 6425000 "/>
<path d="M18800000 10462500 L20200000 10462500 "/>
<path d="M20200000 10462500 L20200000 9062500 "/>
<path d="M20200000 9062500 L18800000 9062500 "/>
<path d="M18800000 9062500 L18800000 10462500 "/>
<path d="M18800000 8562500 L20200000 8562500 "/>
<path d="M20200000 8562500 L20200000 7162500 "/>
<path d="M20200000 7162500 L18800000 7162500 "/>
<path d="M18800000 7162500 L18800000 8562500 "/>
<path d="M18800000 6662500 L20200000 6662500 "/>
<path d="M20200000 6662500 L20200000 5262500 "/>
<path d="M20200000 5262500 L18800000 5262500 "/>
<path d="M18800000 5262500 L18800000 6662500 "/>
<path d="M15950000 12187500 L17350000 12187500 "/>
<path d="M17350000 12187500 L17350000 10787500 "/>
<path d="M17350000 10787500 L15950000 10787500 "/>
<path d="M15950000 10787500 L15950000 12187500 "/>
<path d="M17892678 12257474 L19244974 12619821 "/>
<path d="M19244974 12619821 L19607321 11267525 "/>
<path d="M19607321 11267525 L18255025 10905178 "/>
<path d="M18255025 10905178 L17892678 12257474 "/>
<path d="M21230898 13095133 L21930898 11882698 "/>
<path d="M21930898 11882698 L20718462 11182698 "/>
<path d="M20718462 11182698 L20018462 12395133 "/>
<path d="M20018462 12395133 L21230898 13095133 "/>
<circle cx="10950000.000000" cy="7150000.000000" r="110000.000000"/> 
<circle cx="10950000.000000" cy="9050000.000000" r="110000.000000"/> 
<circle cx="18546800.000000" cy="6798600.000000" r="110000.000000"/> 
<circle cx="15265700.000000" cy="10774000.000000" r="110000.000000"/> 
<circle cx="19924105.200000" cy="11532365.800000" r="110000.000000"/> 
</g> 
</g></g></g></svg>