0
SECTION
2
HEADER
9
$INSUNITS
70
4
0
ENDSEC
0
SECTION
2
TABLES
0
TABLE
2
LTYPE
0
LTYPE
72
65
70
64
2
CONTINUOUS
3
______
73
0
40
0
0
ENDTAB
0
TABLE
2
LAYER
0
ENDTAB
0
ENDSEC
0
SECTION
2
ENTITIES
0
LINE
8
0
10
91
20
-109.5
11
147.2260569
21
-109.5
0
LINE
8
0
10
90.5
20
-109
11
90.5
21
-53
0
LINE
8
0
10
91
20
-52.5
11
128
21
-52.5
0
LINE
8
0
10
147
20
-47.75
11
129
21
-47.75
0
LINE
8
0
10
128.5
20
-48.25
11
128.5
21
-52
0
LINE
8
0
10
166.5
20
-47.25
11
166.5
21
-45.875
0
LINE
8
0
10
166
20
-45.375
11
148
21
-45.375
0
LINE
8
0
10
147.5
20
-45.875
11
147.5
21
-47.25
0
LINE
8
0
10
185.5
20
-49.625
11
185.5
21
-48.25
0
LINE
8
0
10
185
20
-47.75
11
167
21
-47.75
0
LINE
8
0
10
204.5
20
-52
11
204.5
21
-50.625
0
LINE
8
0
10
204
20
-50.125
11
186
21
-50.125
0
LINE
8
0
10
210.6876851
20
-137.8095069
11
224.6876851
21
-113.5607956
0
LINE
8
0
10
224.5
20
-113.4524356
11
224.6876851
21
-113.5607956
0
LINE
8
0
10
194.4825815
20
-129.0308362
11
210.0046724
21
-137.9925196
0
LINE
8
0
10
147.6474497
20
-109.7308752
11
156.8733165
21
-124.1766403
0
LINE
8
0
10
157.2335975
20
-124.4037668
11
194.2936932
21
-128.9675976
0
LINE
8
0
10
224.5
20
-113.4524356
11
224.5
21
-53
0
LINE
8
0
10
224
20
-52.5
11
205
21
-52.5
0
ARC
8
0
10
147.2260569
20
-110
40
0.5
50
32.5645603
51
90
0
ARC
8
0
10
157.2947093
20
-123.9075155
40
0.5
50
212.5645603
51
262.9795555
0
ARC
8
0
10
194.2325815
20
-129.4638489
40
0.5
50
59.9999999
51
82.9795555
0
ARC
8
0
10
210.2546724
20
-137.5595069
40
0.5
50
239.9999999
51
329.9999999
0
ARC
8
0
10
224
20
-53
40
0.5
50
0
51
90
0
ARC
8
0
10
205
20
-52
40
0.5
50
180
51
270
0
ARC
8
0
10
204
20
-50.625
40
0.5
50
0
51
90
0
ARC
8
0
10
186
20
-49.625
40
0.5
50
180
51
270
0
ARC
8
0
10
185
20
-48.25
40
0.5
50
0
51
90
0
ARC
8
0
10
167
20
-47.25
40
0.5
50
180
51
270
0
ARC
8
0
10
166
20
-45.875
40
0.5
50
0
51
90
0
ARC
8
0
10
148
20
-45.875
40
0.5
50
90
51
180
0
ARC
8
0
10
147
20
-47.25
40
0.5
50
270
51
0
0
ARC
8
0
10
129
20
-48.25
40
0.5
50
90
51
180
0
ARC
8
0
10
128
20
-52
40
0.5
50
270
51
0
0
ARC
8
0
10
91
20
-53
40
0.5
50
90
51
180
0
ARC
8
0
10
91
20
-109
40
0.5
50
180
51
270
0
CIRCLE
8
0
10
109.5
20
-71.5
40
1.1
0
CIRCLE
8
0
10
109.5
20
-90.5
40
1.1
0
CIRCLE
8
0
10
185.5
20
-67.725
40
1.1
0
CIRCLE
8
0
10
153
20
-107.775
40
1.1
0
CIRCLE
8
0
10
199.7875137
20
-115.6391576
40
1.1
0
ENDSEC
0
EOF