<svg width="134mm" height="92.498mm" viewBox="0 0 134 92.498" xmlns="http://www.w3.org/2000/svg"><g id="svgGroup" stroke-linecap="round" fill-rule="evenodd" font-size="9pt" stroke="#000" stroke-width="0.25mm" fill="none" style="stroke:#000;stroke-width:0.25mm;fill:none"><path d="M 0.5 64.125 L 56.727 64.125 A 0.5 0.5 0 0 1 57.148 64.354 L 66.373 78.678 A 0.5 0.5 0 0 0 66.733 78.903 L 103.504 83.406 A 0.5 0.5 0 0 1 103.693 83.47 L 119.215 92.431 A 0.5 0.5 0 0 0 119.898 92.248 L 133.898 67.999 L 134 68.058 L 134 7.625 A 0.5 0.5 0 0 0 133.5 7.125 L 114.5 7.125 A 0.5 0.5 0 0 1 114 6.625 L 114 5.25 A 0.5 0.5 0 0 0 113.5 4.75 L 95.5 4.75 A 0.5 0.5 0 0 1 95 4.25 L 95 2.875 A 0.5 0.5 0 0 0 94.5 2.375 L 76.5 2.375 A 0.5 0.5 0 0 1 76 1.875 L 76 0.5 A 0.5 0.5 0 0 0 75.5 0 L 57.5 0 A 0.5 0.5 0 0 0 57 0.5 L 57 1.875 A 0.5 0.5 0 0 1 56.5 2.375 L 38.5 2.375 A 0.5 0.5 0 0 0 38 2.875 L 38 6.625 A 0.5 0.5 0 0 1 37.5 7.125 L 0.5 7.125 A 0.5 0.5 0 0 0 0 7.625 L 0 63.625 A 0.5 0.5 0 0 0 0.5 64.125 Z M 19 26.125 m -1.1 0 a 1.1 1.1 0 0 1 2.2 0 a 1.1 1.1 0 0 1 -2.2 0 z M 19 45.125 m -1.1 0 a 1.1 1.1 0 0 1 2.2 0 a 1.1 1.1 0 0 1 -2.2 0 z M 95 22.35 m -1.1 0 a 1.1 1.1 0 0 1 2.2 0 a 1.1 1.1 0 0 1 -2.2 0 z M 62.5 62.275 m -1.1 0 a 1.1 1.1 0 0 1 2.2 0 a 1.1 1.1 0 0 1 -2.2 0 z M 108.998 70.078 m -1.1 0 a 1.1 1.1 0 0 1 2.2 0 a 1.1 1.1 0 0 1 -2.2 0 z" vector-effect="non-scaling-stroke"/></g></svg>