<svg width="20mm" height="60.567mm" viewBox="0 0 20 60.567" xmlns="http://www.w3.org/2000/svg"><g id="svgGroup" stroke-linecap="round" fill-rule="evenodd" font-size="9pt" stroke="#000" stroke-width="0.25mm" fill="none" style="stroke:#000;stroke-width:0.25mm;fill:none"><path d="M 20 60.067 L 20 0.5 A 0.5 0.5 0 0 0 19.5 0 L 0.5 0 A 0.5 0.5 0 0 0 0 0.5 L 0 49.098 A 0.5 0.5 0 0 0 0.25 49.531 L 19.25 60.5 A 0.5 0.5 0 0 0 20 60.067 Z M 2.812 47.719 m -1.1 0 a 1.1 1.1 0 0 1 2.2 0 a 1.1 1.1 0 0 1 -2.2 0 z M 17.621 56.269 m -1.1 0 a 1.1 1.1 0 0 1 2.2 0 a 1.1 1.1 0 0 1 -2.2 0 z" vector-effect="non-scaling-stroke"/></g></svg>