<svg width="19.72mm" height="60.095mm" viewBox="0 0 19.72 60.095" xmlns="http://www.w3.org/2000/svg"><g id="svgGroup" stroke-linecap="round" fill-rule="evenodd" font-size="9pt" stroke="#000" stroke-width="0.25mm" fill="none" style="stroke:#000;stroke-width:0.25mm;fill:none"><path d="M 0 48.787 L 0 0.5 A 0.5 0.5 0 0 1 0.5 0 L 19.22 0 A 0.5 0.5 0 0 1 19.72 0.5 L 19.72 59.595 A 0.5 0.5 0 0 1 18.97 60.028 L 0.25 49.22 A 0.5 0.5 0 0 1 0 48.787 Z M 2.649 47.486 m -1.1 0 a 1.1 1.1 0 0 1 2.2 0 a 1.1 1.1 0 0 1 -2.2 0 z M 17.081 56.005 m -1.1 0 a 1.1 1.1 0 0 1 2.2 0 a 1.1 1.1 0 0 1 -2.2 0 z" vector-effect="non-scaling-stroke"/></g></svg>