0
SECTION
2
HEADER
9
$INSUNITS
70
4
0
ENDSEC
0
SECTION
2
TABLES
0
TABLE
2
LTYPE
0
LTYPE
72
65
70
64
2
CONTINUOUS
3
______
73
0
40
0
0
ENDTAB
0
TABLE
2
LAYER
0
ENDTAB
0
ENDSEC
0
SECTION
2
ENTITIES
0
LINE
8
0
10
91
20
-109.5
11
147.2260569
21
-109.5
0
LINE
8
0
10
90.5
20
-109
11
90.5
21
-53
0
LINE
8
0
10
91
20
-52.5
11
128
21
-52.5
0
LINE
8
0
10
147
20
-47.75
11
129
21
-47.75
0
LINE
8
0
10
128.5
20
-48.25
11
128.5
21
-52
0
LINE
8
0
10
166.5
20
-47.25
11
166.5
21
-45.875
0
LINE
8
0
10
166
20
-45.375
11
148
21
-45.375
0
LINE
8
0
10
147.5
20
-45.875
11
147.5
21
-47.25
0
LINE
8
0
10
185.5
20
-49.625
11
185.5
21
-48.25
0
LINE
8
0
10
185
20
-47.75
11
167
21
-47.75
0
LINE
8
0
10
204.5
20
-101.616755
11
204.5
21
-50.625
0
LINE
8
0
10
204
20
-50.125
11
186
21
-50.125
0
LINE
8
0
10
210.6876851
20
-137.8095069
11
224.4376851
21
-113.9938083
0
LINE
8
0
10
204.75
20
-102.0497677
11
224.2546724
21
-113.3107956
0
LINE
8
0
10
194.4825815
20
-129.0308362
11
210.0046724
21
-137.9925196
0
LINE
8
0
10
147.6474497
20
-109.7308752
11
156.8733165
21
-124.1766403
0
LINE
8
0
10
157.2335975
20
-124.4037668
11
194.2936932
21
-128.9675976
0
ARC
8
0
10
147.2260569
20
-110
40
0.5
50
32.5645603
51
90
0
ARC
8
0
10
157.2947093
20
-123.9075155
40
0.5
50
212.5645603
51
262.9795555
0
ARC
8
0
10
194.2325815
20
-129.4638489
40
0.5
50
59.9999999
51
82.9795555
0
ARC
8
0
10
210.2546724
20
-137.5595069
40
0.5
50
239.9999999
51
329.9999999
0
ARC
8
0
10
224.0046724
20
-113.7438083
40
0.5
50
329.9999999
51
59.9999999
0
ARC
8
0
10
205
20
-101.616755
40
0.5
50
180
51
239.9999999
0
ARC
8
0
10
204
20
-50.625
40
0.5
50
0
51
90
0
ARC
8
0
10
186
20
-49.625
40
0.5
50
180
51
270
0
ARC
8
0
10
185
20
-48.25
40
0.5
50
0
51
90
0
ARC
8
0
10
167
20
-47.25
40
0.5
50
180
51
270
0
ARC
8
0
10
166
20
-45.875
40
0.5
50
0
51
90
0
ARC
8
0
10
148
20
-45.875
40
0.5
50
90
51
180
0
ARC
8
0
10
147
20
-47.25
40
0.5
50
270
51
0
0
ARC
8
0
10
129
20
-48.25
40
0.5
50
90
51
180
0
ARC
8
0
10
128
20
-52
40
0.5
50
270
51
0
0
ARC
8
0
10
91
20
-53
40
0.5
50
90
51
180
0
ARC
8
0
10
91
20
-109
40
0.5
50
180
51
270
0
LINE
8
0
10
93
20
-107
11
107
21
-107
0
LINE
8
0
10
107
20
-107
11
107
21
-93
0
LINE
8
0
10
107
20
-93
11
93
21
-93
0
LINE
8
0
10
93
20
-93
11
93
21
-107
0
LINE
8
0
10
93
20
-88
11
107
21
-88
0
LINE
8
0
10
107
20
-88
11
107
21
-74
0
LINE
8
0
10
107
20
-74
11
93
21
-74
0
LINE
8
0
10
93
20
-74
11
93
21
-88
0
LINE
8
0
10
93
20
-69
11
107
21
-69
0
LINE
8
0
10
107
20
-69
11
107
21
-55
0
LINE
8
0
10
107
20
-55
11
93
21
-55
0
LINE
8
0
10
93
20
-55
11
93
21
-69
0
LINE
8
0
10
112
20
-107
11
126
21
-107
0
LINE
8
0
10
126
20
-107
11
126
21
-93
0
LINE
8
0
10
126
20
-93
11
112
21
-93
0
LINE
8
0
10
112
20
-93
11
112
21
-107
0
LINE
8
0
10
112
20
-88
11
126
21
-88
0
LINE
8
0
10
126
20
-88
11
126
21
-74
0
LINE
8
0
10
126
20
-74
11
112
21
-74
0
LINE
8
0
10
112
20
-74
11
112
21
-88
0
LINE
8
0
10
112
20
-69
11
126
21
-69
0
LINE
8
0
10
126
20
-69
11
126
21
-55
0
LINE
8
0
10
126
20
-55
11
112
21
-55
0
LINE
8
0
10
112
20
-55
11
112
21
-69
0
LINE
8
0
10
131
20
-102.25
11
145
21
-102.25
0
LINE
8
0
10
145
20
-102.25
11
145
21
-88.25
0
LINE
8
0
10
145
20
-88.25
11
131
21
-88.25
0
LINE
8
0
10
131
20
-88.25
11
131
21
-102.25
0
LINE
8
0
10
131
20
-83.25
11
145
21
-83.25
0
LINE
8
0
10
145
20
-83.25
11
145
21
-69.25
0
LINE
8
0
10
145
20
-69.25
11
131
21
-69.25
0
LINE
8
0
10
131
20
-69.25
11
131
21
-83.25
0
LINE
8
0
10
131
20
-64.25
11
145
21
-64.25
0
LINE
8
0
10
145
20
-64.25
11
145
21
-50.25
0
LINE
8
0
10
145
20
-50.25
11
131
21
-50.25
0
LINE
8
0
10
131
20
-50.25
11
131
21
-64.25
0
LINE
8
0
10
150
20
-99.875
11
164
21
-99.875
0
LINE
8
0
10
164
20
-99.875
11
164
21
-85.875
0
LINE
8
0
10
164
20
-85.875
11
150
21
-85.875
0
LINE
8
0
10
150
20
-85.875
11
150
21
-99.875
0
LINE
8
0
10
150
20
-80.875
11
164
21
-80.875
0
LINE
8
0
10
164
20
-80.875
11
164
21
-66.875
0
LINE
8
0
10
164
20
-66.875
11
150
21
-66.875
0
LINE
8
0
10
150
20
-66.875
11
150
21
-80.875
0
LINE
8
0
10
150
20
-61.875
11
164
21
-61.875
0
LINE
8
0
10
164
20
-61.875
11
164
21
-47.875
0
LINE
8
0
10
164
20
-47.875
11
150
21
-47.875
0
LINE
8
0
10
150
20
-47.875
11
150
21
-61.875
0
LINE
8
0
10
169
20
-102.25
11
183
21
-102.25
0
LINE
8
0
10
183
20
-102.25
11
183
21
-88.25
0
LINE
8
0
10
183
20
-88.25
11
169
21
-88.25
0
LINE
8
0
10
169
20
-88.25
11
169
21
-102.25
0
LINE
8
0
10
169
20
-83.25
11
183
21
-83.25
0
LINE
8
0
10
183
20
-83.25
11
183
21
-69.25
0
LINE
8
0
10
183
20
-69.25
11
169
21
-69.25
0
LINE
8
0
10
169
20
-69.25
11
169
21
-83.25
0
LINE
8
0
10
169
20
-64.25
11
183
21
-64.25
0
LINE
8
0
10
183
20
-64.25
11
183
21
-50.25
0
LINE
8
0
10
183
20
-50.25
11
169
21
-50.25
0
LINE
8
0
10
169
20
-50.25
11
169
21
-64.25
0
LINE
8
0
10
188
20
-104.625
11
202
21
-104.625
0
LINE
8
0
10
202
20
-104.625
11
202
21
-90.625
0
LINE
8
0
10
202
20
-90.625
11
188
21
-90.625
0
LINE
8
0
10
188
20
-90.625
11
188
21
-104.625
0
LINE
8
0
10
188
20
-85.625
11
202
21
-85.625
0
LINE
8
0
10
202
20
-85.625
11
202
21
-71.625
0
LINE
8
0
10
202
20
-71.625
11
188
21
-71.625
0
LINE
8
0
10
188
20
-71.625
11
188
21
-85.625
0
LINE
8
0
10
188
20
-66.625
11
202
21
-66.625
0
LINE
8
0
10
202
20
-66.625
11
202
21
-52.625
0
LINE
8
0
10
202
20
-52.625
11
188
21
-52.625
0
LINE
8
0
10
188
20
-52.625
11
188
21
-66.625
0
LINE
8
0
10
159.5
20
-121.875
11
173.5
21
-121.875
0
LINE
8
0
10
173.5
20
-121.875
11
173.5
21
-107.875
0
LINE
8
0
10
173.5
20
-107.875
11
159.5
21
-107.875
0
LINE
8
0
10
159.5
20
-107.875
11
159.5
21
-121.875
0
LINE
8
0
10
178.9267859
20
-122.5747475
11
192.4497475
21
-126.1982141
0
LINE
8
0
10
192.4497475
20
-126.1982141
11
196.0732141
21
-112.6752525
0
LINE
8
0
10
196.0732141
20
-112.6752525
11
182.5502525
21
-109.0517859
0
LINE
8
0
10
182.5502525
20
-109.0517859
11
178.9267859
21
-122.5747475
0
LINE
8
0
10
212.3089836
20
-130.9513354
11
219.3089836
21
-118.8269798
0
LINE
8
0
10
219.3089836
20
-118.8269798
11
207.184628
21
-111.8269798
0
LINE
8
0
10
207.184628
20
-111.8269798
11
200.184628
21
-123.9513354
0
LINE
8
0
10
200.184628
20
-123.9513354
11
212.3089836
21
-130.9513354
0
CIRCLE
8
0
10
109.5
20
-71.5
40
1.1
0
CIRCLE
8
0
10
109.5
20
-90.5
40
1.1
0
CIRCLE
8
0
10
185.468
20
-67.986
40
1.1
0
CIRCLE
8
0
10
152.657
20
-107.74
40
1.1
0
CIRCLE
8
0
10
199.2410516
20
-115.3236576
40
1.1
0
ENDSEC
0
EOF