<svg width="133.255mm" height="91.72mm" viewBox="0 0 133.255 91.72" xmlns="http://www.w3.org/2000/svg"><g id="svgGroup" stroke-linecap="round" fill-rule="evenodd" font-size="9pt" stroke="#000" stroke-width="0.25mm" fill="none" style="stroke:#000;stroke-width:0.25mm;fill:none"><path d="M 0.002 62.752 L 0 7.502 A 0.5 0.5 0 0 1 0.5 7.002 L 37.5 7.001 A 0.5 0.5 0 0 0 38 6.501 L 38 2.752 A 0.5 0.5 0 0 1 38.5 2.252 L 56.5 2.252 A 0.5 0.5 0 0 0 57 1.752 L 57 0.5 A 0.5 0.5 0 0 1 57.5 0 L 74.502 0 A 0.5 0.5 0 0 1 75.002 0.5 L 75.002 1.752 A 0.5 0.5 0 0 0 75.502 2.252 L 93.501 2.252 A 0.5 0.5 0 0 1 94.001 2.752 L 94.001 4.25 A 0.5 0.5 0 0 0 94.501 4.75 L 112.502 4.75 A 0.5 0.5 0 0 1 113.002 5.25 L 113.003 7.002 L 113.003 55.922 A 0.5 0.5 0 0 0 113.253 56.355 L 133.005 67.759 A 0.5 0.5 0 0 1 133.188 68.442 L 119.894 91.47 A 0.5 0.5 0 0 1 119.21 91.653 L 104.044 82.897 A 0.5 0.5 0 0 0 103.858 82.834 L 66.693 77.99 A 0.5 0.5 0 0 1 66.353 77.789 L 55.9 63.457 A 0.5 0.5 0 0 0 55.496 63.252 L 0.502 63.252 A 0.5 0.5 0 0 1 0.002 62.752 Z M 87.847 76.587 L 101.37 80.21 L 104.993 66.687 L 91.47 63.064 L 87.847 76.587 Z M 1.92 61.012 L 15.92 61.012 L 15.92 47.012 L 1.92 47.012 L 1.92 61.012 Z M 1.92 42.012 L 15.92 42.012 L 15.92 28.012 L 1.92 28.012 L 1.92 42.012 Z M 1.92 23.012 L 15.92 23.012 L 15.92 9.012 L 1.92 9.012 L 1.92 23.012 Z M 20.92 61.012 L 34.92 61.012 L 34.92 47.012 L 20.92 47.012 L 20.92 61.012 Z M 20.92 42.012 L 34.92 42.012 L 34.92 28.012 L 20.92 28.012 L 20.92 42.012 Z M 20.92 23.012 L 34.92 23.012 L 34.92 9.012 L 20.92 9.012 L 20.92 23.012 Z M 39.92 56.262 L 53.92 56.262 L 53.92 42.262 L 39.92 42.262 L 39.92 56.262 Z M 39.92 37.262 L 53.92 37.262 L 53.92 23.262 L 39.92 23.262 L 39.92 37.262 Z M 39.92 18.262 L 53.92 18.262 L 53.92 4.262 L 39.92 4.262 L 39.92 18.262 Z M 58.92 53.887 L 72.92 53.887 L 72.92 39.887 L 58.92 39.887 L 58.92 53.887 Z M 58.92 34.887 L 72.92 34.887 L 72.92 20.887 L 58.92 20.887 L 58.92 34.887 Z M 58.92 15.887 L 72.92 15.887 L 72.92 1.887 L 58.92 1.887 L 58.92 15.887 Z M 77.92 56.262 L 91.92 56.262 L 91.92 42.262 L 77.92 42.262 L 77.92 56.262 Z M 77.92 37.262 L 91.92 37.262 L 91.92 23.262 L 77.92 23.262 L 77.92 37.262 Z M 77.92 18.262 L 91.92 18.262 L 91.92 4.262 L 77.92 4.262 L 77.92 18.262 Z M 96.92 58.637 L 110.92 58.637 L 110.92 44.637 L 96.92 44.637 L 96.92 58.637 Z M 96.92 39.637 L 110.92 39.637 L 110.92 25.637 L 96.92 25.637 L 96.92 39.637 Z M 96.92 20.637 L 110.92 20.637 L 110.92 6.637 L 96.92 6.637 L 96.92 20.637 Z M 68.42 75.887 L 82.42 75.887 L 82.42 61.887 L 68.42 61.887 L 68.42 75.887 Z M 121.229 84.963 L 128.229 72.839 L 116.105 65.839 L 109.105 77.963 L 121.229 84.963 Z M 18.42 25.512 m -1.1 0 a 1.1 1.1 0 0 1 2.2 0 a 1.1 1.1 0 0 1 -2.2 0 z M 18.42 44.512 m -1.1 0 a 1.1 1.1 0 0 1 2.2 0 a 1.1 1.1 0 0 1 -2.2 0 z M 94.388 21.998 m -1.1 0 a 1.1 1.1 0 0 1 2.2 0 a 1.1 1.1 0 0 1 -2.2 0 z M 61.577 61.752 m -1.1 0 a 1.1 1.1 0 0 1 2.2 0 a 1.1 1.1 0 0 1 -2.2 0 z M 108.161 69.336 m -1.1 0 a 1.1 1.1 0 0 1 2.2 0 a 1.1 1.1 0 0 1 -2.2 0 z" vector-effect="non-scaling-stroke"/></g></svg>