<svg width="134.005mm" height="92.685mm" viewBox="0 0 134.005 92.685" xmlns="http://www.w3.org/2000/svg"><g id="svgGroup" stroke-linecap="round" fill-rule="evenodd" font-size="9pt" stroke="#000" stroke-width="0.25mm" fill="none" style="stroke:#000;stroke-width:0.25mm;fill:none"><path d="M 0.5 64.125 L 56.726 64.125 A 0.5 0.5 0 0 1 57.147 64.356 L 66.373 78.802 A 0.5 0.5 0 0 0 66.734 79.029 L 103.794 83.593 A 0.5 0.5 0 0 1 103.983 83.656 L 119.505 92.618 A 0.5 0.5 0 0 0 120.188 92.435 L 133.938 68.619 A 0.5 0.5 0 0 0 133.755 67.936 L 114.25 56.675 A 0.5 0.5 0 0 1 114 56.242 L 114 5.25 A 0.5 0.5 0 0 0 113.5 4.75 L 95.5 4.75 A 0.5 0.5 0 0 1 95 4.25 L 95 2.875 A 0.5 0.5 0 0 0 94.5 2.375 L 76.5 2.375 A 0.5 0.5 0 0 1 76 1.875 L 76 0.5 A 0.5 0.5 0 0 0 75.5 0 L 57.5 0 A 0.5 0.5 0 0 0 57 0.5 L 57 1.875 A 0.5 0.5 0 0 1 56.5 2.375 L 38.5 2.375 A 0.5 0.5 0 0 0 38 2.875 L 38 6.625 A 0.5 0.5 0 0 1 37.5 7.125 L 0.5 7.125 A 0.5 0.5 0 0 0 0 7.625 L 0 63.625 A 0.5 0.5 0 0 0 0.5 64.125 Z M 88.427 77.2 L 101.95 80.823 L 105.573 67.3 L 92.05 63.677 L 88.427 77.2 Z M 2.5 61.625 L 16.5 61.625 L 16.5 47.625 L 2.5 47.625 L 2.5 61.625 Z M 2.5 42.625 L 16.5 42.625 L 16.5 28.625 L 2.5 28.625 L 2.5 42.625 Z M 2.5 23.625 L 16.5 23.625 L 16.5 9.625 L 2.5 9.625 L 2.5 23.625 Z M 21.5 61.625 L 35.5 61.625 L 35.5 47.625 L 21.5 47.625 L 21.5 61.625 Z M 21.5 42.625 L 35.5 42.625 L 35.5 28.625 L 21.5 28.625 L 21.5 42.625 Z M 21.5 23.625 L 35.5 23.625 L 35.5 9.625 L 21.5 9.625 L 21.5 23.625 Z M 40.5 56.875 L 54.5 56.875 L 54.5 42.875 L 40.5 42.875 L 40.5 56.875 Z M 40.5 37.875 L 54.5 37.875 L 54.5 23.875 L 40.5 23.875 L 40.5 37.875 Z M 40.5 18.875 L 54.5 18.875 L 54.5 4.875 L 40.5 4.875 L 40.5 18.875 Z M 59.5 54.5 L 73.5 54.5 L 73.5 40.5 L 59.5 40.5 L 59.5 54.5 Z M 59.5 35.5 L 73.5 35.5 L 73.5 21.5 L 59.5 21.5 L 59.5 35.5 Z M 59.5 16.5 L 73.5 16.5 L 73.5 2.5 L 59.5 2.5 L 59.5 16.5 Z M 78.5 56.875 L 92.5 56.875 L 92.5 42.875 L 78.5 42.875 L 78.5 56.875 Z M 78.5 37.875 L 92.5 37.875 L 92.5 23.875 L 78.5 23.875 L 78.5 37.875 Z M 78.5 18.875 L 92.5 18.875 L 92.5 4.875 L 78.5 4.875 L 78.5 18.875 Z M 97.5 59.25 L 111.5 59.25 L 111.5 45.25 L 97.5 45.25 L 97.5 59.25 Z M 97.5 40.25 L 111.5 40.25 L 111.5 26.25 L 97.5 26.25 L 97.5 40.25 Z M 97.5 21.25 L 111.5 21.25 L 111.5 7.25 L 97.5 7.25 L 97.5 21.25 Z M 69 76.5 L 83 76.5 L 83 62.5 L 69 62.5 L 69 76.5 Z M 121.809 85.576 L 128.809 73.452 L 116.685 66.452 L 109.685 78.576 L 121.809 85.576 Z M 19 26.125 m -1.1 0 a 1.1 1.1 0 0 1 2.2 0 a 1.1 1.1 0 0 1 -2.2 0 z M 19 45.125 m -1.1 0 a 1.1 1.1 0 0 1 2.2 0 a 1.1 1.1 0 0 1 -2.2 0 z M 94.968 22.611 m -1.1 0 a 1.1 1.1 0 0 1 2.2 0 a 1.1 1.1 0 0 1 -2.2 0 z M 62.157 62.365 m -1.1 0 a 1.1 1.1 0 0 1 2.2 0 a 1.1 1.1 0 0 1 -2.2 0 z M 108.741 69.949 m -1.1 0 a 1.1 1.1 0 0 1 2.2 0 a 1.1 1.1 0 0 1 -2.2 0 z" vector-effect="non-scaling-stroke"/></g></svg>