<svg width="133.715mm" height="92.498mm" viewBox="0 0 133.715 92.498" xmlns="http://www.w3.org/2000/svg"><g id="svgGroup" stroke-linecap="round" fill-rule="evenodd" font-size="9pt" stroke="#000" stroke-width="0.25mm" fill="none" style="stroke:#000;stroke-width:0.25mm;fill:none"><path d="M 0.5 64.125 L 56.727 64.125 A 0.5 0.5 0 0 1 57.148 64.354 L 66.373 78.678 A 0.5 0.5 0 0 0 66.733 78.903 L 103.504 83.406 A 0.5 0.5 0 0 1 103.693 83.47 L 119.215 92.431 A 0.5 0.5 0 0 0 119.898 92.248 L 133.648 68.432 A 0.5 0.5 0 0 0 133.465 67.749 L 114.25 56.656 A 0.5 0.5 0 0 1 114 56.223 L 114 5.25 A 0.5 0.5 0 0 0 113.5 4.75 L 95.5 4.75 A 0.5 0.5 0 0 1 95 4.25 L 95 2.875 A 0.5 0.5 0 0 0 94.5 2.375 L 76.5 2.375 A 0.5 0.5 0 0 1 76 1.875 L 76 0.5 A 0.5 0.5 0 0 0 75.5 0 L 57.5 0 A 0.5 0.5 0 0 0 57 0.5 L 57 1.875 A 0.5 0.5 0 0 1 56.5 2.375 L 38.5 2.375 A 0.5 0.5 0 0 0 38 2.875 L 38 6.625 A 0.5 0.5 0 0 1 37.5 7.125 L 0.5 7.125 A 0.5 0.5 0 0 0 0 7.625 L 0 63.625 A 0.5 0.5 0 0 0 0.5 64.125 Z M 88.562 77.107 L 102.085 80.731 L 105.708 67.208 L 92.185 63.584 L 88.562 77.107 Z M 2.5 61.625 L 16.5 61.625 L 16.5 47.625 L 2.5 47.625 L 2.5 61.625 Z M 2.5 42.625 L 16.5 42.625 L 16.5 28.625 L 2.5 28.625 L 2.5 42.625 Z M 2.5 23.625 L 16.5 23.625 L 16.5 9.625 L 2.5 9.625 L 2.5 23.625 Z M 21.5 61.625 L 35.5 61.625 L 35.5 47.625 L 21.5 47.625 L 21.5 61.625 Z M 21.5 42.625 L 35.5 42.625 L 35.5 28.625 L 21.5 28.625 L 21.5 42.625 Z M 21.5 23.625 L 35.5 23.625 L 35.5 9.625 L 21.5 9.625 L 21.5 23.625 Z M 40.5 56.875 L 54.5 56.875 L 54.5 42.875 L 40.5 42.875 L 40.5 56.875 Z M 40.5 37.875 L 54.5 37.875 L 54.5 23.875 L 40.5 23.875 L 40.5 37.875 Z M 40.5 18.875 L 54.5 18.875 L 54.5 4.875 L 40.5 4.875 L 40.5 18.875 Z M 59.5 54.5 L 73.5 54.5 L 73.5 40.5 L 59.5 40.5 L 59.5 54.5 Z M 59.5 35.5 L 73.5 35.5 L 73.5 21.5 L 59.5 21.5 L 59.5 35.5 Z M 59.5 16.5 L 73.5 16.5 L 73.5 2.5 L 59.5 2.5 L 59.5 16.5 Z M 78.5 56.875 L 92.5 56.875 L 92.5 42.875 L 78.5 42.875 L 78.5 56.875 Z M 78.5 37.875 L 92.5 37.875 L 92.5 23.875 L 78.5 23.875 L 78.5 37.875 Z M 78.5 18.875 L 92.5 18.875 L 92.5 4.875 L 78.5 4.875 L 78.5 18.875 Z M 97.5 59.25 L 111.5 59.25 L 111.5 45.25 L 97.5 45.25 L 97.5 59.25 Z M 97.5 40.25 L 111.5 40.25 L 111.5 26.25 L 97.5 26.25 L 97.5 40.25 Z M 97.5 21.25 L 111.5 21.25 L 111.5 7.25 L 97.5 7.25 L 97.5 21.25 Z M 69 76.375 L 83 76.375 L 83 62.375 L 69 62.375 L 69 76.375 Z M 121.519 85.39 L 128.519 73.266 L 116.395 66.266 L 109.395 78.39 L 121.519 85.39 Z M 19 26.125 m -1.1 0 a 1.1 1.1 0 0 1 2.2 0 a 1.1 1.1 0 0 1 -2.2 0 z M 19 45.125 m -1.1 0 a 1.1 1.1 0 0 1 2.2 0 a 1.1 1.1 0 0 1 -2.2 0 z M 95 22.35 m -1.1 0 a 1.1 1.1 0 0 1 2.2 0 a 1.1 1.1 0 0 1 -2.2 0 z M 62.5 62.275 m -1.1 0 a 1.1 1.1 0 0 1 2.2 0 a 1.1 1.1 0 0 1 -2.2 0 z M 108.998 70.078 m -1.1 0 a 1.1 1.1 0 0 1 2.2 0 a 1.1 1.1 0 0 1 -2.2 0 z" vector-effect="non-scaling-stroke"/></g></svg>