0
SECTION
2
HEADER
9
$INSUNITS
70
4
0
ENDSEC
0
SECTION
2
TABLES
0
TABLE
2
LTYPE
0
LTYPE
72
65
70
64
2
CONTINUOUS
3
______
73
0
40
0
0
ENDTAB
0
TABLE
2
LAYER
0
ENDTAB
0
ENDSEC
0
SECTION
2
ENTITIES
0
LINE
8
0
10
91
20
-109.5
11
147.2273022
21
-109.5
0
LINE
8
0
10
90.5
20
-109
11
90.5
21
-53
0
LINE
8
0
10
91
20
-52.5
11
128
21
-52.5
0
LINE
8
0
10
147
20
-47.75
11
129
21
-47.75
0
LINE
8
0
10
128.5
20
-48.25
11
128.5
21
-52
0
LINE
8
0
10
166.5
20
-47.25
11
166.5
21
-45.875
0
LINE
8
0
10
166
20
-45.375
11
148
21
-45.375
0
LINE
8
0
10
147.5
20
-45.875
11
147.5
21
-47.25
0
LINE
8
0
10
185.5
20
-49.625
11
185.5
21
-48.25
0
LINE
8
0
10
185
20
-47.75
11
167
21
-47.75
0
LINE
8
0
10
204.5
20
-52
11
204.5
21
-50.625
0
LINE
8
0
10
204
20
-50.125
11
186
21
-50.125
0
LINE
8
0
10
210.3979413
20
-137.6231371
11
224.3979413
21
-113.3744258
0
LINE
8
0
10
194.1929915
20
-128.8445553
11
209.7149286
21
-137.8061498
0
LINE
8
0
10
147.6476598
20
-109.7292612
11
156.8730777
21
-124.0529364
0
LINE
8
0
10
157.232662
20
-124.2784905
11
194.0037648
21
-128.7812751
0
LINE
8
0
10
224.5
20
-113.4333494
11
224.5
21
-53
0
LINE
8
0
10
224
20
-52.5
11
205
21
-52.5
0
LINE
8
0
10
224.5
20
-113.4333494
11
224.3979413
21
-113.3744258
0
ARC
8
0
10
147.2273022
20
-110
40
0.5
50
32.7842815
51
90
0
ARC
8
0
10
157.2934353
20
-123.7821976
40
0.5
50
212.7842815
51
263.0186358
0
ARC
8
0
10
193.9429915
20
-129.277568
40
0.5
50
59.9999999
51
83.0186358
0
ARC
8
0
10
209.9649286
20
-137.3731371
40
0.5
50
239.9999999
51
329.9999999
0
ARC
8
0
10
224
20
-53
40
0.5
50
0
51
90
0
ARC
8
0
10
205
20
-52
40
0.5
50
180
51
270
0
ARC
8
0
10
204
20
-50.625
40
0.5
50
0
51
90
0
ARC
8
0
10
186
20
-49.625
40
0.5
50
180
51
270
0
ARC
8
0
10
185
20
-48.25
40
0.5
50
0
51
90
0
ARC
8
0
10
167
20
-47.25
40
0.5
50
180
51
270
0
ARC
8
0
10
166
20
-45.875
40
0.5
50
0
51
90
0
ARC
8
0
10
148
20
-45.875
40
0.5
50
90
51
180
0
ARC
8
0
10
147
20
-47.25
40
0.5
50
270
51
0
0
ARC
8
0
10
129
20
-48.25
40
0.5
50
90
51
180
0
ARC
8
0
10
128
20
-52
40
0.5
50
270
51
0
0
ARC
8
0
10
91
20
-53
40
0.5
50
90
51
180
0
ARC
8
0
10
91
20
-109
40
0.5
50
180
51
270
0
CIRCLE
8
0
10
109.5
20
-71.5
40
2.05
0
CIRCLE
8
0
10
109.5
20
-90.5
40
2.05
0
CIRCLE
8
0
10
185.5
20
-67.725
40
2.05
0
CIRCLE
8
0
10
153
20
-107.65
40
2.05
0
CIRCLE
8
0
10
199.4977699
20
-115.4527878
40
2.05
0
CIRCLE
8
0
10
207.3116483
20
-100.2187534
40
1.1
0
CIRCLE
8
0
10
222.1206827
20
-108.7687534
40
1.1
0
LINE
8
0
10
98.2
20
-106.3
11
101.8
21
-106.3
0
LINE
8
0
10
101.8
20
-106.3
11
101.8
21
-103.2
0
LINE
8
0
10
101.8
20
-103.2
11
98.2
21
-103.2
0
LINE
8
0
10
98.2
20
-103.2
11
98.2
21
-106.3
0
LINE
8
0
10
98.2
20
-87.3
11
101.8
21
-87.3
0
LINE
8
0
10
101.8
20
-87.3
11
101.8
21
-84.2
0
LINE
8
0
10
101.8
20
-84.2
11
98.2
21
-84.2
0
LINE
8
0
10
98.2
20
-84.2
11
98.2
21
-87.3
0
LINE
8
0
10
98.2
20
-68.3
11
101.8
21
-68.3
0
LINE
8
0
10
101.8
20
-68.3
11
101.8
21
-65.2
0
LINE
8
0
10
101.8
20
-65.2
11
98.2
21
-65.2
0
LINE
8
0
10
98.2
20
-65.2
11
98.2
21
-68.3
0
LINE
8
0
10
117.2
20
-106.3
11
120.8
21
-106.3
0
LINE
8
0
10
120.8
20
-106.3
11
120.8
21
-103.2
0
LINE
8
0
10
120.8
20
-103.2
11
117.2
21
-103.2
0
LINE
8
0
10
117.2
20
-103.2
11
117.2
21
-106.3
0
LINE
8
0
10
117.2
20
-87.3
11
120.8
21
-87.3
0
LINE
8
0
10
120.8
20
-87.3
11
120.8
21
-84.2
0
LINE
8
0
10
120.8
20
-84.2
11
117.2
21
-84.2
0
LINE
8
0
10
117.2
20
-84.2
11
117.2
21
-87.3
0
LINE
8
0
10
117.2
20
-68.3
11
120.8
21
-68.3
0
LINE
8
0
10
120.8
20
-68.3
11
120.8
21
-65.2
0
LINE
8
0
10
120.8
20
-65.2
11
117.2
21
-65.2
0
LINE
8
0
10
117.2
20
-65.2
11
117.2
21
-68.3
0
LINE
8
0
10
136.2
20
-101.55
11
139.8
21
-101.55
0
LINE
8
0
10
139.8
20
-101.55
11
139.8
21
-98.45
0
LINE
8
0
10
139.8
20
-98.45
11
136.2
21
-98.45
0
LINE
8
0
10
136.2
20
-98.45
11
136.2
21
-101.55
0
LINE
8
0
10
136.2
20
-82.55
11
139.8
21
-82.55
0
LINE
8
0
10
139.8
20
-82.55
11
139.8
21
-79.45
0
LINE
8
0
10
139.8
20
-79.45
11
136.2
21
-79.45
0
LINE
8
0
10
136.2
20
-79.45
11
136.2
21
-82.55
0
LINE
8
0
10
136.2
20
-63.55
11
139.8
21
-63.55
0
LINE
8
0
10
139.8
20
-63.55
11
139.8
21
-60.45
0
LINE
8
0
10
139.8
20
-60.45
11
136.2
21
-60.45
0
LINE
8
0
10
136.2
20
-60.45
11
136.2
21
-63.55
0
LINE
8
0
10
155.2
20
-99.175
11
158.8
21
-99.175
0
LINE
8
0
10
158.8
20
-99.175
11
158.8
21
-96.075
0
LINE
8
0
10
158.8
20
-96.075
11
155.2
21
-96.075
0
LINE
8
0
10
155.2
20
-96.075
11
155.2
21
-99.175
0
LINE
8
0
10
155.2
20
-80.175
11
158.8
21
-80.175
0
LINE
8
0
10
158.8
20
-80.175
11
158.8
21
-77.075
0
LINE
8
0
10
158.8
20
-77.075
11
155.2
21
-77.075
0
LINE
8
0
10
155.2
20
-77.075
11
155.2
21
-80.175
0
LINE
8
0
10
155.2
20
-61.175
11
158.8
21
-61.175
0
LINE
8
0
10
158.8
20
-61.175
11
158.8
21
-58.075
0
LINE
8
0
10
158.8
20
-58.075
11
155.2
21
-58.075
0
LINE
8
0
10
155.2
20
-58.075
11
155.2
21
-61.175
0
LINE
8
0
10
174.2
20
-101.55
11
177.8
21
-101.55
0
LINE
8
0
10
177.8
20
-101.55
11
177.8
21
-98.45
0
LINE
8
0
10
177.8
20
-98.45
11
174.2
21
-98.45
0
LINE
8
0
10
174.2
20
-98.45
11
174.2
21
-101.55
0
LINE
8
0
10
174.2
20
-82.55
11
177.8
21
-82.55
0
LINE
8
0
10
177.8
20
-82.55
11
177.8
21
-79.45
0
LINE
8
0
10
177.8
20
-79.45
11
174.2
21
-79.45
0
LINE
8
0
10
174.2
20
-79.45
11
174.2
21
-82.55
0
LINE
8
0
10
174.2
20
-63.55
11
177.8
21
-63.55
0
LINE
8
0
10
177.8
20
-63.55
11
177.8
21
-60.45
0
LINE
8
0
10
177.8
20
-60.45
11
174.2
21
-60.45
0
LINE
8
0
10
174.2
20
-60.45
11
174.2
21
-63.55
0
LINE
8
0
10
193.2
20
-103.925
11
196.8
21
-103.925
0
LINE
8
0
10
196.8
20
-103.925
11
196.8
21
-100.825
0
LINE
8
0
10
196.8
20
-100.825
11
193.2
21
-100.825
0
LINE
8
0
10
193.2
20
-100.825
11
193.2
21
-103.925
0
LINE
8
0
10
193.2
20
-84.925
11
196.8
21
-84.925
0
LINE
8
0
10
196.8
20
-84.925
11
196.8
21
-81.825
0
LINE
8
0
10
196.8
20
-81.825
11
193.2
21
-81.825
0
LINE
8
0
10
193.2
20
-81.825
11
193.2
21
-84.925
0
LINE
8
0
10
193.2
20
-65.925
11
196.8
21
-65.925
0
LINE
8
0
10
196.8
20
-65.925
11
196.8
21
-62.825
0
LINE
8
0
10
196.8
20
-62.825
11
193.2
21
-62.825
0
LINE
8
0
10
193.2
20
-62.825
11
193.2
21
-65.925
0
LINE
8
0
10
164.7
20
-121.05
11
168.3
21
-121.05
0
LINE
8
0
10
168.3
20
-121.05
11
168.3
21
-117.95
0
LINE
8
0
10
168.3
20
-117.95
11
164.7
21
-117.95
0
LINE
8
0
10
164.7
20
-117.95
11
164.7
21
-121.05
0
LINE
8
0
10
184.2658498
20
-123.151944
11
187.7431828
21
-124.0836926
0
LINE
8
0
10
187.7431828
20
-124.0836926
11
188.5455218
21
-121.0893226
0
LINE
8
0
10
188.5455218
20
-121.0893226
11
185.0681888
21
-120.157574
0
LINE
8
0
10
185.0681888
20
-120.157574
11
184.2658498
21
-123.151944
0
LINE
8
0
10
214.0130221
20
-125.9116335
11
215.8130221
21
-122.7939421
0
LINE
8
0
10
215.8130221
20
-122.7939421
11
213.1283433
21
-121.2439421
0
LINE
8
0
10
213.1283433
20
-121.2439421
11
211.3283433
21
-124.3616335
0
LINE
8
0
10
211.3283433
20
-124.3616335
11
214.0130221
21
-125.9116335
0
ENDSEC
0
EOF