<svg width="133.753mm" height="91.72mm" viewBox="0 0 133.753 91.72" xmlns="http://www.w3.org/2000/svg"><g id="svgGroup" stroke-linecap="round" fill-rule="evenodd" font-size="9pt" stroke="#000" stroke-width="0.25mm" fill="none" style="stroke:#000;stroke-width:0.25mm;fill:none"><path d="M 0.002 62.752 L 0 7.502 A 0.5 0.5 0 0 1 0.5 7.002 L 37.5 7.001 A 0.5 0.5 0 0 0 38 6.501 L 38 2.752 A 0.5 0.5 0 0 1 38.5 2.252 L 56.5 2.252 A 0.5 0.5 0 0 0 57 1.752 L 57 0.5 A 0.5 0.5 0 0 1 57.5 0 L 74.502 0 A 0.5 0.5 0 0 1 75.002 0.5 L 75.002 1.752 A 0.5 0.5 0 0 0 75.502 2.252 L 93.501 2.252 A 0.5 0.5 0 0 1 94.001 2.752 L 94.001 4.25 A 0.5 0.5 0 0 0 94.501 4.75 L 112.502 4.75 A 0.5 0.5 0 0 1 113.002 5.25 L 113.003 6.502 A 0.5 0.5 0 0 0 113.503 7.002 L 133.253 7.002 A 0.5 0.5 0 0 1 133.753 7.502 L 133.753 67.329 A 0.5 0.5 0 0 1 133.686 67.579 L 133.438 68.009 L 119.894 91.47 A 0.5 0.5 0 0 1 119.21 91.653 L 104.044 82.897 A 0.5 0.5 0 0 0 103.858 82.834 L 66.693 77.99 A 0.5 0.5 0 0 1 66.353 77.789 L 55.9 63.457 A 0.5 0.5 0 0 0 55.496 63.252 L 0.502 63.252 A 0.5 0.5 0 0 1 0.002 62.752 Z M 18.42 25.512 m -2.05 0 a 2.05 2.05 0 0 1 4.1 0 a 2.05 2.05 0 0 1 -4.1 0 z M 18.42 44.512 m -2.05 0 a 2.05 2.05 0 0 1 4.1 0 a 2.05 2.05 0 0 1 -4.1 0 z M 94.388 21.998 m -2.05 0 a 2.05 2.05 0 0 1 4.1 0 a 2.05 2.05 0 0 1 -4.1 0 z M 61.577 61.752 m -2.05 0 a 2.05 2.05 0 0 1 4.1 0 a 2.05 2.05 0 0 1 -4.1 0 z M 108.161 69.336 m -2.05 0 a 2.05 2.05 0 0 1 4.1 0 a 2.05 2.05 0 0 1 -4.1 0 z M 116.682 54.488 m -1.1 0 a 1.1 1.1 0 0 1 2.2 0 a 1.1 1.1 0 0 1 -2.2 0 z M 131.114 63.007 m -1.1 0 a 1.1 1.1 0 0 1 2.2 0 a 1.1 1.1 0 0 1 -2.2 0 z" vector-effect="non-scaling-stroke"/></g></svg>