<svg width="134.188mm" height="92.685mm" viewBox="0 0 134.188 92.685" xmlns="http://www.w3.org/2000/svg"><g id="svgGroup" stroke-linecap="round" fill-rule="evenodd" font-size="9pt" stroke="#000" stroke-width="0.25mm" fill="none" style="stroke:#000;stroke-width:0.25mm;fill:none"><path d="M 0.5 64.125 L 56.726 64.125 A 0.5 0.5 0 0 1 57.147 64.356 L 66.373 78.802 A 0.5 0.5 0 0 0 66.734 79.029 L 103.794 83.593 A 0.5 0.5 0 0 1 103.983 83.656 L 119.505 92.618 A 0.5 0.5 0 0 0 120.188 92.435 L 134.188 68.186 L 134 68.077 L 134 7.625 A 0.5 0.5 0 0 0 133.5 7.125 L 114.5 7.125 A 0.5 0.5 0 0 1 114 6.625 L 114 5.25 A 0.5 0.5 0 0 0 113.5 4.75 L 95.5 4.75 A 0.5 0.5 0 0 1 95 4.25 L 95 2.875 A 0.5 0.5 0 0 0 94.5 2.375 L 76.5 2.375 A 0.5 0.5 0 0 1 76 1.875 L 76 0.5 A 0.5 0.5 0 0 0 75.5 0 L 57.5 0 A 0.5 0.5 0 0 0 57 0.5 L 57 1.875 A 0.5 0.5 0 0 1 56.5 2.375 L 38.5 2.375 A 0.5 0.5 0 0 0 38 2.875 L 38 6.625 A 0.5 0.5 0 0 1 37.5 7.125 L 0.5 7.125 A 0.5 0.5 0 0 0 0 7.625 L 0 63.625 A 0.5 0.5 0 0 0 0.5 64.125 Z M 45.7 18.175 L 49.3 18.175 L 49.3 15.075 L 45.7 15.075 L 45.7 18.175 Z M 64.7 15.8 L 68.3 15.8 L 68.3 12.7 L 64.7 12.7 L 64.7 15.8 Z M 83.7 18.175 L 87.3 18.175 L 87.3 15.075 L 83.7 15.075 L 83.7 18.175 Z M 102.7 20.55 L 106.3 20.55 L 106.3 17.45 L 102.7 17.45 L 102.7 20.55 Z M 7.7 60.925 L 11.3 60.925 L 11.3 57.825 L 7.7 57.825 L 7.7 60.925 Z M 7.7 41.925 L 11.3 41.925 L 11.3 38.825 L 7.7 38.825 L 7.7 41.925 Z M 7.7 22.925 L 11.3 22.925 L 11.3 19.825 L 7.7 19.825 L 7.7 22.925 Z M 26.7 60.925 L 30.3 60.925 L 30.3 57.825 L 26.7 57.825 L 26.7 60.925 Z M 26.7 41.925 L 30.3 41.925 L 30.3 38.825 L 26.7 38.825 L 26.7 41.925 Z M 26.7 22.925 L 30.3 22.925 L 30.3 19.825 L 26.7 19.825 L 26.7 22.925 Z M 45.7 56.175 L 49.3 56.175 L 49.3 53.075 L 45.7 53.075 L 45.7 56.175 Z M 45.7 37.175 L 49.3 37.175 L 49.3 34.075 L 45.7 34.075 L 45.7 37.175 Z M 64.7 53.8 L 68.3 53.8 L 68.3 50.7 L 64.7 50.7 L 64.7 53.8 Z M 64.7 34.8 L 68.3 34.8 L 68.3 31.7 L 64.7 31.7 L 64.7 34.8 Z M 83.7 56.175 L 87.3 56.175 L 87.3 53.075 L 83.7 53.075 L 83.7 56.175 Z M 83.7 37.175 L 87.3 37.175 L 87.3 34.075 L 83.7 34.075 L 83.7 37.175 Z M 102.7 58.55 L 106.3 58.55 L 106.3 55.45 L 102.7 55.45 L 102.7 58.55 Z M 102.7 39.55 L 106.3 39.55 L 106.3 36.45 L 102.7 36.45 L 102.7 39.55 Z M 74.2 75.8 L 77.8 75.8 L 77.8 72.7 L 74.2 72.7 L 74.2 75.8 Z M 123.803 80.723 L 125.603 77.605 L 122.918 76.055 L 121.118 79.173 L 123.803 80.723 Z M 93.631 77.869 L 97.108 78.801 L 97.91 75.807 L 94.433 74.875 L 93.631 77.869 Z M 19 26.125 m -2.05 0 a 2.05 2.05 0 0 1 4.1 0 a 2.05 2.05 0 0 1 -4.1 0 z M 19 45.125 m -2.05 0 a 2.05 2.05 0 0 1 4.1 0 a 2.05 2.05 0 0 1 -4.1 0 z M 94.968 22.611 m -2.05 0 a 2.05 2.05 0 0 1 4.1 0 a 2.05 2.05 0 0 1 -4.1 0 z M 62.157 62.365 m -2.05 0 a 2.05 2.05 0 0 1 4.1 0 a 2.05 2.05 0 0 1 -4.1 0 z M 108.741 69.949 m -2.05 0 a 2.05 2.05 0 0 1 4.1 0 a 2.05 2.05 0 0 1 -4.1 0 z M 117.262 55.101 m -1.1 0 a 1.1 1.1 0 0 1 2.2 0 a 1.1 1.1 0 0 1 -2.2 0 z M 131.694 63.62 m -1.1 0 a 1.1 1.1 0 0 1 2.2 0 a 1.1 1.1 0 0 1 -2.2 0 z" vector-effect="non-scaling-stroke"/></g></svg>