<svg width="134mm" height="92.498mm" viewBox="0 0 134 92.498" xmlns="http://www.w3.org/2000/svg"><g id="svgGroup" stroke-linecap="round" fill-rule="evenodd" font-size="9pt" stroke="#000" stroke-width="0.25mm" fill="none" style="stroke:#000;stroke-width:0.25mm;fill:none"><path d="M 0.5 64.125 L 56.727 64.125 A 0.5 0.5 0 0 1 57.148 64.354 L 66.373 78.678 A 0.5 0.5 0 0 0 66.733 78.903 L 103.504 83.406 A 0.5 0.5 0 0 1 103.693 83.47 L 119.215 92.431 A 0.5 0.5 0 0 0 119.898 92.248 L 133.898 67.999 L 134 68.058 L 134 7.625 A 0.5 0.5 0 0 0 133.5 7.125 L 114.5 7.125 A 0.5 0.5 0 0 1 114 6.625 L 114 5.25 A 0.5 0.5 0 0 0 113.5 4.75 L 95.5 4.75 A 0.5 0.5 0 0 1 95 4.25 L 95 2.875 A 0.5 0.5 0 0 0 94.5 2.375 L 76.5 2.375 A 0.5 0.5 0 0 1 76 1.875 L 76 0.5 A 0.5 0.5 0 0 0 75.5 0 L 57.5 0 A 0.5 0.5 0 0 0 57 0.5 L 57 1.875 A 0.5 0.5 0 0 1 56.5 2.375 L 38.5 2.375 A 0.5 0.5 0 0 0 38 2.875 L 38 6.625 A 0.5 0.5 0 0 1 37.5 7.125 L 0.5 7.125 A 0.5 0.5 0 0 0 0 7.625 L 0 63.625 A 0.5 0.5 0 0 0 0.5 64.125 Z M 45.7 18.175 L 49.3 18.175 L 49.3 15.075 L 45.7 15.075 L 45.7 18.175 Z M 64.7 15.8 L 68.3 15.8 L 68.3 12.7 L 64.7 12.7 L 64.7 15.8 Z M 83.7 18.175 L 87.3 18.175 L 87.3 15.075 L 83.7 15.075 L 83.7 18.175 Z M 102.7 20.55 L 106.3 20.55 L 106.3 17.45 L 102.7 17.45 L 102.7 20.55 Z M 7.7 60.925 L 11.3 60.925 L 11.3 57.825 L 7.7 57.825 L 7.7 60.925 Z M 7.7 41.925 L 11.3 41.925 L 11.3 38.825 L 7.7 38.825 L 7.7 41.925 Z M 7.7 22.925 L 11.3 22.925 L 11.3 19.825 L 7.7 19.825 L 7.7 22.925 Z M 26.7 60.925 L 30.3 60.925 L 30.3 57.825 L 26.7 57.825 L 26.7 60.925 Z M 26.7 41.925 L 30.3 41.925 L 30.3 38.825 L 26.7 38.825 L 26.7 41.925 Z M 26.7 22.925 L 30.3 22.925 L 30.3 19.825 L 26.7 19.825 L 26.7 22.925 Z M 45.7 56.175 L 49.3 56.175 L 49.3 53.075 L 45.7 53.075 L 45.7 56.175 Z M 45.7 37.175 L 49.3 37.175 L 49.3 34.075 L 45.7 34.075 L 45.7 37.175 Z M 64.7 53.8 L 68.3 53.8 L 68.3 50.7 L 64.7 50.7 L 64.7 53.8 Z M 64.7 34.8 L 68.3 34.8 L 68.3 31.7 L 64.7 31.7 L 64.7 34.8 Z M 83.7 56.175 L 87.3 56.175 L 87.3 53.075 L 83.7 53.075 L 83.7 56.175 Z M 83.7 37.175 L 87.3 37.175 L 87.3 34.075 L 83.7 34.075 L 83.7 37.175 Z M 102.7 58.55 L 106.3 58.55 L 106.3 55.45 L 102.7 55.45 L 102.7 58.55 Z M 102.7 39.55 L 106.3 39.55 L 106.3 36.45 L 102.7 36.45 L 102.7 39.55 Z M 74.2 75.675 L 77.8 75.675 L 77.8 72.575 L 74.2 72.575 L 74.2 75.675 Z M 123.513 80.537 L 125.313 77.419 L 122.628 75.869 L 120.828 78.987 L 123.513 80.537 Z M 93.766 77.777 L 97.243 78.709 L 98.046 75.714 L 94.568 74.783 L 93.766 77.777 Z M 19 26.125 m -2.05 0 a 2.05 2.05 0 0 1 4.1 0 a 2.05 2.05 0 0 1 -4.1 0 z M 19 45.125 m -2.05 0 a 2.05 2.05 0 0 1 4.1 0 a 2.05 2.05 0 0 1 -4.1 0 z M 95 22.35 m -2.05 0 a 2.05 2.05 0 0 1 4.1 0 a 2.05 2.05 0 0 1 -4.1 0 z M 62.5 62.275 m -2.05 0 a 2.05 2.05 0 0 1 4.1 0 a 2.05 2.05 0 0 1 -4.1 0 z M 108.998 70.078 m -2.05 0 a 2.05 2.05 0 0 1 4.1 0 a 2.05 2.05 0 0 1 -4.1 0 z M 116.812 54.844 m -1.1 0 a 1.1 1.1 0 0 1 2.2 0 a 1.1 1.1 0 0 1 -2.2 0 z M 131.621 63.394 m -1.1 0 a 1.1 1.1 0 0 1 2.2 0 a 1.1 1.1 0 0 1 -2.2 0 z" vector-effect="non-scaling-stroke"/></g></svg>