<svg width="133.833mm" height="91.833mm" viewBox="0 0 133.833 91.833" xmlns="http://www.w3.org/2000/svg"><g id="svgGroup" stroke-linecap="round" fill-rule="evenodd" font-size="9pt" stroke="#000" stroke-width="0.25mm" fill="none" style="stroke:#000;stroke-width:0.25mm;fill:none"><path d="M 120.791 89.973 L 132.291 70.055 A 2 2 0 0 0 131.559 67.323 L 119.435 60.323 A 2 2 0 0 0 116.703 61.055 L 105.203 80.973 A 2 2 0 0 0 105.935 83.706 L 118.059 90.706 A 2 2 0 0 0 120.791 89.973 Z M 133.268 68.555 A 0.5 0.5 0 0 0 133.085 67.872 L 113.333 56.468 A 0.5 0.5 0 0 1 113.083 56.035 L 113.083 7.115 L 113.082 5.363 M 114.613 7.115 A 0.5 0.5 0 0 0 114.113 7.615 L 114.113 55.902 A 0.5 0.5 0 0 0 114.363 56.335 L 133.083 67.143 A 0.5 0.5 0 0 0 133.833 66.71 M 2 63.125 L 16 63.125 A 2 2 0 0 0 18 61.125 L 18 47.125 A 2 2 0 0 0 16 45.125 L 2 45.125 A 2 2 0 0 0 0 47.125 L 0 61.125 A 2 2 0 0 0 2 63.125 Z M 2 44.125 L 16 44.125 A 2 2 0 0 0 18 42.125 L 18 28.125 A 2 2 0 0 0 16 26.125 L 2 26.125 A 2 2 0 0 0 0 28.125 L 0 42.125 A 2 2 0 0 0 2 44.125 Z M 2 25.125 L 16 25.125 A 2 2 0 0 0 18 23.125 L 18 9.125 A 2 2 0 0 0 16 7.125 L 2 7.125 A 2 2 0 0 0 0 9.125 L 0 23.125 A 2 2 0 0 0 2 25.125 Z M 21 63.125 L 35 63.125 A 2 2 0 0 0 37 61.125 L 37 47.125 A 2 2 0 0 0 35 45.125 L 21 45.125 A 2 2 0 0 0 19 47.125 L 19 61.125 A 2 2 0 0 0 21 63.125 Z M 21 44.125 L 35 44.125 A 2 2 0 0 0 37 42.125 L 37 28.125 A 2 2 0 0 0 35 26.125 L 21 26.125 A 2 2 0 0 0 19 28.125 L 19 42.125 A 2 2 0 0 0 21 44.125 Z M 21 25.125 L 35 25.125 A 2 2 0 0 0 37 23.125 L 37 9.125 A 2 2 0 0 0 35 7.125 L 21 7.125 A 2 2 0 0 0 19 9.125 L 19 23.125 A 2 2 0 0 0 21 25.125 Z M 40 58.375 L 54 58.375 A 2 2 0 0 0 56 56.375 L 56 42.375 A 2 2 0 0 0 54 40.375 L 40 40.375 A 2 2 0 0 0 38 42.375 L 38 56.375 A 2 2 0 0 0 40 58.375 Z M 40 39.375 L 54 39.375 A 2 2 0 0 0 56 37.375 L 56 23.375 A 2 2 0 0 0 54 21.375 L 40 21.375 A 2 2 0 0 0 38 23.375 L 38 37.375 A 2 2 0 0 0 40 39.375 Z M 40 20.375 L 54 20.375 A 2 2 0 0 0 56 18.375 L 56 4.375 A 2 2 0 0 0 54 2.375 L 40 2.375 A 2 2 0 0 0 38 4.375 L 38 18.375 A 2 2 0 0 0 40 20.375 Z M 59 56 L 73 56 A 2 2 0 0 0 75 54 L 75 40 A 2 2 0 0 0 73 38 L 59 38 A 2 2 0 0 0 57 40 L 57 54 A 2 2 0 0 0 59 56 Z M 59 37 L 73 37 A 2 2 0 0 0 75 35 L 75 21 A 2 2 0 0 0 73 19 L 59 19 A 2 2 0 0 0 57 21 L 57 35 A 2 2 0 0 0 59 37 Z M 59 18 L 73 18 A 2 2 0 0 0 75 16 L 75 2 A 2 2 0 0 0 73 0 L 59 0 A 2 2 0 0 0 57 2 L 57 16 A 2 2 0 0 0 59 18 Z M 78 58.375 L 92 58.375 A 2 2 0 0 0 94 56.375 L 94 42.375 A 2 2 0 0 0 92 40.375 L 78 40.375 A 2 2 0 0 0 76 42.375 L 76 56.375 A 2 2 0 0 0 78 58.375 Z M 78 39.375 L 92 39.375 A 2 2 0 0 0 94 37.375 L 94 23.375 A 2 2 0 0 0 92 21.375 L 78 21.375 A 2 2 0 0 0 76 23.375 L 76 37.375 A 2 2 0 0 0 78 39.375 Z M 78 20.375 L 92 20.375 A 2 2 0 0 0 94 18.375 L 94 4.375 A 2 2 0 0 0 92 2.375 L 78 2.375 A 2 2 0 0 0 76 4.375 L 76 18.375 A 2 2 0 0 0 78 20.375 Z M 97 60.75 L 111 60.75 A 2 2 0 0 0 113 58.75 L 113 44.75 A 2 2 0 0 0 111 42.75 L 97 42.75 A 2 2 0 0 0 95 44.75 L 95 58.75 A 2 2 0 0 0 97 60.75 Z M 97 41.75 L 111 41.75 A 2 2 0 0 0 113 39.75 L 113 25.75 A 2 2 0 0 0 111 23.75 L 97 23.75 A 2 2 0 0 0 95 25.75 L 95 39.75 A 2 2 0 0 0 97 41.75 Z M 97 22.75 L 111 22.75 A 2 2 0 0 0 113 20.75 L 113 6.75 A 2 2 0 0 0 111 4.75 L 97 4.75 A 2 2 0 0 0 95 6.75 L 95 20.75 A 2 2 0 0 0 97 22.75 Z M 68.5 78 L 82.5 78 A 2 2 0 0 0 84.5 76 L 84.5 62 A 2 2 0 0 0 82.5 60 L 68.5 60 A 2 2 0 0 0 66.5 62 L 66.5 76 A 2 2 0 0 0 68.5 78 Z M 87.409 78.632 L 100.932 82.255 A 2 2 0 0 0 103.382 80.841 L 107.005 67.318 A 2 2 0 0 0 105.591 64.868 L 92.068 61.245 A 2 2 0 0 0 89.618 62.659 L 85.995 76.182 A 2 2 0 0 0 87.409 78.632 Z M 87.927 76.7 L 101.45 80.323 L 105.073 66.8 L 91.55 63.177 L 87.927 76.7 Z M 2 61.125 L 16 61.125 L 16 47.125 L 2 47.125 L 2 61.125 Z M 2 42.125 L 16 42.125 L 16 28.125 L 2 28.125 L 2 42.125 Z M 2 23.125 L 16 23.125 L 16 9.125 L 2 9.125 L 2 23.125 Z M 21 61.125 L 35 61.125 L 35 47.125 L 21 47.125 L 21 61.125 Z M 21 42.125 L 35 42.125 L 35 28.125 L 21 28.125 L 21 42.125 Z M 21 23.125 L 35 23.125 L 35 9.125 L 21 9.125 L 21 23.125 Z M 40 56.375 L 54 56.375 L 54 42.375 L 40 42.375 L 40 56.375 Z M 40 37.375 L 54 37.375 L 54 23.375 L 40 23.375 L 40 37.375 Z M 40 18.375 L 54 18.375 L 54 4.375 L 40 4.375 L 40 18.375 Z M 59 54 L 73 54 L 73 40 L 59 40 L 59 54 Z M 59 35 L 73 35 L 73 21 L 59 21 L 59 35 Z M 59 16 L 73 16 L 73 2 L 59 2 L 59 16 Z M 78 56.375 L 92 56.375 L 92 42.375 L 78 42.375 L 78 56.375 Z M 78 37.375 L 92 37.375 L 92 23.375 L 78 23.375 L 78 37.375 Z M 78 18.375 L 92 18.375 L 92 4.375 L 78 4.375 L 78 18.375 Z M 97 58.75 L 111 58.75 L 111 44.75 L 97 44.75 L 97 58.75 Z M 97 39.75 L 111 39.75 L 111 25.75 L 97 25.75 L 97 39.75 Z M 97 20.75 L 111 20.75 L 111 6.75 L 97 6.75 L 97 20.75 Z M 68.5 76 L 82.5 76 L 82.5 62 L 68.5 62 L 68.5 76 Z M 121.309 85.076 L 128.309 72.952 L 116.185 65.952 L 109.185 78.076 L 121.309 85.076 Z M 133.766 67.692 L 133.518 68.122 L 119.974 91.583 M 18.5 25.625 m -2.15 0 a 2.15 2.15 0 0 1 4.3 0 a 2.15 2.15 0 0 1 -4.3 0 z M 18.5 44.625 m -2.15 0 a 2.15 2.15 0 0 1 4.3 0 a 2.15 2.15 0 0 1 -4.3 0 z M 94.468 22.111 m -2.15 0 a 2.15 2.15 0 0 1 4.3 0 a 2.15 2.15 0 0 1 -4.3 0 z M 61.657 61.865 m -2.15 0 a 2.15 2.15 0 0 1 4.3 0 a 2.15 2.15 0 0 1 -4.3 0 z M 108.241 69.449 m -2.15 0 a 2.15 2.15 0 0 1 4.3 0 a 2.15 2.15 0 0 1 -4.3 0 z M 18.5 25.625 m -1.1 0 a 1.1 1.1 0 0 1 2.2 0 a 1.1 1.1 0 0 1 -2.2 0 z M 18.5 44.625 m -1.1 0 a 1.1 1.1 0 0 1 2.2 0 a 1.1 1.1 0 0 1 -2.2 0 z M 94.468 22.111 m -1.1 0 a 1.1 1.1 0 0 1 2.2 0 a 1.1 1.1 0 0 1 -2.2 0 z M 61.657 61.865 m -1.1 0 a 1.1 1.1 0 0 1 2.2 0 a 1.1 1.1 0 0 1 -2.2 0 z M 108.241 69.449 m -1.1 0 a 1.1 1.1 0 0 1 2.2 0 a 1.1 1.1 0 0 1 -2.2 0 z M 116.762 54.601 m -1.1 0 a 1.1 1.1 0 0 1 2.2 0 a 1.1 1.1 0 0 1 -2.2 0 z M 131.194 63.12 m -1.1 0 a 1.1 1.1 0 0 1 2.2 0 a 1.1 1.1 0 0 1 -2.2 0 z M 113.583 6.615 m -0.5 0 a 0.5 0.5 0 0 0 1 0 a 0.5 0.5 0 0 0 -1 0 z M 66.838 77.607 m -0.5 0 a 0.5 0.5 0 0 0 1 0 a 0.5 0.5 0 0 0 -1 0 z M 0.58 7.615 m -0.5 0 a 0.5 0.5 0 0 0 1 0 a 0.5 0.5 0 0 0 -1 0 z M 38.58 2.865 m -0.5 0 a 0.5 0.5 0 0 0 1 0 a 0.5 0.5 0 0 0 -1 0 z M 56.58 1.865 m -0.5 0 a 0.5 0.5 0 0 0 1 0 a 0.5 0.5 0 0 0 -1 0 z M 57.58 0.613 m -0.5 0 a 0.5 0.5 0 0 0 1 0 a 0.5 0.5 0 0 0 -1 0 z M 74.582 0.613 m -0.5 0 a 0.5 0.5 0 0 0 1 0 a 0.5 0.5 0 0 0 -1 0 z M 75.582 1.865 m -0.5 0 a 0.5 0.5 0 0 0 1 0 a 0.5 0.5 0 0 0 -1 0 z M 93.582 2.865 m -0.5 0 a 0.5 0.5 0 0 0 1 0 a 0.5 0.5 0 0 0 -1 0 z M 94.582 4.363 m -0.5 0 a 0.5 0.5 0 0 0 1 0 a 0.5 0.5 0 0 0 -1 0 z M 112.582 5.363 m -0.5 0 a 0.5 0.5 0 0 0 1 0 a 0.5 0.5 0 0 0 -1 0 z M 133.333 7.615 m -0.5 0 a 0.5 0.5 0 0 0 1 0 a 0.5 0.5 0 0 0 -1 0 z M 119.541 91.333 m -0.5 0 a 0.5 0.5 0 0 0 1 0 a 0.5 0.5 0 0 0 -1 0 z M 103.874 83.443 m -0.5 0 a 0.5 0.5 0 0 0 1 0 a 0.5 0.5 0 0 0 -1 0 z M 55.586 63.865 m -0.5 0 a 0.5 0.5 0 0 0 1 0 a 0.5 0.5 0 0 0 -1 0 z M 0.582 62.865 m -0.5 0 a 0.5 0.5 0 0 0 1 0 a 0.5 0.5 0 0 0 -1 0 z M 37.58 6.614 m -0.5 0 a 0.5 0.5 0 0 0 1 0 a 0.5 0.5 0 0 0 -1 0 z M 133.333 67.442 m -0.5 0 a 0.5 0.5 0 0 0 1 0 a 0.5 0.5 0 0 0 -1 0 z M 0.08 7.615 0.082 62.865 M 0.58 7.115 37.58 7.114 M 38.08 6.614 38.08 2.865 M 38.58 2.365 56.58 2.365 M 57.08 1.865 57.08 0.613 M 57.58 0.113 74.582 0.113 M 75.082 1.865 75.082 0.613 M 75.582 2.365 93.582 2.365 M 94.082 4.363 94.082 2.865 M 94.582 4.863 112.582 4.863 M 104.124 83.01 119.291 91.766 M 66.773 78.103 103.938 82.947 M 55.99 63.571 66.434 77.901 M 0.582 63.365 55.586 63.365 M 113.583 7.115 133.333 7.115 M 133.833 67.442 133.833 7.615" vector-effect="non-scaling-stroke"/></g></svg>