<svg width="136.653mm" height="95.151mm" viewBox="0 0 136.653 95.151" xmlns="http://www.w3.org/2000/svg"><g id="svgGroup" stroke-linecap="round" fill-rule="evenodd" font-size="9pt" stroke="#000" stroke-width="0.25mm" fill="none" style="stroke:#000;stroke-width:0.25mm;fill:none"><path d="M 1.202 64.702 L 1.2 8.452 L 1.2 8.202 L 38.7 8.201 A 0.5 0.5 0 0 0 39.2 7.701 L 39.2 3.452 L 57.7 3.452 A 0.5 0.5 0 0 0 58.2 2.952 L 58.2 1.2 L 76.702 1.2 L 76.702 2.952 A 0.5 0.5 0 0 0 77.202 3.452 L 95.702 3.452 L 95.702 5.45 A 0.5 0.5 0 0 0 96.202 5.95 L 114.702 5.95 L 114.702 6.2 L 114.703 7.702 A 0.5 0.5 0 0 0 115.203 8.202 L 135.453 8.202 L 135.453 68.98 L 135.105 69.584 L 121.185 93.695 L 105.412 84.588 A 0.5 0.5 0 0 0 105.227 84.525 L 67.791 79.646 L 57.233 65.158 A 0.5 0.5 0 0 0 56.829 64.952 L 1.202 64.952 L 1.202 64.702 Z M 3.852 61.802 L 3.85 11.352 A 0.5 0.5 0 0 1 4.35 10.852 L 41.35 10.851 A 0.5 0.5 0 0 0 41.85 10.351 L 41.85 6.602 A 0.5 0.5 0 0 1 42.35 6.102 L 60.236 6.102 A 0.5 0.5 0 0 0 60.735 5.633 L 60.816 4.319 A 0.5 0.5 0 0 1 61.316 3.85 L 73.587 3.85 A 0.5 0.5 0 0 1 74.086 4.319 L 74.167 5.633 A 0.5 0.5 0 0 0 74.666 6.102 L 93.052 6.102 L 93.052 8.1 A 0.5 0.5 0 0 0 93.552 8.6 L 111.588 8.6 A 0.5 0.5 0 0 1 112.087 9.069 L 112.168 10.383 A 0.5 0.5 0 0 0 112.667 10.852 L 132.303 10.852 A 0.5 0.5 0 0 1 132.803 11.352 L 132.803 68.136 A 0.5 0.5 0 0 1 132.736 68.386 L 120.465 89.642 A 0.5 0.5 0 0 1 119.782 89.825 L 106.192 81.979 L 69.475 77.193 A 0.5 0.5 0 0 1 69.136 76.992 L 59.15 63.289 L 58.58 62.508 A 0.5 0.5 0 0 0 58.176 62.302 L 4.352 62.302 A 0.5 0.5 0 0 1 3.852 61.802 Z M 136.653 7.502 L 136.653 69.302 L 136.144 70.184 L 121.874 94.901 M 122.161 91.31 L 133.661 71.392 A 2 2 0 0 0 132.929 68.66 L 120.805 61.66 A 2 2 0 0 0 118.073 62.392 L 106.573 82.31 A 2 2 0 0 0 107.305 85.043 L 119.429 92.043 A 2 2 0 0 0 122.161 91.31 Z M 134.638 69.892 A 0.5 0.5 0 0 0 134.455 69.209 L 114.703 57.805 A 0.5 0.5 0 0 1 114.453 57.372 L 114.453 8.452 L 114.452 6.7 M 115.983 8.452 A 0.5 0.5 0 0 0 115.483 8.952 L 115.483 57.239 A 0.5 0.5 0 0 0 115.733 57.672 L 134.453 68.48 A 0.5 0.5 0 0 0 135.203 68.047 M 3.37 64.462 L 17.37 64.462 A 2 2 0 0 0 19.37 62.462 L 19.37 48.462 A 2 2 0 0 0 17.37 46.462 L 3.37 46.462 A 2 2 0 0 0 1.37 48.462 L 1.37 62.462 A 2 2 0 0 0 3.37 64.462 Z M 3.37 45.462 L 17.37 45.462 A 2 2 0 0 0 19.37 43.462 L 19.37 29.462 A 2 2 0 0 0 17.37 27.462 L 3.37 27.462 A 2 2 0 0 0 1.37 29.462 L 1.37 43.462 A 2 2 0 0 0 3.37 45.462 Z M 3.37 26.462 L 17.37 26.462 A 2 2 0 0 0 19.37 24.462 L 19.37 10.462 A 2 2 0 0 0 17.37 8.462 L 3.37 8.462 A 2 2 0 0 0 1.37 10.462 L 1.37 24.462 A 2 2 0 0 0 3.37 26.462 Z M 22.37 64.462 L 36.37 64.462 A 2 2 0 0 0 38.37 62.462 L 38.37 48.462 A 2 2 0 0 0 36.37 46.462 L 22.37 46.462 A 2 2 0 0 0 20.37 48.462 L 20.37 62.462 A 2 2 0 0 0 22.37 64.462 Z M 22.37 45.462 L 36.37 45.462 A 2 2 0 0 0 38.37 43.462 L 38.37 29.462 A 2 2 0 0 0 36.37 27.462 L 22.37 27.462 A 2 2 0 0 0 20.37 29.462 L 20.37 43.462 A 2 2 0 0 0 22.37 45.462 Z M 22.37 26.462 L 36.37 26.462 A 2 2 0 0 0 38.37 24.462 L 38.37 10.462 A 2 2 0 0 0 36.37 8.462 L 22.37 8.462 A 2 2 0 0 0 20.37 10.462 L 20.37 24.462 A 2 2 0 0 0 22.37 26.462 Z M 41.37 59.712 L 55.37 59.712 A 2 2 0 0 0 57.37 57.712 L 57.37 43.712 A 2 2 0 0 0 55.37 41.712 L 41.37 41.712 A 2 2 0 0 0 39.37 43.712 L 39.37 57.712 A 2 2 0 0 0 41.37 59.712 Z M 41.37 40.712 L 55.37 40.712 A 2 2 0 0 0 57.37 38.712 L 57.37 24.712 A 2 2 0 0 0 55.37 22.712 L 41.37 22.712 A 2 2 0 0 0 39.37 24.712 L 39.37 38.712 A 2 2 0 0 0 41.37 40.712 Z M 41.37 21.712 L 55.37 21.712 A 2 2 0 0 0 57.37 19.712 L 57.37 5.712 A 2 2 0 0 0 55.37 3.712 L 41.37 3.712 A 2 2 0 0 0 39.37 5.712 L 39.37 19.712 A 2 2 0 0 0 41.37 21.712 Z M 60.37 57.337 L 74.37 57.337 A 2 2 0 0 0 76.37 55.337 L 76.37 41.337 A 2 2 0 0 0 74.37 39.337 L 60.37 39.337 A 2 2 0 0 0 58.37 41.337 L 58.37 55.337 A 2 2 0 0 0 60.37 57.337 Z M 60.37 38.337 L 74.37 38.337 A 2 2 0 0 0 76.37 36.337 L 76.37 22.337 A 2 2 0 0 0 74.37 20.337 L 60.37 20.337 A 2 2 0 0 0 58.37 22.337 L 58.37 36.337 A 2 2 0 0 0 60.37 38.337 Z M 60.37 19.337 L 74.37 19.337 A 2 2 0 0 0 76.37 17.337 L 76.37 3.337 A 2 2 0 0 0 74.37 1.337 L 60.37 1.337 A 2 2 0 0 0 58.37 3.337 L 58.37 17.337 A 2 2 0 0 0 60.37 19.337 Z M 79.37 59.712 L 93.37 59.712 A 2 2 0 0 0 95.37 57.712 L 95.37 43.712 A 2 2 0 0 0 93.37 41.712 L 79.37 41.712 A 2 2 0 0 0 77.37 43.712 L 77.37 57.712 A 2 2 0 0 0 79.37 59.712 Z M 79.37 40.712 L 93.37 40.712 A 2 2 0 0 0 95.37 38.712 L 95.37 24.712 A 2 2 0 0 0 93.37 22.712 L 79.37 22.712 A 2 2 0 0 0 77.37 24.712 L 77.37 38.712 A 2 2 0 0 0 79.37 40.712 Z M 79.37 21.712 L 93.37 21.712 A 2 2 0 0 0 95.37 19.712 L 95.37 5.712 A 2 2 0 0 0 93.37 3.712 L 79.37 3.712 A 2 2 0 0 0 77.37 5.712 L 77.37 19.712 A 2 2 0 0 0 79.37 21.712 Z M 98.37 62.087 L 112.37 62.087 A 2 2 0 0 0 114.37 60.087 L 114.37 46.087 A 2 2 0 0 0 112.37 44.087 L 98.37 44.087 A 2 2 0 0 0 96.37 46.087 L 96.37 60.087 A 2 2 0 0 0 98.37 62.087 Z M 98.37 43.087 L 112.37 43.087 A 2 2 0 0 0 114.37 41.087 L 114.37 27.087 A 2 2 0 0 0 112.37 25.087 L 98.37 25.087 A 2 2 0 0 0 96.37 27.087 L 96.37 41.087 A 2 2 0 0 0 98.37 43.087 Z M 98.37 24.087 L 112.37 24.087 A 2 2 0 0 0 114.37 22.087 L 114.37 8.087 A 2 2 0 0 0 112.37 6.087 L 98.37 6.087 A 2 2 0 0 0 96.37 8.087 L 96.37 22.087 A 2 2 0 0 0 98.37 24.087 Z M 69.87 79.337 L 83.87 79.337 A 2 2 0 0 0 85.87 77.337 L 85.87 63.337 A 2 2 0 0 0 83.87 61.337 L 69.87 61.337 A 2 2 0 0 0 67.87 63.337 L 67.87 77.337 A 2 2 0 0 0 69.87 79.337 Z M 88.779 79.969 L 102.302 83.592 A 2 2 0 0 0 104.752 82.178 L 108.375 68.655 A 2 2 0 0 0 106.961 66.205 L 93.438 62.582 A 2 2 0 0 0 90.988 63.996 L 87.365 77.519 A 2 2 0 0 0 88.779 79.969 Z M 0.002 65.652 L 0.002 64.702 L 0 8.452 L 0 7.502 M 89.297 78.037 L 102.82 81.66 L 106.443 68.137 L 92.92 64.514 L 89.297 78.037 Z M 3.37 62.462 L 17.37 62.462 L 17.37 48.462 L 3.37 48.462 L 3.37 62.462 Z M 3.37 43.462 L 17.37 43.462 L 17.37 29.462 L 3.37 29.462 L 3.37 43.462 Z M 3.37 24.462 L 17.37 24.462 L 17.37 10.462 L 3.37 10.462 L 3.37 24.462 Z M 22.37 62.462 L 36.37 62.462 L 36.37 48.462 L 22.37 48.462 L 22.37 62.462 Z M 22.37 43.462 L 36.37 43.462 L 36.37 29.462 L 22.37 29.462 L 22.37 43.462 Z M 22.37 24.462 L 36.37 24.462 L 36.37 10.462 L 22.37 10.462 L 22.37 24.462 Z M 41.37 57.712 L 55.37 57.712 L 55.37 43.712 L 41.37 43.712 L 41.37 57.712 Z M 41.37 38.712 L 55.37 38.712 L 55.37 24.712 L 41.37 24.712 L 41.37 38.712 Z M 41.37 19.712 L 55.37 19.712 L 55.37 5.712 L 41.37 5.712 L 41.37 19.712 Z M 60.37 55.337 L 74.37 55.337 L 74.37 41.337 L 60.37 41.337 L 60.37 55.337 Z M 60.37 36.337 L 74.37 36.337 L 74.37 22.337 L 60.37 22.337 L 60.37 36.337 Z M 60.37 17.337 L 74.37 17.337 L 74.37 3.337 L 60.37 3.337 L 60.37 17.337 Z M 79.37 57.712 L 93.37 57.712 L 93.37 43.712 L 79.37 43.712 L 79.37 57.712 Z M 79.37 38.712 L 93.37 38.712 L 93.37 24.712 L 79.37 24.712 L 79.37 38.712 Z M 79.37 19.712 L 93.37 19.712 L 93.37 5.712 L 79.37 5.712 L 79.37 19.712 Z M 98.37 60.087 L 112.37 60.087 L 112.37 46.087 L 98.37 46.087 L 98.37 60.087 Z M 98.37 41.087 L 112.37 41.087 L 112.37 27.087 L 98.37 27.087 L 98.37 41.087 Z M 98.37 22.087 L 112.37 22.087 L 112.37 8.087 L 98.37 8.087 L 98.37 22.087 Z M 69.87 77.337 L 83.87 77.337 L 83.87 63.337 L 69.87 63.337 L 69.87 77.337 Z M 122.679 86.413 L 129.679 74.289 L 117.555 67.289 L 110.555 79.413 L 122.679 86.413 Z M 135.136 69.029 L 134.888 69.459 L 121.344 92.92 M 19.87 26.962 m -2.15 0 a 2.15 2.15 0 0 1 4.3 0 a 2.15 2.15 0 0 1 -4.3 0 z M 19.87 45.962 m -2.15 0 a 2.15 2.15 0 0 1 4.3 0 a 2.15 2.15 0 0 1 -4.3 0 z M 95.838 23.448 m -2.15 0 a 2.15 2.15 0 0 1 4.3 0 a 2.15 2.15 0 0 1 -4.3 0 z M 63.027 63.202 m -2.15 0 a 2.15 2.15 0 0 1 4.3 0 a 2.15 2.15 0 0 1 -4.3 0 z M 109.611 70.786 m -2.15 0 a 2.15 2.15 0 0 1 4.3 0 a 2.15 2.15 0 0 1 -4.3 0 z M 19.87 26.962 m -1.1 0 a 1.1 1.1 0 0 1 2.2 0 a 1.1 1.1 0 0 1 -2.2 0 z M 19.87 45.962 m -1.1 0 a 1.1 1.1 0 0 1 2.2 0 a 1.1 1.1 0 0 1 -2.2 0 z M 95.838 23.448 m -1.1 0 a 1.1 1.1 0 0 1 2.2 0 a 1.1 1.1 0 0 1 -2.2 0 z M 63.027 63.202 m -1.1 0 a 1.1 1.1 0 0 1 2.2 0 a 1.1 1.1 0 0 1 -2.2 0 z M 109.611 70.786 m -1.1 0 a 1.1 1.1 0 0 1 2.2 0 a 1.1 1.1 0 0 1 -2.2 0 z M 118.132 55.938 m -1.1 0 a 1.1 1.1 0 0 1 2.2 0 a 1.1 1.1 0 0 1 -2.2 0 z M 132.564 64.457 m -1.1 0 a 1.1 1.1 0 0 1 2.2 0 a 1.1 1.1 0 0 1 -2.2 0 z M 114.953 7.952 m -0.5 0 a 0.5 0.5 0 0 0 1 0 a 0.5 0.5 0 0 0 -1 0 z M 68.208 78.944 m -0.5 0 a 0.5 0.5 0 0 0 1 0 a 0.5 0.5 0 0 0 -1 0 z M 1.95 8.952 m -0.5 0 a 0.5 0.5 0 0 0 1 0 a 0.5 0.5 0 0 0 -1 0 z M 39.95 4.202 m -0.5 0 a 0.5 0.5 0 0 0 1 0 a 0.5 0.5 0 0 0 -1 0 z M 57.95 3.202 m -0.5 0 a 0.5 0.5 0 0 0 1 0 a 0.5 0.5 0 0 0 -1 0 z M 58.95 1.95 m -0.5 0 a 0.5 0.5 0 0 0 1 0 a 0.5 0.5 0 0 0 -1 0 z M 75.952 1.95 m -0.5 0 a 0.5 0.5 0 0 0 1 0 a 0.5 0.5 0 0 0 -1 0 z M 76.952 3.202 m -0.5 0 a 0.5 0.5 0 0 0 1 0 a 0.5 0.5 0 0 0 -1 0 z M 94.952 4.202 m -0.5 0 a 0.5 0.5 0 0 0 1 0 a 0.5 0.5 0 0 0 -1 0 z M 95.952 5.7 m -0.5 0 a 0.5 0.5 0 0 0 1 0 a 0.5 0.5 0 0 0 -1 0 z M 113.952 6.7 m -0.5 0 a 0.5 0.5 0 0 0 1 0 a 0.5 0.5 0 0 0 -1 0 z M 134.703 8.952 m -0.5 0 a 0.5 0.5 0 0 0 1 0 a 0.5 0.5 0 0 0 -1 0 z M 120.911 92.67 m -0.5 0 a 0.5 0.5 0 0 0 1 0 a 0.5 0.5 0 0 0 -1 0 z M 105.244 84.78 m -0.5 0 a 0.5 0.5 0 0 0 1 0 a 0.5 0.5 0 0 0 -1 0 z M 56.956 65.202 m -0.5 0 a 0.5 0.5 0 0 0 1 0 a 0.5 0.5 0 0 0 -1 0 z M 1.952 64.202 m -0.5 0 a 0.5 0.5 0 0 0 1 0 a 0.5 0.5 0 0 0 -1 0 z M 0.5 7.502 m -0.5 0 a 0.5 0.5 0 0 0 1 0 a 0.5 0.5 0 0 0 -1 0 z M 38.5 2.752 m -0.5 0 a 0.5 0.5 0 0 0 1 0 a 0.5 0.5 0 0 0 -1 0 z M 56.5 1.752 m -0.5 0 a 0.5 0.5 0 0 0 1 0 a 0.5 0.5 0 0 0 -1 0 z M 57.5 0.5 m -0.5 0 a 0.5 0.5 0 0 0 1 0 a 0.5 0.5 0 0 0 -1 0 z M 77.402 0.5 m -0.5 0 a 0.5 0.5 0 0 0 1 0 a 0.5 0.5 0 0 0 -1 0 z M 78.402 1.752 m -0.5 0 a 0.5 0.5 0 0 0 1 0 a 0.5 0.5 0 0 0 -1 0 z M 96.402 2.752 m -0.5 0 a 0.5 0.5 0 0 0 1 0 a 0.5 0.5 0 0 0 -1 0 z M 97.402 4.25 m -0.5 0 a 0.5 0.5 0 0 0 1 0 a 0.5 0.5 0 0 0 -1 0 z M 115.402 5.25 m -0.5 0 a 0.5 0.5 0 0 0 1 0 a 0.5 0.5 0 0 0 -1 0 z M 136.153 7.502 m -0.5 0 a 0.5 0.5 0 0 0 1 0 a 0.5 0.5 0 0 0 -1 0 z M 121.441 94.651 m -0.5 0 a 0.5 0.5 0 0 0 1 0 a 0.5 0.5 0 0 0 -1 0 z M 104.769 86.18 m -0.5 0 a 0.5 0.5 0 0 0 1 0 a 0.5 0.5 0 0 0 -1 0 z M 67.403 80.301 m -0.5 0 a 0.5 0.5 0 0 0 1 0 a 0.5 0.5 0 0 0 -1 0 z M 56.218 66.652 m -0.5 0 a 0.5 0.5 0 0 0 1 0 a 0.5 0.5 0 0 0 -1 0 z M 0.502 65.652 m -0.5 0 a 0.5 0.5 0 0 0 1 0 a 0.5 0.5 0 0 0 -1 0 z M 38.95 7.951 m -0.5 0 a 0.5 0.5 0 0 0 1 0 a 0.5 0.5 0 0 0 -1 0 z M 134.703 68.779 m -0.5 0 a 0.5 0.5 0 0 0 1 0 a 0.5 0.5 0 0 0 -1 0 z M 37.5 6.501 m -0.5 0 a 0.5 0.5 0 0 0 1 0 a 0.5 0.5 0 0 0 -1 0 z M 116.402 6.502 m -0.5 0 a 0.5 0.5 0 0 0 1 0 a 0.5 0.5 0 0 0 -1 0 z M 115.902 6.502 L 115.902 6.199 L 115.902 5.25 M 1.45 8.952 1.452 64.202 M 1.95 8.452 38.95 8.451 M 39.45 7.951 39.45 4.202 M 39.95 3.702 57.95 3.702 M 58.45 3.202 58.45 1.95 M 58.95 1.45 75.952 1.45 M 76.452 3.202 76.452 1.95 M 76.952 3.702 94.952 3.702 M 95.452 5.7 95.452 4.202 M 95.952 6.2 113.952 6.2 M 105.494 84.347 120.661 93.103 M 68.143 79.44 105.308 84.284 M 57.36 64.908 67.804 79.238 M 1.952 64.702 56.956 64.702 M 114.953 8.452 134.703 8.452 M 135.203 68.779 135.203 8.952 M 0.5 7.002 37.5 7.001 M 38 6.501 38 2.752 M 38.5 2.252 56.5 2.252 M 57 1.752 57 0.5 M 57.5 0 77.402 0 M 77.902 1.752 77.902 0.5 M 78.402 2.252 96.402 2.252 M 96.902 4.25 96.902 2.752 M 97.402 4.75 115.402 4.75 M 116.402 7.002 136.153 7.002 M 105.019 85.747 121.191 95.084 M 67.338 80.797 104.834 85.684 M 56.622 66.358 66.999 80.596 M 0.502 66.152 56.218 66.152" vector-effect="non-scaling-stroke"/></g></svg>