0
SECTION
2
HEADER
9
$INSUNITS
70
4
0
ENDSEC
0
SECTION
2
TABLES
0
TABLE
2
LTYPE
0
LTYPE
72
65
70
64
2
CONTINUOUS
3
______
73
0
40
0
0
ENDTAB
0
TABLE
2
LAYER
0
ENDTAB
0
ENDSEC
0
SECTION
2
ENTITIES
0
LINE
8
0
10
91.0800178
20
-53.4900046
11
91.0819822
21
-108.7400178
0
LINE
8
0
10
91.5800046
20
-52.9899868
11
128.5800131
21
-52.9890132
0
LINE
8
0
10
129.08
20
-52.4890132
11
129.08
21
-48.74
0
LINE
8
0
10
129.58
20
-48.24
11
147.58
21
-48.24
0
LINE
8
0
10
148.08
20
-47.74
11
148.08
21
-46.488
0
LINE
8
0
10
148.58
20
-45.988
11
165.582
21
-45.988
0
LINE
8
0
10
166.082
20
-47.74
11
166.082
21
-46.488
0
LINE
8
0
10
166.582
20
-48.24
11
184.582
21
-48.24
0
LINE
8
0
10
185.082
20
-50.238
11
185.082
21
-48.74
0
LINE
8
0
10
185.582
20
-50.738
11
203.5822219
21
-50.738
0
LINE
8
0
10
204.0822219
20
-51.237778
11
204.083
21
-52.99
0
LINE
8
0
10
210.9735319
20
-137.4583675
11
224.518
21
-113.996596
0
LINE
8
0
10
195.1236421
20
-128.8848015
11
210.2905097
21
-137.6413967
0
LINE
8
0
10
157.7729681
20
-123.977759
11
194.9382671
21
-128.8220082
0
LINE
8
0
10
146.9897756
20
-109.4455223
11
157.4335103
21
-123.7764307
0
LINE
8
0
10
91.5819822
20
-109.24
11
146.5856928
21
-109.24
0
LINE
8
0
10
204.5827781
20
-52.99
11
224.333
21
-52.99
0
LINE
8
0
10
224.833
20
-113.3170254
11
224.833
21
-53.49
0
LINE
8
0
10
224.518
20
-113.996596
11
224.7660127
21
-113.5670254
0
ARC
8
0
10
91.5800178
20
-53.4899868
40
0.5
50
90.0015069
51
450.0015069
0
ARC
8
0
10
128.58
20
-52.4890132
40
0.5
50
270.0015069
51
630.0015069
0
ARC
8
0
10
129.58
20
-48.74
40
0.5
50
90
51
450
0
ARC
8
0
10
147.58
20
-47.74
40
0.5
50
270
51
630
0
ARC
8
0
10
148.58
20
-46.488
40
0.5
50
90
51
450
0
ARC
8
0
10
165.582
20
-46.488
40
0.5
50
0
51
360
0
ARC
8
0
10
166.582
20
-47.74
40
0.5
50
180
51
540
0
ARC
8
0
10
184.582
20
-48.74
40
0.5
50
0
51
360
0
ARC
8
0
10
185.582
20
-50.238
40
0.5
50
180
51
540
0
ARC
8
0
10
203.5822219
20
-51.238
40
0.5
50
0.0254393
51
360.0254393
0
ARC
8
0
10
204.5827781
20
-52.49
40
0.5
50
180.0254393
51
540.0254393
0
ARC
8
0
10
224.333
20
-53.49
40
0.5
50
0
51
360
0
ARC
8
0
10
224.333
20
-113.3170254
40
0.5
50
329.9999999
51
689.9999999
0
ARC
8
0
10
210.5405097
20
-137.208384
40
0.5
50
239.9999999
51
599.9999999
0
ARC
8
0
10
194.8736421
20
-129.3178142
40
0.5
50
59.9999999
51
419.9999999
0
ARC
8
0
10
157.8375931
20
-123.481953
40
0.5
50
216.0829165
51
576.0829165
0
ARC
8
0
10
146.5856928
20
-109.74
40
0.5
50
36.0829165
51
396.0829165
0
ARC
8
0
10
91.5819822
20
-108.74
40
0.5
50
180.0020397
51
540.0020397
0
CIRCLE
8
0
10
109.5
20
-71.5
40
1.1
0
CIRCLE
8
0
10
109.5
20
-90.5
40
1.1
0
CIRCLE
8
0
10
185.468
20
-67.986
40
1.1
0
CIRCLE
8
0
10
152.657
20
-107.74
40
1.1
0
CIRCLE
8
0
10
199.2410516
20
-115.3236576
40
1.1
0
CIRCLE
8
0
10
109.5
20
-71.5
40
2.05
0
CIRCLE
8
0
10
109.5
20
-90.5
40
2.05
0
CIRCLE
8
0
10
185.468
20
-67.986
40
2.05
0
CIRCLE
8
0
10
152.657
20
-107.74
40
2.05
0
CIRCLE
8
0
10
199.2410516
20
-115.3236576
40
2.05
0
CIRCLE
8
0
10
207.762
20
-100.476
40
1.1
0
CIRCLE
8
0
10
222.194
20
-108.995
40
1.1
0
LINE
8
0
10
204.083
20
-52.990222
11
204.083
21
-101.9097681
0
LINE
8
0
10
204.333
20
-102.3427808
11
224.0850038
21
-113.7466055
0
ARC
8
0
10
203.583
20
-52.990222
40
0.5
50
0
51
0.0254393
0
ARC
8
0
10
204.583
20
-101.9097681
40
0.5
50
180
51
239.9999999
0
ARC
8
0
10
223.8350038
20
-114.1796182
40
0.5
50
330.0021845
51
59.9999999
0
LINE
8
0
10
93
20
-107
11
107
21
-107
0
LINE
8
0
10
107
20
-107
11
107
21
-93
0
LINE
8
0
10
107
20
-93
11
93
21
-93
0
LINE
8
0
10
93
20
-93
11
93
21
-107
0
LINE
8
0
10
93
20
-88
11
107
21
-88
0
LINE
8
0
10
107
20
-88
11
107
21
-74
0
LINE
8
0
10
107
20
-74
11
93
21
-74
0
LINE
8
0
10
93
20
-74
11
93
21
-88
0
LINE
8
0
10
93
20
-69
11
107
21
-69
0
LINE
8
0
10
107
20
-69
11
107
21
-55
0
LINE
8
0
10
107
20
-55
11
93
21
-55
0
LINE
8
0
10
93
20
-55
11
93
21
-69
0
LINE
8
0
10
112
20
-107
11
126
21
-107
0
LINE
8
0
10
126
20
-107
11
126
21
-93
0
LINE
8
0
10
126
20
-93
11
112
21
-93
0
LINE
8
0
10
112
20
-93
11
112
21
-107
0
LINE
8
0
10
112
20
-88
11
126
21
-88
0
LINE
8
0
10
126
20
-88
11
126
21
-74
0
LINE
8
0
10
126
20
-74
11
112
21
-74
0
LINE
8
0
10
112
20
-74
11
112
21
-88
0
LINE
8
0
10
112
20
-69
11
126
21
-69
0
LINE
8
0
10
126
20
-69
11
126
21
-55
0
LINE
8
0
10
126
20
-55
11
112
21
-55
0
LINE
8
0
10
112
20
-55
11
112
21
-69
0
LINE
8
0
10
131
20
-102.25
11
145
21
-102.25
0
LINE
8
0
10
145
20
-102.25
11
145
21
-88.25
0
LINE
8
0
10
145
20
-88.25
11
131
21
-88.25
0
LINE
8
0
10
131
20
-88.25
11
131
21
-102.25
0
LINE
8
0
10
131
20
-83.25
11
145
21
-83.25
0
LINE
8
0
10
145
20
-83.25
11
145
21
-69.25
0
LINE
8
0
10
145
20
-69.25
11
131
21
-69.25
0
LINE
8
0
10
131
20
-69.25
11
131
21
-83.25
0
LINE
8
0
10
131
20
-64.25
11
145
21
-64.25
0
LINE
8
0
10
145
20
-64.25
11
145
21
-50.25
0
LINE
8
0
10
145
20
-50.25
11
131
21
-50.25
0
LINE
8
0
10
131
20
-50.25
11
131
21
-64.25
0
LINE
8
0
10
150
20
-99.875
11
164
21
-99.875
0
LINE
8
0
10
164
20
-99.875
11
164
21
-85.875
0
LINE
8
0
10
164
20
-85.875
11
150
21
-85.875
0
LINE
8
0
10
150
20
-85.875
11
150
21
-99.875
0
LINE
8
0
10
150
20
-80.875
11
164
21
-80.875
0
LINE
8
0
10
164
20
-80.875
11
164
21
-66.875
0
LINE
8
0
10
164
20
-66.875
11
150
21
-66.875
0
LINE
8
0
10
150
20
-66.875
11
150
21
-80.875
0
LINE
8
0
10
150
20
-61.875
11
164
21
-61.875
0
LINE
8
0
10
164
20
-61.875
11
164
21
-47.875
0
LINE
8
0
10
164
20
-47.875
11
150
21
-47.875
0
LINE
8
0
10
150
20
-47.875
11
150
21
-61.875
0
LINE
8
0
10
169
20
-102.25
11
183
21
-102.25
0
LINE
8
0
10
183
20
-102.25
11
183
21
-88.25
0
LINE
8
0
10
183
20
-88.25
11
169
21
-88.25
0
LINE
8
0
10
169
20
-88.25
11
169
21
-102.25
0
LINE
8
0
10
169
20
-83.25
11
183
21
-83.25
0
LINE
8
0
10
183
20
-83.25
11
183
21
-69.25
0
LINE
8
0
10
183
20
-69.25
11
169
21
-69.25
0
LINE
8
0
10
169
20
-69.25
11
169
21
-83.25
0
LINE
8
0
10
169
20
-64.25
11
183
21
-64.25
0
LINE
8
0
10
183
20
-64.25
11
183
21
-50.25
0
LINE
8
0
10
183
20
-50.25
11
169
21
-50.25
0
LINE
8
0
10
169
20
-50.25
11
169
21
-64.25
0
LINE
8
0
10
188
20
-104.625
11
202
21
-104.625
0
LINE
8
0
10
202
20
-104.625
11
202
21
-90.625
0
LINE
8
0
10
202
20
-90.625
11
188
21
-90.625
0
LINE
8
0
10
188
20
-90.625
11
188
21
-104.625
0
LINE
8
0
10
188
20
-85.625
11
202
21
-85.625
0
LINE
8
0
10
202
20
-85.625
11
202
21
-71.625
0
LINE
8
0
10
202
20
-71.625
11
188
21
-71.625
0
LINE
8
0
10
188
20
-71.625
11
188
21
-85.625
0
LINE
8
0
10
188
20
-66.625
11
202
21
-66.625
0
LINE
8
0
10
202
20
-66.625
11
202
21
-52.625
0
LINE
8
0
10
202
20
-52.625
11
188
21
-52.625
0
LINE
8
0
10
188
20
-52.625
11
188
21
-66.625
0
LINE
8
0
10
159.5
20
-121.875
11
173.5
21
-121.875
0
LINE
8
0
10
173.5
20
-121.875
11
173.5
21
-107.875
0
LINE
8
0
10
173.5
20
-107.875
11
159.5
21
-107.875
0
LINE
8
0
10
159.5
20
-107.875
11
159.5
21
-121.875
0
LINE
8
0
10
178.9267859
20
-122.5747475
11
192.4497475
21
-126.1982141
0
LINE
8
0
10
192.4497475
20
-126.1982141
11
196.0732141
21
-112.6752525
0
LINE
8
0
10
196.0732141
20
-112.6752525
11
182.5502525
21
-109.0517859
0
LINE
8
0
10
182.5502525
20
-109.0517859
11
178.9267859
21
-122.5747475
0
LINE
8
0
10
212.3089836
20
-130.9513354
11
219.3089836
21
-118.8269798
0
LINE
8
0
10
219.3089836
20
-118.8269798
11
207.184628
21
-111.8269798
0
LINE
8
0
10
207.184628
20
-111.8269798
11
200.184628
21
-123.9513354
0
LINE
8
0
10
200.184628
20
-123.9513354
11
212.3089836
21
-130.9513354
0
LINE
8
0
10
205.113
20
-101.7769776
11
205.113
21
-53.49
0
LINE
8
0
10
224.083
20
-113.0179873
11
205.363
21
-102.2099903
0
ARC
8
0
10
205.613
20
-53.49
40
0.5
50
90
51
180
0
ARC
8
0
10
224.333
20
-112.5849746
40
0.5
50
239.9999999
51
0
0
ARC
8
0
10
205.613
20
-101.7769776
40
0.5
50
180
51
239.9999999
0
LINE
8
0
10
93
20
-109
11
107
21
-109
0
LINE
8
0
10
109
20
-107
11
109
21
-93
0
LINE
8
0
10
107
20
-91
11
93
21
-91
0
LINE
8
0
10
91
20
-93
11
91
21
-107
0
LINE
8
0
10
93
20
-90
11
107
21
-90
0
LINE
8
0
10
109
20
-88
11
109
21
-74
0
LINE
8
0
10
107
20
-72
11
93
21
-72
0
LINE
8
0
10
91
20
-74
11
91
21
-88
0
LINE
8
0
10
93
20
-71
11
107
21
-71
0
LINE
8
0
10
109
20
-69
11
109
21
-55
0
LINE
8
0
10
107
20
-53
11
93
21
-53
0
LINE
8
0
10
91
20
-55
11
91
21
-69
0
LINE
8
0
10
112
20
-109
11
126
21
-109
0
LINE
8
0
10
128
20
-107
11
128
21
-93
0
LINE
8
0
10
126
20
-91
11
112
21
-91
0
LINE
8
0
10
110
20
-93
11
110
21
-107
0
LINE
8
0
10
112
20
-90
11
126
21
-90
0
LINE
8
0
10
128
20
-88
11
128
21
-74
0
LINE
8
0
10
126
20
-72
11
112
21
-72
0
LINE
8
0
10
110
20
-74
11
110
21
-88
0
LINE
8
0
10
112
20
-71
11
126
21
-71
0
LINE
8
0
10
128
20
-69
11
128
21
-55
0
LINE
8
0
10
126
20
-53
11
112
21
-53
0
LINE
8
0
10
110
20
-55
11
110
21
-69
0
LINE
8
0
10
131
20
-104.25
11
145
21
-104.25
0
LINE
8
0
10
147
20
-102.25
11
147
21
-88.25
0
LINE
8
0
10
145
20
-86.25
11
131
21
-86.25
0
LINE
8
0
10
129
20
-88.25
11
129
21
-102.25
0
LINE
8
0
10
131
20
-85.25
11
145
21
-85.25
0
LINE
8
0
10
147
20
-83.25
11
147
21
-69.25
0
LINE
8
0
10
145
20
-67.25
11
131
21
-67.25
0
LINE
8
0
10
129
20
-69.25
11
129
21
-83.25
0
LINE
8
0
10
131
20
-66.25
11
145
21
-66.25
0
LINE
8
0
10
147
20
-64.25
11
147
21
-50.25
0
LINE
8
0
10
145
20
-48.25
11
131
21
-48.25
0
LINE
8
0
10
129
20
-50.25
11
129
21
-64.25
0
LINE
8
0
10
150
20
-101.875
11
164
21
-101.875
0
LINE
8
0
10
166
20
-99.875
11
166
21
-85.875
0
LINE
8
0
10
164
20
-83.875
11
150
21
-83.875
0
LINE
8
0
10
148
20
-85.875
11
148
21
-99.875
0
LINE
8
0
10
150
20
-82.875
11
164
21
-82.875
0
LINE
8
0
10
166
20
-80.875
11
166
21
-66.875
0
LINE
8
0
10
164
20
-64.875
11
150
21
-64.875
0
LINE
8
0
10
148
20
-66.875
11
148
21
-80.875
0
LINE
8
0
10
150
20
-63.875
11
164
21
-63.875
0
LINE
8
0
10
166
20
-61.875
11
166
21
-47.875
0
LINE
8
0
10
164
20
-45.875
11
150
21
-45.875
0
LINE
8
0
10
148
20
-47.875
11
148
21
-61.875
0
LINE
8
0
10
169
20
-104.25
11
183
21
-104.25
0
LINE
8
0
10
185
20
-102.25
11
185
21
-88.25
0
LINE
8
0
10
183
20
-86.25
11
169
21
-86.25
0
LINE
8
0
10
167
20
-88.25
11
167
21
-102.25
0
LINE
8
0
10
169
20
-85.25
11
183
21
-85.25
0
LINE
8
0
10
185
20
-83.25
11
185
21
-69.25
0
LINE
8
0
10
183
20
-67.25
11
169
21
-67.25
0
LINE
8
0
10
167
20
-69.25
11
167
21
-83.25
0
LINE
8
0
10
169
20
-66.25
11
183
21
-66.25
0
LINE
8
0
10
185
20
-64.25
11
185
21
-50.25
0
LINE
8
0
10
183
20
-48.25
11
169
21
-48.25
0
LINE
8
0
10
167
20
-50.25
11
167
21
-64.25
0
LINE
8
0
10
188
20
-106.625
11
202
21
-106.625
0
LINE
8
0
10
204
20
-104.625
11
204
21
-90.625
0
LINE
8
0
10
202
20
-88.625
11
188
21
-88.625
0
LINE
8
0
10
186
20
-90.625
11
186
21
-104.625
0
LINE
8
0
10
188
20
-87.625
11
202
21
-87.625
0
LINE
8
0
10
204
20
-85.625
11
204
21
-71.625
0
LINE
8
0
10
202
20
-69.625
11
188
21
-69.625
0
LINE
8
0
10
186
20
-71.625
11
186
21
-85.625
0
LINE
8
0
10
188
20
-68.625
11
202
21
-68.625
0
LINE
8
0
10
204
20
-66.625
11
204
21
-52.625
0
LINE
8
0
10
202
20
-50.625
11
188
21
-50.625
0
LINE
8
0
10
186
20
-52.625
11
186
21
-66.625
0
LINE
8
0
10
159.5
20
-123.875
11
173.5
21
-123.875
0
LINE
8
0
10
175.5
20
-121.875
11
175.5
21
-107.875
0
LINE
8
0
10
173.5
20
-105.875
11
159.5
21
-105.875
0
LINE
8
0
10
157.5
20
-107.875
11
157.5
21
-121.875
0
LINE
8
0
10
178.409148
20
-124.5065991
11
191.9321094
21
-128.1300657
0
LINE
8
0
10
194.3815991
20
-126.715852
11
198.0050657
21
-113.1928906
0
LINE
8
0
10
196.590852
20
-110.7434009
11
183.0678906
21
-107.1199343
0
LINE
8
0
10
180.6184009
20
-108.534148
11
176.9949343
21
-122.0571094
0
ARC
8
0
10
107
20
-107
40
2
50
270
51
0
0
ARC
8
0
10
107
20
-93
40
2
50
0
51
90
0
ARC
8
0
10
93
20
-93
40
2
50
90
51
180
0
ARC
8
0
10
93
20
-107
40
2
50
180
51
270
0
ARC
8
0
10
107
20
-88
40
2
50
270
51
0
0
ARC
8
0
10
107
20
-74
40
2
50
0
51
90
0
ARC
8
0
10
93
20
-74
40
2
50
90
51
180
0
ARC
8
0
10
93
20
-88
40
2
50
180
51
270
0
ARC
8
0
10
107
20
-69
40
2
50
270
51
0
0
ARC
8
0
10
107
20
-55
40
2
50
0
51
90
0
ARC
8
0
10
93
20
-55
40
2
50
90
51
180
0
ARC
8
0
10
93
20
-69
40
2
50
180
51
270
0
ARC
8
0
10
126
20
-107
40
2
50
270
51
0
0
ARC
8
0
10
126
20
-93
40
2
50
0
51
90
0
ARC
8
0
10
112
20
-93
40
2
50
90
51
180
0
ARC
8
0
10
112
20
-107
40
2
50
180
51
270
0
ARC
8
0
10
126
20
-88
40
2
50
270
51
0
0
ARC
8
0
10
126
20
-74
40
2
50
0
51
90
0
ARC
8
0
10
112
20
-74
40
2
50
90
51
180
0
ARC
8
0
10
112
20
-88
40
2
50
180
51
270
0
ARC
8
0
10
126
20
-69
40
2
50
270
51
0
0
ARC
8
0
10
126
20
-55
40
2
50
0
51
90
0
ARC
8
0
10
112
20
-55
40
2
50
90
51
180
0
ARC
8
0
10
112
20
-69
40
2
50
180
51
270
0
ARC
8
0
10
145
20
-102.25
40
2
50
270
51
0
0
ARC
8
0
10
145
20
-88.25
40
2
50
0
51
90
0
ARC
8
0
10
131
20
-88.25
40
2
50
90
51
180
0
ARC
8
0
10
131
20
-102.25
40
2
50
180
51
270
0
ARC
8
0
10
145
20
-83.25
40
2
50
270
51
0
0
ARC
8
0
10
145
20
-69.25
40
2
50
0
51
90
0
ARC
8
0
10
131
20
-69.25
40
2
50
90
51
180
0
ARC
8
0
10
131
20
-83.25
40
2
50
180
51
270
0
ARC
8
0
10
145
20
-64.25
40
2
50
270
51
0
0
ARC
8
0
10
145
20
-50.25
40
2
50
0
51
90
0
ARC
8
0
10
131
20
-50.25
40
2
50
90
51
180
0
ARC
8
0
10
131
20
-64.25
40
2
50
180
51
270
0
ARC
8
0
10
164
20
-99.875
40
2
50
270
51
0
0
ARC
8
0
10
164
20
-85.875
40
2
50
0
51
90
0
ARC
8
0
10
150
20
-85.875
40
2
50
90
51
180
0
ARC
8
0
10
150
20
-99.875
40
2
50
180
51
270
0
ARC
8
0
10
164
20
-80.875
40
2
50
270
51
0
0
ARC
8
0
10
164
20
-66.875
40
2
50
0
51
90
0
ARC
8
0
10
150
20
-66.875
40
2
50
90
51
180
0
ARC
8
0
10
150
20
-80.875
40
2
50
180
51
270
0
ARC
8
0
10
164
20
-61.875
40
2
50
270
51
0
0
ARC
8
0
10
164
20
-47.875
40
2
50
0
51
90
0
ARC
8
0
10
150
20
-47.875
40
2
50
90
51
180
0
ARC
8
0
10
150
20
-61.875
40
2
50
180
51
270
0
ARC
8
0
10
183
20
-102.25
40
2
50
270
51
0
0
ARC
8
0
10
183
20
-88.25
40
2
50
0
51
90
0
ARC
8
0
10
169
20
-88.25
40
2
50
90
51
180
0
ARC
8
0
10
169
20
-102.25
40
2
50
180
51
270
0
ARC
8
0
10
183
20
-83.25
40
2
50
270
51
0
0
ARC
8
0
10
183
20
-69.25
40
2
50
0
51
90
0
ARC
8
0
10
169
20
-69.25
40
2
50
90
51
180
0
ARC
8
0
10
169
20
-83.25
40
2
50
180
51
270
0
ARC
8
0
10
183
20
-64.25
40
2
50
270
51
0
0
ARC
8
0
10
183
20
-50.25
40
2
50
0
51
90
0
ARC
8
0
10
169
20
-50.25
40
2
50
90
51
180
0
ARC
8
0
10
169
20
-64.25
40
2
50
180
51
270
0
ARC
8
0
10
202
20
-104.625
40
2
50
270
51
0
0
ARC
8
0
10
202
20
-90.625
40
2
50
0
51
90
0
ARC
8
0
10
188
20
-90.625
40
2
50
90
51
180
0
ARC
8
0
10
188
20
-104.625
40
2
50
180
51
270
0
ARC
8
0
10
202
20
-85.625
40
2
50
270
51
0
0
ARC
8
0
10
202
20
-71.625
40
2
50
0
51
90
0
ARC
8
0
10
188
20
-71.625
40
2
50
90
51
180
0
ARC
8
0
10
188
20
-85.625
40
2
50
180
51
270
0
ARC
8
0
10
202
20
-66.625
40
2
50
270
51
0
0
ARC
8
0
10
202
20
-52.625
40
2
50
0
51
90
0
ARC
8
0
10
188
20
-52.625
40
2
50
90
51
180
0
ARC
8
0
10
188
20
-66.625
40
2
50
180
51
270
0
ARC
8
0
10
173.5
20
-121.875
40
2
50
270
51
0
0
ARC
8
0
10
173.5
20
-107.875
40
2
50
0
51
90
0
ARC
8
0
10
159.5
20
-107.875
40
2
50
90
51
180
0
ARC
8
0
10
159.5
20
-121.875
40
2
50
180
51
270
0
ARC
8
0
10
192.4497474
20
-126.198214
40
2
50
255.0000021
51
345.0000021
0
ARC
8
0
10
196.073214
20
-112.6752526
40
2
50
345.0000021
51
75.0000021
0
ARC
8
0
10
182.5502526
20
-109.051786
40
2
50
75.0000021
51
165.0000021
0
ARC
8
0
10
178.926786
20
-122.5747474
40
2
50
165.0000021
51
255.0000021
0
LINE
8
0
10
211.7910344
20
-135.8484498
11
223.2910344
21
-115.9298654
0
LINE
8
0
10
222.5589836
20
-113.1978146
11
210.434628
21
-106.1978146
0
LINE
8
0
10
207.7025772
20
-106.9298654
11
196.2025772
21
-126.8484498
0
LINE
8
0
10
196.934628
20
-129.5805006
11
209.0589836
21
-136.5805006
0
ARC
8
0
10
221.5589836
20
-114.9298654
40
2
50
329.9999999
51
59.9999999
0
ARC
8
0
10
209.434628
20
-107.9298654
40
2
50
59.9999999
51
149.9999999
0
ARC
8
0
10
197.934628
20
-127.8484498
40
2
50
149.9999999
51
239.9999999
0
ARC
8
0
10
210.0589836
20
-134.8484498
40
2
50
239.9999999
51
329.9999999
0
ENDSEC
0
EOF