0
SECTION
2
HEADER
9
$INSUNITS
70
4
0
ENDSEC
0
SECTION
2
TABLES
0
TABLE
2
LTYPE
0
LTYPE
72
65
70
64
2
CONTINUOUS
3
______
73
0
40
0
0
ENDTAB
0
TABLE
2
LAYER
0
ENDTAB
0
ENDSEC
0
SECTION
2
ENTITIES
0
LINE
8
0
10
91
20
-109.5
11
147.2273022
21
-109.5
0
LINE
8
0
10
90.5
20
-109
11
90.5
21
-53
0
LINE
8
0
10
91
20
-52.5
11
128
21
-52.5
0
LINE
8
0
10
129
20
-47.75
11
147
21
-47.75
0
LINE
8
0
10
128.5
20
-52
11
128.5
21
-48.25
0
LINE
8
0
10
166.5
20
-47.25
11
166.5
21
-45.875
0
LINE
8
0
10
148
20
-45.375
11
166
21
-45.375
0
LINE
8
0
10
147.5
20
-47.25
11
147.5
21
-45.875
0
LINE
8
0
10
185.5
20
-49.625
11
185.5
21
-48.25
0
LINE
8
0
10
167
20
-47.75
11
185
21
-47.75
0
LINE
8
0
10
204.5
20
-101.5976689
11
204.5
21
-50.625
0
LINE
8
0
10
186
20
-50.125
11
204
21
-50.125
0
LINE
8
0
10
210.3979413
20
-137.6231371
11
224.3979413
21
-113.3744258
0
LINE
8
0
10
194.1929915
20
-128.8445553
11
209.7149286
21
-137.8061498
0
LINE
8
0
10
147.6476598
20
-109.7292612
11
156.8730777
21
-124.0529364
0
LINE
8
0
10
157.232662
20
-124.2784905
11
194.0037648
21
-128.7812751
0
LINE
8
0
10
224.5
20
-113.4333494
11
224.5
21
-53
0
LINE
8
0
10
205
20
-52.5
11
224
21
-52.5
0
LINE
8
0
10
224.3979413
20
-113.3744258
11
224.5
21
-113.4333494
0
ARC
8
0
10
147.2273022
20
-110
40
0.5
50
32.7842815
51
392.7842815
0
ARC
8
0
10
157.2934353
20
-123.7821976
40
0.5
50
212.7842815
51
572.7842815
0
ARC
8
0
10
193.9429915
20
-129.277568
40
0.5
50
59.9999999
51
419.9999999
0
ARC
8
0
10
209.9649286
20
-137.3731371
40
0.5
50
239.9999999
51
599.9999999
0
ARC
8
0
10
224
20
-53
40
0.5
50
0
51
360
0
ARC
8
0
10
205
20
-52
40
0.5
50
180
51
540
0
ARC
8
0
10
204
20
-50.625
40
0.5
50
0
51
360
0
ARC
8
0
10
186
20
-49.625
40
0.5
50
180
51
540
0
ARC
8
0
10
185
20
-48.25
40
0.5
50
0
51
360
0
ARC
8
0
10
167
20
-47.25
40
0.5
50
180
51
540
0
ARC
8
0
10
166
20
-45.875
40
0.5
50
0
51
360
0
ARC
8
0
10
148
20
-45.875
40
0.5
50
90
51
450
0
ARC
8
0
10
147
20
-47.25
40
0.5
50
270
51
630
0
ARC
8
0
10
129
20
-48.25
40
0.5
50
90
51
450
0
ARC
8
0
10
128
20
-52
40
0.5
50
270
51
630
0
ARC
8
0
10
91
20
-53
40
0.5
50
90
51
450
0
ARC
8
0
10
91
20
-109
40
0.5
50
180
51
540
0
CIRCLE
8
0
10
109.5
20
-71.5
40
1.1
0
CIRCLE
8
0
10
109.5
20
-90.5
40
1.1
0
CIRCLE
8
0
10
185.5
20
-67.725
40
1.1
0
CIRCLE
8
0
10
153
20
-107.65
40
1.1
0
CIRCLE
8
0
10
199.4977699
20
-115.4527878
40
1.1
0
CIRCLE
8
0
10
109.5
20
-71.5
40
2.05
0
CIRCLE
8
0
10
109.5
20
-90.5
40
2.05
0
CIRCLE
8
0
10
185.5
20
-67.725
40
2.05
0
CIRCLE
8
0
10
153
20
-107.65
40
2.05
0
CIRCLE
8
0
10
199.4977699
20
-115.4527878
40
2.05
0
CIRCLE
8
0
10
207.3116483
20
-100.2187534
40
1.1
0
CIRCLE
8
0
10
222.1206827
20
-108.7687534
40
1.1
0
LINE
8
0
10
98.2
20
-106.3
11
101.8
21
-106.3
0
LINE
8
0
10
101.8
20
-106.3
11
101.8
21
-103.2
0
LINE
8
0
10
101.8
20
-103.2
11
98.2
21
-103.2
0
LINE
8
0
10
98.2
20
-103.2
11
98.2
21
-106.3
0
LINE
8
0
10
98.2
20
-87.3
11
101.8
21
-87.3
0
LINE
8
0
10
101.8
20
-87.3
11
101.8
21
-84.2
0
LINE
8
0
10
101.8
20
-84.2
11
98.2
21
-84.2
0
LINE
8
0
10
98.2
20
-84.2
11
98.2
21
-87.3
0
LINE
8
0
10
98.2
20
-68.3
11
101.8
21
-68.3
0
LINE
8
0
10
101.8
20
-68.3
11
101.8
21
-65.2
0
LINE
8
0
10
101.8
20
-65.2
11
98.2
21
-65.2
0
LINE
8
0
10
98.2
20
-65.2
11
98.2
21
-68.3
0
LINE
8
0
10
117.2
20
-106.3
11
120.8
21
-106.3
0
LINE
8
0
10
120.8
20
-106.3
11
120.8
21
-103.2
0
LINE
8
0
10
120.8
20
-103.2
11
117.2
21
-103.2
0
LINE
8
0
10
117.2
20
-103.2
11
117.2
21
-106.3
0
LINE
8
0
10
117.2
20
-87.3
11
120.8
21
-87.3
0
LINE
8
0
10
120.8
20
-87.3
11
120.8
21
-84.2
0
LINE
8
0
10
120.8
20
-84.2
11
117.2
21
-84.2
0
LINE
8
0
10
117.2
20
-84.2
11
117.2
21
-87.3
0
LINE
8
0
10
117.2
20
-68.3
11
120.8
21
-68.3
0
LINE
8
0
10
120.8
20
-68.3
11
120.8
21
-65.2
0
LINE
8
0
10
120.8
20
-65.2
11
117.2
21
-65.2
0
LINE
8
0
10
117.2
20
-65.2
11
117.2
21
-68.3
0
LINE
8
0
10
136.2
20
-101.55
11
139.8
21
-101.55
0
LINE
8
0
10
139.8
20
-101.55
11
139.8
21
-98.45
0
LINE
8
0
10
139.8
20
-98.45
11
136.2
21
-98.45
0
LINE
8
0
10
136.2
20
-98.45
11
136.2
21
-101.55
0
LINE
8
0
10
136.2
20
-82.55
11
139.8
21
-82.55
0
LINE
8
0
10
139.8
20
-82.55
11
139.8
21
-79.45
0
LINE
8
0
10
139.8
20
-79.45
11
136.2
21
-79.45
0
LINE
8
0
10
136.2
20
-79.45
11
136.2
21
-82.55
0
LINE
8
0
10
136.2
20
-63.55
11
139.8
21
-63.55
0
LINE
8
0
10
139.8
20
-63.55
11
139.8
21
-60.45
0
LINE
8
0
10
139.8
20
-60.45
11
136.2
21
-60.45
0
LINE
8
0
10
136.2
20
-60.45
11
136.2
21
-63.55
0
LINE
8
0
10
155.2
20
-99.175
11
158.8
21
-99.175
0
LINE
8
0
10
158.8
20
-99.175
11
158.8
21
-96.075
0
LINE
8
0
10
158.8
20
-96.075
11
155.2
21
-96.075
0
LINE
8
0
10
155.2
20
-96.075
11
155.2
21
-99.175
0
LINE
8
0
10
155.2
20
-80.175
11
158.8
21
-80.175
0
LINE
8
0
10
158.8
20
-80.175
11
158.8
21
-77.075
0
LINE
8
0
10
158.8
20
-77.075
11
155.2
21
-77.075
0
LINE
8
0
10
155.2
20
-77.075
11
155.2
21
-80.175
0
LINE
8
0
10
155.2
20
-61.175
11
158.8
21
-61.175
0
LINE
8
0
10
158.8
20
-61.175
11
158.8
21
-58.075
0
LINE
8
0
10
158.8
20
-58.075
11
155.2
21
-58.075
0
LINE
8
0
10
155.2
20
-58.075
11
155.2
21
-61.175
0
LINE
8
0
10
174.2
20
-101.55
11
177.8
21
-101.55
0
LINE
8
0
10
177.8
20
-101.55
11
177.8
21
-98.45
0
LINE
8
0
10
177.8
20
-98.45
11
174.2
21
-98.45
0
LINE
8
0
10
174.2
20
-98.45
11
174.2
21
-101.55
0
LINE
8
0
10
174.2
20
-82.55
11
177.8
21
-82.55
0
LINE
8
0
10
177.8
20
-82.55
11
177.8
21
-79.45
0
LINE
8
0
10
177.8
20
-79.45
11
174.2
21
-79.45
0
LINE
8
0
10
174.2
20
-79.45
11
174.2
21
-82.55
0
LINE
8
0
10
174.2
20
-63.55
11
177.8
21
-63.55
0
LINE
8
0
10
177.8
20
-63.55
11
177.8
21
-60.45
0
LINE
8
0
10
177.8
20
-60.45
11
174.2
21
-60.45
0
LINE
8
0
10
174.2
20
-60.45
11
174.2
21
-63.55
0
LINE
8
0
10
193.2
20
-103.925
11
196.8
21
-103.925
0
LINE
8
0
10
196.8
20
-103.925
11
196.8
21
-100.825
0
LINE
8
0
10
196.8
20
-100.825
11
193.2
21
-100.825
0
LINE
8
0
10
193.2
20
-100.825
11
193.2
21
-103.925
0
LINE
8
0
10
193.2
20
-84.925
11
196.8
21
-84.925
0
LINE
8
0
10
196.8
20
-84.925
11
196.8
21
-81.825
0
LINE
8
0
10
196.8
20
-81.825
11
193.2
21
-81.825
0
LINE
8
0
10
193.2
20
-81.825
11
193.2
21
-84.925
0
LINE
8
0
10
193.2
20
-65.925
11
196.8
21
-65.925
0
LINE
8
0
10
196.8
20
-65.925
11
196.8
21
-62.825
0
LINE
8
0
10
196.8
20
-62.825
11
193.2
21
-62.825
0
LINE
8
0
10
193.2
20
-62.825
11
193.2
21
-65.925
0
LINE
8
0
10
164.7
20
-121.05
11
168.3
21
-121.05
0
LINE
8
0
10
168.3
20
-121.05
11
168.3
21
-117.95
0
LINE
8
0
10
168.3
20
-117.95
11
164.7
21
-117.95
0
LINE
8
0
10
164.7
20
-117.95
11
164.7
21
-121.05
0
LINE
8
0
10
184.2658498
20
-123.151944
11
187.7431828
21
-124.0836926
0
LINE
8
0
10
187.7431828
20
-124.0836926
11
188.5455218
21
-121.0893226
0
LINE
8
0
10
188.5455218
20
-121.0893226
11
185.0681888
21
-120.157574
0
LINE
8
0
10
185.0681888
20
-120.157574
11
184.2658498
21
-123.151944
0
LINE
8
0
10
214.0130221
20
-125.9116335
11
215.8130221
21
-122.7939421
0
LINE
8
0
10
215.8130221
20
-122.7939421
11
213.1283433
21
-121.2439421
0
LINE
8
0
10
213.1283433
20
-121.2439421
11
211.3283433
21
-124.3616335
0
LINE
8
0
10
211.3283433
20
-124.3616335
11
214.0130221
21
-125.9116335
0
LINE
8
0
10
204.75
20
-102.0306816
11
223.9649286
21
-113.1244258
0
ARC
8
0
10
223.7149286
20
-113.5574385
40
0.5
50
329.9999999
51
59.9999999
0
ARC
8
0
10
205
20
-101.5976689
40
0.5
50
180
51
239.9999999
0
LINE
8
0
10
93
20
-107
11
107
21
-107
0
LINE
8
0
10
107
20
-107
11
107
21
-93
0
LINE
8
0
10
107
20
-93
11
93
21
-93
0
LINE
8
0
10
93
20
-93
11
93
21
-107
0
LINE
8
0
10
93
20
-88
11
107
21
-88
0
LINE
8
0
10
107
20
-88
11
107
21
-74
0
LINE
8
0
10
107
20
-74
11
93
21
-74
0
LINE
8
0
10
93
20
-74
11
93
21
-88
0
LINE
8
0
10
93
20
-69
11
107
21
-69
0
LINE
8
0
10
107
20
-69
11
107
21
-55
0
LINE
8
0
10
107
20
-55
11
93
21
-55
0
LINE
8
0
10
93
20
-55
11
93
21
-69
0
LINE
8
0
10
112
20
-107
11
126
21
-107
0
LINE
8
0
10
126
20
-107
11
126
21
-93
0
LINE
8
0
10
126
20
-93
11
112
21
-93
0
LINE
8
0
10
112
20
-93
11
112
21
-107
0
LINE
8
0
10
112
20
-88
11
126
21
-88
0
LINE
8
0
10
126
20
-88
11
126
21
-74
0
LINE
8
0
10
126
20
-74
11
112
21
-74
0
LINE
8
0
10
112
20
-74
11
112
21
-88
0
LINE
8
0
10
112
20
-69
11
126
21
-69
0
LINE
8
0
10
126
20
-69
11
126
21
-55
0
LINE
8
0
10
126
20
-55
11
112
21
-55
0
LINE
8
0
10
112
20
-55
11
112
21
-69
0
LINE
8
0
10
131
20
-102.25
11
145
21
-102.25
0
LINE
8
0
10
145
20
-102.25
11
145
21
-88.25
0
LINE
8
0
10
145
20
-88.25
11
131
21
-88.25
0
LINE
8
0
10
131
20
-88.25
11
131
21
-102.25
0
LINE
8
0
10
131
20
-83.25
11
145
21
-83.25
0
LINE
8
0
10
145
20
-83.25
11
145
21
-69.25
0
LINE
8
0
10
145
20
-69.25
11
131
21
-69.25
0
LINE
8
0
10
131
20
-69.25
11
131
21
-83.25
0
LINE
8
0
10
131
20
-64.25
11
145
21
-64.25
0
LINE
8
0
10
145
20
-64.25
11
145
21
-50.25
0
LINE
8
0
10
145
20
-50.25
11
131
21
-50.25
0
LINE
8
0
10
131
20
-50.25
11
131
21
-64.25
0
LINE
8
0
10
150
20
-99.875
11
164
21
-99.875
0
LINE
8
0
10
164
20
-99.875
11
164
21
-85.875
0
LINE
8
0
10
164
20
-85.875
11
150
21
-85.875
0
LINE
8
0
10
150
20
-85.875
11
150
21
-99.875
0
LINE
8
0
10
150
20
-80.875
11
164
21
-80.875
0
LINE
8
0
10
164
20
-80.875
11
164
21
-66.875
0
LINE
8
0
10
164
20
-66.875
11
150
21
-66.875
0
LINE
8
0
10
150
20
-66.875
11
150
21
-80.875
0
LINE
8
0
10
150
20
-61.875
11
164
21
-61.875
0
LINE
8
0
10
164
20
-61.875
11
164
21
-47.875
0
LINE
8
0
10
164
20
-47.875
11
150
21
-47.875
0
LINE
8
0
10
150
20
-47.875
11
150
21
-61.875
0
LINE
8
0
10
169
20
-102.25
11
183
21
-102.25
0
LINE
8
0
10
183
20
-102.25
11
183
21
-88.25
0
LINE
8
0
10
183
20
-88.25
11
169
21
-88.25
0
LINE
8
0
10
169
20
-88.25
11
169
21
-102.25
0
LINE
8
0
10
169
20
-83.25
11
183
21
-83.25
0
LINE
8
0
10
183
20
-83.25
11
183
21
-69.25
0
LINE
8
0
10
183
20
-69.25
11
169
21
-69.25
0
LINE
8
0
10
169
20
-69.25
11
169
21
-83.25
0
LINE
8
0
10
169
20
-64.25
11
183
21
-64.25
0
LINE
8
0
10
183
20
-64.25
11
183
21
-50.25
0
LINE
8
0
10
183
20
-50.25
11
169
21
-50.25
0
LINE
8
0
10
169
20
-50.25
11
169
21
-64.25
0
LINE
8
0
10
188
20
-104.625
11
202
21
-104.625
0
LINE
8
0
10
202
20
-104.625
11
202
21
-90.625
0
LINE
8
0
10
202
20
-90.625
11
188
21
-90.625
0
LINE
8
0
10
188
20
-90.625
11
188
21
-104.625
0
LINE
8
0
10
188
20
-85.625
11
202
21
-85.625
0
LINE
8
0
10
202
20
-85.625
11
202
21
-71.625
0
LINE
8
0
10
202
20
-71.625
11
188
21
-71.625
0
LINE
8
0
10
188
20
-71.625
11
188
21
-85.625
0
LINE
8
0
10
188
20
-66.625
11
202
21
-66.625
0
LINE
8
0
10
202
20
-66.625
11
202
21
-52.625
0
LINE
8
0
10
202
20
-52.625
11
188
21
-52.625
0
LINE
8
0
10
188
20
-52.625
11
188
21
-66.625
0
LINE
8
0
10
159.5
20
-121.75
11
173.5
21
-121.75
0
LINE
8
0
10
173.5
20
-121.75
11
173.5
21
-107.75
0
LINE
8
0
10
173.5
20
-107.75
11
159.5
21
-107.75
0
LINE
8
0
10
159.5
20
-107.75
11
159.5
21
-121.75
0
LINE
8
0
10
179.0618622
20
-122.4822331
11
192.5848238
21
-126.1056997
0
LINE
8
0
10
192.5848238
20
-126.1056997
11
196.2082904
21
-112.5827381
0
LINE
8
0
10
196.2082904
20
-112.5827381
11
182.6853288
21
-108.9592715
0
LINE
8
0
10
182.6853288
20
-108.9592715
11
179.0618622
21
-122.4822331
0
LINE
8
0
10
212.0192398
20
-130.7649656
11
219.0192398
21
-118.64061
0
LINE
8
0
10
219.0192398
20
-118.64061
11
206.8948842
21
-111.64061
0
LINE
8
0
10
206.8948842
20
-111.64061
11
199.8948842
21
-123.7649656
0
LINE
8
0
10
199.8948842
20
-123.7649656
11
212.0192398
21
-130.7649656
0
ARC
8
0
10
205
20
-53
40
0.5
50
90
51
180
0
ARC
8
0
10
224
20
-112.567324
40
0.5
50
239.9999999
51
0
0
LINE
8
0
10
93
20
-109
11
107
21
-109
0
LINE
8
0
10
109
20
-107
11
109
21
-93
0
LINE
8
0
10
107
20
-91
11
93
21
-91
0
LINE
8
0
10
91
20
-93
11
91
21
-107
0
LINE
8
0
10
93
20
-90
11
107
21
-90
0
LINE
8
0
10
109
20
-88
11
109
21
-74
0
LINE
8
0
10
107
20
-72
11
93
21
-72
0
LINE
8
0
10
91
20
-74
11
91
21
-88
0
LINE
8
0
10
93
20
-71
11
107
21
-71
0
LINE
8
0
10
109
20
-69
11
109
21
-55
0
LINE
8
0
10
107
20
-53
11
93
21
-53
0
LINE
8
0
10
91
20
-55
11
91
21
-69
0
LINE
8
0
10
112
20
-109
11
126
21
-109
0
LINE
8
0
10
128
20
-107
11
128
21
-93
0
LINE
8
0
10
126
20
-91
11
112
21
-91
0
LINE
8
0
10
110
20
-93
11
110
21
-107
0
LINE
8
0
10
112
20
-90
11
126
21
-90
0
LINE
8
0
10
128
20
-88
11
128
21
-74
0
LINE
8
0
10
126
20
-72
11
112
21
-72
0
LINE
8
0
10
110
20
-74
11
110
21
-88
0
LINE
8
0
10
112
20
-71
11
126
21
-71
0
LINE
8
0
10
128
20
-69
11
128
21
-55
0
LINE
8
0
10
126
20
-53
11
112
21
-53
0
LINE
8
0
10
110
20
-55
11
110
21
-69
0
LINE
8
0
10
131
20
-104.25
11
145
21
-104.25
0
LINE
8
0
10
147
20
-102.25
11
147
21
-88.25
0
LINE
8
0
10
145
20
-86.25
11
131
21
-86.25
0
LINE
8
0
10
129
20
-88.25
11
129
21
-102.25
0
LINE
8
0
10
131
20
-85.25
11
145
21
-85.25
0
LINE
8
0
10
147
20
-83.25
11
147
21
-69.25
0
LINE
8
0
10
145
20
-67.25
11
131
21
-67.25
0
LINE
8
0
10
129
20
-69.25
11
129
21
-83.25
0
LINE
8
0
10
131
20
-66.25
11
145
21
-66.25
0
LINE
8
0
10
147
20
-64.25
11
147
21
-50.25
0
LINE
8
0
10
145
20
-48.25
11
131
21
-48.25
0
LINE
8
0
10
129
20
-50.25
11
129
21
-64.25
0
LINE
8
0
10
150
20
-101.875
11
164
21
-101.875
0
LINE
8
0
10
166
20
-99.875
11
166
21
-85.875
0
LINE
8
0
10
164
20
-83.875
11
150
21
-83.875
0
LINE
8
0
10
148
20
-85.875
11
148
21
-99.875
0
LINE
8
0
10
150
20
-82.875
11
164
21
-82.875
0
LINE
8
0
10
166
20
-80.875
11
166
21
-66.875
0
LINE
8
0
10
164
20
-64.875
11
150
21
-64.875
0
LINE
8
0
10
148
20
-66.875
11
148
21
-80.875
0
LINE
8
0
10
150
20
-63.875
11
164
21
-63.875
0
LINE
8
0
10
166
20
-61.875
11
166
21
-47.875
0
LINE
8
0
10
164
20
-45.875
11
150
21
-45.875
0
LINE
8
0
10
148
20
-47.875
11
148
21
-61.875
0
LINE
8
0
10
169
20
-104.25
11
183
21
-104.25
0
LINE
8
0
10
185
20
-102.25
11
185
21
-88.25
0
LINE
8
0
10
183
20
-86.25
11
169
21
-86.25
0
LINE
8
0
10
167
20
-88.25
11
167
21
-102.25
0
LINE
8
0
10
169
20
-85.25
11
183
21
-85.25
0
LINE
8
0
10
185
20
-83.25
11
185
21
-69.25
0
LINE
8
0
10
183
20
-67.25
11
169
21
-67.25
0
LINE
8
0
10
167
20
-69.25
11
167
21
-83.25
0
LINE
8
0
10
169
20
-66.25
11
183
21
-66.25
0
LINE
8
0
10
185
20
-64.25
11
185
21
-50.25
0
LINE
8
0
10
183
20
-48.25
11
169
21
-48.25
0
LINE
8
0
10
167
20
-50.25
11
167
21
-64.25
0
LINE
8
0
10
188
20
-106.625
11
202
21
-106.625
0
LINE
8
0
10
204
20
-104.625
11
204
21
-90.625
0
LINE
8
0
10
202
20
-88.625
11
188
21
-88.625
0
LINE
8
0
10
186
20
-90.625
11
186
21
-104.625
0
LINE
8
0
10
188
20
-87.625
11
202
21
-87.625
0
LINE
8
0
10
204
20
-85.625
11
204
21
-71.625
0
LINE
8
0
10
202
20
-69.625
11
188
21
-69.625
0
LINE
8
0
10
186
20
-71.625
11
186
21
-85.625
0
LINE
8
0
10
188
20
-68.625
11
202
21
-68.625
0
LINE
8
0
10
204
20
-66.625
11
204
21
-52.625
0
LINE
8
0
10
202
20
-50.625
11
188
21
-50.625
0
LINE
8
0
10
186
20
-52.625
11
186
21
-66.625
0
LINE
8
0
10
159.5
20
-123.75
11
173.5
21
-123.75
0
LINE
8
0
10
175.5
20
-121.75
11
175.5
21
-107.75
0
LINE
8
0
10
173.5
20
-105.75
11
159.5
21
-105.75
0
LINE
8
0
10
157.5
20
-107.75
11
157.5
21
-121.75
0
LINE
8
0
10
178.5442243
20
-124.4140847
11
192.0671857
21
-128.0375513
0
LINE
8
0
10
194.5166754
20
-126.6233376
11
198.140142
21
-113.1003762
0
LINE
8
0
10
196.7259283
20
-110.6508865
11
183.2029669
21
-107.0274199
0
LINE
8
0
10
180.7534772
20
-108.4416336
11
177.1300106
21
-121.964595
0
LINE
8
0
10
213.7512906
20
-131.7649656
11
220.7512906
21
-119.64061
0
LINE
8
0
10
220.0192398
20
-116.9085592
11
207.8948842
21
-109.9085592
0
LINE
8
0
10
205.1628334
20
-110.64061
11
198.1628334
21
-122.7649656
0
LINE
8
0
10
198.8948842
20
-125.4970164
11
211.0192398
21
-132.4970164
0
ARC
8
0
10
107
20
-107
40
2
50
270
51
0
0
ARC
8
0
10
107
20
-93
40
2
50
0
51
90
0
ARC
8
0
10
93
20
-93
40
2
50
90
51
180
0
ARC
8
0
10
93
20
-107
40
2
50
180
51
270
0
ARC
8
0
10
107
20
-88
40
2
50
270
51
0
0
ARC
8
0
10
107
20
-74
40
2
50
0
51
90
0
ARC
8
0
10
93
20
-74
40
2
50
90
51
180
0
ARC
8
0
10
93
20
-88
40
2
50
180
51
270
0
ARC
8
0
10
107
20
-69
40
2
50
270
51
0
0
ARC
8
0
10
107
20
-55
40
2
50
0
51
90
0
ARC
8
0
10
93
20
-55
40
2
50
90
51
180
0
ARC
8
0
10
93
20
-69
40
2
50
180
51
270
0
ARC
8
0
10
126
20
-107
40
2
50
270
51
0
0
ARC
8
0
10
126
20
-93
40
2
50
0
51
90
0
ARC
8
0
10
112
20
-93
40
2
50
90
51
180
0
ARC
8
0
10
112
20
-107
40
2
50
180
51
270
0
ARC
8
0
10
126
20
-88
40
2
50
270
51
0
0
ARC
8
0
10
126
20
-74
40
2
50
0
51
90
0
ARC
8
0
10
112
20
-74
40
2
50
90
51
180
0
ARC
8
0
10
112
20
-88
40
2
50
180
51
270
0
ARC
8
0
10
126
20
-69
40
2
50
270
51
0
0
ARC
8
0
10
126
20
-55
40
2
50
0
51
90
0
ARC
8
0
10
112
20
-55
40
2
50
90
51
180
0
ARC
8
0
10
112
20
-69
40
2
50
180
51
270
0
ARC
8
0
10
145
20
-102.25
40
2
50
270
51
0
0
ARC
8
0
10
145
20
-88.25
40
2
50
0
51
90
0
ARC
8
0
10
131
20
-88.25
40
2
50
90
51
180
0
ARC
8
0
10
131
20
-102.25
40
2
50
180
51
270
0
ARC
8
0
10
145
20
-83.25
40
2
50
270
51
0
0
ARC
8
0
10
145
20
-69.25
40
2
50
0
51
90
0
ARC
8
0
10
131
20
-69.25
40
2
50
90
51
180
0
ARC
8
0
10
131
20
-83.25
40
2
50
180
51
270
0
ARC
8
0
10
145
20
-64.25
40
2
50
270
51
0
0
ARC
8
0
10
145
20
-50.25
40
2
50
0
51
90
0
ARC
8
0
10
131
20
-50.25
40
2
50
90
51
180
0
ARC
8
0
10
131
20
-64.25
40
2
50
180
51
270
0
ARC
8
0
10
164
20
-99.875
40
2
50
270
51
0
0
ARC
8
0
10
164
20
-85.875
40
2
50
0
51
90
0
ARC
8
0
10
150
20
-85.875
40
2
50
90
51
180
0
ARC
8
0
10
150
20
-99.875
40
2
50
180
51
270
0
ARC
8
0
10
164
20
-80.875
40
2
50
270
51
0
0
ARC
8
0
10
164
20
-66.875
40
2
50
0
51
90
0
ARC
8
0
10
150
20
-66.875
40
2
50
90
51
180
0
ARC
8
0
10
150
20
-80.875
40
2
50
180
51
270
0
ARC
8
0
10
164
20
-61.875
40
2
50
270
51
0
0
ARC
8
0
10
164
20
-47.875
40
2
50
0
51
90
0
ARC
8
0
10
150
20
-47.875
40
2
50
90
51
180
0
ARC
8
0
10
150
20
-61.875
40
2
50
180
51
270
0
ARC
8
0
10
183
20
-102.25
40
2
50
270
51
0
0
ARC
8
0
10
183
20
-88.25
40
2
50
0
51
90
0
ARC
8
0
10
169
20
-88.25
40
2
50
90
51
180
0
ARC
8
0
10
169
20
-102.25
40
2
50
180
51
270
0
ARC
8
0
10
183
20
-83.25
40
2
50
270
51
0
0
ARC
8
0
10
183
20
-69.25
40
2
50
0
51
90
0
ARC
8
0
10
169
20
-69.25
40
2
50
90
51
180
0
ARC
8
0
10
169
20
-83.25
40
2
50
180
51
270
0
ARC
8
0
10
183
20
-64.25
40
2
50
270
51
0
0
ARC
8
0
10
183
20
-50.25
40
2
50
0
51
90
0
ARC
8
0
10
169
20
-50.25
40
2
50
90
51
180
0
ARC
8
0
10
169
20
-64.25
40
2
50
180
51
270
0
ARC
8
0
10
202
20
-104.625
40
2
50
270
51
0
0
ARC
8
0
10
202
20
-90.625
40
2
50
0
51
90
0
ARC
8
0
10
188
20
-90.625
40
2
50
90
51
180
0
ARC
8
0
10
188
20
-104.625
40
2
50
180
51
270
0
ARC
8
0
10
202
20
-85.625
40
2
50
270
51
0
0
ARC
8
0
10
202
20
-71.625
40
2
50
0
51
90
0
ARC
8
0
10
188
20
-71.625
40
2
50
90
51
180
0
ARC
8
0
10
188
20
-85.625
40
2
50
180
51
270
0
ARC
8
0
10
202
20
-66.625
40
2
50
270
51
0
0
ARC
8
0
10
202
20
-52.625
40
2
50
0
51
90
0
ARC
8
0
10
188
20
-52.625
40
2
50
90
51
180
0
ARC
8
0
10
188
20
-66.625
40
2
50
180
51
270
0
ARC
8
0
10
173.5
20
-121.75
40
2
50
270
51
0
0
ARC
8
0
10
173.5
20
-107.75
40
2
50
0
51
90
0
ARC
8
0
10
159.5
20
-107.75
40
2
50
90
51
180
0
ARC
8
0
10
159.5
20
-121.75
40
2
50
180
51
270
0
ARC
8
0
10
219.0192398
20
-118.64061
40
2
50
329.9999999
51
59.9999999
0
ARC
8
0
10
206.8948842
20
-111.64061
40
2
50
59.9999999
51
149.9999999
0
ARC
8
0
10
199.8948842
20
-123.7649656
40
2
50
149.9999999
51
239.9999999
0
ARC
8
0
10
212.0192398
20
-130.7649656
40
2
50
239.9999999
51
329.9999999
0
ARC
8
0
10
192.5848237
20
-126.1056996
40
2
50
255.0000021
51
345.0000021
0
ARC
8
0
10
196.2082903
20
-112.5827382
40
2
50
345.0000021
51
75.0000021
0
ARC
8
0
10
182.6853289
20
-108.9592716
40
2
50
75.0000021
51
165.0000021
0
ARC
8
0
10
179.0618623
20
-122.482233
40
2
50
165.0000021
51
255.0000021
0
ENDSEC
0
EOF