<svg width="134.188mm" height="92.685mm" viewBox="0 0 134.188 92.685" xmlns="http://www.w3.org/2000/svg"><g id="svgGroup" stroke-linecap="round" fill-rule="evenodd" font-size="9pt" stroke="#000" stroke-width="0.25mm" fill="none" style="stroke:#000;stroke-width:0.25mm;fill:none"><path d="M 134 7.625 L 134 68.077 L 134.188 68.186 L 120.188 92.435 M 114 5.25 L 114 56.242 A 0.5 0.5 0 0 0 114.25 56.675 L 133.755 67.936 A 0.5 0.5 0 0 1 133.938 68.619 M 2.5 63.625 L 16.5 63.625 A 2 2 0 0 0 18.5 61.625 L 18.5 47.625 A 2 2 0 0 0 16.5 45.625 L 2.5 45.625 A 2 2 0 0 0 0.5 47.625 L 0.5 61.625 A 2 2 0 0 0 2.5 63.625 Z M 2.5 44.625 L 16.5 44.625 A 2 2 0 0 0 18.5 42.625 L 18.5 28.625 A 2 2 0 0 0 16.5 26.625 L 2.5 26.625 A 2 2 0 0 0 0.5 28.625 L 0.5 42.625 A 2 2 0 0 0 2.5 44.625 Z M 2.5 25.625 L 16.5 25.625 A 2 2 0 0 0 18.5 23.625 L 18.5 9.625 A 2 2 0 0 0 16.5 7.625 L 2.5 7.625 A 2 2 0 0 0 0.5 9.625 L 0.5 23.625 A 2 2 0 0 0 2.5 25.625 Z M 21.5 63.625 L 35.5 63.625 A 2 2 0 0 0 37.5 61.625 L 37.5 47.625 A 2 2 0 0 0 35.5 45.625 L 21.5 45.625 A 2 2 0 0 0 19.5 47.625 L 19.5 61.625 A 2 2 0 0 0 21.5 63.625 Z M 21.5 44.625 L 35.5 44.625 A 2 2 0 0 0 37.5 42.625 L 37.5 28.625 A 2 2 0 0 0 35.5 26.625 L 21.5 26.625 A 2 2 0 0 0 19.5 28.625 L 19.5 42.625 A 2 2 0 0 0 21.5 44.625 Z M 21.5 25.625 L 35.5 25.625 A 2 2 0 0 0 37.5 23.625 L 37.5 9.625 A 2 2 0 0 0 35.5 7.625 L 21.5 7.625 A 2 2 0 0 0 19.5 9.625 L 19.5 23.625 A 2 2 0 0 0 21.5 25.625 Z M 40.5 58.875 L 54.5 58.875 A 2 2 0 0 0 56.5 56.875 L 56.5 42.875 A 2 2 0 0 0 54.5 40.875 L 40.5 40.875 A 2 2 0 0 0 38.5 42.875 L 38.5 56.875 A 2 2 0 0 0 40.5 58.875 Z M 40.5 39.875 L 54.5 39.875 A 2 2 0 0 0 56.5 37.875 L 56.5 23.875 A 2 2 0 0 0 54.5 21.875 L 40.5 21.875 A 2 2 0 0 0 38.5 23.875 L 38.5 37.875 A 2 2 0 0 0 40.5 39.875 Z M 40.5 20.875 L 54.5 20.875 A 2 2 0 0 0 56.5 18.875 L 56.5 4.875 A 2 2 0 0 0 54.5 2.875 L 40.5 2.875 A 2 2 0 0 0 38.5 4.875 L 38.5 18.875 A 2 2 0 0 0 40.5 20.875 Z M 59.5 56.5 L 73.5 56.5 A 2 2 0 0 0 75.5 54.5 L 75.5 40.5 A 2 2 0 0 0 73.5 38.5 L 59.5 38.5 A 2 2 0 0 0 57.5 40.5 L 57.5 54.5 A 2 2 0 0 0 59.5 56.5 Z M 59.5 37.5 L 73.5 37.5 A 2 2 0 0 0 75.5 35.5 L 75.5 21.5 A 2 2 0 0 0 73.5 19.5 L 59.5 19.5 A 2 2 0 0 0 57.5 21.5 L 57.5 35.5 A 2 2 0 0 0 59.5 37.5 Z M 59.5 18.5 L 73.5 18.5 A 2 2 0 0 0 75.5 16.5 L 75.5 2.5 A 2 2 0 0 0 73.5 0.5 L 59.5 0.5 A 2 2 0 0 0 57.5 2.5 L 57.5 16.5 A 2 2 0 0 0 59.5 18.5 Z M 78.5 58.875 L 92.5 58.875 A 2 2 0 0 0 94.5 56.875 L 94.5 42.875 A 2 2 0 0 0 92.5 40.875 L 78.5 40.875 A 2 2 0 0 0 76.5 42.875 L 76.5 56.875 A 2 2 0 0 0 78.5 58.875 Z M 78.5 39.875 L 92.5 39.875 A 2 2 0 0 0 94.5 37.875 L 94.5 23.875 A 2 2 0 0 0 92.5 21.875 L 78.5 21.875 A 2 2 0 0 0 76.5 23.875 L 76.5 37.875 A 2 2 0 0 0 78.5 39.875 Z M 78.5 20.875 L 92.5 20.875 A 2 2 0 0 0 94.5 18.875 L 94.5 4.875 A 2 2 0 0 0 92.5 2.875 L 78.5 2.875 A 2 2 0 0 0 76.5 4.875 L 76.5 18.875 A 2 2 0 0 0 78.5 20.875 Z M 97.5 61.25 L 111.5 61.25 A 2 2 0 0 0 113.5 59.25 L 113.5 45.25 A 2 2 0 0 0 111.5 43.25 L 97.5 43.25 A 2 2 0 0 0 95.5 45.25 L 95.5 59.25 A 2 2 0 0 0 97.5 61.25 Z M 97.5 42.25 L 111.5 42.25 A 2 2 0 0 0 113.5 40.25 L 113.5 26.25 A 2 2 0 0 0 111.5 24.25 L 97.5 24.25 A 2 2 0 0 0 95.5 26.25 L 95.5 40.25 A 2 2 0 0 0 97.5 42.25 Z M 97.5 23.25 L 111.5 23.25 A 2 2 0 0 0 113.5 21.25 L 113.5 7.25 A 2 2 0 0 0 111.5 5.25 L 97.5 5.25 A 2 2 0 0 0 95.5 7.25 L 95.5 21.25 A 2 2 0 0 0 97.5 23.25 Z M 69 78.5 L 83 78.5 A 2 2 0 0 0 85 76.5 L 85 62.5 A 2 2 0 0 0 83 60.5 L 69 60.5 A 2 2 0 0 0 67 62.5 L 67 76.5 A 2 2 0 0 0 69 78.5 Z M 123.541 86.576 L 130.541 74.452 A 2 2 0 0 0 129.809 71.72 L 117.685 64.72 A 2 2 0 0 0 114.953 65.452 L 107.953 77.576 A 2 2 0 0 0 108.685 80.308 L 120.809 87.308 A 2 2 0 0 0 123.541 86.576 Z M 87.909 79.132 L 101.432 82.755 A 2 2 0 0 0 103.882 81.341 L 107.505 67.818 A 2 2 0 0 0 106.091 65.368 L 92.568 61.745 A 2 2 0 0 0 90.118 63.159 L 86.495 76.682 A 2 2 0 0 0 87.909 79.132 Z M 88.427 77.2 L 101.95 80.823 L 105.573 67.3 L 92.05 63.677 L 88.427 77.2 Z M 2.5 61.625 L 16.5 61.625 L 16.5 47.625 L 2.5 47.625 L 2.5 61.625 Z M 2.5 42.625 L 16.5 42.625 L 16.5 28.625 L 2.5 28.625 L 2.5 42.625 Z M 2.5 23.625 L 16.5 23.625 L 16.5 9.625 L 2.5 9.625 L 2.5 23.625 Z M 21.5 61.625 L 35.5 61.625 L 35.5 47.625 L 21.5 47.625 L 21.5 61.625 Z M 21.5 42.625 L 35.5 42.625 L 35.5 28.625 L 21.5 28.625 L 21.5 42.625 Z M 21.5 23.625 L 35.5 23.625 L 35.5 9.625 L 21.5 9.625 L 21.5 23.625 Z M 40.5 56.875 L 54.5 56.875 L 54.5 42.875 L 40.5 42.875 L 40.5 56.875 Z M 40.5 37.875 L 54.5 37.875 L 54.5 23.875 L 40.5 23.875 L 40.5 37.875 Z M 40.5 18.875 L 54.5 18.875 L 54.5 4.875 L 40.5 4.875 L 40.5 18.875 Z M 59.5 54.5 L 73.5 54.5 L 73.5 40.5 L 59.5 40.5 L 59.5 54.5 Z M 59.5 35.5 L 73.5 35.5 L 73.5 21.5 L 59.5 21.5 L 59.5 35.5 Z M 59.5 16.5 L 73.5 16.5 L 73.5 2.5 L 59.5 2.5 L 59.5 16.5 Z M 78.5 56.875 L 92.5 56.875 L 92.5 42.875 L 78.5 42.875 L 78.5 56.875 Z M 78.5 37.875 L 92.5 37.875 L 92.5 23.875 L 78.5 23.875 L 78.5 37.875 Z M 78.5 18.875 L 92.5 18.875 L 92.5 4.875 L 78.5 4.875 L 78.5 18.875 Z M 97.5 59.25 L 111.5 59.25 L 111.5 45.25 L 97.5 45.25 L 97.5 59.25 Z M 97.5 40.25 L 111.5 40.25 L 111.5 26.25 L 97.5 26.25 L 97.5 40.25 Z M 97.5 21.25 L 111.5 21.25 L 111.5 7.25 L 97.5 7.25 L 97.5 21.25 Z M 69 76.5 L 83 76.5 L 83 62.5 L 69 62.5 L 69 76.5 Z M 121.809 85.576 L 128.809 73.452 L 116.685 66.452 L 109.685 78.576 L 121.809 85.576 Z M 133.5 7.125 L 114.5 7.125 A 0.5 0.5 0 0 0 114 7.625 M 19 26.125 m -2.05 0 a 2.05 2.05 0 0 1 4.1 0 a 2.05 2.05 0 0 1 -4.1 0 z M 19 45.125 m -2.05 0 a 2.05 2.05 0 0 1 4.1 0 a 2.05 2.05 0 0 1 -4.1 0 z M 94.968 22.611 m -2.05 0 a 2.05 2.05 0 0 1 4.1 0 a 2.05 2.05 0 0 1 -4.1 0 z M 62.157 62.365 m -2.05 0 a 2.05 2.05 0 0 1 4.1 0 a 2.05 2.05 0 0 1 -4.1 0 z M 108.741 69.949 m -2.05 0 a 2.05 2.05 0 0 1 4.1 0 a 2.05 2.05 0 0 1 -4.1 0 z M 19 26.125 m -1.1 0 a 1.1 1.1 0 0 1 2.2 0 a 1.1 1.1 0 0 1 -2.2 0 z M 19 45.125 m -1.1 0 a 1.1 1.1 0 0 1 2.2 0 a 1.1 1.1 0 0 1 -2.2 0 z M 94.968 22.611 m -1.1 0 a 1.1 1.1 0 0 1 2.2 0 a 1.1 1.1 0 0 1 -2.2 0 z M 62.157 62.365 m -1.1 0 a 1.1 1.1 0 0 1 2.2 0 a 1.1 1.1 0 0 1 -2.2 0 z M 109.288 70.264 m -1.1 0 a 1.1 1.1 0 0 1 2.2 0 a 1.1 1.1 0 0 1 -2.2 0 z M 117.262 55.101 m -1.1 0 a 1.1 1.1 0 0 1 2.2 0 a 1.1 1.1 0 0 1 -2.2 0 z M 131.694 63.62 m -1.1 0 a 1.1 1.1 0 0 1 2.2 0 a 1.1 1.1 0 0 1 -2.2 0 z M 66.795 78.533 m -0.5 0 a 0.5 0.5 0 0 0 1 0 a 0.5 0.5 0 0 0 -1 0 z M 56.726 64.625 m -0.5 0 a 0.5 0.5 0 0 0 1 0 a 0.5 0.5 0 0 0 -1 0 z M 103.733 84.089 m -0.5 0 a 0.5 0.5 0 0 0 1 0 a 0.5 0.5 0 0 0 -1 0 z M 133.5 7.625 m -0.5 0 a 0.5 0.5 0 0 0 1 0 a 0.5 0.5 0 0 0 -1 0 z M 114.5 6.625 m -0.5 0 a 0.5 0.5 0 0 0 1 0 a 0.5 0.5 0 0 0 -1 0 z M 113.5 5.25 m -0.5 0 a 0.5 0.5 0 0 0 1 0 a 0.5 0.5 0 0 0 -1 0 z M 95.5 4.25 m -0.5 0 a 0.5 0.5 0 0 0 1 0 a 0.5 0.5 0 0 0 -1 0 z M 94.5 2.875 m -0.5 0 a 0.5 0.5 0 0 0 1 0 a 0.5 0.5 0 0 0 -1 0 z M 76.5 1.875 m -0.5 0 a 0.5 0.5 0 0 0 1 0 a 0.5 0.5 0 0 0 -1 0 z M 75.5 0.5 m -0.5 0 a 0.5 0.5 0 0 0 1 0 a 0.5 0.5 0 0 0 -1 0 z M 57.5 0.5 m -0.5 0 a 0.5 0.5 0 0 0 1 0 a 0.5 0.5 0 0 0 -1 0 z M 56.5 1.875 m -0.5 0 a 0.5 0.5 0 0 0 1 0 a 0.5 0.5 0 0 0 -1 0 z M 38.5 2.875 m -0.5 0 a 0.5 0.5 0 0 0 1 0 a 0.5 0.5 0 0 0 -1 0 z M 37.5 6.625 m -0.5 0 a 0.5 0.5 0 0 0 1 0 a 0.5 0.5 0 0 0 -1 0 z M 0.5 7.625 m -0.5 0 a 0.5 0.5 0 0 0 1 0 a 0.5 0.5 0 0 0 -1 0 z M 0.5 63.625 m -0.5 0 a 0.5 0.5 0 0 0 1 0 a 0.5 0.5 0 0 0 -1 0 z M 119.755 92.185 m -0.5 0 a 0.5 0.5 0 0 0 1 0 a 0.5 0.5 0 0 0 -1 0 z M 0.5 64.125 56.726 64.125 M 0 63.625 0 7.625 M 0.5 7.125 37.5 7.125 M 38.5 2.375 56.5 2.375 M 38 6.625 38 2.875 M 76 1.875 76 0.5 M 57.5 0 75.5 0 M 57 1.875 57 0.5 M 95 4.25 95 2.875 M 76.5 2.375 94.5 2.375 M 95.5 4.75 113.5 4.75 M 103.983 83.656 119.505 92.618 M 57.147 64.356 66.373 78.802 M 66.734 79.029 103.794 83.593 M 134 67.211 A 0.5 0.5 0 0 1 133.25 67.644" vector-effect="non-scaling-stroke"/></g></svg>