<svg width="146.127mm" height="102.901mm" viewBox="0 0 146.127 102.901" xmlns="http://www.w3.org/2000/svg"><g id="svgGroup" stroke-linecap="round" fill-rule="evenodd" font-size="9pt" stroke="#000" stroke-width="0.25mm" fill="none" style="stroke:#000;stroke-width:0.25mm;fill:none"><path d="M 97 62.635 L 102.083 62.635 A 2 2 0 0 1 104.083 64.635 L 104.083 66.349 L 92.068 63.13 A 2 2 0 0 0 89.618 64.544 L 85.995 78.067 A 2 2 0 0 0 87.409 80.517 L 93.555 82.163 A 2 2 0 0 1 95.037 84.095 L 95.037 91.845 A 2 2 0 0 0 97.037 93.845 L 108.724 93.845 A 2 2 0 0 1 110.724 95.845 L 110.724 100.901 A 2 2 0 0 0 112.724 102.901 L 126.724 102.901 A 2 2 0 0 0 128.724 100.901 L 128.724 86.901 A 2 2 0 0 0 126.724 84.901 L 124.808 84.901 L 127.935 79.485 A 2 2 0 0 1 130.667 78.753 L 136.812 82.301 L 146.127 66.167 L 130.539 57.167 L 124.33 67.921 A 2 2 0 0 1 121.598 68.653 L 119.096 67.208 L 122.083 67.208 L 122.083 67.076 L 123.113 67.076 L 123.113 51.076 A 2 2 0 0 0 121.113 49.076 L 115 49.076 A 2 2 0 0 1 113 47.076 L 113 46.635 A 2 2 0 0 0 111 44.635 L 97 44.635 A 2 2 0 0 0 95 46.635 L 95 60.635 A 2 2 0 0 0 97 62.635 Z M 40 60.26 L 44.83 60.26 A 2 2 0 0 1 46.83 62.26 L 46.83 72.25 A 2 2 0 0 0 48.83 74.25 L 55.56 74.25 A 2 2 0 0 1 57.56 76.25 L 57.56 86.96 A 2 2 0 0 0 59.56 88.96 L 73.56 88.96 A 2 2 0 0 0 75.56 86.96 L 75.56 81.885 A 2 2 0 0 1 77.56 79.885 L 82.5 79.885 A 2 2 0 0 0 84.5 77.885 L 84.5 63.885 A 2 2 0 0 0 82.5 61.885 L 68.5 61.885 A 2 2 0 0 0 66.5 63.885 L 66.5 70.96 L 64.83 70.96 L 64.83 59.885 A 2 2 0 0 1 66.83 57.885 L 73 57.885 A 2 2 0 0 0 75 55.885 L 75 41.885 A 2 2 0 0 0 73 39.885 L 59 39.885 A 2 2 0 0 0 57 41.885 L 57 56.25 L 56 56.25 L 56 44.26 A 2 2 0 0 0 54 42.26 L 40 42.26 A 2 2 0 0 0 38 44.26 L 38 58.26 A 2 2 0 0 0 40 60.26 Z M 97 24.635 L 111 24.635 A 2 2 0 0 0 113 22.635 L 113 20 A 2 2 0 0 1 115 18 L 123.113 18 L 123.113 0 L 104.083 0 L 104.083 4.635 A 2 2 0 0 1 102.083 6.635 L 97 6.635 A 2 2 0 0 0 95 8.635 L 95 22.635 A 2 2 0 0 0 97 24.635 Z M 133.268 70.44 A 0.5 0.5 0 0 0 133.085 69.757 L 113.333 58.353 A 0.5 0.5 0 0 1 113.083 57.92 L 113.083 9 L 113.082 7.248 M 114.613 9 A 0.5 0.5 0 0 0 114.113 9.5 L 114.113 57.787 A 0.5 0.5 0 0 0 114.363 58.22 L 133.083 69.028 A 0.5 0.5 0 0 0 133.833 68.595 M 2 65.01 L 16 65.01 A 2 2 0 0 0 18 63.01 L 18 49.01 A 2 2 0 0 0 16 47.01 L 2 47.01 A 2 2 0 0 0 0 49.01 L 0 63.01 A 2 2 0 0 0 2 65.01 Z M 2 46.01 L 16 46.01 A 2 2 0 0 0 18 44.01 L 18 30.01 A 2 2 0 0 0 16 28.01 L 2 28.01 A 2 2 0 0 0 0 30.01 L 0 44.01 A 2 2 0 0 0 2 46.01 Z M 2 27.01 L 16 27.01 A 2 2 0 0 0 18 25.01 L 18 11.01 A 2 2 0 0 0 16 9.01 L 2 9.01 A 2 2 0 0 0 0 11.01 L 0 25.01 A 2 2 0 0 0 2 27.01 Z M 21 65.01 L 35 65.01 A 2 2 0 0 0 37 63.01 L 37 49.01 A 2 2 0 0 0 35 47.01 L 21 47.01 A 2 2 0 0 0 19 49.01 L 19 63.01 A 2 2 0 0 0 21 65.01 Z M 21 46.01 L 35 46.01 A 2 2 0 0 0 37 44.01 L 37 30.01 A 2 2 0 0 0 35 28.01 L 21 28.01 A 2 2 0 0 0 19 30.01 L 19 44.01 A 2 2 0 0 0 21 46.01 Z M 21 27.01 L 35 27.01 A 2 2 0 0 0 37 25.01 L 37 11.01 A 2 2 0 0 0 35 9.01 L 21 9.01 A 2 2 0 0 0 19 11.01 L 19 25.01 A 2 2 0 0 0 21 27.01 Z M 40 41.26 L 54 41.26 A 2 2 0 0 0 56 39.26 L 56 25.26 A 2 2 0 0 0 54 23.26 L 40 23.26 A 2 2 0 0 0 38 25.26 L 38 39.26 A 2 2 0 0 0 40 41.26 Z M 40 22.26 L 54 22.26 A 2 2 0 0 0 56 20.26 L 56 6.26 A 2 2 0 0 0 54 4.26 L 40 4.26 A 2 2 0 0 0 38 6.26 L 38 20.26 A 2 2 0 0 0 40 22.26 Z M 59 38.885 L 73 38.885 A 2 2 0 0 0 75 36.885 L 75 22.885 A 2 2 0 0 0 73 20.885 L 59 20.885 A 2 2 0 0 0 57 22.885 L 57 36.885 A 2 2 0 0 0 59 38.885 Z M 59 19.885 L 73 19.885 A 2 2 0 0 0 75 17.885 L 75 3.885 A 2 2 0 0 0 73 1.885 L 59 1.885 A 2 2 0 0 0 57 3.885 L 57 17.885 A 2 2 0 0 0 59 19.885 Z M 78 60.26 L 92 60.26 A 2 2 0 0 0 94 58.26 L 94 44.26 A 2 2 0 0 0 92 42.26 L 78 42.26 A 2 2 0 0 0 76 44.26 L 76 58.26 A 2 2 0 0 0 78 60.26 Z M 78 41.26 L 92 41.26 A 2 2 0 0 0 94 39.26 L 94 25.26 A 2 2 0 0 0 92 23.26 L 78 23.26 A 2 2 0 0 0 76 25.26 L 76 39.26 A 2 2 0 0 0 78 41.26 Z M 78 22.26 L 92 22.26 A 2 2 0 0 0 94 20.26 L 94 6.26 A 2 2 0 0 0 92 4.26 L 78 4.26 A 2 2 0 0 0 76 6.26 L 76 20.26 A 2 2 0 0 0 78 22.26 Z M 97 43.635 L 111 43.635 A 2 2 0 0 0 113 41.635 L 113 27.635 A 2 2 0 0 0 111 25.635 L 97 25.635 A 2 2 0 0 0 95 27.635 L 95 41.635 A 2 2 0 0 0 97 43.635 Z M 126.833 18 L 140.833 18 A 2 2 0 0 0 142.833 16 L 142.833 2 A 2 2 0 0 0 140.833 0 L 126.833 0 A 2 2 0 0 0 124.833 2 L 124.833 16 A 2 2 0 0 0 126.833 18 Z M 87.927 78.585 L 101.45 82.208 L 105.073 68.685 L 91.55 65.062 L 87.927 78.585 Z M 2 63.01 L 16 63.01 L 16 49.01 L 2 49.01 L 2 63.01 Z M 2 44.01 L 16 44.01 L 16 30.01 L 2 30.01 L 2 44.01 Z M 2 25.01 L 16 25.01 L 16 11.01 L 2 11.01 L 2 25.01 Z M 21 63.01 L 35 63.01 L 35 49.01 L 21 49.01 L 21 63.01 Z M 21 44.01 L 35 44.01 L 35 30.01 L 21 30.01 L 21 44.01 Z M 21 25.01 L 35 25.01 L 35 11.01 L 21 11.01 L 21 25.01 Z M 40 58.26 L 54 58.26 L 54 44.26 L 40 44.26 L 40 58.26 Z M 40 39.26 L 54 39.26 L 54 25.26 L 40 25.26 L 40 39.26 Z M 40 20.26 L 54 20.26 L 54 6.26 L 40 6.26 L 40 20.26 Z M 59 55.885 L 73 55.885 L 73 41.885 L 59 41.885 L 59 55.885 Z M 59 36.885 L 73 36.885 L 73 22.885 L 59 22.885 L 59 36.885 Z M 59 17.885 L 73 17.885 L 73 3.885 L 59 3.885 L 59 17.885 Z M 78 58.26 L 92 58.26 L 92 44.26 L 78 44.26 L 78 58.26 Z M 78 39.26 L 92 39.26 L 92 25.26 L 78 25.26 L 78 39.26 Z M 78 20.26 L 92 20.26 L 92 6.26 L 78 6.26 L 78 20.26 Z M 97 60.635 L 111 60.635 L 111 46.635 L 97 46.635 L 97 60.635 Z M 97 41.635 L 111 41.635 L 111 27.635 L 97 27.635 L 97 41.635 Z M 97 22.635 L 111 22.635 L 111 8.635 L 97 8.635 L 97 22.635 Z M 68.5 77.885 L 82.5 77.885 L 82.5 63.885 L 68.5 63.885 L 68.5 77.885 Z M 121.309 86.961 L 128.309 74.837 L 116.185 67.837 L 109.185 79.961 L 121.309 86.961 Z M 133.766 69.577 L 133.518 70.007 L 119.974 93.468 M 105.9 73.327 L 107.523 67.271 L 107.289 67.208 L 110.774 67.208 A 2 2 0 0 1 112.506 70.208 L 109.829 74.845 A 2 2 0 0 1 108.097 75.845 L 107.832 75.845 A 2 2 0 0 1 105.9 73.327 Z M 18.5 27.51 m -2.05 0 a 2.05 2.05 0 0 1 4.1 0 a 2.05 2.05 0 0 1 -4.1 0 z M 18.5 46.51 m -2.05 0 a 2.05 2.05 0 0 1 4.1 0 a 2.05 2.05 0 0 1 -4.1 0 z M 94.468 23.996 m -2.05 0 a 2.05 2.05 0 0 1 4.1 0 a 2.05 2.05 0 0 1 -4.1 0 z M 61.657 63.75 m -2.05 0 a 2.05 2.05 0 0 1 4.1 0 a 2.05 2.05 0 0 1 -4.1 0 z M 108.241 71.334 m -2.05 0 a 2.05 2.05 0 0 1 4.1 0 a 2.05 2.05 0 0 1 -4.1 0 z M 18.5 27.51 m -1.1 0 a 1.1 1.1 0 0 1 2.2 0 a 1.1 1.1 0 0 1 -2.2 0 z M 18.5 46.51 m -1.1 0 a 1.1 1.1 0 0 1 2.2 0 a 1.1 1.1 0 0 1 -2.2 0 z M 94.468 23.996 m -1.1 0 a 1.1 1.1 0 0 1 2.2 0 a 1.1 1.1 0 0 1 -2.2 0 z M 61.657 63.75 m -1.1 0 a 1.1 1.1 0 0 1 2.2 0 a 1.1 1.1 0 0 1 -2.2 0 z M 108.241 71.334 m -1.1 0 a 1.1 1.1 0 0 1 2.2 0 a 1.1 1.1 0 0 1 -2.2 0 z M 116.762 56.486 m -1.1 0 a 1.1 1.1 0 0 1 2.2 0 a 1.1 1.1 0 0 1 -2.2 0 z M 131.194 65.005 m -1.1 0 a 1.1 1.1 0 0 1 2.2 0 a 1.1 1.1 0 0 1 -2.2 0 z M 113.583 8.5 m -0.5 0 a 0.5 0.5 0 0 0 1 0 a 0.5 0.5 0 0 0 -1 0 z M 0.58 9.5 m -0.5 0 a 0.5 0.5 0 0 0 1 0 a 0.5 0.5 0 0 0 -1 0 z M 38.58 4.75 m -0.5 0 a 0.5 0.5 0 0 0 1 0 a 0.5 0.5 0 0 0 -1 0 z M 56.58 3.75 m -0.5 0 a 0.5 0.5 0 0 0 1 0 a 0.5 0.5 0 0 0 -1 0 z M 57.58 2.498 m -0.5 0 a 0.5 0.5 0 0 0 1 0 a 0.5 0.5 0 0 0 -1 0 z M 74.582 2.498 m -0.5 0 a 0.5 0.5 0 0 0 1 0 a 0.5 0.5 0 0 0 -1 0 z M 75.582 3.75 m -0.5 0 a 0.5 0.5 0 0 0 1 0 a 0.5 0.5 0 0 0 -1 0 z M 93.581 4.75 m -0.5 0 a 0.5 0.5 0 0 0 1 0 a 0.5 0.5 0 0 0 -1 0 z M 94.581 6.248 m -0.5 0 a 0.5 0.5 0 0 0 1 0 a 0.5 0.5 0 0 0 -1 0 z M 112.582 7.248 m -0.5 0 a 0.5 0.5 0 0 0 1 0 a 0.5 0.5 0 0 0 -1 0 z M 133.333 9.5 m -0.5 0 a 0.5 0.5 0 0 0 1 0 a 0.5 0.5 0 0 0 -1 0 z M 119.541 93.218 m -0.5 0 a 0.5 0.5 0 0 0 1 0 a 0.5 0.5 0 0 0 -1 0 z M 103.874 85.328 m -0.5 0 a 0.5 0.5 0 0 0 1 0 a 0.5 0.5 0 0 0 -1 0 z M 66.837 79.492 m -0.5 0 a 0.5 0.5 0 0 0 1 0 a 0.5 0.5 0 0 0 -1 0 z M 55.576 65.75 m -0.5 0 a 0.5 0.5 0 0 0 1 0 a 0.5 0.5 0 0 0 -1 0 z M 0.582 64.75 m -0.5 0 a 0.5 0.5 0 0 0 1 0 a 0.5 0.5 0 0 0 -1 0 z M 37.58 8.499 m -0.5 0 a 0.5 0.5 0 0 0 1 0 a 0.5 0.5 0 0 0 -1 0 z M 133.333 69.327 m -0.5 0 a 0.5 0.5 0 0 0 1 0 a 0.5 0.5 0 0 0 -1 0 z M 113.037 84.495 L 113.741 84.901 L 113.037 84.901 L 113.037 84.495 Z M 0.08 9.5 0.082 64.75 M 0.58 9 37.58 8.999 M 38.08 8.499 38.08 4.75 M 38.58 4.25 56.58 4.25 M 57.08 3.75 57.08 2.498 M 57.58 1.998 74.582 1.998 M 75.082 3.75 75.082 2.498 M 75.582 4.25 93.581 4.25 M 94.081 6.248 94.081 4.75 M 94.581 6.748 112.582 6.748 M 104.124 84.895 119.291 93.651 M 66.773 79.988 103.938 84.832 M 55.98 65.455 66.434 79.787 M 0.582 65.25 55.576 65.25 M 113.583 9 133.333 9 M 133.833 69.327 133.833 9.5" vector-effect="non-scaling-stroke"/></g></svg>