0
SECTION
2
HEADER
9
$INSUNITS
70
4
0
ENDSEC
0
SECTION
2
TABLES
0
TABLE
2
LTYPE
0
LTYPE
72
65
70
64
2
CONTINUOUS
3
______
73
0
40
0
0
ENDTAB
0
TABLE
2
LAYER
0
ENDTAB
0
ENDSEC
0
SECTION
2
ENTITIES
0
LINE
8
0
10
91
20
-109.5
11
147.2260569
21
-109.5
0
LINE
8
0
10
90.5
20
-109
11
90.5
21
-53
0
LINE
8
0
10
91
20
-52.5
11
128
21
-52.5
0
LINE
8
0
10
129
20
-47.75
11
147
21
-47.75
0
LINE
8
0
10
128.5
20
-52
11
128.5
21
-48.25
0
LINE
8
0
10
166.5
20
-47.25
11
166.5
21
-45.875
0
LINE
8
0
10
148
20
-45.375
11
166
21
-45.375
0
LINE
8
0
10
147.5
20
-47.25
11
147.5
21
-45.875
0
LINE
8
0
10
185.5
20
-49.625
11
185.5
21
-48.25
0
LINE
8
0
10
167
20
-47.75
11
185
21
-47.75
0
LINE
8
0
10
204.5
20
-101.616755
11
204.5
21
-50.625
0
LINE
8
0
10
186
20
-50.125
11
204
21
-50.125
0
LINE
8
0
10
210.6876851
20
-137.8095069
11
224.6876851
21
-113.5607956
0
LINE
8
0
10
224.5
20
-113.4524356
11
224.6876851
21
-113.5607956
0
LINE
8
0
10
194.4825815
20
-129.0308362
11
210.0046724
21
-137.9925196
0
LINE
8
0
10
147.6474497
20
-109.7308752
11
156.8733165
21
-124.1766403
0
LINE
8
0
10
157.2335975
20
-124.4037668
11
194.2936932
21
-128.9675976
0
LINE
8
0
10
224.5
20
-113.4524356
11
224.5
21
-53
0
LINE
8
0
10
205
20
-52.5
11
224
21
-52.5
0
ARC
8
0
10
147.2260569
20
-110
40
0.5
50
32.5645603
51
392.5645603
0
ARC
8
0
10
157.2947093
20
-123.9075155
40
0.5
50
212.5645603
51
572.5645603
0
ARC
8
0
10
194.2325815
20
-129.4638489
40
0.5
50
59.9999999
51
419.9999999
0
ARC
8
0
10
210.2546724
20
-137.5595069
40
0.5
50
239.9999999
51
599.9999999
0
ARC
8
0
10
224
20
-53
40
0.5
50
0
51
360
0
ARC
8
0
10
205
20
-52
40
0.5
50
180
51
540
0
ARC
8
0
10
204
20
-50.625
40
0.5
50
0
51
360
0
ARC
8
0
10
186
20
-49.625
40
0.5
50
180
51
540
0
ARC
8
0
10
185
20
-48.25
40
0.5
50
0
51
360
0
ARC
8
0
10
167
20
-47.25
40
0.5
50
180
51
540
0
ARC
8
0
10
166
20
-45.875
40
0.5
50
0
51
360
0
ARC
8
0
10
148
20
-45.875
40
0.5
50
90
51
450
0
ARC
8
0
10
147
20
-47.25
40
0.5
50
270
51
630
0
ARC
8
0
10
129
20
-48.25
40
0.5
50
90
51
450
0
ARC
8
0
10
128
20
-52
40
0.5
50
270
51
630
0
ARC
8
0
10
91
20
-53
40
0.5
50
90
51
450
0
ARC
8
0
10
91
20
-109
40
0.5
50
180
51
540
0
CIRCLE
8
0
10
109.5
20
-71.5
40
1.1
0
CIRCLE
8
0
10
109.5
20
-90.5
40
1.1
0
CIRCLE
8
0
10
185.5
20
-67.725
40
1.1
0
CIRCLE
8
0
10
153
20
-107.775
40
1.1
0
CIRCLE
8
0
10
199.7875137
20
-115.6391576
40
1.1
0
CIRCLE
8
0
10
109.5
20
-71.5
40
2.05
0
CIRCLE
8
0
10
109.5
20
-90.5
40
2.05
0
CIRCLE
8
0
10
185.5
20
-67.725
40
2.05
0
CIRCLE
8
0
10
153
20
-107.775
40
2.05
0
CIRCLE
8
0
10
199.7875137
20
-115.6391576
40
2.05
0
CIRCLE
8
0
10
207.6013921
20
-100.4051232
40
1.1
0
CIRCLE
8
0
10
222.4104265
20
-108.9551232
40
1.1
0
LINE
8
0
10
98.2
20
-106.3
11
101.8
21
-106.3
0
LINE
8
0
10
101.8
20
-106.3
11
101.8
21
-103.2
0
LINE
8
0
10
101.8
20
-103.2
11
98.2
21
-103.2
0
LINE
8
0
10
98.2
20
-103.2
11
98.2
21
-106.3
0
LINE
8
0
10
98.2
20
-87.3
11
101.8
21
-87.3
0
LINE
8
0
10
101.8
20
-87.3
11
101.8
21
-84.2
0
LINE
8
0
10
101.8
20
-84.2
11
98.2
21
-84.2
0
LINE
8
0
10
98.2
20
-84.2
11
98.2
21
-87.3
0
LINE
8
0
10
98.2
20
-68.3
11
101.8
21
-68.3
0
LINE
8
0
10
101.8
20
-68.3
11
101.8
21
-65.2
0
LINE
8
0
10
101.8
20
-65.2
11
98.2
21
-65.2
0
LINE
8
0
10
98.2
20
-65.2
11
98.2
21
-68.3
0
LINE
8
0
10
117.2
20
-106.3
11
120.8
21
-106.3
0
LINE
8
0
10
120.8
20
-106.3
11
120.8
21
-103.2
0
LINE
8
0
10
120.8
20
-103.2
11
117.2
21
-103.2
0
LINE
8
0
10
117.2
20
-103.2
11
117.2
21
-106.3
0
LINE
8
0
10
117.2
20
-87.3
11
120.8
21
-87.3
0
LINE
8
0
10
120.8
20
-87.3
11
120.8
21
-84.2
0
LINE
8
0
10
120.8
20
-84.2
11
117.2
21
-84.2
0
LINE
8
0
10
117.2
20
-84.2
11
117.2
21
-87.3
0
LINE
8
0
10
117.2
20
-68.3
11
120.8
21
-68.3
0
LINE
8
0
10
120.8
20
-68.3
11
120.8
21
-65.2
0
LINE
8
0
10
120.8
20
-65.2
11
117.2
21
-65.2
0
LINE
8
0
10
117.2
20
-65.2
11
117.2
21
-68.3
0
LINE
8
0
10
136.2
20
-101.55
11
139.8
21
-101.55
0
LINE
8
0
10
139.8
20
-101.55
11
139.8
21
-98.45
0
LINE
8
0
10
139.8
20
-98.45
11
136.2
21
-98.45
0
LINE
8
0
10
136.2
20
-98.45
11
136.2
21
-101.55
0
LINE
8
0
10
136.2
20
-82.55
11
139.8
21
-82.55
0
LINE
8
0
10
139.8
20
-82.55
11
139.8
21
-79.45
0
LINE
8
0
10
139.8
20
-79.45
11
136.2
21
-79.45
0
LINE
8
0
10
136.2
20
-79.45
11
136.2
21
-82.55
0
LINE
8
0
10
136.2
20
-63.55
11
139.8
21
-63.55
0
LINE
8
0
10
139.8
20
-63.55
11
139.8
21
-60.45
0
LINE
8
0
10
139.8
20
-60.45
11
136.2
21
-60.45
0
LINE
8
0
10
136.2
20
-60.45
11
136.2
21
-63.55
0
LINE
8
0
10
155.2
20
-99.175
11
158.8
21
-99.175
0
LINE
8
0
10
158.8
20
-99.175
11
158.8
21
-96.075
0
LINE
8
0
10
158.8
20
-96.075
11
155.2
21
-96.075
0
LINE
8
0
10
155.2
20
-96.075
11
155.2
21
-99.175
0
LINE
8
0
10
155.2
20
-80.175
11
158.8
21
-80.175
0
LINE
8
0
10
158.8
20
-80.175
11
158.8
21
-77.075
0
LINE
8
0
10
158.8
20
-77.075
11
155.2
21
-77.075
0
LINE
8
0
10
155.2
20
-77.075
11
155.2
21
-80.175
0
LINE
8
0
10
155.2
20
-61.175
11
158.8
21
-61.175
0
LINE
8
0
10
158.8
20
-61.175
11
158.8
21
-58.075
0
LINE
8
0
10
158.8
20
-58.075
11
155.2
21
-58.075
0
LINE
8
0
10
155.2
20
-58.075
11
155.2
21
-61.175
0
LINE
8
0
10
174.2
20
-101.55
11
177.8
21
-101.55
0
LINE
8
0
10
177.8
20
-101.55
11
177.8
21
-98.45
0
LINE
8
0
10
177.8
20
-98.45
11
174.2
21
-98.45
0
LINE
8
0
10
174.2
20
-98.45
11
174.2
21
-101.55
0
LINE
8
0
10
174.2
20
-82.55
11
177.8
21
-82.55
0
LINE
8
0
10
177.8
20
-82.55
11
177.8
21
-79.45
0
LINE
8
0
10
177.8
20
-79.45
11
174.2
21
-79.45
0
LINE
8
0
10
174.2
20
-79.45
11
174.2
21
-82.55
0
LINE
8
0
10
174.2
20
-63.55
11
177.8
21
-63.55
0
LINE
8
0
10
177.8
20
-63.55
11
177.8
21
-60.45
0
LINE
8
0
10
177.8
20
-60.45
11
174.2
21
-60.45
0
LINE
8
0
10
174.2
20
-60.45
11
174.2
21
-63.55
0
LINE
8
0
10
193.2
20
-103.925
11
196.8
21
-103.925
0
LINE
8
0
10
196.8
20
-103.925
11
196.8
21
-100.825
0
LINE
8
0
10
196.8
20
-100.825
11
193.2
21
-100.825
0
LINE
8
0
10
193.2
20
-100.825
11
193.2
21
-103.925
0
LINE
8
0
10
193.2
20
-84.925
11
196.8
21
-84.925
0
LINE
8
0
10
196.8
20
-84.925
11
196.8
21
-81.825
0
LINE
8
0
10
196.8
20
-81.825
11
193.2
21
-81.825
0
LINE
8
0
10
193.2
20
-81.825
11
193.2
21
-84.925
0
LINE
8
0
10
193.2
20
-65.925
11
196.8
21
-65.925
0
LINE
8
0
10
196.8
20
-65.925
11
196.8
21
-62.825
0
LINE
8
0
10
196.8
20
-62.825
11
193.2
21
-62.825
0
LINE
8
0
10
193.2
20
-62.825
11
193.2
21
-65.925
0
LINE
8
0
10
164.7
20
-121.175
11
168.3
21
-121.175
0
LINE
8
0
10
168.3
20
-121.175
11
168.3
21
-118.075
0
LINE
8
0
10
168.3
20
-118.075
11
164.7
21
-118.075
0
LINE
8
0
10
164.7
20
-118.075
11
164.7
21
-121.175
0
LINE
8
0
10
184.1307735
20
-123.2444584
11
187.6081065
21
-124.176207
0
LINE
8
0
10
187.6081065
20
-124.176207
11
188.4104455
21
-121.181837
0
LINE
8
0
10
188.4104455
20
-121.181837
11
184.9331125
21
-120.2500884
0
LINE
8
0
10
184.9331125
20
-120.2500884
11
184.1307735
21
-123.2444584
0
LINE
8
0
10
214.3027659
20
-126.0980033
11
216.1027659
21
-122.9803119
0
LINE
8
0
10
216.1027659
20
-122.9803119
11
213.4180871
21
-121.4303119
0
LINE
8
0
10
213.4180871
20
-121.4303119
11
211.6180871
21
-124.5480033
0
LINE
8
0
10
211.6180871
20
-124.5480033
11
214.3027659
21
-126.0980033
0
LINE
8
0
10
204.75
20
-102.0497677
11
224.2546724
21
-113.3107956
0
ARC
8
0
10
224.0046724
20
-113.7438083
40
0.5
50
329.9999999
51
59.9999999
0
ARC
8
0
10
205
20
-101.616755
40
0.5
50
180
51
239.9999999
0
LINE
8
0
10
93
20
-107
11
107
21
-107
0
LINE
8
0
10
107
20
-107
11
107
21
-93
0
LINE
8
0
10
107
20
-93
11
93
21
-93
0
LINE
8
0
10
93
20
-93
11
93
21
-107
0
LINE
8
0
10
93
20
-88
11
107
21
-88
0
LINE
8
0
10
107
20
-88
11
107
21
-74
0
LINE
8
0
10
107
20
-74
11
93
21
-74
0
LINE
8
0
10
93
20
-74
11
93
21
-88
0
LINE
8
0
10
93
20
-69
11
107
21
-69
0
LINE
8
0
10
107
20
-69
11
107
21
-55
0
LINE
8
0
10
107
20
-55
11
93
21
-55
0
LINE
8
0
10
93
20
-55
11
93
21
-69
0
LINE
8
0
10
112
20
-107
11
126
21
-107
0
LINE
8
0
10
126
20
-107
11
126
21
-93
0
LINE
8
0
10
126
20
-93
11
112
21
-93
0
LINE
8
0
10
112
20
-93
11
112
21
-107
0
LINE
8
0
10
112
20
-88
11
126
21
-88
0
LINE
8
0
10
126
20
-88
11
126
21
-74
0
LINE
8
0
10
126
20
-74
11
112
21
-74
0
LINE
8
0
10
112
20
-74
11
112
21
-88
0
LINE
8
0
10
112
20
-69
11
126
21
-69
0
LINE
8
0
10
126
20
-69
11
126
21
-55
0
LINE
8
0
10
126
20
-55
11
112
21
-55
0
LINE
8
0
10
112
20
-55
11
112
21
-69
0
LINE
8
0
10
131
20
-102.25
11
145
21
-102.25
0
LINE
8
0
10
145
20
-102.25
11
145
21
-88.25
0
LINE
8
0
10
145
20
-88.25
11
131
21
-88.25
0
LINE
8
0
10
131
20
-88.25
11
131
21
-102.25
0
LINE
8
0
10
131
20
-83.25
11
145
21
-83.25
0
LINE
8
0
10
145
20
-83.25
11
145
21
-69.25
0
LINE
8
0
10
145
20
-69.25
11
131
21
-69.25
0
LINE
8
0
10
131
20
-69.25
11
131
21
-83.25
0
LINE
8
0
10
131
20
-64.25
11
145
21
-64.25
0
LINE
8
0
10
145
20
-64.25
11
145
21
-50.25
0
LINE
8
0
10
145
20
-50.25
11
131
21
-50.25
0
LINE
8
0
10
131
20
-50.25
11
131
21
-64.25
0
LINE
8
0
10
150
20
-99.875
11
164
21
-99.875
0
LINE
8
0
10
164
20
-99.875
11
164
21
-85.875
0
LINE
8
0
10
164
20
-85.875
11
150
21
-85.875
0
LINE
8
0
10
150
20
-85.875
11
150
21
-99.875
0
LINE
8
0
10
150
20
-80.875
11
164
21
-80.875
0
LINE
8
0
10
164
20
-80.875
11
164
21
-66.875
0
LINE
8
0
10
164
20
-66.875
11
150
21
-66.875
0
LINE
8
0
10
150
20
-66.875
11
150
21
-80.875
0
LINE
8
0
10
150
20
-61.875
11
164
21
-61.875
0
LINE
8
0
10
164
20
-61.875
11
164
21
-47.875
0
LINE
8
0
10
164
20
-47.875
11
150
21
-47.875
0
LINE
8
0
10
150
20
-47.875
11
150
21
-61.875
0
LINE
8
0
10
169
20
-102.25
11
183
21
-102.25
0
LINE
8
0
10
183
20
-102.25
11
183
21
-88.25
0
LINE
8
0
10
183
20
-88.25
11
169
21
-88.25
0
LINE
8
0
10
169
20
-88.25
11
169
21
-102.25
0
LINE
8
0
10
169
20
-83.25
11
183
21
-83.25
0
LINE
8
0
10
183
20
-83.25
11
183
21
-69.25
0
LINE
8
0
10
183
20
-69.25
11
169
21
-69.25
0
LINE
8
0
10
169
20
-69.25
11
169
21
-83.25
0
LINE
8
0
10
169
20
-64.25
11
183
21
-64.25
0
LINE
8
0
10
183
20
-64.25
11
183
21
-50.25
0
LINE
8
0
10
183
20
-50.25
11
169
21
-50.25
0
LINE
8
0
10
169
20
-50.25
11
169
21
-64.25
0
LINE
8
0
10
188
20
-104.625
11
202
21
-104.625
0
LINE
8
0
10
202
20
-104.625
11
202
21
-90.625
0
LINE
8
0
10
202
20
-90.625
11
188
21
-90.625
0
LINE
8
0
10
188
20
-90.625
11
188
21
-104.625
0
LINE
8
0
10
188
20
-85.625
11
202
21
-85.625
0
LINE
8
0
10
202
20
-85.625
11
202
21
-71.625
0
LINE
8
0
10
202
20
-71.625
11
188
21
-71.625
0
LINE
8
0
10
188
20
-71.625
11
188
21
-85.625
0
LINE
8
0
10
188
20
-66.625
11
202
21
-66.625
0
LINE
8
0
10
202
20
-66.625
11
202
21
-52.625
0
LINE
8
0
10
202
20
-52.625
11
188
21
-52.625
0
LINE
8
0
10
188
20
-52.625
11
188
21
-66.625
0
LINE
8
0
10
159.5
20
-121.875
11
173.5
21
-121.875
0
LINE
8
0
10
173.5
20
-121.875
11
173.5
21
-107.875
0
LINE
8
0
10
173.5
20
-107.875
11
159.5
21
-107.875
0
LINE
8
0
10
159.5
20
-107.875
11
159.5
21
-121.875
0
LINE
8
0
10
178.9267859
20
-122.5747475
11
192.4497475
21
-126.1982141
0
LINE
8
0
10
192.4497475
20
-126.1982141
11
196.0732141
21
-112.6752525
0
LINE
8
0
10
196.0732141
20
-112.6752525
11
182.5502525
21
-109.0517859
0
LINE
8
0
10
182.5502525
20
-109.0517859
11
178.9267859
21
-122.5747475
0
LINE
8
0
10
212.3089836
20
-130.9513354
11
219.3089836
21
-118.8269798
0
LINE
8
0
10
219.3089836
20
-118.8269798
11
207.184628
21
-111.8269798
0
LINE
8
0
10
207.184628
20
-111.8269798
11
200.184628
21
-123.9513354
0
LINE
8
0
10
200.184628
20
-123.9513354
11
212.3089836
21
-130.9513354
0
ARC
8
0
10
205
20
-53
40
0.5
50
90
51
180
0
ARC
8
0
10
224
20
-112.5864102
40
0.5
50
239.9999999
51
0
0
LINE
8
0
10
93
20
-109
11
107
21
-109
0
LINE
8
0
10
109
20
-107
11
109
21
-93
0
LINE
8
0
10
107
20
-91
11
93
21
-91
0
LINE
8
0
10
91
20
-93
11
91
21
-107
0
LINE
8
0
10
93
20
-90
11
107
21
-90
0
LINE
8
0
10
109
20
-88
11
109
21
-74
0
LINE
8
0
10
107
20
-72
11
93
21
-72
0
LINE
8
0
10
91
20
-74
11
91
21
-88
0
LINE
8
0
10
93
20
-71
11
107
21
-71
0
LINE
8
0
10
109
20
-69
11
109
21
-55
0
LINE
8
0
10
107
20
-53
11
93
21
-53
0
LINE
8
0
10
91
20
-55
11
91
21
-69
0
LINE
8
0
10
112
20
-109
11
126
21
-109
0
LINE
8
0
10
128
20
-107
11
128
21
-93
0
LINE
8
0
10
126
20
-91
11
112
21
-91
0
LINE
8
0
10
110
20
-93
11
110
21
-107
0
LINE
8
0
10
112
20
-90
11
126
21
-90
0
LINE
8
0
10
128
20
-88
11
128
21
-74
0
LINE
8
0
10
126
20
-72
11
112
21
-72
0
LINE
8
0
10
110
20
-74
11
110
21
-88
0
LINE
8
0
10
112
20
-71
11
126
21
-71
0
LINE
8
0
10
128
20
-69
11
128
21
-55
0
LINE
8
0
10
126
20
-53
11
112
21
-53
0
LINE
8
0
10
110
20
-55
11
110
21
-69
0
LINE
8
0
10
131
20
-104.25
11
145
21
-104.25
0
LINE
8
0
10
147
20
-102.25
11
147
21
-88.25
0
LINE
8
0
10
145
20
-86.25
11
131
21
-86.25
0
LINE
8
0
10
129
20
-88.25
11
129
21
-102.25
0
LINE
8
0
10
131
20
-85.25
11
145
21
-85.25
0
LINE
8
0
10
147
20
-83.25
11
147
21
-69.25
0
LINE
8
0
10
145
20
-67.25
11
131
21
-67.25
0
LINE
8
0
10
129
20
-69.25
11
129
21
-83.25
0
LINE
8
0
10
131
20
-66.25
11
145
21
-66.25
0
LINE
8
0
10
147
20
-64.25
11
147
21
-50.25
0
LINE
8
0
10
145
20
-48.25
11
131
21
-48.25
0
LINE
8
0
10
129
20
-50.25
11
129
21
-64.25
0
LINE
8
0
10
150
20
-101.875
11
164
21
-101.875
0
LINE
8
0
10
166
20
-99.875
11
166
21
-85.875
0
LINE
8
0
10
164
20
-83.875
11
150
21
-83.875
0
LINE
8
0
10
148
20
-85.875
11
148
21
-99.875
0
LINE
8
0
10
150
20
-82.875
11
164
21
-82.875
0
LINE
8
0
10
166
20
-80.875
11
166
21
-66.875
0
LINE
8
0
10
164
20
-64.875
11
150
21
-64.875
0
LINE
8
0
10
148
20
-66.875
11
148
21
-80.875
0
LINE
8
0
10
150
20
-63.875
11
164
21
-63.875
0
LINE
8
0
10
166
20
-61.875
11
166
21
-47.875
0
LINE
8
0
10
164
20
-45.875
11
150
21
-45.875
0
LINE
8
0
10
148
20
-47.875
11
148
21
-61.875
0
LINE
8
0
10
169
20
-104.25
11
183
21
-104.25
0
LINE
8
0
10
185
20
-102.25
11
185
21
-88.25
0
LINE
8
0
10
183
20
-86.25
11
169
21
-86.25
0
LINE
8
0
10
167
20
-88.25
11
167
21
-102.25
0
LINE
8
0
10
169
20
-85.25
11
183
21
-85.25
0
LINE
8
0
10
185
20
-83.25
11
185
21
-69.25
0
LINE
8
0
10
183
20
-67.25
11
169
21
-67.25
0
LINE
8
0
10
167
20
-69.25
11
167
21
-83.25
0
LINE
8
0
10
169
20
-66.25
11
183
21
-66.25
0
LINE
8
0
10
185
20
-64.25
11
185
21
-50.25
0
LINE
8
0
10
183
20
-48.25
11
169
21
-48.25
0
LINE
8
0
10
167
20
-50.25
11
167
21
-64.25
0
LINE
8
0
10
188
20
-106.625
11
202
21
-106.625
0
LINE
8
0
10
204
20
-104.625
11
204
21
-90.625
0
LINE
8
0
10
202
20
-88.625
11
188
21
-88.625
0
LINE
8
0
10
186
20
-90.625
11
186
21
-104.625
0
LINE
8
0
10
188
20
-87.625
11
202
21
-87.625
0
LINE
8
0
10
204
20
-85.625
11
204
21
-71.625
0
LINE
8
0
10
202
20
-69.625
11
188
21
-69.625
0
LINE
8
0
10
186
20
-71.625
11
186
21
-85.625
0
LINE
8
0
10
188
20
-68.625
11
202
21
-68.625
0
LINE
8
0
10
204
20
-66.625
11
204
21
-52.625
0
LINE
8
0
10
202
20
-50.625
11
188
21
-50.625
0
LINE
8
0
10
186
20
-52.625
11
186
21
-66.625
0
LINE
8
0
10
159.5
20
-123.875
11
173.5
21
-123.875
0
LINE
8
0
10
175.5
20
-121.875
11
175.5
21
-107.875
0
LINE
8
0
10
173.5
20
-105.875
11
159.5
21
-105.875
0
LINE
8
0
10
157.5
20
-107.875
11
157.5
21
-121.875
0
LINE
8
0
10
178.409148
20
-124.5065991
11
191.9321094
21
-128.1300657
0
LINE
8
0
10
194.3815991
20
-126.715852
11
198.0050657
21
-113.1928906
0
LINE
8
0
10
196.590852
20
-110.7434009
11
183.0678906
21
-107.1199343
0
LINE
8
0
10
180.6184009
20
-108.534148
11
176.9949343
21
-122.0571094
0
LINE
8
0
10
214.0410344
20
-131.9513354
11
221.0410344
21
-119.8269798
0
LINE
8
0
10
220.3089836
20
-117.094929
11
208.184628
21
-110.094929
0
LINE
8
0
10
205.4525772
20
-110.8269798
11
198.4525772
21
-122.9513354
0
LINE
8
0
10
199.184628
20
-125.6833862
11
211.3089836
21
-132.6833862
0
ARC
8
0
10
107
20
-107
40
2
50
270
51
0
0
ARC
8
0
10
107
20
-93
40
2
50
0
51
90
0
ARC
8
0
10
93
20
-93
40
2
50
90
51
180
0
ARC
8
0
10
93
20
-107
40
2
50
180
51
270
0
ARC
8
0
10
107
20
-88
40
2
50
270
51
0
0
ARC
8
0
10
107
20
-74
40
2
50
0
51
90
0
ARC
8
0
10
93
20
-74
40
2
50
90
51
180
0
ARC
8
0
10
93
20
-88
40
2
50
180
51
270
0
ARC
8
0
10
107
20
-69
40
2
50
270
51
0
0
ARC
8
0
10
107
20
-55
40
2
50
0
51
90
0
ARC
8
0
10
93
20
-55
40
2
50
90
51
180
0
ARC
8
0
10
93
20
-69
40
2
50
180
51
270
0
ARC
8
0
10
126
20
-107
40
2
50
270
51
0
0
ARC
8
0
10
126
20
-93
40
2
50
0
51
90
0
ARC
8
0
10
112
20
-93
40
2
50
90
51
180
0
ARC
8
0
10
112
20
-107
40
2
50
180
51
270
0
ARC
8
0
10
126
20
-88
40
2
50
270
51
0
0
ARC
8
0
10
126
20
-74
40
2
50
0
51
90
0
ARC
8
0
10
112
20
-74
40
2
50
90
51
180
0
ARC
8
0
10
112
20
-88
40
2
50
180
51
270
0
ARC
8
0
10
126
20
-69
40
2
50
270
51
0
0
ARC
8
0
10
126
20
-55
40
2
50
0
51
90
0
ARC
8
0
10
112
20
-55
40
2
50
90
51
180
0
ARC
8
0
10
112
20
-69
40
2
50
180
51
270
0
ARC
8
0
10
145
20
-102.25
40
2
50
270
51
0
0
ARC
8
0
10
145
20
-88.25
40
2
50
0
51
90
0
ARC
8
0
10
131
20
-88.25
40
2
50
90
51
180
0
ARC
8
0
10
131
20
-102.25
40
2
50
180
51
270
0
ARC
8
0
10
145
20
-83.25
40
2
50
270
51
0
0
ARC
8
0
10
145
20
-69.25
40
2
50
0
51
90
0
ARC
8
0
10
131
20
-69.25
40
2
50
90
51
180
0
ARC
8
0
10
131
20
-83.25
40
2
50
180
51
270
0
ARC
8
0
10
145
20
-64.25
40
2
50
270
51
0
0
ARC
8
0
10
145
20
-50.25
40
2
50
0
51
90
0
ARC
8
0
10
131
20
-50.25
40
2
50
90
51
180
0
ARC
8
0
10
131
20
-64.25
40
2
50
180
51
270
0
ARC
8
0
10
164
20
-99.875
40
2
50
270
51
0
0
ARC
8
0
10
164
20
-85.875
40
2
50
0
51
90
0
ARC
8
0
10
150
20
-85.875
40
2
50
90
51
180
0
ARC
8
0
10
150
20
-99.875
40
2
50
180
51
270
0
ARC
8
0
10
164
20
-80.875
40
2
50
270
51
0
0
ARC
8
0
10
164
20
-66.875
40
2
50
0
51
90
0
ARC
8
0
10
150
20
-66.875
40
2
50
90
51
180
0
ARC
8
0
10
150
20
-80.875
40
2
50
180
51
270
0
ARC
8
0
10
164
20
-61.875
40
2
50
270
51
0
0
ARC
8
0
10
164
20
-47.875
40
2
50
0
51
90
0
ARC
8
0
10
150
20
-47.875
40
2
50
90
51
180
0
ARC
8
0
10
150
20
-61.875
40
2
50
180
51
270
0
ARC
8
0
10
183
20
-102.25
40
2
50
270
51
0
0
ARC
8
0
10
183
20
-88.25
40
2
50
0
51
90
0
ARC
8
0
10
169
20
-88.25
40
2
50
90
51
180
0
ARC
8
0
10
169
20
-102.25
40
2
50
180
51
270
0
ARC
8
0
10
183
20
-83.25
40
2
50
270
51
0
0
ARC
8
0
10
183
20
-69.25
40
2
50
0
51
90
0
ARC
8
0
10
169
20
-69.25
40
2
50
90
51
180
0
ARC
8
0
10
169
20
-83.25
40
2
50
180
51
270
0
ARC
8
0
10
183
20
-64.25
40
2
50
270
51
0
0
ARC
8
0
10
183
20
-50.25
40
2
50
0
51
90
0
ARC
8
0
10
169
20
-50.25
40
2
50
90
51
180
0
ARC
8
0
10
169
20
-64.25
40
2
50
180
51
270
0
ARC
8
0
10
202
20
-104.625
40
2
50
270
51
0
0
ARC
8
0
10
202
20
-90.625
40
2
50
0
51
90
0
ARC
8
0
10
188
20
-90.625
40
2
50
90
51
180
0
ARC
8
0
10
188
20
-104.625
40
2
50
180
51
270
0
ARC
8
0
10
202
20
-85.625
40
2
50
270
51
0
0
ARC
8
0
10
202
20
-71.625
40
2
50
0
51
90
0
ARC
8
0
10
188
20
-71.625
40
2
50
90
51
180
0
ARC
8
0
10
188
20
-85.625
40
2
50
180
51
270
0
ARC
8
0
10
202
20
-66.625
40
2
50
270
51
0
0
ARC
8
0
10
202
20
-52.625
40
2
50
0
51
90
0
ARC
8
0
10
188
20
-52.625
40
2
50
90
51
180
0
ARC
8
0
10
188
20
-66.625
40
2
50
180
51
270
0
ARC
8
0
10
173.5
20
-121.875
40
2
50
270
51
0
0
ARC
8
0
10
173.5
20
-107.875
40
2
50
0
51
90
0
ARC
8
0
10
159.5
20
-107.875
40
2
50
90
51
180
0
ARC
8
0
10
159.5
20
-121.875
40
2
50
180
51
270
0
ARC
8
0
10
219.3089836
20
-118.8269798
40
2
50
329.9999999
51
59.9999999
0
ARC
8
0
10
207.184628
20
-111.8269798
40
2
50
59.9999999
51
149.9999999
0
ARC
8
0
10
200.184628
20
-123.9513354
40
2
50
149.9999999
51
239.9999999
0
ARC
8
0
10
212.3089836
20
-130.9513354
40
2
50
239.9999999
51
329.9999999
0
ARC
8
0
10
192.4497474
20
-126.198214
40
2
50
255.0000021
51
345.0000021
0
ARC
8
0
10
196.073214
20
-112.6752526
40
2
50
345.0000021
51
75.0000021
0
ARC
8
0
10
182.5502526
20
-109.051786
40
2
50
75.0000021
51
165.0000021
0
ARC
8
0
10
178.926786
20
-122.5747474
40
2
50
165.0000021
51
255.0000021
0
ENDSEC
0
EOF