0
SECTION
2
HEADER
9
$INSUNITS
70
4
0
ENDSEC
0
SECTION
2
TABLES
0
TABLE
2
LTYPE
0
LTYPE
72
65
70
64
2
CONTINUOUS
3
______
73
0
40
0
0
ENDTAB
0
TABLE
2
LAYER
0
ENDTAB
0
ENDSEC
0
SECTION
2
ENTITIES
0
LINE
8
0
10
21.5
20
-140.5
11
21.5
21
-25.5
0
LINE
8
0
10
23.5
20
-23.5
11
163.5
21
-23.5
0
LINE
8
0
10
165.5
20
-25.5
11
165.5
21
-123.5
0
LINE
8
0
10
163.5
20
-125.5
11
104.5
21
-125.5
0
LINE
8
0
10
102.5
20
-127.5
11
102.5
21
-140.5
0
LINE
8
0
10
100.5
20
-142.5
11
23.5
21
-142.5
0
ARC
8
0
10
23.5
20
-25.5
40
2
50
90
51
180
0
ARC
8
0
10
163.5
20
-25.5
40
2
50
0
51
90
0
ARC
8
0
10
163.5
20
-123.5
40
2
50
270
51
0
0
ARC
8
0
10
104.5
20
-127.5
40
2
50
90
51
180
0
ARC
8
0
10
100.5
20
-140.5
40
2
50
270
51
0
0
ARC
8
0
10
23.5
20
-140.5
40
2
50
180
51
270
0
LINE
8
0
10
31.6
20
-103.15
11
38.4
21
-103.15
0
LINE
8
0
10
38.4
20
-103.15
11
38.4
21
-96.85
0
LINE
8
0
10
38.4
20
-96.85
11
31.6
21
-96.85
0
LINE
8
0
10
31.6
20
-96.85
11
31.6
21
-103.15
0
LINE
8
0
10
31.6
20
-86.15
11
38.4
21
-86.15
0
LINE
8
0
10
38.4
20
-86.15
11
38.4
21
-79.85
0
LINE
8
0
10
38.4
20
-79.85
11
31.6
21
-79.85
0
LINE
8
0
10
31.6
20
-79.85
11
31.6
21
-86.15
0
LINE
8
0
10
31.6
20
-69.15
11
38.4
21
-69.15
0
LINE
8
0
10
38.4
20
-69.15
11
38.4
21
-62.85
0
LINE
8
0
10
38.4
20
-62.85
11
31.6
21
-62.85
0
LINE
8
0
10
31.6
20
-62.85
11
31.6
21
-69.15
0
LINE
8
0
10
31.6
20
-52.15
11
38.4
21
-52.15
0
LINE
8
0
10
38.4
20
-52.15
11
38.4
21
-45.85
0
LINE
8
0
10
38.4
20
-45.85
11
31.6
21
-45.85
0
LINE
8
0
10
31.6
20
-45.85
11
31.6
21
-52.15
0
LINE
8
0
10
31.6
20
-35.15
11
38.4
21
-35.15
0
LINE
8
0
10
38.4
20
-35.15
11
38.4
21
-28.85
0
LINE
8
0
10
38.4
20
-28.85
11
31.6
21
-28.85
0
LINE
8
0
10
31.6
20
-28.85
11
31.6
21
-35.15
0
LINE
8
0
10
54.1
20
-103.15
11
60.9
21
-103.15
0
LINE
8
0
10
60.9
20
-103.15
11
60.9
21
-96.85
0
LINE
8
0
10
60.9
20
-96.85
11
54.1
21
-96.85
0
LINE
8
0
10
54.1
20
-96.85
11
54.1
21
-103.15
0
LINE
8
0
10
54.1
20
-86.15
11
60.9
21
-86.15
0
LINE
8
0
10
60.9
20
-86.15
11
60.9
21
-79.85
0
LINE
8
0
10
60.9
20
-79.85
11
54.1
21
-79.85
0
LINE
8
0
10
54.1
20
-79.85
11
54.1
21
-86.15
0
LINE
8
0
10
54.1
20
-69.15
11
60.9
21
-69.15
0
LINE
8
0
10
60.9
20
-69.15
11
60.9
21
-62.85
0
LINE
8
0
10
60.9
20
-62.85
11
54.1
21
-62.85
0
LINE
8
0
10
54.1
20
-62.85
11
54.1
21
-69.15
0
LINE
8
0
10
54.1
20
-52.15
11
60.9
21
-52.15
0
LINE
8
0
10
60.9
20
-52.15
11
60.9
21
-45.85
0
LINE
8
0
10
60.9
20
-45.85
11
54.1
21
-45.85
0
LINE
8
0
10
54.1
20
-45.85
11
54.1
21
-52.15
0
LINE
8
0
10
54.1
20
-35.15
11
60.9
21
-35.15
0
LINE
8
0
10
60.9
20
-35.15
11
60.9
21
-28.85
0
LINE
8
0
10
60.9
20
-28.85
11
54.1
21
-28.85
0
LINE
8
0
10
54.1
20
-28.85
11
54.1
21
-35.15
0
LINE
8
0
10
72.1
20
-103.15
11
78.9
21
-103.15
0
LINE
8
0
10
78.9
20
-103.15
11
78.9
21
-96.85
0
LINE
8
0
10
78.9
20
-96.85
11
72.1
21
-96.85
0
LINE
8
0
10
72.1
20
-96.85
11
72.1
21
-103.15
0
LINE
8
0
10
72.1
20
-86.15
11
78.9
21
-86.15
0
LINE
8
0
10
78.9
20
-86.15
11
78.9
21
-79.85
0
LINE
8
0
10
78.9
20
-79.85
11
72.1
21
-79.85
0
LINE
8
0
10
72.1
20
-79.85
11
72.1
21
-86.15
0
LINE
8
0
10
72.1
20
-69.15
11
78.9
21
-69.15
0
LINE
8
0
10
78.9
20
-69.15
11
78.9
21
-62.85
0
LINE
8
0
10
78.9
20
-62.85
11
72.1
21
-62.85
0
LINE
8
0
10
72.1
20
-62.85
11
72.1
21
-69.15
0
LINE
8
0
10
72.1
20
-52.15
11
78.9
21
-52.15
0
LINE
8
0
10
78.9
20
-52.15
11
78.9
21
-45.85
0
LINE
8
0
10
78.9
20
-45.85
11
72.1
21
-45.85
0
LINE
8
0
10
72.1
20
-45.85
11
72.1
21
-52.15
0
LINE
8
0
10
72.1
20
-35.15
11
78.9
21
-35.15
0
LINE
8
0
10
78.9
20
-35.15
11
78.9
21
-28.85
0
LINE
8
0
10
78.9
20
-28.85
11
72.1
21
-28.85
0
LINE
8
0
10
72.1
20
-28.85
11
72.1
21
-35.15
0
LINE
8
0
10
90.1
20
-103.15
11
96.9
21
-103.15
0
LINE
8
0
10
96.9
20
-103.15
11
96.9
21
-96.85
0
LINE
8
0
10
96.9
20
-96.85
11
90.1
21
-96.85
0
LINE
8
0
10
90.1
20
-96.85
11
90.1
21
-103.15
0
LINE
8
0
10
90.1
20
-86.15
11
96.9
21
-86.15
0
LINE
8
0
10
96.9
20
-86.15
11
96.9
21
-79.85
0
LINE
8
0
10
96.9
20
-79.85
11
90.1
21
-79.85
0
LINE
8
0
10
90.1
20
-79.85
11
90.1
21
-86.15
0
LINE
8
0
10
90.1
20
-69.15
11
96.9
21
-69.15
0
LINE
8
0
10
96.9
20
-69.15
11
96.9
21
-62.85
0
LINE
8
0
10
96.9
20
-62.85
11
90.1
21
-62.85
0
LINE
8
0
10
90.1
20
-62.85
11
90.1
21
-69.15
0
LINE
8
0
10
90.1
20
-52.15
11
96.9
21
-52.15
0
LINE
8
0
10
96.9
20
-52.15
11
96.9
21
-45.85
0
LINE
8
0
10
96.9
20
-45.85
11
90.1
21
-45.85
0
LINE
8
0
10
90.1
20
-45.85
11
90.1
21
-52.15
0
LINE
8
0
10
90.1
20
-35.15
11
96.9
21
-35.15
0
LINE
8
0
10
96.9
20
-35.15
11
96.9
21
-28.85
0
LINE
8
0
10
96.9
20
-28.85
11
90.1
21
-28.85
0
LINE
8
0
10
90.1
20
-28.85
11
90.1
21
-35.15
0
LINE
8
0
10
108.1
20
-103.15
11
114.9
21
-103.15
0
LINE
8
0
10
114.9
20
-103.15
11
114.9
21
-96.85
0
LINE
8
0
10
114.9
20
-96.85
11
108.1
21
-96.85
0
LINE
8
0
10
108.1
20
-96.85
11
108.1
21
-103.15
0
LINE
8
0
10
108.1
20
-86.15
11
114.9
21
-86.15
0
LINE
8
0
10
114.9
20
-86.15
11
114.9
21
-79.85
0
LINE
8
0
10
114.9
20
-79.85
11
108.1
21
-79.85
0
LINE
8
0
10
108.1
20
-79.85
11
108.1
21
-86.15
0
LINE
8
0
10
108.1
20
-69.15
11
114.9
21
-69.15
0
LINE
8
0
10
114.9
20
-69.15
11
114.9
21
-62.85
0
LINE
8
0
10
114.9
20
-62.85
11
108.1
21
-62.85
0
LINE
8
0
10
108.1
20
-62.85
11
108.1
21
-69.15
0
LINE
8
0
10
108.1
20
-52.15
11
114.9
21
-52.15
0
LINE
8
0
10
114.9
20
-52.15
11
114.9
21
-45.85
0
LINE
8
0
10
114.9
20
-45.85
11
108.1
21
-45.85
0
LINE
8
0
10
108.1
20
-45.85
11
108.1
21
-52.15
0
LINE
8
0
10
108.1
20
-35.15
11
114.9
21
-35.15
0
LINE
8
0
10
114.9
20
-35.15
11
114.9
21
-28.85
0
LINE
8
0
10
114.9
20
-28.85
11
108.1
21
-28.85
0
LINE
8
0
10
108.1
20
-28.85
11
108.1
21
-35.15
0
LINE
8
0
10
126.1
20
-86.15
11
132.9
21
-86.15
0
LINE
8
0
10
132.9
20
-86.15
11
132.9
21
-79.85
0
LINE
8
0
10
132.9
20
-79.85
11
126.1
21
-79.85
0
LINE
8
0
10
126.1
20
-79.85
11
126.1
21
-86.15
0
LINE
8
0
10
126.1
20
-69.15
11
132.9
21
-69.15
0
LINE
8
0
10
132.9
20
-69.15
11
132.9
21
-62.85
0
LINE
8
0
10
132.9
20
-62.85
11
126.1
21
-62.85
0
LINE
8
0
10
126.1
20
-62.85
11
126.1
21
-69.15
0
LINE
8
0
10
126.1
20
-52.15
11
132.9
21
-52.15
0
LINE
8
0
10
132.9
20
-52.15
11
132.9
21
-45.85
0
LINE
8
0
10
132.9
20
-45.85
11
126.1
21
-45.85
0
LINE
8
0
10
126.1
20
-45.85
11
126.1
21
-52.15
0
LINE
8
0
10
126.1
20
-35.15
11
132.9
21
-35.15
0
LINE
8
0
10
132.9
20
-35.15
11
132.9
21
-28.85
0
LINE
8
0
10
132.9
20
-28.85
11
126.1
21
-28.85
0
LINE
8
0
10
126.1
20
-28.85
11
126.1
21
-35.15
0
LINE
8
0
10
31.6
20
-137.15
11
38.4
21
-137.15
0
LINE
8
0
10
38.4
20
-137.15
11
38.4
21
-130.85
0
LINE
8
0
10
38.4
20
-130.85
11
31.6
21
-130.85
0
LINE
8
0
10
31.6
20
-130.85
11
31.6
21
-137.15
0
LINE
8
0
10
31.6
20
-120.15
11
38.4
21
-120.15
0
LINE
8
0
10
38.4
20
-120.15
11
38.4
21
-113.85
0
LINE
8
0
10
38.4
20
-113.85
11
31.6
21
-113.85
0
LINE
8
0
10
31.6
20
-113.85
11
31.6
21
-120.15
0
LINE
8
0
10
58.6
20
-137.15
11
65.4
21
-137.15
0
LINE
8
0
10
65.4
20
-137.15
11
65.4
21
-130.85
0
LINE
8
0
10
65.4
20
-130.85
11
58.6
21
-130.85
0
LINE
8
0
10
58.6
20
-130.85
11
58.6
21
-137.15
0
LINE
8
0
10
58.6
20
-120.15
11
65.4
21
-120.15
0
LINE
8
0
10
65.4
20
-120.15
11
65.4
21
-113.85
0
LINE
8
0
10
65.4
20
-113.85
11
58.6
21
-113.85
0
LINE
8
0
10
58.6
20
-113.85
11
58.6
21
-120.15
0
LINE
8
0
10
85.6
20
-137.15
11
92.4
21
-137.15
0
LINE
8
0
10
92.4
20
-137.15
11
92.4
21
-130.85
0
LINE
8
0
10
92.4
20
-130.85
11
85.6
21
-130.85
0
LINE
8
0
10
85.6
20
-130.85
11
85.6
21
-137.15
0
LINE
8
0
10
85.6
20
-120.15
11
92.4
21
-120.15
0
LINE
8
0
10
92.4
20
-120.15
11
92.4
21
-113.85
0
LINE
8
0
10
92.4
20
-113.85
11
85.6
21
-113.85
0
LINE
8
0
10
85.6
20
-113.85
11
85.6
21
-120.15
0
LINE
8
0
10
148.6
20
-35.15
11
155.4
21
-35.15
0
LINE
8
0
10
155.4
20
-35.15
11
155.4
21
-28.85
0
LINE
8
0
10
155.4
20
-28.85
11
148.6
21
-28.85
0
LINE
8
0
10
148.6
20
-28.85
11
148.6
21
-35.15
0
LINE
8
0
10
148.85
20
-94.9
11
155.15
21
-94.9
0
LINE
8
0
10
155.15
20
-94.9
11
155.15
21
-88.1
0
LINE
8
0
10
155.15
20
-88.1
11
148.85
21
-88.1
0
LINE
8
0
10
148.85
20
-88.1
11
148.85
21
-94.9
0
LINE
8
0
10
148.85
20
-60.9
11
155.15
21
-60.9
0
LINE
8
0
10
155.15
20
-60.9
11
155.15
21
-54.1
0
LINE
8
0
10
155.15
20
-54.1
11
148.85
21
-54.1
0
LINE
8
0
10
148.85
20
-54.1
11
148.85
21
-60.9
0
LINE
8
0
10
144
20
-80.6
11
158
21
-80.6
0
LINE
8
0
10
158
20
-80.6
11
158
21
-68.4
0
LINE
8
0
10
144
20
-80.6
11
144
21
-68.4
0
LINE
8
0
10
144
20
-46.6
11
158
21
-46.6
0
LINE
8
0
10
158
20
-46.6
11
158
21
-39.6
0
LINE
8
0
10
158
20
-39.6
11
144
21
-39.6
0
LINE
8
0
10
144
20
-39.6
11
144
21
-46.6
0
LINE
8
0
10
144
20
-109.4
11
158
21
-109.4
0
LINE
8
0
10
158
20
-109.4
11
158
21
-102.4
0
LINE
8
0
10
158
20
-102.4
11
144
21
-102.4
0
LINE
8
0
10
144
20
-102.4
11
144
21
-109.4
0
LINE
8
0
10
158
20
-68.4
11
144
21
-68.4
0
LINE
8
0
10
149.5
20
-125
11
156.5
21
-125
0
LINE
8
0
10
156.5
20
-125
11
156.5
21
-111
0
LINE
8
0
10
156.5
20
-111
11
149.5
21
-111
0
LINE
8
0
10
149.5
20
-111
11
149.5
21
-125
0
LINE
8
0
10
111.5
20
-125
11
118.5
21
-125
0
LINE
8
0
10
118.5
20
-125
11
118.5
21
-111
0
LINE
8
0
10
118.5
20
-111
11
111.5
21
-111
0
LINE
8
0
10
111.5
20
-111
11
111.5
21
-125
0
ENDSEC
0
EOF