0
SECTION
2
HEADER
9
$INSUNITS
70
4
0
ENDSEC
0
SECTION
2
TABLES
0
TABLE
2
LTYPE
0
LTYPE
72
65
70
64
2
CONTINUOUS
3
______
73
0
40
0
0
ENDTAB
0
TABLE
2
LAYER
0
ENDTAB
0
ENDSEC
0
SECTION
2
ENTITIES
0
LINE
8
0
10
400.5
20
-140.5
11
400.5
21
-25.5
0
LINE
8
0
10
398.5
20
-23.5
11
240.5
21
-23.5
0
LINE
8
0
10
238.5
20
-25.5
11
238.5
21
-123.5
0
LINE
8
0
10
240.5
20
-125.5
11
313
21
-125.5
0
LINE
8
0
10
315
20
-127.5
11
315
21
-140.5
0
LINE
8
0
10
317
20
-142.5
11
398.5
21
-142.5
0
ARC
8
0
10
398.5
20
-25.5
40
2
50
0
51
90
0
ARC
8
0
10
240.5
20
-25.5
40
2
50
90
51
180
0
ARC
8
0
10
240.5
20
-123.5
40
2
50
180
51
270
0
ARC
8
0
10
313
20
-127.5
40
2
50
0
51
90
0
ARC
8
0
10
317
20
-140.5
40
2
50
180
51
270
0
ARC
8
0
10
398.5
20
-140.5
40
2
50
270
51
0
0
LINE
8
0
10
343.1
20
-103.15
11
349.9
21
-103.15
0
LINE
8
0
10
349.9
20
-103.15
11
349.9
21
-96.85
0
LINE
8
0
10
349.9
20
-96.85
11
343.1
21
-96.85
0
LINE
8
0
10
343.1
20
-96.85
11
343.1
21
-103.15
0
LINE
8
0
10
343.1
20
-86.15
11
349.9
21
-86.15
0
LINE
8
0
10
349.9
20
-86.15
11
349.9
21
-79.85
0
LINE
8
0
10
349.9
20
-79.85
11
343.1
21
-79.85
0
LINE
8
0
10
343.1
20
-79.85
11
343.1
21
-86.15
0
LINE
8
0
10
343.1
20
-69.15
11
349.9
21
-69.15
0
LINE
8
0
10
349.9
20
-69.15
11
349.9
21
-62.85
0
LINE
8
0
10
349.9
20
-62.85
11
343.1
21
-62.85
0
LINE
8
0
10
343.1
20
-62.85
11
343.1
21
-69.15
0
LINE
8
0
10
343.1
20
-52.15
11
349.9
21
-52.15
0
LINE
8
0
10
349.9
20
-52.15
11
349.9
21
-45.85
0
LINE
8
0
10
349.9
20
-45.85
11
343.1
21
-45.85
0
LINE
8
0
10
343.1
20
-45.85
11
343.1
21
-52.15
0
LINE
8
0
10
343.1
20
-35.15
11
349.9
21
-35.15
0
LINE
8
0
10
349.9
20
-35.15
11
349.9
21
-28.85
0
LINE
8
0
10
349.9
20
-28.85
11
343.1
21
-28.85
0
LINE
8
0
10
343.1
20
-28.85
11
343.1
21
-35.15
0
LINE
8
0
10
325.1
20
-103.15
11
331.9
21
-103.15
0
LINE
8
0
10
331.9
20
-103.15
11
331.9
21
-96.85
0
LINE
8
0
10
331.9
20
-96.85
11
325.1
21
-96.85
0
LINE
8
0
10
325.1
20
-96.85
11
325.1
21
-103.15
0
LINE
8
0
10
325.1
20
-86.15
11
331.9
21
-86.15
0
LINE
8
0
10
331.9
20
-86.15
11
331.9
21
-79.85
0
LINE
8
0
10
331.9
20
-79.85
11
325.1
21
-79.85
0
LINE
8
0
10
325.1
20
-79.85
11
325.1
21
-86.15
0
LINE
8
0
10
325.1
20
-69.15
11
331.9
21
-69.15
0
LINE
8
0
10
331.9
20
-69.15
11
331.9
21
-62.85
0
LINE
8
0
10
331.9
20
-62.85
11
325.1
21
-62.85
0
LINE
8
0
10
325.1
20
-62.85
11
325.1
21
-69.15
0
LINE
8
0
10
325.1
20
-52.15
11
331.9
21
-52.15
0
LINE
8
0
10
331.9
20
-52.15
11
331.9
21
-45.85
0
LINE
8
0
10
331.9
20
-45.85
11
325.1
21
-45.85
0
LINE
8
0
10
325.1
20
-45.85
11
325.1
21
-52.15
0
LINE
8
0
10
325.1
20
-35.15
11
331.9
21
-35.15
0
LINE
8
0
10
331.9
20
-35.15
11
331.9
21
-28.85
0
LINE
8
0
10
331.9
20
-28.85
11
325.1
21
-28.85
0
LINE
8
0
10
325.1
20
-28.85
11
325.1
21
-35.15
0
LINE
8
0
10
307.1
20
-103.15
11
313.9
21
-103.15
0
LINE
8
0
10
313.9
20
-103.15
11
313.9
21
-96.85
0
LINE
8
0
10
313.9
20
-96.85
11
307.1
21
-96.85
0
LINE
8
0
10
307.1
20
-96.85
11
307.1
21
-103.15
0
LINE
8
0
10
307.1
20
-86.15
11
313.9
21
-86.15
0
LINE
8
0
10
313.9
20
-86.15
11
313.9
21
-79.85
0
LINE
8
0
10
313.9
20
-79.85
11
307.1
21
-79.85
0
LINE
8
0
10
307.1
20
-79.85
11
307.1
21
-86.15
0
LINE
8
0
10
307.1
20
-69.15
11
313.9
21
-69.15
0
LINE
8
0
10
313.9
20
-69.15
11
313.9
21
-62.85
0
LINE
8
0
10
313.9
20
-62.85
11
307.1
21
-62.85
0
LINE
8
0
10
307.1
20
-62.85
11
307.1
21
-69.15
0
LINE
8
0
10
307.1
20
-52.15
11
313.9
21
-52.15
0
LINE
8
0
10
313.9
20
-52.15
11
313.9
21
-45.85
0
LINE
8
0
10
313.9
20
-45.85
11
307.1
21
-45.85
0
LINE
8
0
10
307.1
20
-45.85
11
307.1
21
-52.15
0
LINE
8
0
10
307.1
20
-35.15
11
313.9
21
-35.15
0
LINE
8
0
10
313.9
20
-35.15
11
313.9
21
-28.85
0
LINE
8
0
10
313.9
20
-28.85
11
307.1
21
-28.85
0
LINE
8
0
10
307.1
20
-28.85
11
307.1
21
-35.15
0
LINE
8
0
10
289.1
20
-103.15
11
295.9
21
-103.15
0
LINE
8
0
10
295.9
20
-103.15
11
295.9
21
-96.85
0
LINE
8
0
10
295.9
20
-96.85
11
289.1
21
-96.85
0
LINE
8
0
10
289.1
20
-96.85
11
289.1
21
-103.15
0
LINE
8
0
10
289.1
20
-86.15
11
295.9
21
-86.15
0
LINE
8
0
10
295.9
20
-86.15
11
295.9
21
-79.85
0
LINE
8
0
10
295.9
20
-79.85
11
289.1
21
-79.85
0
LINE
8
0
10
289.1
20
-79.85
11
289.1
21
-86.15
0
LINE
8
0
10
289.1
20
-69.15
11
295.9
21
-69.15
0
LINE
8
0
10
295.9
20
-69.15
11
295.9
21
-62.85
0
LINE
8
0
10
295.9
20
-62.85
11
289.1
21
-62.85
0
LINE
8
0
10
289.1
20
-62.85
11
289.1
21
-69.15
0
LINE
8
0
10
289.1
20
-52.15
11
295.9
21
-52.15
0
LINE
8
0
10
295.9
20
-52.15
11
295.9
21
-45.85
0
LINE
8
0
10
295.9
20
-45.85
11
289.1
21
-45.85
0
LINE
8
0
10
289.1
20
-45.85
11
289.1
21
-52.15
0
LINE
8
0
10
289.1
20
-35.15
11
295.9
21
-35.15
0
LINE
8
0
10
295.9
20
-35.15
11
295.9
21
-28.85
0
LINE
8
0
10
295.9
20
-28.85
11
289.1
21
-28.85
0
LINE
8
0
10
289.1
20
-28.85
11
289.1
21
-35.15
0
LINE
8
0
10
271.1
20
-103.15
11
277.9
21
-103.15
0
LINE
8
0
10
277.9
20
-103.15
11
277.9
21
-96.85
0
LINE
8
0
10
277.9
20
-96.85
11
271.1
21
-96.85
0
LINE
8
0
10
271.1
20
-96.85
11
271.1
21
-103.15
0
LINE
8
0
10
271.1
20
-86.15
11
277.9
21
-86.15
0
LINE
8
0
10
277.9
20
-86.15
11
277.9
21
-79.85
0
LINE
8
0
10
277.9
20
-79.85
11
271.1
21
-79.85
0
LINE
8
0
10
271.1
20
-79.85
11
271.1
21
-86.15
0
LINE
8
0
10
271.1
20
-69.15
11
277.9
21
-69.15
0
LINE
8
0
10
277.9
20
-69.15
11
277.9
21
-62.85
0
LINE
8
0
10
277.9
20
-62.85
11
271.1
21
-62.85
0
LINE
8
0
10
271.1
20
-62.85
11
271.1
21
-69.15
0
LINE
8
0
10
271.1
20
-52.15
11
277.9
21
-52.15
0
LINE
8
0
10
277.9
20
-52.15
11
277.9
21
-45.85
0
LINE
8
0
10
277.9
20
-45.85
11
271.1
21
-45.85
0
LINE
8
0
10
271.1
20
-45.85
11
271.1
21
-52.15
0
LINE
8
0
10
271.1
20
-35.15
11
277.9
21
-35.15
0
LINE
8
0
10
277.9
20
-35.15
11
277.9
21
-28.85
0
LINE
8
0
10
277.9
20
-28.85
11
271.1
21
-28.85
0
LINE
8
0
10
271.1
20
-28.85
11
271.1
21
-35.15
0
LINE
8
0
10
361.1
20
-137.15
11
367.9
21
-137.15
0
LINE
8
0
10
367.9
20
-137.15
11
367.9
21
-130.85
0
LINE
8
0
10
367.9
20
-130.85
11
361.1
21
-130.85
0
LINE
8
0
10
361.1
20
-130.85
11
361.1
21
-137.15
0
LINE
8
0
10
361.1
20
-120.15
11
367.9
21
-120.15
0
LINE
8
0
10
367.9
20
-120.15
11
367.9
21
-113.85
0
LINE
8
0
10
367.9
20
-113.85
11
361.1
21
-113.85
0
LINE
8
0
10
361.1
20
-113.85
11
361.1
21
-120.15
0
LINE
8
0
10
343.1
20
-137.15
11
349.9
21
-137.15
0
LINE
8
0
10
349.9
20
-137.15
11
349.9
21
-130.85
0
LINE
8
0
10
349.9
20
-130.85
11
343.1
21
-130.85
0
LINE
8
0
10
343.1
20
-130.85
11
343.1
21
-137.15
0
LINE
8
0
10
343.1
20
-120.15
11
349.9
21
-120.15
0
LINE
8
0
10
349.9
20
-120.15
11
349.9
21
-113.85
0
LINE
8
0
10
349.9
20
-113.85
11
343.1
21
-113.85
0
LINE
8
0
10
343.1
20
-113.85
11
343.1
21
-120.15
0
LINE
8
0
10
325.1
20
-137.15
11
331.9
21
-137.15
0
LINE
8
0
10
331.9
20
-137.15
11
331.9
21
-130.85
0
LINE
8
0
10
331.9
20
-130.85
11
325.1
21
-130.85
0
LINE
8
0
10
325.1
20
-130.85
11
325.1
21
-137.15
0
LINE
8
0
10
325.1
20
-120.15
11
331.9
21
-120.15
0
LINE
8
0
10
331.9
20
-120.15
11
331.9
21
-113.85
0
LINE
8
0
10
331.9
20
-113.85
11
325.1
21
-113.85
0
LINE
8
0
10
325.1
20
-113.85
11
325.1
21
-120.15
0
LINE
8
0
10
248.6
20
-35.15
11
255.4
21
-35.15
0
LINE
8
0
10
255.4
20
-35.15
11
255.4
21
-28.85
0
LINE
8
0
10
255.4
20
-28.85
11
248.6
21
-28.85
0
LINE
8
0
10
248.6
20
-28.85
11
248.6
21
-35.15
0
LINE
8
0
10
307.1
20
-120.15
11
313.9
21
-120.15
0
LINE
8
0
10
313.9
20
-120.15
11
313.9
21
-113.85
0
LINE
8
0
10
313.9
20
-113.85
11
307.1
21
-113.85
0
LINE
8
0
10
307.1
20
-113.85
11
307.1
21
-120.15
0
LINE
8
0
10
361.1
20
-103.15
11
367.9
21
-103.15
0
LINE
8
0
10
367.9
20
-103.15
11
367.9
21
-96.85
0
LINE
8
0
10
367.9
20
-96.85
11
361.1
21
-96.85
0
LINE
8
0
10
361.1
20
-96.85
11
361.1
21
-103.15
0
LINE
8
0
10
361.1
20
-86.15
11
367.9
21
-86.15
0
LINE
8
0
10
367.9
20
-86.15
11
367.9
21
-79.85
0
LINE
8
0
10
367.9
20
-79.85
11
361.1
21
-79.85
0
LINE
8
0
10
361.1
20
-79.85
11
361.1
21
-86.15
0
LINE
8
0
10
361.1
20
-69.15
11
367.9
21
-69.15
0
LINE
8
0
10
367.9
20
-69.15
11
367.9
21
-62.85
0
LINE
8
0
10
367.9
20
-62.85
11
361.1
21
-62.85
0
LINE
8
0
10
361.1
20
-62.85
11
361.1
21
-69.15
0
LINE
8
0
10
361.1
20
-52.15
11
367.9
21
-52.15
0
LINE
8
0
10
367.9
20
-52.15
11
367.9
21
-45.85
0
LINE
8
0
10
367.9
20
-45.85
11
361.1
21
-45.85
0
LINE
8
0
10
361.1
20
-45.85
11
361.1
21
-52.15
0
LINE
8
0
10
361.1
20
-35.15
11
367.9
21
-35.15
0
LINE
8
0
10
367.9
20
-35.15
11
367.9
21
-28.85
0
LINE
8
0
10
367.9
20
-28.85
11
361.1
21
-28.85
0
LINE
8
0
10
361.1
20
-28.85
11
361.1
21
-35.15
0
LINE
8
0
10
383.6
20
-137.15
11
390.4
21
-137.15
0
LINE
8
0
10
390.4
20
-137.15
11
390.4
21
-130.85
0
LINE
8
0
10
390.4
20
-130.85
11
383.6
21
-130.85
0
LINE
8
0
10
383.6
20
-130.85
11
383.6
21
-137.15
0
LINE
8
0
10
383.6
20
-120.15
11
390.4
21
-120.15
0
LINE
8
0
10
390.4
20
-120.15
11
390.4
21
-113.85
0
LINE
8
0
10
390.4
20
-113.85
11
383.6
21
-113.85
0
LINE
8
0
10
383.6
20
-113.85
11
383.6
21
-120.15
0
LINE
8
0
10
383.6
20
-103.15
11
390.4
21
-103.15
0
LINE
8
0
10
390.4
20
-103.15
11
390.4
21
-96.85
0
LINE
8
0
10
390.4
20
-96.85
11
383.6
21
-96.85
0
LINE
8
0
10
383.6
20
-96.85
11
383.6
21
-103.15
0
LINE
8
0
10
383.6
20
-86.15
11
390.4
21
-86.15
0
LINE
8
0
10
390.4
20
-86.15
11
390.4
21
-79.85
0
LINE
8
0
10
390.4
20
-79.85
11
383.6
21
-79.85
0
LINE
8
0
10
383.6
20
-79.85
11
383.6
21
-86.15
0
LINE
8
0
10
383.6
20
-69.15
11
390.4
21
-69.15
0
LINE
8
0
10
390.4
20
-69.15
11
390.4
21
-62.85
0
LINE
8
0
10
390.4
20
-62.85
11
383.6
21
-62.85
0
LINE
8
0
10
383.6
20
-62.85
11
383.6
21
-69.15
0
LINE
8
0
10
383.6
20
-52.15
11
390.4
21
-52.15
0
LINE
8
0
10
390.4
20
-52.15
11
390.4
21
-45.85
0
LINE
8
0
10
390.4
20
-45.85
11
383.6
21
-45.85
0
LINE
8
0
10
383.6
20
-45.85
11
383.6
21
-52.15
0
LINE
8
0
10
383.6
20
-35.15
11
390.4
21
-35.15
0
LINE
8
0
10
390.4
20
-35.15
11
390.4
21
-28.85
0
LINE
8
0
10
390.4
20
-28.85
11
383.6
21
-28.85
0
LINE
8
0
10
383.6
20
-28.85
11
383.6
21
-35.15
0
LINE
8
0
10
248.85
20
-94.9
11
255.15
21
-94.9
0
LINE
8
0
10
255.15
20
-94.9
11
255.15
21
-88.1
0
LINE
8
0
10
255.15
20
-88.1
11
248.85
21
-88.1
0
LINE
8
0
10
248.85
20
-88.1
11
248.85
21
-94.9
0
LINE
8
0
10
248.85
20
-60.9
11
255.15
21
-60.9
0
LINE
8
0
10
255.15
20
-60.9
11
255.15
21
-54.1
0
LINE
8
0
10
255.15
20
-54.1
11
248.85
21
-54.1
0
LINE
8
0
10
248.85
20
-54.1
11
248.85
21
-60.9
0
LINE
8
0
10
266.6
20
-120.15
11
273.4
21
-120.15
0
LINE
8
0
10
273.4
20
-120.15
11
273.4
21
-113.85
0
LINE
8
0
10
273.4
20
-113.85
11
266.6
21
-113.85
0
LINE
8
0
10
266.6
20
-113.85
11
266.6
21
-120.15
0
LINE
8
0
10
246
20
-80.6
11
260
21
-80.6
0
LINE
8
0
10
260
20
-80.6
11
260
21
-68.4
0
LINE
8
0
10
246
20
-80.6
11
246
21
-68.4
0
LINE
8
0
10
246
20
-46.6
11
260
21
-46.6
0
LINE
8
0
10
260
20
-46.6
11
260
21
-39.6
0
LINE
8
0
10
260
20
-39.6
11
246
21
-39.6
0
LINE
8
0
10
246
20
-39.6
11
246
21
-46.6
0
LINE
8
0
10
246
20
-109.4
11
260
21
-109.4
0
LINE
8
0
10
260
20
-109.4
11
260
21
-102.4
0
LINE
8
0
10
260
20
-102.4
11
246
21
-102.4
0
LINE
8
0
10
246
20
-102.4
11
246
21
-109.4
0
LINE
8
0
10
260
20
-68.4
11
246
21
-68.4
0
LINE
8
0
10
247.5
20
-125
11
254.5
21
-125
0
LINE
8
0
10
254.5
20
-125
11
254.5
21
-111
0
LINE
8
0
10
254.5
20
-111
11
247.5
21
-111
0
LINE
8
0
10
247.5
20
-111
11
247.5
21
-125
0
LINE
8
0
10
285.5
20
-125
11
292.5
21
-125
0
LINE
8
0
10
292.5
20
-125
11
292.5
21
-111
0
LINE
8
0
10
292.5
20
-111
11
285.5
21
-111
0
LINE
8
0
10
285.5
20
-111
11
285.5
21
-125
0
ENDSEC
0
EOF