0
SECTION
2
HEADER
9
$INSUNITS
70
4
0
ENDSEC
0
SECTION
2
TABLES
0
TABLE
2
LTYPE
0
LTYPE
72
65
70
64
2
CONTINUOUS
3
______
73
0
40
0
0
ENDTAB
0
TABLE
2
LAYER
0
ENDTAB
0
ENDSEC
0
SECTION
2
ENTITIES
0
LINE
8
0
10
27.5
20
-106
11
42.5
21
-106
0
LINE
8
0
10
42.5
20
-106
11
42.5
21
-94
0
LINE
8
0
10
42.5
20
-94
11
27.5
21
-94
0
LINE
8
0
10
27.5
20
-94
11
27.5
21
-106
0
LINE
8
0
10
27.5
20
-89
11
42.5
21
-89
0
LINE
8
0
10
42.5
20
-89
11
42.5
21
-77
0
LINE
8
0
10
42.5
20
-77
11
27.5
21
-77
0
LINE
8
0
10
27.5
20
-77
11
27.5
21
-89
0
LINE
8
0
10
27.5
20
-72
11
42.5
21
-72
0
LINE
8
0
10
42.5
20
-72
11
42.5
21
-60
0
LINE
8
0
10
42.5
20
-60
11
27.5
21
-60
0
LINE
8
0
10
27.5
20
-60
11
27.5
21
-72
0
LINE
8
0
10
27.5
20
-55
11
42.5
21
-55
0
LINE
8
0
10
42.5
20
-55
11
42.5
21
-43
0
LINE
8
0
10
42.5
20
-43
11
27.5
21
-43
0
LINE
8
0
10
27.5
20
-43
11
27.5
21
-55
0
LINE
8
0
10
27.5
20
-38
11
42.5
21
-38
0
LINE
8
0
10
42.5
20
-38
11
42.5
21
-26
0
LINE
8
0
10
42.5
20
-26
11
27.5
21
-26
0
LINE
8
0
10
27.5
20
-26
11
27.5
21
-38
0
LINE
8
0
10
50
20
-106
11
65
21
-106
0
LINE
8
0
10
65
20
-106
11
65
21
-94
0
LINE
8
0
10
65
20
-94
11
50
21
-94
0
LINE
8
0
10
50
20
-94
11
50
21
-106
0
LINE
8
0
10
50
20
-89
11
65
21
-89
0
LINE
8
0
10
65
20
-89
11
65
21
-77
0
LINE
8
0
10
65
20
-77
11
50
21
-77
0
LINE
8
0
10
50
20
-77
11
50
21
-89
0
LINE
8
0
10
50
20
-72
11
65
21
-72
0
LINE
8
0
10
65
20
-72
11
65
21
-60
0
LINE
8
0
10
65
20
-60
11
50
21
-60
0
LINE
8
0
10
50
20
-60
11
50
21
-72
0
LINE
8
0
10
50
20
-55
11
65
21
-55
0
LINE
8
0
10
65
20
-55
11
65
21
-43
0
LINE
8
0
10
65
20
-43
11
50
21
-43
0
LINE
8
0
10
50
20
-43
11
50
21
-55
0
LINE
8
0
10
50
20
-38
11
65
21
-38
0
LINE
8
0
10
65
20
-38
11
65
21
-26
0
LINE
8
0
10
65
20
-26
11
50
21
-26
0
LINE
8
0
10
50
20
-26
11
50
21
-38
0
LINE
8
0
10
68
20
-106
11
83
21
-106
0
LINE
8
0
10
83
20
-106
11
83
21
-94
0
LINE
8
0
10
83
20
-94
11
68
21
-94
0
LINE
8
0
10
68
20
-94
11
68
21
-106
0
LINE
8
0
10
68
20
-89
11
83
21
-89
0
LINE
8
0
10
83
20
-89
11
83
21
-77
0
LINE
8
0
10
83
20
-77
11
68
21
-77
0
LINE
8
0
10
68
20
-77
11
68
21
-89
0
LINE
8
0
10
68
20
-72
11
83
21
-72
0
LINE
8
0
10
83
20
-72
11
83
21
-60
0
LINE
8
0
10
83
20
-60
11
68
21
-60
0
LINE
8
0
10
68
20
-60
11
68
21
-72
0
LINE
8
0
10
68
20
-55
11
83
21
-55
0
LINE
8
0
10
83
20
-55
11
83
21
-43
0
LINE
8
0
10
83
20
-43
11
68
21
-43
0
LINE
8
0
10
68
20
-43
11
68
21
-55
0
LINE
8
0
10
68
20
-38
11
83
21
-38
0
LINE
8
0
10
83
20
-38
11
83
21
-26
0
LINE
8
0
10
83
20
-26
11
68
21
-26
0
LINE
8
0
10
68
20
-26
11
68
21
-38
0
LINE
8
0
10
86
20
-106
11
101
21
-106
0
LINE
8
0
10
101
20
-106
11
101
21
-94
0
LINE
8
0
10
101
20
-94
11
86
21
-94
0
LINE
8
0
10
86
20
-94
11
86
21
-106
0
LINE
8
0
10
86
20
-89
11
101
21
-89
0
LINE
8
0
10
101
20
-89
11
101
21
-77
0
LINE
8
0
10
101
20
-77
11
86
21
-77
0
LINE
8
0
10
86
20
-77
11
86
21
-89
0
LINE
8
0
10
86
20
-72
11
101
21
-72
0
LINE
8
0
10
101
20
-72
11
101
21
-60
0
LINE
8
0
10
101
20
-60
11
86
21
-60
0
LINE
8
0
10
86
20
-60
11
86
21
-72
0
LINE
8
0
10
86
20
-55
11
101
21
-55
0
LINE
8
0
10
101
20
-55
11
101
21
-43
0
LINE
8
0
10
101
20
-43
11
86
21
-43
0
LINE
8
0
10
86
20
-43
11
86
21
-55
0
LINE
8
0
10
86
20
-38
11
101
21
-38
0
LINE
8
0
10
101
20
-38
11
101
21
-26
0
LINE
8
0
10
101
20
-26
11
86
21
-26
0
LINE
8
0
10
86
20
-26
11
86
21
-38
0
LINE
8
0
10
104
20
-106
11
119
21
-106
0
LINE
8
0
10
119
20
-106
11
119
21
-94
0
LINE
8
0
10
119
20
-94
11
104
21
-94
0
LINE
8
0
10
104
20
-94
11
104
21
-106
0
LINE
8
0
10
104
20
-89
11
119
21
-89
0
LINE
8
0
10
119
20
-89
11
119
21
-77
0
LINE
8
0
10
119
20
-77
11
104
21
-77
0
LINE
8
0
10
104
20
-77
11
104
21
-89
0
LINE
8
0
10
104
20
-72
11
119
21
-72
0
LINE
8
0
10
119
20
-72
11
119
21
-60
0
LINE
8
0
10
119
20
-60
11
104
21
-60
0
LINE
8
0
10
104
20
-60
11
104
21
-72
0
LINE
8
0
10
104
20
-55
11
119
21
-55
0
LINE
8
0
10
119
20
-55
11
119
21
-43
0
LINE
8
0
10
119
20
-43
11
104
21
-43
0
LINE
8
0
10
104
20
-43
11
104
21
-55
0
LINE
8
0
10
104
20
-38
11
119
21
-38
0
LINE
8
0
10
119
20
-38
11
119
21
-26
0
LINE
8
0
10
119
20
-26
11
104
21
-26
0
LINE
8
0
10
104
20
-26
11
104
21
-38
0
LINE
8
0
10
122
20
-106
11
137
21
-106
0
LINE
8
0
10
137
20
-106
11
137
21
-94
0
LINE
8
0
10
137
20
-94
11
122
21
-94
0
LINE
8
0
10
122
20
-94
11
122
21
-106
0
LINE
8
0
10
122
20
-89
11
137
21
-89
0
LINE
8
0
10
137
20
-89
11
137
21
-77
0
LINE
8
0
10
137
20
-77
11
122
21
-77
0
LINE
8
0
10
122
20
-77
11
122
21
-89
0
LINE
8
0
10
122
20
-72
11
137
21
-72
0
LINE
8
0
10
137
20
-72
11
137
21
-60
0
LINE
8
0
10
137
20
-60
11
122
21
-60
0
LINE
8
0
10
122
20
-60
11
122
21
-72
0
LINE
8
0
10
122
20
-55
11
137
21
-55
0
LINE
8
0
10
137
20
-55
11
137
21
-43
0
LINE
8
0
10
137
20
-43
11
122
21
-43
0
LINE
8
0
10
122
20
-43
11
122
21
-55
0
LINE
8
0
10
122
20
-38
11
137
21
-38
0
LINE
8
0
10
137
20
-38
11
137
21
-26
0
LINE
8
0
10
137
20
-26
11
122
21
-26
0
LINE
8
0
10
122
20
-26
11
122
21
-38
0
LINE
8
0
10
27.5
20
-140
11
42.5
21
-140
0
LINE
8
0
10
42.5
20
-140
11
42.5
21
-128
0
LINE
8
0
10
42.5
20
-128
11
27.5
21
-128
0
LINE
8
0
10
27.5
20
-128
11
27.5
21
-140
0
LINE
8
0
10
27.5
20
-123
11
42.5
21
-123
0
LINE
8
0
10
42.5
20
-123
11
42.5
21
-111
0
LINE
8
0
10
42.5
20
-111
11
27.5
21
-111
0
LINE
8
0
10
27.5
20
-111
11
27.5
21
-123
0
LINE
8
0
10
54.5
20
-140
11
69.5
21
-140
0
LINE
8
0
10
69.5
20
-140
11
69.5
21
-128
0
LINE
8
0
10
69.5
20
-128
11
54.5
21
-128
0
LINE
8
0
10
54.5
20
-128
11
54.5
21
-140
0
LINE
8
0
10
54.5
20
-123
11
69.5
21
-123
0
LINE
8
0
10
69.5
20
-123
11
69.5
21
-111
0
LINE
8
0
10
69.5
20
-111
11
54.5
21
-111
0
LINE
8
0
10
54.5
20
-111
11
54.5
21
-123
0
LINE
8
0
10
81.5
20
-140
11
96.5
21
-140
0
LINE
8
0
10
96.5
20
-140
11
96.5
21
-128
0
LINE
8
0
10
96.5
20
-128
11
81.5
21
-128
0
LINE
8
0
10
81.5
20
-128
11
81.5
21
-140
0
LINE
8
0
10
81.5
20
-123
11
96.5
21
-123
0
LINE
8
0
10
96.5
20
-123
11
96.5
21
-111
0
LINE
8
0
10
96.5
20
-111
11
81.5
21
-111
0
LINE
8
0
10
81.5
20
-111
11
81.5
21
-123
0
LINE
8
0
10
144.5
20
-97.5
11
159.5
21
-97.5
0
LINE
8
0
10
159.5
20
-97.5
11
159.5
21
-85.5
0
LINE
8
0
10
159.5
20
-85.5
11
144.5
21
-85.5
0
LINE
8
0
10
144.5
20
-85.5
11
144.5
21
-97.5
0
LINE
8
0
10
144.5
20
-63.5
11
159.5
21
-63.5
0
LINE
8
0
10
159.5
20
-63.5
11
159.5
21
-51.5
0
LINE
8
0
10
159.5
20
-51.5
11
144.5
21
-51.5
0
LINE
8
0
10
144.5
20
-51.5
11
144.5
21
-63.5
0
LINE
8
0
10
144.5
20
-38
11
159.5
21
-38
0
LINE
8
0
10
159.5
20
-38
11
159.5
21
-26
0
LINE
8
0
10
159.5
20
-26
11
144.5
21
-26
0
LINE
8
0
10
144.5
20
-26
11
144.5
21
-38
0
LINE
8
0
10
126.5
20
-123
11
141.5
21
-123
0
LINE
8
0
10
141.5
20
-123
11
141.5
21
-111
0
LINE
8
0
10
141.5
20
-111
11
126.5
21
-111
0
LINE
8
0
10
126.5
20
-111
11
126.5
21
-123
0
LINE
8
0
10
339
20
-106
11
354
21
-106
0
LINE
8
0
10
354
20
-106
11
354
21
-94
0
LINE
8
0
10
354
20
-94
11
339
21
-94
0
LINE
8
0
10
339
20
-94
11
339
21
-106
0
LINE
8
0
10
339
20
-89
11
354
21
-89
0
LINE
8
0
10
354
20
-89
11
354
21
-77
0
LINE
8
0
10
354
20
-77
11
339
21
-77
0
LINE
8
0
10
339
20
-77
11
339
21
-89
0
LINE
8
0
10
339
20
-72
11
354
21
-72
0
LINE
8
0
10
354
20
-72
11
354
21
-60
0
LINE
8
0
10
354
20
-60
11
339
21
-60
0
LINE
8
0
10
339
20
-60
11
339
21
-72
0
LINE
8
0
10
339
20
-55
11
354
21
-55
0
LINE
8
0
10
354
20
-55
11
354
21
-43
0
LINE
8
0
10
354
20
-43
11
339
21
-43
0
LINE
8
0
10
339
20
-43
11
339
21
-55
0
LINE
8
0
10
339
20
-38
11
354
21
-38
0
LINE
8
0
10
354
20
-38
11
354
21
-26
0
LINE
8
0
10
354
20
-26
11
339
21
-26
0
LINE
8
0
10
339
20
-26
11
339
21
-38
0
LINE
8
0
10
321
20
-106
11
336
21
-106
0
LINE
8
0
10
336
20
-106
11
336
21
-94
0
LINE
8
0
10
336
20
-94
11
321
21
-94
0
LINE
8
0
10
321
20
-94
11
321
21
-106
0
LINE
8
0
10
321
20
-89
11
336
21
-89
0
LINE
8
0
10
336
20
-89
11
336
21
-77
0
LINE
8
0
10
336
20
-77
11
321
21
-77
0
LINE
8
0
10
321
20
-77
11
321
21
-89
0
LINE
8
0
10
321
20
-72
11
336
21
-72
0
LINE
8
0
10
336
20
-72
11
336
21
-60
0
LINE
8
0
10
336
20
-60
11
321
21
-60
0
LINE
8
0
10
321
20
-60
11
321
21
-72
0
LINE
8
0
10
321
20
-55
11
336
21
-55
0
LINE
8
0
10
336
20
-55
11
336
21
-43
0
LINE
8
0
10
336
20
-43
11
321
21
-43
0
LINE
8
0
10
321
20
-43
11
321
21
-55
0
LINE
8
0
10
321
20
-38
11
336
21
-38
0
LINE
8
0
10
336
20
-38
11
336
21
-26
0
LINE
8
0
10
336
20
-26
11
321
21
-26
0
LINE
8
0
10
321
20
-26
11
321
21
-38
0
LINE
8
0
10
303
20
-106
11
318
21
-106
0
LINE
8
0
10
318
20
-106
11
318
21
-94
0
LINE
8
0
10
318
20
-94
11
303
21
-94
0
LINE
8
0
10
303
20
-94
11
303
21
-106
0
LINE
8
0
10
303
20
-89
11
318
21
-89
0
LINE
8
0
10
318
20
-89
11
318
21
-77
0
LINE
8
0
10
318
20
-77
11
303
21
-77
0
LINE
8
0
10
303
20
-77
11
303
21
-89
0
LINE
8
0
10
303
20
-72
11
318
21
-72
0
LINE
8
0
10
318
20
-72
11
318
21
-60
0
LINE
8
0
10
318
20
-60
11
303
21
-60
0
LINE
8
0
10
303
20
-60
11
303
21
-72
0
LINE
8
0
10
303
20
-55
11
318
21
-55
0
LINE
8
0
10
318
20
-55
11
318
21
-43
0
LINE
8
0
10
318
20
-43
11
303
21
-43
0
LINE
8
0
10
303
20
-43
11
303
21
-55
0
LINE
8
0
10
303
20
-38
11
318
21
-38
0
LINE
8
0
10
318
20
-38
11
318
21
-26
0
LINE
8
0
10
318
20
-26
11
303
21
-26
0
LINE
8
0
10
303
20
-26
11
303
21
-38
0
LINE
8
0
10
285
20
-106
11
300
21
-106
0
LINE
8
0
10
300
20
-106
11
300
21
-94
0
LINE
8
0
10
300
20
-94
11
285
21
-94
0
LINE
8
0
10
285
20
-94
11
285
21
-106
0
LINE
8
0
10
285
20
-89
11
300
21
-89
0
LINE
8
0
10
300
20
-89
11
300
21
-77
0
LINE
8
0
10
300
20
-77
11
285
21
-77
0
LINE
8
0
10
285
20
-77
11
285
21
-89
0
LINE
8
0
10
285
20
-72
11
300
21
-72
0
LINE
8
0
10
300
20
-72
11
300
21
-60
0
LINE
8
0
10
300
20
-60
11
285
21
-60
0
LINE
8
0
10
285
20
-60
11
285
21
-72
0
LINE
8
0
10
285
20
-55
11
300
21
-55
0
LINE
8
0
10
300
20
-55
11
300
21
-43
0
LINE
8
0
10
300
20
-43
11
285
21
-43
0
LINE
8
0
10
285
20
-43
11
285
21
-55
0
LINE
8
0
10
285
20
-38
11
300
21
-38
0
LINE
8
0
10
300
20
-38
11
300
21
-26
0
LINE
8
0
10
300
20
-26
11
285
21
-26
0
LINE
8
0
10
285
20
-26
11
285
21
-38
0
LINE
8
0
10
267
20
-106
11
282
21
-106
0
LINE
8
0
10
282
20
-106
11
282
21
-94
0
LINE
8
0
10
282
20
-94
11
267
21
-94
0
LINE
8
0
10
267
20
-94
11
267
21
-106
0
LINE
8
0
10
267
20
-89
11
282
21
-89
0
LINE
8
0
10
282
20
-89
11
282
21
-77
0
LINE
8
0
10
282
20
-77
11
267
21
-77
0
LINE
8
0
10
267
20
-77
11
267
21
-89
0
LINE
8
0
10
267
20
-72
11
282
21
-72
0
LINE
8
0
10
282
20
-72
11
282
21
-60
0
LINE
8
0
10
282
20
-60
11
267
21
-60
0
LINE
8
0
10
267
20
-60
11
267
21
-72
0
LINE
8
0
10
267
20
-55
11
282
21
-55
0
LINE
8
0
10
282
20
-55
11
282
21
-43
0
LINE
8
0
10
282
20
-43
11
267
21
-43
0
LINE
8
0
10
267
20
-43
11
267
21
-55
0
LINE
8
0
10
267
20
-38
11
282
21
-38
0
LINE
8
0
10
282
20
-38
11
282
21
-26
0
LINE
8
0
10
282
20
-26
11
267
21
-26
0
LINE
8
0
10
267
20
-26
11
267
21
-38
0
LINE
8
0
10
357
20
-140
11
372
21
-140
0
LINE
8
0
10
372
20
-140
11
372
21
-128
0
LINE
8
0
10
372
20
-128
11
357
21
-128
0
LINE
8
0
10
357
20
-128
11
357
21
-140
0
LINE
8
0
10
357
20
-123
11
372
21
-123
0
LINE
8
0
10
372
20
-123
11
372
21
-111
0
LINE
8
0
10
372
20
-111
11
357
21
-111
0
LINE
8
0
10
357
20
-111
11
357
21
-123
0
LINE
8
0
10
339
20
-140
11
354
21
-140
0
LINE
8
0
10
354
20
-140
11
354
21
-128
0
LINE
8
0
10
354
20
-128
11
339
21
-128
0
LINE
8
0
10
339
20
-128
11
339
21
-140
0
LINE
8
0
10
339
20
-123
11
354
21
-123
0
LINE
8
0
10
354
20
-123
11
354
21
-111
0
LINE
8
0
10
354
20
-111
11
339
21
-111
0
LINE
8
0
10
339
20
-111
11
339
21
-123
0
LINE
8
0
10
321
20
-140
11
336
21
-140
0
LINE
8
0
10
336
20
-140
11
336
21
-128
0
LINE
8
0
10
336
20
-128
11
321
21
-128
0
LINE
8
0
10
321
20
-128
11
321
21
-140
0
LINE
8
0
10
321
20
-123
11
336
21
-123
0
LINE
8
0
10
336
20
-123
11
336
21
-111
0
LINE
8
0
10
336
20
-111
11
321
21
-111
0
LINE
8
0
10
321
20
-111
11
321
21
-123
0
LINE
8
0
10
244.5
20
-97.5
11
259.5
21
-97.5
0
LINE
8
0
10
259.5
20
-97.5
11
259.5
21
-85.5
0
LINE
8
0
10
259.5
20
-85.5
11
244.5
21
-85.5
0
LINE
8
0
10
244.5
20
-85.5
11
244.5
21
-97.5
0
LINE
8
0
10
244.5
20
-63.5
11
259.5
21
-63.5
0
LINE
8
0
10
259.5
20
-63.5
11
259.5
21
-51.5
0
LINE
8
0
10
259.5
20
-51.5
11
244.5
21
-51.5
0
LINE
8
0
10
244.5
20
-51.5
11
244.5
21
-63.5
0
LINE
8
0
10
244.5
20
-38
11
259.5
21
-38
0
LINE
8
0
10
259.5
20
-38
11
259.5
21
-26
0
LINE
8
0
10
259.5
20
-26
11
244.5
21
-26
0
LINE
8
0
10
244.5
20
-26
11
244.5
21
-38
0
LINE
8
0
10
303
20
-123
11
318
21
-123
0
LINE
8
0
10
318
20
-123
11
318
21
-111
0
LINE
8
0
10
318
20
-111
11
303
21
-111
0
LINE
8
0
10
303
20
-111
11
303
21
-123
0
LINE
8
0
10
262.5
20
-123
11
277.5
21
-123
0
LINE
8
0
10
277.5
20
-123
11
277.5
21
-111
0
LINE
8
0
10
277.5
20
-111
11
262.5
21
-111
0
LINE
8
0
10
262.5
20
-111
11
262.5
21
-123
0
LINE
8
0
10
357
20
-106
11
372
21
-106
0
LINE
8
0
10
372
20
-106
11
372
21
-94
0
LINE
8
0
10
372
20
-94
11
357
21
-94
0
LINE
8
0
10
357
20
-94
11
357
21
-106
0
LINE
8
0
10
357
20
-89
11
372
21
-89
0
LINE
8
0
10
372
20
-89
11
372
21
-77
0
LINE
8
0
10
372
20
-77
11
357
21
-77
0
LINE
8
0
10
357
20
-77
11
357
21
-89
0
LINE
8
0
10
357
20
-72
11
372
21
-72
0
LINE
8
0
10
372
20
-72
11
372
21
-60
0
LINE
8
0
10
372
20
-60
11
357
21
-60
0
LINE
8
0
10
357
20
-60
11
357
21
-72
0
LINE
8
0
10
357
20
-55
11
372
21
-55
0
LINE
8
0
10
372
20
-55
11
372
21
-43
0
LINE
8
0
10
372
20
-43
11
357
21
-43
0
LINE
8
0
10
357
20
-43
11
357
21
-55
0
LINE
8
0
10
357
20
-38
11
372
21
-38
0
LINE
8
0
10
372
20
-38
11
372
21
-26
0
LINE
8
0
10
372
20
-26
11
357
21
-26
0
LINE
8
0
10
357
20
-26
11
357
21
-38
0
LINE
8
0
10
379.5
20
-140
11
394.5
21
-140
0
LINE
8
0
10
394.5
20
-140
11
394.5
21
-128
0
LINE
8
0
10
394.5
20
-128
11
379.5
21
-128
0
LINE
8
0
10
379.5
20
-128
11
379.5
21
-140
0
LINE
8
0
10
379.5
20
-123
11
394.5
21
-123
0
LINE
8
0
10
394.5
20
-123
11
394.5
21
-111
0
LINE
8
0
10
394.5
20
-111
11
379.5
21
-111
0
LINE
8
0
10
379.5
20
-111
11
379.5
21
-123
0
LINE
8
0
10
379.5
20
-106
11
394.5
21
-106
0
LINE
8
0
10
394.5
20
-106
11
394.5
21
-94
0
LINE
8
0
10
394.5
20
-94
11
379.5
21
-94
0
LINE
8
0
10
379.5
20
-94
11
379.5
21
-106
0
LINE
8
0
10
379.5
20
-89
11
394.5
21
-89
0
LINE
8
0
10
394.5
20
-89
11
394.5
21
-77
0
LINE
8
0
10
394.5
20
-77
11
379.5
21
-77
0
LINE
8
0
10
379.5
20
-77
11
379.5
21
-89
0
LINE
8
0
10
379.5
20
-72
11
394.5
21
-72
0
LINE
8
0
10
394.5
20
-72
11
394.5
21
-60
0
LINE
8
0
10
394.5
20
-60
11
379.5
21
-60
0
LINE
8
0
10
379.5
20
-60
11
379.5
21
-72
0
LINE
8
0
10
379.5
20
-55
11
394.5
21
-55
0
LINE
8
0
10
394.5
20
-55
11
394.5
21
-43
0
LINE
8
0
10
394.5
20
-43
11
379.5
21
-43
0
LINE
8
0
10
379.5
20
-43
11
379.5
21
-55
0
LINE
8
0
10
379.5
20
-38
11
394.5
21
-38
0
LINE
8
0
10
394.5
20
-38
11
394.5
21
-26
0
LINE
8
0
10
394.5
20
-26
11
379.5
21
-26
0
LINE
8
0
10
379.5
20
-26
11
379.5
21
-38
0
ENDSEC
0
EOF