0
SECTION
2
HEADER
9
$INSUNITS
70
4
0
ENDSEC
0
SECTION
2
TABLES
0
TABLE
2
LTYPE
0
LTYPE
72
65
70
64
2
CONTINUOUS
3
______
73
0
40
0
0
ENDTAB
0
TABLE
2
LAYER
0
ENDTAB
0
ENDSEC
0
SECTION
2
ENTITIES
0
LINE
8
0
10
21.5
20
-140.5
11
21.5
21
-25.5
0
LINE
8
0
10
23.5
20
-23.5
11
184
21
-23.5
0
LINE
8
0
10
104.5
20
-125.5
11
184
21
-125.5
0
LINE
8
0
10
102.5
20
-127.5
11
102.5
21
-140.5
0
LINE
8
0
10
100.5
20
-142.5
11
23.5
21
-142.5
0
ARC
8
0
10
23.5
20
-25.5
40
2
50
90
51
180
0
ARC
8
0
10
104.5
20
-127.5
40
2
50
90
51
180
0
ARC
8
0
10
100.5
20
-140.5
40
2
50
270
51
0
0
ARC
8
0
10
23.5
20
-140.5
40
2
50
180
51
270
0
LINE
8
0
10
186
20
-123.5
11
186
21
-25.5
0
ARC
8
0
10
184
20
-123.5
40
2
50
270
51
0
0
ARC
8
0
10
184
20
-25.5
40
2
50
0
51
90
0
LINE
8
0
10
27.5
20
-106
11
42.5
21
-106
0
LINE
8
0
10
42.5
20
-106
11
42.5
21
-94
0
LINE
8
0
10
42.5
20
-94
11
27.5
21
-94
0
LINE
8
0
10
27.5
20
-94
11
27.5
21
-106
0
LINE
8
0
10
27.5
20
-89
11
42.5
21
-89
0
LINE
8
0
10
42.5
20
-89
11
42.5
21
-77
0
LINE
8
0
10
42.5
20
-77
11
27.5
21
-77
0
LINE
8
0
10
27.5
20
-77
11
27.5
21
-89
0
LINE
8
0
10
27.5
20
-72
11
42.5
21
-72
0
LINE
8
0
10
42.5
20
-72
11
42.5
21
-60
0
LINE
8
0
10
42.5
20
-60
11
27.5
21
-60
0
LINE
8
0
10
27.5
20
-60
11
27.5
21
-72
0
LINE
8
0
10
27.5
20
-55
11
42.5
21
-55
0
LINE
8
0
10
42.5
20
-55
11
42.5
21
-43
0
LINE
8
0
10
42.5
20
-43
11
27.5
21
-43
0
LINE
8
0
10
27.5
20
-43
11
27.5
21
-55
0
LINE
8
0
10
27.5
20
-38
11
42.5
21
-38
0
LINE
8
0
10
42.5
20
-38
11
42.5
21
-26
0
LINE
8
0
10
42.5
20
-26
11
27.5
21
-26
0
LINE
8
0
10
27.5
20
-26
11
27.5
21
-38
0
LINE
8
0
10
50
20
-106
11
65
21
-106
0
LINE
8
0
10
65
20
-106
11
65
21
-94
0
LINE
8
0
10
65
20
-94
11
50
21
-94
0
LINE
8
0
10
50
20
-94
11
50
21
-106
0
LINE
8
0
10
50
20
-89
11
65
21
-89
0
LINE
8
0
10
65
20
-89
11
65
21
-77
0
LINE
8
0
10
65
20
-77
11
50
21
-77
0
LINE
8
0
10
50
20
-77
11
50
21
-89
0
LINE
8
0
10
50
20
-72
11
65
21
-72
0
LINE
8
0
10
65
20
-72
11
65
21
-60
0
LINE
8
0
10
65
20
-60
11
50
21
-60
0
LINE
8
0
10
50
20
-60
11
50
21
-72
0
LINE
8
0
10
50
20
-55
11
65
21
-55
0
LINE
8
0
10
65
20
-55
11
65
21
-43
0
LINE
8
0
10
65
20
-43
11
50
21
-43
0
LINE
8
0
10
50
20
-43
11
50
21
-55
0
LINE
8
0
10
50
20
-38
11
65
21
-38
0
LINE
8
0
10
65
20
-38
11
65
21
-26
0
LINE
8
0
10
65
20
-26
11
50
21
-26
0
LINE
8
0
10
50
20
-26
11
50
21
-38
0
LINE
8
0
10
68
20
-106
11
83
21
-106
0
LINE
8
0
10
83
20
-106
11
83
21
-94
0
LINE
8
0
10
83
20
-94
11
68
21
-94
0
LINE
8
0
10
68
20
-94
11
68
21
-106
0
LINE
8
0
10
68
20
-89
11
83
21
-89
0
LINE
8
0
10
83
20
-89
11
83
21
-77
0
LINE
8
0
10
83
20
-77
11
68
21
-77
0
LINE
8
0
10
68
20
-77
11
68
21
-89
0
LINE
8
0
10
68
20
-72
11
83
21
-72
0
LINE
8
0
10
83
20
-72
11
83
21
-60
0
LINE
8
0
10
83
20
-60
11
68
21
-60
0
LINE
8
0
10
68
20
-60
11
68
21
-72
0
LINE
8
0
10
68
20
-55
11
83
21
-55
0
LINE
8
0
10
83
20
-55
11
83
21
-43
0
LINE
8
0
10
83
20
-43
11
68
21
-43
0
LINE
8
0
10
68
20
-43
11
68
21
-55
0
LINE
8
0
10
68
20
-38
11
83
21
-38
0
LINE
8
0
10
83
20
-38
11
83
21
-26
0
LINE
8
0
10
83
20
-26
11
68
21
-26
0
LINE
8
0
10
68
20
-26
11
68
21
-38
0
LINE
8
0
10
86
20
-106
11
101
21
-106
0
LINE
8
0
10
101
20
-106
11
101
21
-94
0
LINE
8
0
10
101
20
-94
11
86
21
-94
0
LINE
8
0
10
86
20
-94
11
86
21
-106
0
LINE
8
0
10
86
20
-89
11
101
21
-89
0
LINE
8
0
10
101
20
-89
11
101
21
-77
0
LINE
8
0
10
101
20
-77
11
86
21
-77
0
LINE
8
0
10
86
20
-77
11
86
21
-89
0
LINE
8
0
10
86
20
-72
11
101
21
-72
0
LINE
8
0
10
101
20
-72
11
101
21
-60
0
LINE
8
0
10
101
20
-60
11
86
21
-60
0
LINE
8
0
10
86
20
-60
11
86
21
-72
0
LINE
8
0
10
86
20
-55
11
101
21
-55
0
LINE
8
0
10
101
20
-55
11
101
21
-43
0
LINE
8
0
10
101
20
-43
11
86
21
-43
0
LINE
8
0
10
86
20
-43
11
86
21
-55
0
LINE
8
0
10
86
20
-38
11
101
21
-38
0
LINE
8
0
10
101
20
-38
11
101
21
-26
0
LINE
8
0
10
101
20
-26
11
86
21
-26
0
LINE
8
0
10
86
20
-26
11
86
21
-38
0
LINE
8
0
10
104
20
-106
11
119
21
-106
0
LINE
8
0
10
119
20
-106
11
119
21
-94
0
LINE
8
0
10
119
20
-94
11
104
21
-94
0
LINE
8
0
10
104
20
-94
11
104
21
-106
0
LINE
8
0
10
104
20
-89
11
119
21
-89
0
LINE
8
0
10
119
20
-89
11
119
21
-77
0
LINE
8
0
10
119
20
-77
11
104
21
-77
0
LINE
8
0
10
104
20
-77
11
104
21
-89
0
LINE
8
0
10
104
20
-72
11
119
21
-72
0
LINE
8
0
10
119
20
-72
11
119
21
-60
0
LINE
8
0
10
119
20
-60
11
104
21
-60
0
LINE
8
0
10
104
20
-60
11
104
21
-72
0
LINE
8
0
10
104
20
-55
11
119
21
-55
0
LINE
8
0
10
119
20
-55
11
119
21
-43
0
LINE
8
0
10
119
20
-43
11
104
21
-43
0
LINE
8
0
10
104
20
-43
11
104
21
-55
0
LINE
8
0
10
104
20
-38
11
119
21
-38
0
LINE
8
0
10
119
20
-38
11
119
21
-26
0
LINE
8
0
10
119
20
-26
11
104
21
-26
0
LINE
8
0
10
104
20
-26
11
104
21
-38
0
LINE
8
0
10
122
20
-106
11
137
21
-106
0
LINE
8
0
10
137
20
-106
11
137
21
-94
0
LINE
8
0
10
137
20
-94
11
122
21
-94
0
LINE
8
0
10
122
20
-94
11
122
21
-106
0
LINE
8
0
10
122
20
-89
11
137
21
-89
0
LINE
8
0
10
137
20
-89
11
137
21
-77
0
LINE
8
0
10
137
20
-77
11
122
21
-77
0
LINE
8
0
10
122
20
-77
11
122
21
-89
0
LINE
8
0
10
122
20
-72
11
137
21
-72
0
LINE
8
0
10
137
20
-72
11
137
21
-60
0
LINE
8
0
10
137
20
-60
11
122
21
-60
0
LINE
8
0
10
122
20
-60
11
122
21
-72
0
LINE
8
0
10
122
20
-55
11
137
21
-55
0
LINE
8
0
10
137
20
-55
11
137
21
-43
0
LINE
8
0
10
137
20
-43
11
122
21
-43
0
LINE
8
0
10
122
20
-43
11
122
21
-55
0
LINE
8
0
10
122
20
-38
11
137
21
-38
0
LINE
8
0
10
137
20
-38
11
137
21
-26
0
LINE
8
0
10
137
20
-26
11
122
21
-26
0
LINE
8
0
10
122
20
-26
11
122
21
-38
0
LINE
8
0
10
27.5
20
-140
11
42.5
21
-140
0
LINE
8
0
10
42.5
20
-140
11
42.5
21
-128
0
LINE
8
0
10
42.5
20
-128
11
27.5
21
-128
0
LINE
8
0
10
27.5
20
-128
11
27.5
21
-140
0
LINE
8
0
10
27.5
20
-123
11
42.5
21
-123
0
LINE
8
0
10
42.5
20
-123
11
42.5
21
-111
0
LINE
8
0
10
42.5
20
-111
11
27.5
21
-111
0
LINE
8
0
10
27.5
20
-111
11
27.5
21
-123
0
LINE
8
0
10
54.5
20
-140
11
69.5
21
-140
0
LINE
8
0
10
69.5
20
-140
11
69.5
21
-128
0
LINE
8
0
10
69.5
20
-128
11
54.5
21
-128
0
LINE
8
0
10
54.5
20
-128
11
54.5
21
-140
0
LINE
8
0
10
54.5
20
-123
11
69.5
21
-123
0
LINE
8
0
10
69.5
20
-123
11
69.5
21
-111
0
LINE
8
0
10
69.5
20
-111
11
54.5
21
-111
0
LINE
8
0
10
54.5
20
-111
11
54.5
21
-123
0
LINE
8
0
10
81.5
20
-140
11
96.5
21
-140
0
LINE
8
0
10
96.5
20
-140
11
96.5
21
-128
0
LINE
8
0
10
96.5
20
-128
11
81.5
21
-128
0
LINE
8
0
10
81.5
20
-128
11
81.5
21
-140
0
LINE
8
0
10
81.5
20
-123
11
96.5
21
-123
0
LINE
8
0
10
96.5
20
-123
11
96.5
21
-111
0
LINE
8
0
10
96.5
20
-111
11
81.5
21
-111
0
LINE
8
0
10
81.5
20
-111
11
81.5
21
-123
0
LINE
8
0
10
144.5
20
-97.5
11
159.5
21
-97.5
0
LINE
8
0
10
159.5
20
-97.5
11
159.5
21
-85.5
0
LINE
8
0
10
159.5
20
-85.5
11
144.5
21
-85.5
0
LINE
8
0
10
144.5
20
-85.5
11
144.5
21
-97.5
0
LINE
8
0
10
144.5
20
-63.5
11
159.5
21
-63.5
0
LINE
8
0
10
159.5
20
-63.5
11
159.5
21
-51.5
0
LINE
8
0
10
159.5
20
-51.5
11
144.5
21
-51.5
0
LINE
8
0
10
144.5
20
-51.5
11
144.5
21
-63.5
0
LINE
8
0
10
144.5
20
-38
11
159.5
21
-38
0
LINE
8
0
10
159.5
20
-38
11
159.5
21
-26
0
LINE
8
0
10
159.5
20
-26
11
144.5
21
-26
0
LINE
8
0
10
144.5
20
-26
11
144.5
21
-38
0
LINE
8
0
10
126.5
20
-123
11
141.5
21
-123
0
LINE
8
0
10
141.5
20
-123
11
141.5
21
-111
0
LINE
8
0
10
141.5
20
-111
11
126.5
21
-111
0
LINE
8
0
10
126.5
20
-111
11
126.5
21
-123
0
ENDSEC
0
EOF